M48
; DRILL file {KiCad 9.0.1} date 2025-04-10T23:57:52+0300
; FORMAT={-:-/ absolute / metric / decimal}
; #@! TF.CreationDate,2025-04-10T23:57:52+03:00
; #@! TF.GenerationSoftware,Kicad,Pcbnew,9.0.1
; #@! TF.FileFunction,Plated,1,2,PTH
FMAT,2
METRIC
; #@! TA.AperFunction,Plated,PTH,ViaDrill
T1C0.100
; #@! TA.AperFunction,Plated,PTH,ViaDrill
T2C0.300
; #@! TA.AperFunction,Plated,PTH,ComponentDrill
T3C0.700
; #@! TA.AperFunction,Plated,PTH,ComponentDrill
T4C0.750
; #@! TA.AperFunction,Plated,PTH,ComponentDrill
T5C0.800
; #@! TA.AperFunction,Plated,PTH,ComponentDrill
T6C1.000
%
G90
G05
T1
X50.165Y-72.39
X50.8Y-75.05
X51.435Y-97.155
X54.012Y-76.163
X55.88Y-86.36
X56.515Y-43.18
X60.96Y-82.782
X62.865Y-76.835
X62.865Y-78.105
X63.147Y-80.006
X63.5Y-38.1
X63.5Y-74.295
X63.5Y-95.25
X64.638Y-78.74
X65.405Y-92.71
X65.405Y-95.885
X68.58Y-109.22
X70.485Y-93.98
X70.556Y-90.241
X71.12Y-93.345
X71.755Y-93.98
X72.39Y-108.585
X72.39Y-113.03
X73.019Y-108.579
X73.025Y-100.33
X73.66Y-68.58
X73.66Y-75.565
X73.66Y-94.615
X73.699Y-99.06
X74.295Y-93.98
X74.295Y-100.965
X75.565Y-83.82
X75.565Y-106.045
X76.588Y-93.98
X76.588Y-104.53
X76.835Y-108.585
X76.835Y-114.935
X77.433Y-66.638
X77.739Y-50.316
X77.889Y-48.26
X78.176Y-95.321
X78.29Y-55.88
X79.241Y-43.18
X79.375Y-70.619
X79.375Y-80.01
X79.375Y-99.695
X80.01Y-92.71
X81.28Y-71.12
X81.28Y-92.71
X81.73Y-66.04
X81.915Y-95.25
X81.915Y-99.06
X81.915Y-115.57
X82.55Y-85.725
X82.55Y-108.585
X83.185Y-99.06
X83.364Y-47.159
X83.37Y-50.8
X83.37Y-51.693
X83.82Y-86.36
X83.82Y-109.22
X84.455Y-79.375
X84.459Y-65.409
X85.09Y-92.71
X85.587Y-107.412
X85.725Y-126.365
X86.36Y-102.75
X86.36Y-124.46
X86.81Y-65.937
X86.924Y-100.259
X86.995Y-97.79
X86.995Y-106.045
X87.173Y-67.767
X87.173Y-102.413
X87.63Y-117.475
X87.63Y-124.46
X87.701Y-93.416
X87.948Y-77.788
X87.979Y-66.04
X88.265Y-106.045
X88.265Y-124.46
X88.265Y-127.0
X88.9Y-97.79
X88.9Y-124.46
X89.535Y-109.22
X89.535Y-116.205
X89.535Y-124.46
X90.871Y-98.359
X91.44Y-96.52
X92.075Y-109.855
X92.075Y-125.095
X93.218Y-82.804
X93.345Y-97.155
X93.345Y-99.695
X93.345Y-102.87
X93.345Y-107.95
X93.345Y-109.855
X93.345Y-125.095
X93.472Y-85.344
X93.98Y-86.36
X93.98Y-109.22
X93.98Y-125.095
X94.298Y-89.218
X95.639Y-112.641
X95.885Y-115.57
X95.885Y-116.84
X95.885Y-118.745
X95.97Y-106.68
X96.274Y-113.276
X96.417Y-71.57
X96.52Y-76.2
X96.574Y-86.942
X97.155Y-104.775
X97.155Y-112.395
X97.155Y-116.84
X97.155Y-118.745
X97.201Y-86.801
X97.519Y-86.483
X97.933Y-88.534
X98.039Y-90.556
X98.298Y-87.376
X98.425Y-94.615
X98.425Y-105.41
X99.61Y-102.235
X99.695Y-88.9
X99.695Y-90.062
X99.695Y-92.71
X99.695Y-102.87
X99.962Y-108.585
X100.076Y-124.714
X100.161Y-116.205
X100.449Y-105.983
X100.512Y-107.315
X100.512Y-109.855
X101.6Y-102.87
X102.05Y-96.52
X102.235Y-92.075
X102.235Y-99.06
X102.235Y-107.95
X102.235Y-109.855
X102.235Y-117.475
X102.87Y-90.17
X102.87Y-93.345
X102.87Y-106.68
X102.87Y-110.49
X103.039Y-78.284
X103.078Y-124.929
X103.32Y-110.49
X103.505Y-92.71
X103.505Y-109.855
X103.632Y-90.17
X103.753Y-97.414
X104.107Y-84.631
X104.376Y-110.091
X104.775Y-99.695
X104.775Y-108.585
X105.156Y-90.17
X105.41Y-91.44
X105.41Y-92.71
X105.41Y-110.49
X105.952Y-91.44
X106.045Y-88.265
X106.172Y-97.79
X106.23Y-88.9
X107.13Y-78.74
X107.13Y-91.44
X107.265Y-88.951
X107.315Y-92.71
X107.315Y-106.68
X107.442Y-97.79
X107.95Y-82.353
X107.95Y-87.63
X107.95Y-104.14
X107.95Y-125.222
X108.162Y-85.664
X108.585Y-116.205
X109.22Y-78.74
X109.22Y-83.82
X109.22Y-106.045
X109.22Y-107.315
X109.855Y-88.265
X110.561Y-105.085
X110.659Y-93.98
X111.21Y-116.452
X111.76Y-78.74
X111.76Y-88.265
X113.15Y-92.075
X113.75Y-110.236
X113.911Y-119.769
X114.046Y-100.076
X114.3Y-92.71
X114.3Y-107.315
X114.3Y-117.99
X114.3Y-124.46
X114.654Y-79.094
X115.57Y-103.505
X115.69Y-116.84
X115.824Y-85.598
X116.84Y-104.14
X116.84Y-125.095
X117.856Y-99.822
X118.11Y-92.71
X118.11Y-96.52
X118.11Y-100.33
X118.11Y-118.432
X118.364Y-102.87
X118.567Y-117.653
X119.38Y-91.44
X119.38Y-98.425
X119.524Y-115.426
X120.481Y-119.38
X121.285Y-126.365
X121.92Y-88.9
X121.92Y-95.25
X121.92Y-109.22
X121.92Y-114.75
X121.92Y-116.586
X121.92Y-119.38
X122.174Y-108.712
X122.357Y-123.974
X122.552Y-113.439
X122.682Y-109.22
X122.936Y-97.79
X123.021Y-102.701
X123.19Y-112.268
X123.194Y-120.654
X123.444Y-100.838
X123.512Y-122.571
X123.952Y-98.298
X124.206Y-99.568
X124.284Y-123.514
X124.46Y-96.52
X124.676Y-104.702
X124.714Y-99.822
X125.476Y-107.696
X125.561Y-102.235
X127.254Y-93.218
X127.294Y-84.163
X128.15Y-109.22
X128.27Y-93.472
X128.524Y-107.696
X128.646Y-83.297
X128.905Y-71.755
X129.54Y-71.12
X129.54Y-104.191
X129.54Y-114.3
X129.99Y-66.04
X130.048Y-113.792
X130.09Y-99.822
X130.09Y-100.571
X130.175Y-72.39
X130.556Y-69.85
X130.556Y-109.22
X130.556Y-109.22
X131.064Y-108.204
X131.221Y-112.991
X131.445Y-90.17
X131.53Y-84.174
X132.08Y-66.04
X132.08Y-84.996
X132.715Y-85.09
X132.715Y-90.805
X132.715Y-97.155
X133.35Y-90.805
X133.985Y-92.075
X134.366Y-108.712
X134.62Y-116.39
X134.62Y-120.904
X135.382Y-80.264
X135.382Y-91.186
X135.89Y-91.44
X136.525Y-87.63
X137.089Y-75.494
X137.16Y-85.09
X137.16Y-88.392
X137.16Y-92.71
X137.795Y-88.9
X137.996Y-89.302
X138.43Y-88.265
X138.43Y-89.535
X138.684Y-90.424
X138.938Y-105.156
X139.065Y-85.725
X139.7Y-86.995
X140.162Y-92.695
X140.208Y-105.156
X140.589Y-92.837
X140.97Y-88.265
X141.605Y-95.25
X141.986Y-87.63
X142.24Y-66.04
X142.24Y-86.36
X142.558Y-93.43
X142.748Y-101.346
X143.51Y-86.614
X143.764Y-83.058
X144.272Y-81.894
X144.272Y-94.488
X145.796Y-86.614
X146.05Y-81.915
X146.685Y-89.535
X147.32Y-86.81
X147.32Y-100.33
X147.32Y-115.824
X148.844Y-94.53
X149.098Y-88.9
X149.098Y-94.996
X149.225Y-72.39
X150.622Y-93.726
X150.876Y-92.16
X151.384Y-94.488
X152.4Y-68.58
X153.035Y-64.77
X153.162Y-104.14
X154.151Y-79.577
X154.178Y-80.264
X154.305Y-81.915
X154.94Y-38.1
X154.94Y-79.89
X155.202Y-85.844
X155.448Y-93.472
X155.702Y-102.362
X155.956Y-82.296
X155.956Y-84.582
X155.956Y-85.852
X156.09Y-78.74
X156.844Y-78.739
X156.845Y-94.615
X157.226Y-100.838
X157.48Y-81.28
X157.48Y-83.82
X157.48Y-84.582
X157.734Y-80.518
X157.988Y-85.598
X158.115Y-73.66
X158.123Y-88.765
X158.242Y-83.82
X158.75Y-79.502
X159.456Y-76.271
X159.766Y-104.14
X160.02Y-38.1
X160.02Y-43.18
X160.02Y-93.345
X160.57Y-84.936
X160.782Y-86.36
X161.29Y-76.835
X161.501Y-88.054
X161.675Y-84.492
X161.925Y-74.295
X161.925Y-87.63
X162.269Y-88.319
X162.56Y-84.97
X162.56Y-86.36
X162.56Y-86.995
X162.56Y-93.98
X163.195Y-95.25
X163.195Y-99.695
X163.83Y-81.718
X163.95Y-68.58
X164.084Y-88.138
X164.111Y-93.98
X164.338Y-93.378
X164.592Y-85.852
X164.711Y-68.191
X165.1Y-73.66
X165.1Y-93.218
X165.1Y-105.53
X165.342Y-104.69
X166.089Y-92.879
X166.243Y-104.14
X166.37Y-126.365
X166.49Y-106.68
X167.141Y-90.051
X167.64Y-53.34
X167.64Y-60.96
X167.64Y-78.74
X167.64Y-123.825
X168.148Y-70.358
X168.148Y-85.852
X168.275Y-72.871
X168.275Y-81.915
X168.275Y-103.505
X168.497Y-90.05
X168.656Y-79.248
X168.91Y-60.325
X169.03Y-63.5
X169.672Y-82.55
X170.18Y-77.35
X170.18Y-97.79
X170.18Y-125.73
X170.688Y-82.55
X170.831Y-46.99
X170.831Y-59.368
X170.942Y-80.772
X171.196Y-69.85
X171.45Y-112.395
X172.069Y-62.67
X172.085Y-86.995
X172.17Y-62.016
X172.212Y-82.804
X172.72Y-40.64
X172.72Y-69.97
X172.72Y-86.36
X172.72Y-93.98
X173.18Y-108.46
X173.228Y-94.488
X173.509Y-82.983
X173.99Y-79.756
X174.018Y-82.182
X174.236Y-71.366
X174.244Y-68.58
X174.244Y-78.74
X174.498Y-75.184
X174.498Y-77.216
X174.625Y-56.331
X174.625Y-57.785
X174.625Y-61.595
X174.752Y-73.914
X174.752Y-79.756
X174.752Y-89.408
X175.006Y-116.84
X175.379Y-61.857
X175.768Y-88.392
X176.276Y-99.568
X176.699Y-54.779
X176.784Y-56.896
X176.784Y-71.882
X176.966Y-44.895
X177.164Y-53.34
X177.165Y-59.69
X177.546Y-56.388
X177.546Y-74.168
X177.8Y-121.285
X178.18Y-111.46
X178.189Y-46.109
X178.308Y-66.548
X178.402Y-52.738
X178.44Y-42.54
X178.562Y-54.864
X178.755Y-53.017
X178.816Y-56.134
X178.816Y-63.246
X179.79Y-111.76
X180.34Y-63.5
X182.245Y-38.1
X183.515Y-118.745
X184.369Y-116.84
X184.77Y-83.82
X184.785Y-85.09
T2
X88.9Y-86.36
X90.339Y-79.985
X95.82Y-103.372
X101.6Y-125.095
X106.68Y-72.39
X106.928Y-79.954
X108.054Y-105.741
X108.375Y-78.595
X111.76Y-106.284
X124.46Y-93.98
X128.579Y-106.61
X137.3Y-64.63
X155.789Y-82.971
X162.56Y-88.9
X164.338Y-82.219
X171.219Y-77.85
X174.021Y-123.221
X174.05Y-77.947
X174.801Y-73.158
X177.8Y-57.819
X182.68Y-110.939
T3
X60.976Y-40.605
X60.976Y-43.145
X78.629Y-50.8
X78.629Y-53.34
X81.296Y-43.576
X81.296Y-46.116
X83.836Y-43.449
X83.836Y-45.989
X86.36Y-43.449
X86.36Y-45.989
X96.663Y-88.26
X96.663Y-90.8
X102.24Y-83.82
X104.78Y-83.82
X112.4Y-83.82
X114.94Y-83.82
X130.18Y-106.68
X130.18Y-121.92
X132.72Y-106.68
X132.72Y-121.92
X134.509Y-83.82
X134.509Y-86.36
X167.005Y-102.235
X169.545Y-102.235
X175.707Y-40.528
X178.247Y-40.528
T4
X178.18Y-119.46
X178.197Y-109.22
X178.324Y-114.3
X180.72Y-119.46
X180.737Y-109.22
X180.864Y-114.3
T5
X45.72Y-91.44
X45.72Y-106.68
X48.26Y-81.28
X48.26Y-88.9
X48.26Y-91.44
X48.26Y-106.68
X50.8Y-43.18
X50.8Y-45.72
X50.8Y-48.26
X50.8Y-50.8
X50.8Y-53.34
X50.8Y-55.88
X50.8Y-58.42
X50.8Y-63.5
X50.8Y-66.04
X50.8Y-68.58
X50.8Y-71.12
X50.8Y-73.66
X50.8Y-76.2
X50.8Y-78.74
X50.8Y-81.28
X50.8Y-88.9
X50.8Y-91.44
X50.8Y-106.68
X53.34Y-81.28
X53.34Y-88.9
X53.34Y-91.44
X53.34Y-106.68
X55.88Y-81.28
X55.88Y-88.9
X55.88Y-91.44
X55.88Y-106.68
X58.42Y-43.18
X58.42Y-45.72
X58.42Y-48.26
X58.42Y-50.8
X58.42Y-53.34
X58.42Y-55.88
X58.42Y-58.42
X58.42Y-63.5
X58.42Y-66.04
X58.42Y-68.58
X58.42Y-71.12
X58.42Y-73.66
X58.42Y-76.2
X58.42Y-78.74
X58.42Y-81.28
X58.42Y-88.9
X58.42Y-91.44
X58.42Y-106.68
X58.42Y-114.3
X58.42Y-121.92
X60.96Y-45.72
X60.96Y-48.26
X60.96Y-50.8
X60.96Y-53.34
X60.96Y-55.88
X60.96Y-58.42
X60.96Y-60.96
X60.96Y-63.5
X60.96Y-66.04
X60.96Y-68.58
X60.96Y-71.12
X60.96Y-73.66
X60.96Y-76.2
X60.96Y-78.74
X60.96Y-81.28
X60.96Y-88.9
X60.96Y-91.44
X60.96Y-106.68
X60.96Y-114.3
X60.96Y-121.92
X63.5Y-81.28
X63.5Y-88.9
X63.5Y-91.44
X63.5Y-106.68
X63.5Y-114.3
X63.5Y-121.92
X66.04Y-81.28
X66.04Y-88.9
X66.04Y-91.44
X66.04Y-106.68
X66.04Y-114.3
X66.04Y-121.92
X68.58Y-81.28
X68.58Y-88.9
X68.58Y-91.44
X68.58Y-106.68
X68.58Y-114.3
X68.58Y-121.92
X71.12Y-81.28
X71.12Y-88.9
X71.12Y-91.44
X71.12Y-106.68
X71.12Y-114.3
X71.12Y-121.92
X73.66Y-91.44
X73.66Y-106.68
X73.66Y-114.3
X73.66Y-121.92
X76.2Y-45.72
X76.2Y-48.26
X76.2Y-50.8
X76.2Y-53.34
X76.2Y-55.88
X76.2Y-58.42
X76.2Y-60.96
X76.2Y-63.5
X76.2Y-66.04
X76.2Y-68.58
X76.2Y-71.12
X76.2Y-73.66
X76.2Y-76.2
X76.2Y-78.74
X78.74Y-83.82
X78.74Y-91.44
X78.74Y-93.98
X78.74Y-101.6
X78.74Y-104.14
X78.74Y-111.76
X78.74Y-114.3
X78.74Y-121.92
X81.28Y-48.26
X81.28Y-53.34
X81.28Y-63.5
X81.28Y-68.58
X81.28Y-73.66
X81.28Y-81.28
X81.28Y-83.82
X81.28Y-91.44
X81.28Y-93.98
X81.28Y-101.6
X81.28Y-104.14
X81.28Y-111.76
X81.28Y-114.3
X81.28Y-121.92
X83.82Y-48.26
X83.82Y-53.34
X83.82Y-63.5
X83.82Y-68.58
X83.82Y-73.66
X83.82Y-81.28
X83.82Y-83.82
X83.82Y-91.44
X83.82Y-93.98
X83.82Y-101.6
X83.82Y-104.14
X83.82Y-111.76
X83.82Y-114.3
X83.82Y-121.92
X86.36Y-48.26
X86.36Y-53.34
X86.36Y-63.5
X86.36Y-68.58
X86.36Y-73.66
X86.36Y-81.28
X86.36Y-83.82
X86.36Y-91.44
X86.36Y-93.98
X86.36Y-101.6
X86.36Y-104.14
X86.36Y-111.76
X86.36Y-114.3
X86.36Y-121.92
X88.9Y-48.26
X88.9Y-53.34
X88.9Y-63.5
X88.9Y-68.58
X88.9Y-73.66
X88.9Y-81.28
X88.9Y-83.82
X88.9Y-91.44
X88.9Y-93.98
X88.9Y-101.6
X88.9Y-104.14
X88.9Y-111.76
X88.9Y-114.3
X88.9Y-121.92
X91.44Y-48.26
X91.44Y-53.34
X91.44Y-63.5
X91.44Y-68.58
X91.44Y-73.66
X91.44Y-81.28
X91.44Y-83.82
X91.44Y-91.44
X91.44Y-93.98
X91.44Y-101.6
X91.44Y-104.14
X91.44Y-111.76
X91.44Y-114.3
X91.44Y-121.92
X93.98Y-48.26
X93.98Y-53.34
X93.98Y-63.5
X93.98Y-68.58
X93.98Y-73.66
X93.98Y-81.28
X93.98Y-83.82
X93.98Y-91.44
X93.98Y-93.98
X93.98Y-101.6
X93.98Y-104.14
X93.98Y-111.76
X93.98Y-114.3
X93.98Y-121.92
X96.52Y-48.26
X96.52Y-53.34
X96.52Y-63.5
X96.52Y-68.58
X96.52Y-73.66
X96.52Y-81.28
X96.52Y-93.98
X96.52Y-101.6
X99.06Y-48.26
X99.06Y-53.34
X99.06Y-63.5
X99.06Y-68.58
X99.06Y-73.66
X99.06Y-81.28
X99.06Y-104.14
X99.06Y-111.76
X99.06Y-114.3
X99.06Y-121.92
X101.6Y-48.26
X101.6Y-53.34
X101.6Y-63.5
X101.6Y-68.58
X101.6Y-73.66
X101.6Y-81.28
X101.6Y-86.36
X101.6Y-101.6
X101.6Y-104.14
X101.6Y-111.76
X101.6Y-114.3
X101.6Y-121.92
X104.14Y-48.26
X104.14Y-53.34
X104.14Y-63.5
X104.14Y-68.58
X104.14Y-73.66
X104.14Y-81.28
X104.14Y-86.36
X104.14Y-101.6
X104.14Y-104.14
X104.14Y-111.76
X104.14Y-114.3
X104.14Y-121.92
X106.68Y-48.26
X106.68Y-53.34
X106.68Y-63.5
X106.68Y-68.58
X106.68Y-86.36
X106.68Y-101.6
X106.68Y-104.14
X106.68Y-111.76
X106.68Y-114.3
X106.68Y-121.92
X109.22Y-48.26
X109.22Y-53.34
X109.22Y-63.5
X109.22Y-68.58
X109.22Y-73.66
X109.22Y-81.28
X109.22Y-86.36
X109.22Y-101.6
X109.22Y-104.14
X109.22Y-111.76
X109.22Y-114.3
X109.22Y-121.92
X111.76Y-48.26
X111.76Y-53.34
X111.76Y-63.5
X111.76Y-68.58
X111.76Y-73.66
X111.76Y-81.28
X111.76Y-86.36
X111.76Y-101.6
X111.76Y-104.14
X111.76Y-111.76
X111.76Y-114.3
X111.76Y-121.92
X114.3Y-48.26
X114.3Y-53.34
X114.3Y-63.5
X114.3Y-68.58
X114.3Y-73.66
X114.3Y-81.28
X114.3Y-86.36
X114.3Y-101.6
X114.3Y-104.14
X114.3Y-111.76
X114.3Y-114.3
X114.3Y-121.92
X116.84Y-48.26
X116.84Y-53.34
X116.84Y-63.5
X116.84Y-68.58
X116.84Y-73.66
X116.84Y-81.28
X116.84Y-86.36
X116.84Y-101.6
X116.84Y-106.68
X116.84Y-109.22
X116.84Y-111.76
X116.84Y-114.3
X116.84Y-116.84
X116.84Y-119.38
X116.84Y-121.92
X119.38Y-48.26
X119.38Y-53.34
X119.38Y-63.5
X119.38Y-68.58
X119.38Y-73.66
X119.38Y-81.28
X119.38Y-86.36
X119.38Y-101.6
X119.38Y-106.68
X119.38Y-109.22
X119.38Y-111.76
X119.38Y-114.3
X119.38Y-116.84
X119.38Y-119.38
X119.38Y-121.92
X121.92Y-48.26
X121.92Y-53.34
X121.92Y-63.5
X121.92Y-68.58
X121.92Y-73.66
X121.92Y-81.28
X121.92Y-86.36
X121.92Y-101.6
X124.46Y-48.26
X124.46Y-53.34
X124.46Y-63.5
X124.46Y-68.58
X124.46Y-73.66
X124.46Y-81.28
X124.46Y-86.36
X124.46Y-101.6
X124.46Y-106.68
X124.46Y-109.22
X124.46Y-111.76
X124.46Y-114.3
X124.46Y-116.84
X124.46Y-119.38
X124.46Y-121.92
X127.0Y-48.26
X127.0Y-53.34
X127.0Y-63.5
X127.0Y-68.58
X127.0Y-73.66
X127.0Y-81.28
X127.0Y-86.36
X127.0Y-101.6
X127.0Y-106.68
X127.0Y-109.22
X127.0Y-111.76
X127.0Y-114.3
X127.0Y-116.84
X127.0Y-119.38
X127.0Y-121.92
X129.54Y-48.26
X129.54Y-53.34
X129.54Y-63.5
X129.54Y-68.58
X129.54Y-73.66
X129.54Y-81.28
X129.54Y-86.36
X129.54Y-101.6
X132.08Y-73.66
X132.08Y-81.28
X132.08Y-111.94
X132.08Y-116.84
X137.16Y-83.82
X137.16Y-91.44
X137.16Y-106.68
X137.16Y-121.92
X139.7Y-83.82
X139.7Y-91.44
X139.7Y-106.68
X139.7Y-121.92
X142.24Y-83.82
X142.24Y-91.44
X142.24Y-106.68
X142.24Y-121.92
X144.78Y-83.82
X144.78Y-91.44
X144.78Y-106.68
X144.78Y-121.92
X147.32Y-83.82
X147.32Y-91.44
X147.32Y-106.68
X147.32Y-121.92
X149.86Y-83.82
X149.86Y-91.44
X149.86Y-106.68
X149.86Y-121.92
X152.4Y-83.82
X152.4Y-91.44
X152.4Y-106.68
X152.4Y-121.92
X154.94Y-40.64
X154.94Y-48.26
X154.94Y-50.8
X154.94Y-53.34
X154.94Y-55.88
X154.94Y-58.42
X154.94Y-60.96
X154.94Y-63.5
X154.94Y-66.04
X154.94Y-68.58
X154.94Y-71.12
X154.94Y-73.66
X154.94Y-76.2
X154.94Y-78.74
X154.94Y-83.82
X154.94Y-91.44
X154.94Y-106.68
X154.94Y-121.92
X157.48Y-40.64
X157.48Y-48.26
X157.48Y-106.68
X157.48Y-121.92
X160.02Y-40.64
X160.02Y-48.26
X160.02Y-83.82
X160.02Y-91.44
X160.02Y-106.68
X160.02Y-121.92
X162.56Y-40.64
X162.56Y-48.26
X162.56Y-83.82
X162.56Y-91.44
X162.56Y-106.68
X162.56Y-121.92
X165.1Y-40.64
X165.1Y-48.26
X165.1Y-83.82
X165.1Y-91.44
X165.1Y-106.68
X165.1Y-121.92
X167.64Y-40.64
X167.64Y-48.26
X167.64Y-83.82
X167.64Y-91.44
X167.64Y-106.68
X167.64Y-121.92
X170.18Y-40.64
X170.18Y-48.26
X170.18Y-50.8
X170.18Y-53.34
X170.18Y-55.88
X170.18Y-58.42
X170.18Y-60.96
X170.18Y-63.5
X170.18Y-66.04
X170.18Y-68.58
X170.18Y-71.12
X170.18Y-73.66
X170.18Y-76.2
X170.18Y-78.74
X170.18Y-83.82
X170.18Y-91.44
X170.18Y-106.68
X170.18Y-121.92
X172.72Y-43.18
X172.72Y-45.72
X172.72Y-48.26
X172.72Y-50.8
X172.72Y-53.34
X172.72Y-55.88
X172.72Y-58.42
X172.72Y-60.96
X172.72Y-66.04
X172.72Y-68.58
X172.72Y-71.12
X172.72Y-73.66
X172.72Y-76.2
X172.72Y-78.74
X172.72Y-81.28
X172.72Y-83.82
X172.72Y-91.44
X172.72Y-106.68
X172.72Y-121.92
X175.26Y-83.82
X175.26Y-91.44
X175.26Y-106.68
X175.26Y-121.92
X177.8Y-83.82
X177.8Y-91.44
X180.34Y-43.18
X180.34Y-45.72
X180.34Y-48.26
X180.34Y-50.8
X180.34Y-53.34
X180.34Y-55.88
X180.34Y-58.42
X180.34Y-60.96
X180.34Y-66.04
X180.34Y-68.58
X180.34Y-71.12
X180.34Y-73.66
X180.34Y-76.2
X180.34Y-78.74
X180.34Y-81.28
T6
X83.82Y-40.64
X86.36Y-40.64
X88.9Y-40.64
X182.88Y-45.72
X182.88Y-48.26
X182.88Y-50.8
X182.88Y-53.34
X182.88Y-55.88
X182.88Y-58.42
X182.88Y-60.96
X182.88Y-63.5
X182.88Y-66.04
X182.88Y-68.58
X182.88Y-71.12
X182.88Y-73.66
X182.88Y-76.2
X182.88Y-78.74
X182.88Y-81.28
X182.88Y-83.82
X182.88Y-86.36
X182.88Y-88.9
X182.88Y-91.44
X182.88Y-93.98
X182.88Y-96.52
X182.88Y-99.06
X182.88Y-101.6
X182.88Y-104.14
M30
