%TF.GenerationSoftware,KiCad,Pcbnew,9.0.1*%
%TF.CreationDate,2025-04-10T23:57:45+03:00*%
%TF.ProjectId,ProgDC,50726f67-4443-42e6-9b69-6361645f7063,rev?*%
%TF.SameCoordinates,Original*%
%TF.FileFunction,Copper,L1,Top*%
%TF.FilePolarity,Positive*%
%FSLAX46Y46*%
G04 Gerber Fmt 4.6, Leading zero omitted, Abs format (unit mm)*
G04 Created by KiCad (PCBNEW 9.0.1) date 2025-04-10 23:57:45*
%MOMM*%
%LPD*%
G01*
G04 APERTURE LIST*
G04 Aperture macros list*
%AMRoundRect*
0 Rectangle with rounded corners*
0 $1 Rounding radius*
0 $2 $3 $4 $5 $6 $7 $8 $9 X,Y pos of 4 corners*
0 Add a 4 corners polygon primitive as box body*
4,1,4,$2,$3,$4,$5,$6,$7,$8,$9,$2,$3,0*
0 Add four circle primitives for the rounded corners*
1,1,$1+$1,$2,$3*
1,1,$1+$1,$4,$5*
1,1,$1+$1,$6,$7*
1,1,$1+$1,$8,$9*
0 Add four rect primitives between the rounded corners*
20,1,$1+$1,$2,$3,$4,$5,0*
20,1,$1+$1,$4,$5,$6,$7,0*
20,1,$1+$1,$6,$7,$8,$9,0*
20,1,$1+$1,$8,$9,$2,$3,0*%
G04 Aperture macros list end*
%ADD10C,0.300000*%
%TA.AperFunction,NonConductor*%
%ADD11C,0.300000*%
%TD*%
%TA.AperFunction,NonConductor*%
%ADD12C,0.200000*%
%TD*%
%TA.AperFunction,ComponentPad*%
%ADD13R,1.500000X1.500000*%
%TD*%
%TA.AperFunction,ComponentPad*%
%ADD14O,1.500000X1.500000*%
%TD*%
%TA.AperFunction,ComponentPad*%
%ADD15C,1.400000*%
%TD*%
%TA.AperFunction,ComponentPad*%
%ADD16O,1.400000X1.400000*%
%TD*%
%TA.AperFunction,ComponentPad*%
%ADD17RoundRect,0.250000X0.550000X-0.550000X0.550000X0.550000X-0.550000X0.550000X-0.550000X-0.550000X0*%
%TD*%
%TA.AperFunction,ComponentPad*%
%ADD18C,1.600000*%
%TD*%
%TA.AperFunction,ComponentPad*%
%ADD19R,1.700000X1.700000*%
%TD*%
%TA.AperFunction,ComponentPad*%
%ADD20C,1.700000*%
%TD*%
%TA.AperFunction,ComponentPad*%
%ADD21RoundRect,0.250000X-0.550000X-0.550000X0.550000X-0.550000X0.550000X0.550000X-0.550000X0.550000X0*%
%TD*%
%TA.AperFunction,ComponentPad*%
%ADD22RoundRect,0.250000X-0.550000X0.550000X-0.550000X-0.550000X0.550000X-0.550000X0.550000X0.550000X0*%
%TD*%
%TA.AperFunction,ComponentPad*%
%ADD23C,1.500000*%
%TD*%
%TA.AperFunction,ComponentPad*%
%ADD24RoundRect,0.250000X0.550000X0.550000X-0.550000X0.550000X-0.550000X-0.550000X0.550000X-0.550000X0*%
%TD*%
%TA.AperFunction,ViaPad*%
%ADD25C,0.300000*%
%TD*%
%TA.AperFunction,ViaPad*%
%ADD26C,0.600000*%
%TD*%
%TA.AperFunction,Conductor*%
%ADD27C,0.400000*%
%TD*%
%TA.AperFunction,Conductor*%
%ADD28C,0.200000*%
%TD*%
G04 APERTURE END LIST*
D10*
D11*
X28596328Y-86875498D02*
X28596328Y-86589784D01*
X28596328Y-86589784D02*
X28524900Y-86446927D01*
X28524900Y-86446927D02*
X28453471Y-86375498D01*
X28453471Y-86375498D02*
X28239185Y-86232641D01*
X28239185Y-86232641D02*
X27953471Y-86161212D01*
X27953471Y-86161212D02*
X27382042Y-86161212D01*
X27382042Y-86161212D02*
X27239185Y-86232641D01*
X27239185Y-86232641D02*
X27167757Y-86304070D01*
X27167757Y-86304070D02*
X27096328Y-86446927D01*
X27096328Y-86446927D02*
X27096328Y-86732641D01*
X27096328Y-86732641D02*
X27167757Y-86875498D01*
X27167757Y-86875498D02*
X27239185Y-86946927D01*
X27239185Y-86946927D02*
X27382042Y-87018355D01*
X27382042Y-87018355D02*
X27739185Y-87018355D01*
X27739185Y-87018355D02*
X27882042Y-86946927D01*
X27882042Y-86946927D02*
X27953471Y-86875498D01*
X27953471Y-86875498D02*
X28024900Y-86732641D01*
X28024900Y-86732641D02*
X28024900Y-86446927D01*
X28024900Y-86446927D02*
X27953471Y-86304070D01*
X27953471Y-86304070D02*
X27882042Y-86232641D01*
X27882042Y-86232641D02*
X27739185Y-86161212D01*
X27096328Y-84875499D02*
X27096328Y-85161213D01*
X27096328Y-85161213D02*
X27167757Y-85304070D01*
X27167757Y-85304070D02*
X27239185Y-85375499D01*
X27239185Y-85375499D02*
X27453471Y-85518356D01*
X27453471Y-85518356D02*
X27739185Y-85589784D01*
X27739185Y-85589784D02*
X28310614Y-85589784D01*
X28310614Y-85589784D02*
X28453471Y-85518356D01*
X28453471Y-85518356D02*
X28524900Y-85446927D01*
X28524900Y-85446927D02*
X28596328Y-85304070D01*
X28596328Y-85304070D02*
X28596328Y-85018356D01*
X28596328Y-85018356D02*
X28524900Y-84875499D01*
X28524900Y-84875499D02*
X28453471Y-84804070D01*
X28453471Y-84804070D02*
X28310614Y-84732641D01*
X28310614Y-84732641D02*
X27953471Y-84732641D01*
X27953471Y-84732641D02*
X27810614Y-84804070D01*
X27810614Y-84804070D02*
X27739185Y-84875499D01*
X27739185Y-84875499D02*
X27667757Y-85018356D01*
X27667757Y-85018356D02*
X27667757Y-85304070D01*
X27667757Y-85304070D02*
X27739185Y-85446927D01*
X27739185Y-85446927D02*
X27810614Y-85518356D01*
X27810614Y-85518356D02*
X27953471Y-85589784D01*
X28524900Y-84018356D02*
X28596328Y-84018356D01*
X28596328Y-84018356D02*
X28739185Y-84089785D01*
X28739185Y-84089785D02*
X28810614Y-84161213D01*
X28596328Y-82589784D02*
X28596328Y-83446927D01*
X28596328Y-83018356D02*
X27096328Y-83018356D01*
X27096328Y-83018356D02*
X27310614Y-83161213D01*
X27310614Y-83161213D02*
X27453471Y-83304070D01*
X27453471Y-83304070D02*
X27524900Y-83446927D01*
X27096328Y-82089785D02*
X27096328Y-81161213D01*
X27096328Y-81161213D02*
X27667757Y-81661213D01*
X27667757Y-81661213D02*
X27667757Y-81446928D01*
X27667757Y-81446928D02*
X27739185Y-81304071D01*
X27739185Y-81304071D02*
X27810614Y-81232642D01*
X27810614Y-81232642D02*
X27953471Y-81161213D01*
X27953471Y-81161213D02*
X28310614Y-81161213D01*
X28310614Y-81161213D02*
X28453471Y-81232642D01*
X28453471Y-81232642D02*
X28524900Y-81304071D01*
X28524900Y-81304071D02*
X28596328Y-81446928D01*
X28596328Y-81446928D02*
X28596328Y-81875499D01*
X28596328Y-81875499D02*
X28524900Y-82018356D01*
X28524900Y-82018356D02*
X28453471Y-82089785D01*
X28596328Y-80446928D02*
X28596328Y-80161214D01*
X28596328Y-80161214D02*
X28524900Y-80018357D01*
X28524900Y-80018357D02*
X28453471Y-79946928D01*
X28453471Y-79946928D02*
X28239185Y-79804071D01*
X28239185Y-79804071D02*
X27953471Y-79732642D01*
X27953471Y-79732642D02*
X27382042Y-79732642D01*
X27382042Y-79732642D02*
X27239185Y-79804071D01*
X27239185Y-79804071D02*
X27167757Y-79875500D01*
X27167757Y-79875500D02*
X27096328Y-80018357D01*
X27096328Y-80018357D02*
X27096328Y-80304071D01*
X27096328Y-80304071D02*
X27167757Y-80446928D01*
X27167757Y-80446928D02*
X27239185Y-80518357D01*
X27239185Y-80518357D02*
X27382042Y-80589785D01*
X27382042Y-80589785D02*
X27739185Y-80589785D01*
X27739185Y-80589785D02*
X27882042Y-80518357D01*
X27882042Y-80518357D02*
X27953471Y-80446928D01*
X27953471Y-80446928D02*
X28024900Y-80304071D01*
X28024900Y-80304071D02*
X28024900Y-80018357D01*
X28024900Y-80018357D02*
X27953471Y-79875500D01*
X27953471Y-79875500D02*
X27882042Y-79804071D01*
X27882042Y-79804071D02*
X27739185Y-79732642D01*
D12*
X41283000Y-131445000D02*
X29131580Y-131445000D01*
X29131580Y-35306000D02*
X41283000Y-35306000D01*
X29718000Y-131445000D02*
X29718000Y-35306000D01*
X29718000Y-131445000D02*
X29131579Y-130318496D01*
X29718000Y-131445000D02*
X30304421Y-130318496D01*
X29718000Y-35306000D02*
X30304421Y-36432504D01*
X29718000Y-35306000D02*
X29131579Y-36432504D01*
D10*
D11*
X113680001Y-145578328D02*
X112822858Y-145578328D01*
X113251429Y-145578328D02*
X113251429Y-144078328D01*
X113251429Y-144078328D02*
X113108572Y-144292614D01*
X113108572Y-144292614D02*
X112965715Y-144435471D01*
X112965715Y-144435471D02*
X112822858Y-144506900D01*
X114965715Y-144578328D02*
X114965715Y-145578328D01*
X114608572Y-144006900D02*
X114251429Y-145078328D01*
X114251429Y-145078328D02*
X115180000Y-145078328D01*
X116465714Y-144078328D02*
X115751428Y-144078328D01*
X115751428Y-144078328D02*
X115680000Y-144792614D01*
X115680000Y-144792614D02*
X115751428Y-144721185D01*
X115751428Y-144721185D02*
X115894286Y-144649757D01*
X115894286Y-144649757D02*
X116251428Y-144649757D01*
X116251428Y-144649757D02*
X116394286Y-144721185D01*
X116394286Y-144721185D02*
X116465714Y-144792614D01*
X116465714Y-144792614D02*
X116537143Y-144935471D01*
X116537143Y-144935471D02*
X116537143Y-145292614D01*
X116537143Y-145292614D02*
X116465714Y-145435471D01*
X116465714Y-145435471D02*
X116394286Y-145506900D01*
X116394286Y-145506900D02*
X116251428Y-145578328D01*
X116251428Y-145578328D02*
X115894286Y-145578328D01*
X115894286Y-145578328D02*
X115751428Y-145506900D01*
X115751428Y-145506900D02*
X115680000Y-145435471D01*
D12*
X187180000Y-131960000D02*
X187180000Y-147286420D01*
X42180000Y-147286420D02*
X42180000Y-131960000D01*
X187180000Y-146700000D02*
X42180000Y-146700000D01*
X187180000Y-146700000D02*
X186053496Y-147286421D01*
X187180000Y-146700000D02*
X186053496Y-146113579D01*
X42180000Y-146700000D02*
X43306504Y-146113579D01*
X42180000Y-146700000D02*
X43306504Y-147286421D01*
D13*
%TO.P,VD2,1,K*%
%TO.N,/~{CS_SRAM_8000}*%
X178180000Y-119460000D03*
D14*
%TO.P,VD2,2,A*%
%TO.N,/~{CS_628512}*%
X180720000Y-119460000D03*
%TD*%
D15*
%TO.P,R6,1,TOP*%
%TO.N,+5V*%
X175707000Y-40528000D03*
D16*
%TO.P,R6,2,BOT*%
%TO.N,/"1"*%
X178247000Y-40528000D03*
%TD*%
D17*
%TO.P,D3,1,A*%
%TO.N,/~{RD}*%
X78740000Y-121920000D03*
D18*
%TO.P,D3,2,B*%
%TO.N,/~{MWR}*%
X81280000Y-121920000D03*
%TO.P,D3,3,Y*%
%TO.N,Net-(D18B-D)*%
X83820000Y-121920000D03*
%TO.P,D3,4,A*%
%TO.N,/Q7*%
X86360000Y-121920000D03*
%TO.P,D3,5,B*%
%TO.N,/R5*%
X88900000Y-121920000D03*
%TO.P,D3,6,Y*%
%TO.N,/ROM_A13*%
X91440000Y-121920000D03*
%TO.P,D3,7,GND*%
%TO.N,GND*%
X93980000Y-121920000D03*
%TO.P,D3,8,Y*%
%TO.N,/ROM_A14*%
X93980000Y-114300000D03*
%TO.P,D3,9,A*%
%TO.N,/R6*%
X91440000Y-114300000D03*
%TO.P,D3,10,B*%
%TO.N,/Q7*%
X88900000Y-114300000D03*
%TO.P,D3,11,Y*%
%TO.N,/ROM_A15*%
X86360000Y-114300000D03*
%TO.P,D3,12,A*%
%TO.N,/R7*%
X83820000Y-114300000D03*
%TO.P,D3,13,B*%
%TO.N,/Q7*%
X81280000Y-114300000D03*
%TO.P,D3,14,VCC*%
%TO.N,+5V*%
X78740000Y-114300000D03*
%TD*%
D15*
%TO.P,R7,1*%
%TO.N,Net-(D22F-A)*%
X130180000Y-106680000D03*
D16*
%TO.P,R7,2*%
%TO.N,Net-(D22E-A)*%
X132720000Y-106680000D03*
%TD*%
D15*
%TO.P,R1,1,TOP*%
%TO.N,+5V*%
X60976000Y-43145000D03*
D16*
%TO.P,R1,2,BOT*%
%TO.N,/~{MEMR}*%
X60976000Y-40605000D03*
%TD*%
D19*
%TO.P,J3,1,Pin_1*%
%TO.N,/~{I{slash}OR}*%
X83820000Y-40640000D03*
D20*
%TO.P,J3,2,Pin_2*%
%TO.N,/~{MEMW}*%
X86360000Y-40640000D03*
%TO.P,J3,3,Pin_3*%
%TO.N,/~{I{slash}OW}*%
X88900000Y-40640000D03*
%TD*%
D13*
%TO.P,VD1,1,K*%
%TO.N,/~{CS_RAMR}*%
X178324000Y-114300000D03*
D14*
%TO.P,VD1,2,A*%
%TO.N,/~{CS_628512}*%
X180864000Y-114300000D03*
%TD*%
D17*
%TO.P,D12,1,~{CS}*%
%TO.N,GND*%
X160020000Y-91440000D03*
D18*
%TO.P,D12,2,DO0*%
%TO.N,/R4*%
X162560000Y-91440000D03*
%TO.P,D12,3,DB0*%
%TO.N,Net-(D10-D4)*%
X165100000Y-91440000D03*
%TO.P,D12,4,DI0*%
%TO.N,/DB4*%
X167640000Y-91440000D03*
%TO.P,D12,5,DO1*%
%TO.N,/R5*%
X170180000Y-91440000D03*
%TO.P,D12,6,DB1*%
%TO.N,Net-(D10-D5)*%
X172720000Y-91440000D03*
%TO.P,D12,7,DI1*%
%TO.N,/DB5*%
X175260000Y-91440000D03*
%TO.P,D12,8,GND*%
%TO.N,GND*%
X177800000Y-91440000D03*
%TO.P,D12,9,DI2*%
%TO.N,/DB6*%
X177800000Y-83820000D03*
%TO.P,D12,10,DB2*%
%TO.N,Net-(D10-D6)*%
X175260000Y-83820000D03*
%TO.P,D12,11,DO2*%
%TO.N,/R6*%
X172720000Y-83820000D03*
%TO.P,D12,12,DI3*%
%TO.N,/DB7*%
X170180000Y-83820000D03*
%TO.P,D12,13,DB3*%
%TO.N,Net-(D10-D7)*%
X167640000Y-83820000D03*
%TO.P,D12,14,DO3*%
%TO.N,/R7*%
X165100000Y-83820000D03*
%TO.P,D12,15,~{CE}*%
%TO.N,/P3*%
X162560000Y-83820000D03*
%TO.P,D12,16,VCC*%
%TO.N,+5V*%
X160020000Y-83820000D03*
%TD*%
D21*
%TO.P,D21,1,A*%
%TO.N,/R5*%
X172720000Y-66040000D03*
D18*
%TO.P,D21,2,B*%
%TO.N,Net-(D21A-B)*%
X172720000Y-68580000D03*
%TO.P,D21,3,Y*%
%TO.N,Net-(D20B-A)*%
X172720000Y-71120000D03*
%TO.P,D21,4,A*%
%TO.N,Net-(D21B-A)*%
X172720000Y-73660000D03*
%TO.P,D21,5,B*%
%TO.N,/~{CC00_VI53_1}*%
X172720000Y-76200000D03*
%TO.P,D21,6,Y*%
%TO.N,Net-(D21B-Y)*%
X172720000Y-78740000D03*
%TO.P,D21,7,GND*%
%TO.N,GND*%
X172720000Y-81280000D03*
%TO.P,D21,8,Y*%
%TO.N,/C800_VI53_2*%
X180340000Y-81280000D03*
%TO.P,D21,9,A*%
%TO.N,Net-(D19-3)*%
X180340000Y-78740000D03*
%TO.P,D21,10,B*%
%TO.N,/~{C800_VI53_2}*%
X180340000Y-76200000D03*
%TO.P,D21,11,Y*%
%TO.N,unconnected-(D21D-Y-Pad11)*%
X180340000Y-73660000D03*
%TO.P,D21,12,A*%
%TO.N,unconnected-(D21D-A-Pad12)*%
X180340000Y-71120000D03*
%TO.P,D21,13,B*%
%TO.N,unconnected-(D21D-B-Pad13)*%
X180340000Y-68580000D03*
%TO.P,D21,14,VCC*%
%TO.N,+5V*%
X180340000Y-66040000D03*
%TD*%
D17*
%TO.P,D18,1,~{R}*%
%TO.N,unconnected-(D18A-~{R}-Pad1)*%
X58420000Y-121920000D03*
D18*
%TO.P,D18,2,D*%
%TO.N,Net-(D18A-D)*%
X60960000Y-121920000D03*
%TO.P,D18,3,C*%
%TO.N,/CLK*%
X63500000Y-121920000D03*
%TO.P,D18,4,~{S}*%
%TO.N,unconnected-(D18A-~{S}-Pad4)*%
X66040000Y-121920000D03*
%TO.P,D18,5,Q*%
%TO.N,Net-(D10-~{WE})*%
X68580000Y-121920000D03*
%TO.P,D18,6,~{Q}*%
%TO.N,Net-(D18A-~{Q})*%
X71120000Y-121920000D03*
%TO.P,D18,7,GND*%
%TO.N,GND*%
X73660000Y-121920000D03*
%TO.P,D18,8,~{Q}*%
%TO.N,unconnected-(D18B-~{Q}-Pad8)*%
X73660000Y-114300000D03*
%TO.P,D18,9,Q*%
%TO.N,Net-(D18B-Q)*%
X71120000Y-114300000D03*
%TO.P,D18,10,~{S}*%
%TO.N,unconnected-(D18B-~{S}-Pad10)*%
X68580000Y-114300000D03*
%TO.P,D18,11,C*%
%TO.N,/8MHZ*%
X66040000Y-114300000D03*
%TO.P,D18,12,D*%
%TO.N,Net-(D18B-D)*%
X63500000Y-114300000D03*
%TO.P,D18,13,~{R}*%
%TO.N,unconnected-(D18B-~{R}-Pad13)*%
X60960000Y-114300000D03*
%TO.P,D18,14,VCC*%
%TO.N,+5V*%
X58420000Y-114300000D03*
%TD*%
D17*
%TO.P,D20,1,A*%
%TO.N,/~{WR}*%
X99060000Y-121920000D03*
D18*
%TO.P,D20,2,B*%
%TO.N,/~{MEMW_VT57}*%
X101600000Y-121920000D03*
%TO.P,D20,3,Y*%
%TO.N,/~{MWR}*%
X104140000Y-121920000D03*
%TO.P,D20,4,A*%
%TO.N,Net-(D20B-A)*%
X106680000Y-121920000D03*
%TO.P,D20,5,B*%
%TO.N,Net-(D20B-B)*%
X109220000Y-121920000D03*
%TO.P,D20,6,Y*%
%TO.N,/ARR16*%
X111760000Y-121920000D03*
%TO.P,D20,7,GND*%
%TO.N,GND*%
X114300000Y-121920000D03*
%TO.P,D20,8,Y*%
%TO.N,/ARR17*%
X114300000Y-114300000D03*
%TO.P,D20,9,A*%
%TO.N,/R6*%
X111760000Y-114300000D03*
%TO.P,D20,10,B*%
%TO.N,Net-(D20B-B)*%
X109220000Y-114300000D03*
%TO.P,D20,11,Y*%
%TO.N,/ARR18*%
X106680000Y-114300000D03*
%TO.P,D20,12,A*%
%TO.N,/R7*%
X104140000Y-114300000D03*
%TO.P,D20,13,B*%
%TO.N,Net-(D20B-B)*%
X101600000Y-114300000D03*
%TO.P,D20,14,VCC*%
%TO.N,+5V*%
X99060000Y-114300000D03*
%TD*%
D17*
%TO.P,D10,1,A3*%
%TO.N,/AB15*%
X101600000Y-101600000D03*
D18*
%TO.P,D10,2,A4*%
%TO.N,/AB14*%
X104140000Y-101600000D03*
%TO.P,D10,3,A5*%
%TO.N,/AB13*%
X106680000Y-101600000D03*
%TO.P,D10,4,A6*%
%TO.N,/AB12*%
X109220000Y-101600000D03*
%TO.P,D10,5,A7*%
%TO.N,/AB11*%
X111760000Y-101600000D03*
%TO.P,D10,6,A8*%
%TO.N,/AB10*%
X114300000Y-101600000D03*
%TO.P,D10,7,A9*%
%TO.N,/AB9*%
X116840000Y-101600000D03*
%TO.P,D10,8,A10*%
%TO.N,/AB8*%
X119380000Y-101600000D03*
%TO.P,D10,9,D0*%
%TO.N,Net-(D10-D0)*%
X121920000Y-101600000D03*
%TO.P,D10,10,D1*%
%TO.N,Net-(D10-D1)*%
X124460000Y-101600000D03*
%TO.P,D10,11,D2*%
%TO.N,Net-(D10-D2)*%
X127000000Y-101600000D03*
%TO.P,D10,12,GND*%
%TO.N,GND*%
X129540000Y-101600000D03*
%TO.P,D10,13,D3*%
%TO.N,Net-(D10-D3)*%
X129540000Y-86360000D03*
%TO.P,D10,14,D4*%
%TO.N,Net-(D10-D4)*%
X127000000Y-86360000D03*
%TO.P,D10,15,D5*%
%TO.N,Net-(D10-D5)*%
X124460000Y-86360000D03*
%TO.P,D10,16,D6*%
%TO.N,Net-(D10-D6)*%
X121920000Y-86360000D03*
%TO.P,D10,17,D7*%
%TO.N,Net-(D10-D7)*%
X119380000Y-86360000D03*
%TO.P,D10,18,~{CS}*%
%TO.N,GND*%
X116840000Y-86360000D03*
%TO.P,D10,19,A0*%
X114300000Y-86360000D03*
%TO.P,D10,20,~{OE}*%
%TO.N,/P1*%
X111760000Y-86360000D03*
%TO.P,D10,21,~{WE}*%
%TO.N,Net-(D10-~{WE})*%
X109220000Y-86360000D03*
%TO.P,D10,22,A1*%
%TO.N,GND*%
X106680000Y-86360000D03*
%TO.P,D10,23,A2*%
%TO.N,/P2*%
X104140000Y-86360000D03*
%TO.P,D10,24,VCC*%
%TO.N,+5V*%
X101600000Y-86360000D03*
%TD*%
D17*
%TO.P,D13,1,~{CS}*%
%TO.N,GND*%
X137160000Y-91440000D03*
D18*
%TO.P,D13,2,DO0*%
%TO.N,/R0*%
X139700000Y-91440000D03*
%TO.P,D13,3,DB0*%
%TO.N,Net-(D10-D0)*%
X142240000Y-91440000D03*
%TO.P,D13,4,DI0*%
%TO.N,/DB0*%
X144780000Y-91440000D03*
%TO.P,D13,5,DO1*%
%TO.N,/R1*%
X147320000Y-91440000D03*
%TO.P,D13,6,DB1*%
%TO.N,Net-(D10-D1)*%
X149860000Y-91440000D03*
%TO.P,D13,7,DI1*%
%TO.N,/DB1*%
X152400000Y-91440000D03*
%TO.P,D13,8,GND*%
%TO.N,GND*%
X154940000Y-91440000D03*
%TO.P,D13,9,DI2*%
%TO.N,/DB2*%
X154940000Y-83820000D03*
%TO.P,D13,10,DB2*%
%TO.N,Net-(D10-D2)*%
X152400000Y-83820000D03*
%TO.P,D13,11,DO2*%
%TO.N,/R2*%
X149860000Y-83820000D03*
%TO.P,D13,12,DI3*%
%TO.N,/DB3*%
X147320000Y-83820000D03*
%TO.P,D13,13,DB3*%
%TO.N,Net-(D10-D3)*%
X144780000Y-83820000D03*
%TO.P,D13,14,DO3*%
%TO.N,/R3*%
X142240000Y-83820000D03*
%TO.P,D13,15,~{CE}*%
%TO.N,/P3*%
X139700000Y-83820000D03*
%TO.P,D13,16,VCC*%
%TO.N,+5V*%
X137160000Y-83820000D03*
%TD*%
D15*
%TO.P,R2,1,TOP*%
%TO.N,+5V*%
X78629000Y-53340000D03*
D16*
%TO.P,R2,2,BOT*%
%TO.N,/~{I{slash}OR}*%
X78629000Y-50800000D03*
%TD*%
D15*
%TO.P,R12,1,TOP*%
%TO.N,/P3*%
X134509000Y-86360000D03*
D16*
%TO.P,R12,2,BOT*%
%TO.N,+5V*%
X134509000Y-83820000D03*
%TD*%
D17*
%TO.P,D9,1,A6*%
%TO.N,GND*%
X78740000Y-101600000D03*
D18*
%TO.P,D9,2,A5*%
X81280000Y-101600000D03*
%TO.P,D9,3,A4*%
X83820000Y-101600000D03*
%TO.P,D9,4,A3*%
X86360000Y-101600000D03*
%TO.P,D9,5,A0*%
%TO.N,/Q7*%
X88900000Y-101600000D03*
%TO.P,D9,6,A1*%
%TO.N,/Q6*%
X91440000Y-101600000D03*
%TO.P,D9,7,A2*%
%TO.N,/Q5*%
X93980000Y-101600000D03*
%TO.P,D9,8,GND*%
%TO.N,GND*%
X96520000Y-101600000D03*
%TO.P,D9,9,D3*%
%TO.N,/P3*%
X96520000Y-93980000D03*
%TO.P,D9,10,D2*%
%TO.N,/P2*%
X93980000Y-93980000D03*
%TO.P,D9,11,D1*%
%TO.N,/P1*%
X91440000Y-93980000D03*
%TO.P,D9,12,D0*%
%TO.N,/P0*%
X88900000Y-93980000D03*
%TO.P,D9,13,~{CS1}*%
%TO.N,GND*%
X86360000Y-93980000D03*
%TO.P,D9,14,~{CS2}*%
X83820000Y-93980000D03*
%TO.P,D9,15,A7*%
%TO.N,Net-(D14C-Y)*%
X81280000Y-93980000D03*
%TO.P,D9,16,+5V*%
%TO.N,+5V*%
X78740000Y-93980000D03*
%TD*%
D13*
%TO.P,VD3,1,K*%
%TO.N,/~{RAM_MAIN}*%
X178197000Y-109220000D03*
D14*
%TO.P,VD3,2,A*%
%TO.N,/~{CS_628512}*%
X180737000Y-109220000D03*
%TD*%
D22*
%TO.P,U3,1,A10*%
%TO.N,/A10*%
X129540000Y-53340000D03*
D18*
%TO.P,U3,2,GND*%
%TO.N,GND*%
X127000000Y-53340000D03*
%TO.P,U3,3,D4*%
%TO.N,/D4*%
X124460000Y-53340000D03*
%TO.P,U3,4,D5*%
%TO.N,/D5*%
X121920000Y-53340000D03*
%TO.P,U3,5,D6*%
%TO.N,/D6*%
X119380000Y-53340000D03*
%TO.P,U3,6,D7*%
%TO.N,/D7*%
X116840000Y-53340000D03*
%TO.P,U3,7,D3*%
%TO.N,/D3*%
X114300000Y-53340000D03*
%TO.P,U3,8,D2*%
%TO.N,/D2*%
X111760000Y-53340000D03*
%TO.P,U3,9,D1*%
%TO.N,/D1*%
X109220000Y-53340000D03*
%TO.P,U3,10,D0*%
%TO.N,/D0*%
X106680000Y-53340000D03*
%TO.P,U3,11,-5V*%
%TO.N,/-5V*%
X104140000Y-53340000D03*
%TO.P,U3,12,RST*%
%TO.N,/RESET*%
X101600000Y-53340000D03*
%TO.P,U3,13,HLD*%
%TO.N,/HLD*%
X99060000Y-53340000D03*
%TO.P,U3,14,INT*%
%TO.N,/INT*%
X96520000Y-53340000D03*
%TO.P,U3,15,C2*%
%TO.N,/C2*%
X93980000Y-53340000D03*
%TO.P,U3,16,INTE*%
%TO.N,/INTE*%
X91440000Y-53340000D03*
%TO.P,U3,17,RC*%
%TO.N,/DBIN*%
X88900000Y-53340000D03*
%TO.P,U3,18,TR*%
%TO.N,/~{WR}*%
X86360000Y-53340000D03*
%TO.P,U3,19,SYN*%
%TO.N,/SYN*%
X83820000Y-53340000D03*
%TO.P,U3,20,VCC*%
%TO.N,+5V*%
X81280000Y-53340000D03*
%TO.P,U3,21,HLDA*%
%TO.N,/_HLDA*%
X81280000Y-68580000D03*
%TO.P,U3,22,C1*%
%TO.N,/C1*%
X83820000Y-68580000D03*
%TO.P,U3,23,RDY*%
%TO.N,/RDY*%
X86360000Y-68580000D03*
%TO.P,U3,24,WI*%
%TO.N,/WI*%
X88900000Y-68580000D03*
%TO.P,U3,25,A0*%
%TO.N,/A0*%
X91440000Y-68580000D03*
%TO.P,U3,26,A1*%
%TO.N,/A1*%
X93980000Y-68580000D03*
%TO.P,U3,27,A2*%
%TO.N,/A2*%
X96520000Y-68580000D03*
%TO.P,U3,28,+12V*%
%TO.N,/+12V*%
X99060000Y-68580000D03*
%TO.P,U3,29,A3*%
%TO.N,/A3*%
X101600000Y-68580000D03*
%TO.P,U3,30,A4*%
%TO.N,/A4*%
X104140000Y-68580000D03*
%TO.P,U3,31,A5*%
%TO.N,/A5*%
X106680000Y-68580000D03*
%TO.P,U3,32,A6*%
%TO.N,/A6*%
X109220000Y-68580000D03*
%TO.P,U3,33,A7*%
%TO.N,/A7*%
X111760000Y-68580000D03*
%TO.P,U3,34,A8*%
%TO.N,/A8*%
X114300000Y-68580000D03*
%TO.P,U3,35,A9*%
%TO.N,/A9*%
X116840000Y-68580000D03*
%TO.P,U3,36,A15*%
%TO.N,/A15*%
X119380000Y-68580000D03*
%TO.P,U3,37,A12*%
%TO.N,/A12*%
X121920000Y-68580000D03*
%TO.P,U3,38,A13*%
%TO.N,/A13*%
X124460000Y-68580000D03*
%TO.P,U3,39,A14*%
%TO.N,/A14*%
X127000000Y-68580000D03*
%TO.P,U3,40,A11*%
%TO.N,/A11*%
X129540000Y-68580000D03*
%TD*%
D15*
%TO.P,R9,1,TOP*%
%TO.N,/P0*%
X96663000Y-90800000D03*
D16*
%TO.P,R9,2,BOT*%
%TO.N,+5V*%
X96663000Y-88260000D03*
%TD*%
D23*
%TO.P,ZQ1,1*%
%TO.N,Net-(D22E-Y)*%
X132080000Y-116840000D03*
%TO.P,ZQ1,2*%
%TO.N,Net-(D22F-A)*%
X132080000Y-111940000D03*
%TD*%
D17*
%TO.P,D24,1,A*%
%TO.N,Net-(D19-4)*%
X154940000Y-48260000D03*
D18*
%TO.P,D24,2,B*%
%TO.N,/~{C200_PPI1}*%
X157480000Y-48260000D03*
%TO.P,D24,3,Y*%
%TO.N,/~{C200_PPI1_}*%
X160020000Y-48260000D03*
%TO.P,D24,4,A*%
%TO.N,Net-(D19-5)*%
X162560000Y-48260000D03*
%TO.P,D24,5,B*%
%TO.N,/~{C400_PPI2}*%
X165100000Y-48260000D03*
%TO.P,D24,6,Y*%
%TO.N,/~{C400_PPI2_}*%
X167640000Y-48260000D03*
%TO.P,D24,7,GND*%
%TO.N,GND*%
X170180000Y-48260000D03*
%TO.P,D24,8,Y*%
%TO.N,/~{CS_VG75_}*%
X170180000Y-40640000D03*
%TO.P,D24,9,A*%
%TO.N,Net-(D19-6)*%
X167640000Y-40640000D03*
%TO.P,D24,10,B*%
%TO.N,/~{CS_VG75}*%
X165100000Y-40640000D03*
%TO.P,D24,11,Y*%
%TO.N,/~{CS_DMA_}*%
X162560000Y-40640000D03*
%TO.P,D24,12,A*%
%TO.N,Net-(D24D-A)*%
X160020000Y-40640000D03*
%TO.P,D24,13,B*%
%TO.N,/~{CS_DMA}*%
X157480000Y-40640000D03*
%TO.P,D24,14,VCC*%
%TO.N,+5V*%
X154940000Y-40640000D03*
%TD*%
D22*
%TO.P,J1,1,Pin_1*%
%TO.N,/A10*%
X129540000Y-48260000D03*
D18*
%TO.P,J1,2,Pin_2*%
%TO.N,GND*%
X127000000Y-48260000D03*
%TO.P,J1,3,Pin_3*%
%TO.N,/D4*%
X124460000Y-48260000D03*
%TO.P,J1,4,Pin_4*%
%TO.N,/D5*%
X121920000Y-48260000D03*
%TO.P,J1,5,Pin_5*%
%TO.N,/D6*%
X119380000Y-48260000D03*
%TO.P,J1,6,Pin_6*%
%TO.N,/D7*%
X116840000Y-48260000D03*
%TO.P,J1,7,Pin_7*%
%TO.N,/D3*%
X114300000Y-48260000D03*
%TO.P,J1,8,Pin_8*%
%TO.N,/D2*%
X111760000Y-48260000D03*
%TO.P,J1,9,Pin_9*%
%TO.N,/D1*%
X109220000Y-48260000D03*
%TO.P,J1,10,Pin_10*%
%TO.N,/D0*%
X106680000Y-48260000D03*
%TO.P,J1,11,Pin_11*%
%TO.N,/-5V*%
X104140000Y-48260000D03*
%TO.P,J1,12,Pin_12*%
%TO.N,/RESET*%
X101600000Y-48260000D03*
%TO.P,J1,13,Pin_13*%
%TO.N,/HLD*%
X99060000Y-48260000D03*
%TO.P,J1,14,Pin_14*%
%TO.N,/INT*%
X96520000Y-48260000D03*
%TO.P,J1,15,Pin_15*%
%TO.N,/C2*%
X93980000Y-48260000D03*
%TO.P,J1,16,Pin_16*%
%TO.N,/INTE*%
X91440000Y-48260000D03*
%TO.P,J1,17,Pin_17*%
%TO.N,/DBIN*%
X88900000Y-48260000D03*
%TO.P,J1,18,Pin_18*%
%TO.N,/~{WR}*%
X86360000Y-48260000D03*
%TO.P,J1,19,Pin_19*%
%TO.N,/SYN*%
X83820000Y-48260000D03*
%TO.P,J1,20,Pin_20*%
%TO.N,+5V*%
X81280000Y-48260000D03*
%TO.P,J1,21,Pin_21*%
%TO.N,/_HLDA*%
X81280000Y-63500000D03*
%TO.P,J1,22,Pin_22*%
%TO.N,/C1*%
X83820000Y-63500000D03*
%TO.P,J1,23,Pin_23*%
%TO.N,/RDY*%
X86360000Y-63500000D03*
%TO.P,J1,24,Pin_24*%
%TO.N,/WI*%
X88900000Y-63500000D03*
%TO.P,J1,25,Pin_25*%
%TO.N,/A0*%
X91440000Y-63500000D03*
%TO.P,J1,26,Pin_26*%
%TO.N,/A1*%
X93980000Y-63500000D03*
%TO.P,J1,27,Pin_27*%
%TO.N,/A2*%
X96520000Y-63500000D03*
%TO.P,J1,28,Pin_28*%
%TO.N,/+12V*%
X99060000Y-63500000D03*
%TO.P,J1,29,Pin_29*%
%TO.N,/A3*%
X101600000Y-63500000D03*
%TO.P,J1,30,Pin_30*%
%TO.N,/A4*%
X104140000Y-63500000D03*
%TO.P,J1,31,Pin_31*%
%TO.N,/A5*%
X106680000Y-63500000D03*
%TO.P,J1,32,Pin_32*%
%TO.N,/A6*%
X109220000Y-63500000D03*
%TO.P,J1,33,Pin_33*%
%TO.N,/A7*%
X111760000Y-63500000D03*
%TO.P,J1,34,Pin_34*%
%TO.N,/A8*%
X114300000Y-63500000D03*
%TO.P,J1,35,Pin_35*%
%TO.N,/A9*%
X116840000Y-63500000D03*
%TO.P,J1,36,Pin_36*%
%TO.N,/A15*%
X119380000Y-63500000D03*
%TO.P,J1,37,Pin_37*%
%TO.N,/A12*%
X121920000Y-63500000D03*
%TO.P,J1,38,Pin_38*%
%TO.N,/A13*%
X124460000Y-63500000D03*
%TO.P,J1,39,Pin_39*%
%TO.N,/A14*%
X127000000Y-63500000D03*
%TO.P,J1,40,Pin_40*%
%TO.N,/A11*%
X129540000Y-63500000D03*
%TD*%
D15*
%TO.P,R5,1,TOP*%
%TO.N,+5V*%
X83836000Y-45989000D03*
D16*
%TO.P,R5,2,BOT*%
%TO.N,/~{MEMW}*%
X83836000Y-43449000D03*
%TD*%
D17*
%TO.P,U2,1,A18*%
%TO.N,/ARR18*%
X137160000Y-121920000D03*
D18*
%TO.P,U2,2,A16*%
%TO.N,/ARR16*%
X139700000Y-121920000D03*
%TO.P,U2,3,A14*%
%TO.N,/R4*%
X142240000Y-121920000D03*
%TO.P,U2,4,A12*%
%TO.N,/AB12*%
X144780000Y-121920000D03*
%TO.P,U2,5,A7*%
%TO.N,/AB7*%
X147320000Y-121920000D03*
%TO.P,U2,6,A6*%
%TO.N,/AB6*%
X149860000Y-121920000D03*
%TO.P,U2,7,A5*%
%TO.N,/AB5*%
X152400000Y-121920000D03*
%TO.P,U2,8,A4*%
%TO.N,/AB4*%
X154940000Y-121920000D03*
%TO.P,U2,9,A3*%
%TO.N,/AB3*%
X157480000Y-121920000D03*
%TO.P,U2,10,A2*%
%TO.N,/AB2*%
X160020000Y-121920000D03*
%TO.P,U2,11,A1*%
%TO.N,/AB1*%
X162560000Y-121920000D03*
%TO.P,U2,12,A0*%
%TO.N,/AB0*%
X165100000Y-121920000D03*
%TO.P,U2,13,D0*%
%TO.N,/DB0*%
X167640000Y-121920000D03*
%TO.P,U2,14,D1*%
%TO.N,/DB1*%
X170180000Y-121920000D03*
%TO.P,U2,15,D2*%
%TO.N,/DB2*%
X172720000Y-121920000D03*
%TO.P,U2,16,GND*%
%TO.N,GND*%
X175260000Y-121920000D03*
%TO.P,U2,17,D3*%
%TO.N,/DB3*%
X175260000Y-106680000D03*
%TO.P,U2,18,D4*%
%TO.N,/DB4*%
X172720000Y-106680000D03*
%TO.P,U2,19,D5*%
%TO.N,/DB5*%
X170180000Y-106680000D03*
%TO.P,U2,20,D6*%
%TO.N,/DB6*%
X167640000Y-106680000D03*
%TO.P,U2,21,D7*%
%TO.N,/DB7*%
X165100000Y-106680000D03*
%TO.P,U2,22,CS*%
%TO.N,/~{CS_628512}*%
X162560000Y-106680000D03*
%TO.P,U2,23,A10*%
%TO.N,/AB10*%
X160020000Y-106680000D03*
%TO.P,U2,24,RD*%
%TO.N,/~{RD}*%
X157480000Y-106680000D03*
%TO.P,U2,25,A11*%
%TO.N,/AB11*%
X154940000Y-106680000D03*
%TO.P,U2,26,A9*%
%TO.N,/AB9*%
X152400000Y-106680000D03*
%TO.P,U2,27,A8*%
%TO.N,/AB8*%
X149860000Y-106680000D03*
%TO.P,U2,28,A13*%
%TO.N,/AB13*%
X147320000Y-106680000D03*
%TO.P,U2,29,WR*%
%TO.N,/~{WE_628512}*%
X144780000Y-106680000D03*
%TO.P,U2,30,A17*%
%TO.N,/ARR17*%
X142240000Y-106680000D03*
%TO.P,U2,31,A15*%
%TO.N,/R3*%
X139700000Y-106680000D03*
%TO.P,U2,32,VCC*%
%TO.N,+5V*%
X137160000Y-106680000D03*
%TD*%
D15*
%TO.P,R10,1,TOP*%
%TO.N,/P1*%
X112400000Y-83820000D03*
D16*
%TO.P,R10,2,BOT*%
%TO.N,+5V*%
X114940000Y-83820000D03*
%TD*%
D15*
%TO.P,R3,1,TOP*%
%TO.N,+5V*%
X81296000Y-46116000D03*
D16*
%TO.P,R3,2,BOT*%
%TO.N,/~{I{slash}OW}*%
X81296000Y-43576000D03*
%TD*%
D21*
%TO.P,D14,1,A*%
%TO.N,Net-(D14A-A)*%
X50800000Y-63500000D03*
D18*
%TO.P,D14,2,B*%
%TO.N,/RAM_SEL*%
X50800000Y-66040000D03*
%TO.P,D14,3,Y*%
%TO.N,/R8*%
X50800000Y-68580000D03*
%TO.P,D14,4,A*%
%TO.N,Net-(D14B-A)*%
X50800000Y-71120000D03*
%TO.P,D14,5,B*%
%TO.N,Net-(D11-~{EO})*%
X50800000Y-73660000D03*
%TO.P,D14,6,Y*%
%TO.N,Net-(D14B-Y)*%
X50800000Y-76200000D03*
%TO.P,D14,7,GND*%
%TO.N,GND*%
X50800000Y-78740000D03*
%TO.P,D14,8,Y*%
%TO.N,Net-(D14C-Y)*%
X58420000Y-78740000D03*
%TO.P,D14,9,A*%
%TO.N,/~{I{slash}OW}*%
X58420000Y-76200000D03*
%TO.P,D14,10,B*%
%TO.N,/~{I{slash}OR}*%
X58420000Y-73660000D03*
%TO.P,D14,11,Y*%
%TO.N,unconnected-(D14D-Y-Pad11)*%
X58420000Y-71120000D03*
%TO.P,D14,12,A*%
%TO.N,unconnected-(D14D-A-Pad12)*%
X58420000Y-68580000D03*
%TO.P,D14,13,B*%
%TO.N,unconnected-(D14D-B-Pad13)*%
X58420000Y-66040000D03*
%TO.P,D14,14,VCC*%
%TO.N,+5V*%
X58420000Y-63500000D03*
%TD*%
D17*
%TO.P,D8,1,CS1*%
%TO.N,Net-(D14B-A)*%
X45720000Y-106680000D03*
D18*
%TO.P,D8,2,MD*%
%TO.N,/"1"*%
X48260000Y-106680000D03*
%TO.P,D8,3,D0*%
%TO.N,/DB0*%
X50800000Y-106680000D03*
%TO.P,D8,4,Q0*%
%TO.N,/Q0*%
X53340000Y-106680000D03*
%TO.P,D8,5,D1*%
%TO.N,/DB1*%
X55880000Y-106680000D03*
%TO.P,D8,6,Q1*%
%TO.N,/Q1*%
X58420000Y-106680000D03*
%TO.P,D8,7,D2*%
%TO.N,/DB2*%
X60960000Y-106680000D03*
%TO.P,D8,8,Q2*%
%TO.N,/Q2*%
X63500000Y-106680000D03*
%TO.P,D8,9,D3*%
%TO.N,/DB3*%
X66040000Y-106680000D03*
%TO.P,D8,10,Q3*%
%TO.N,/Q3*%
X68580000Y-106680000D03*
%TO.P,D8,11,EV*%
%TO.N,Net-(D11-~{EO})*%
X71120000Y-106680000D03*
%TO.P,D8,12,GND*%
%TO.N,GND*%
X73660000Y-106680000D03*
%TO.P,D8,13,CS2*%
%TO.N,Net-(D2B-A)*%
X73660000Y-91440000D03*
%TO.P,D8,14,RES*%
%TO.N,/~{RESET}*%
X71120000Y-91440000D03*
%TO.P,D8,15,Q4*%
%TO.N,/Q4*%
X68580000Y-91440000D03*
%TO.P,D8,16,D4*%
%TO.N,/DB4*%
X66040000Y-91440000D03*
%TO.P,D8,17,Q5*%
%TO.N,/Q5*%
X63500000Y-91440000D03*
%TO.P,D8,18,D5*%
%TO.N,/DB5*%
X60960000Y-91440000D03*
%TO.P,D8,19,Q6*%
%TO.N,/Q6*%
X58420000Y-91440000D03*
%TO.P,D8,20,D6*%
%TO.N,/DB6*%
X55880000Y-91440000D03*
%TO.P,D8,21,Q7*%
%TO.N,/Q7*%
X53340000Y-91440000D03*
%TO.P,D8,22,D7*%
%TO.N,/DB7*%
X50800000Y-91440000D03*
%TO.P,D8,23,S1*%
%TO.N,Net-(D5B-A)*%
X48260000Y-91440000D03*
%TO.P,D8,24,VCC*%
%TO.N,+5V*%
X45720000Y-91440000D03*
%TD*%
D21*
%TO.P,D22,1,A*%
%TO.N,unconnected-(D22A-A-Pad1)*%
X116840000Y-106680000D03*
D18*
%TO.P,D22,2,Y*%
%TO.N,unconnected-(D22A-Y-Pad2)*%
X116840000Y-109220000D03*
%TO.P,D22,3,A*%
%TO.N,/R8*%
X116840000Y-111760000D03*
%TO.P,D22,4,Y*%
%TO.N,Net-(D21A-B)*%
X116840000Y-114300000D03*
%TO.P,D22,5,A*%
%TO.N,unconnected-(D22C-A-Pad5)*%
X116840000Y-116840000D03*
%TO.P,D22,6,Y*%
%TO.N,unconnected-(D22C-Y-Pad6)*%
X116840000Y-119380000D03*
%TO.P,D22,7,GND*%
%TO.N,GND*%
X116840000Y-121920000D03*
%TO.P,D22,8,Y*%
%TO.N,unconnected-(D22D-Y-Pad8)*%
X124460000Y-121920000D03*
%TO.P,D22,9,A*%
%TO.N,unconnected-(D22D-A-Pad9)*%
X124460000Y-119380000D03*
%TO.P,D22,10,Y*%
%TO.N,Net-(D22E-Y)*%
X124460000Y-116840000D03*
%TO.P,D22,11,A*%
%TO.N,Net-(D22E-A)*%
X124460000Y-114300000D03*
%TO.P,D22,12,Y*%
X124460000Y-111760000D03*
%TO.P,D22,13,A*%
%TO.N,Net-(D22F-A)*%
X124460000Y-109220000D03*
%TO.P,D22,14,VCC*%
%TO.N,+5V*%
X124460000Y-106680000D03*
%TD*%
D17*
%TO.P,D6,1,~{EO}*%
%TO.N,/HLDA*%
X81280000Y-81280000D03*
D18*
%TO.P,D6,2,Q0*%
%TO.N,/AB0*%
X83820000Y-81280000D03*
%TO.P,D6,3,D0*%
%TO.N,/A0*%
X86360000Y-81280000D03*
%TO.P,D6,4,D1*%
%TO.N,/A1*%
X88900000Y-81280000D03*
%TO.P,D6,5,Q1*%
%TO.N,/AB1*%
X91440000Y-81280000D03*
%TO.P,D6,6,Q2*%
%TO.N,/AB2*%
X93980000Y-81280000D03*
%TO.P,D6,7,D2*%
%TO.N,/A2*%
X96520000Y-81280000D03*
%TO.P,D6,8,D3*%
%TO.N,/A3*%
X99060000Y-81280000D03*
%TO.P,D6,9,Q3*%
%TO.N,/AB3*%
X101600000Y-81280000D03*
%TO.P,D6,10,GND*%
%TO.N,GND*%
X104140000Y-81280000D03*
%TO.P,D6,11,PE*%
%TO.N,/"1"*%
X104140000Y-73660000D03*
%TO.P,D6,12,Q4*%
%TO.N,/AB4*%
X101600000Y-73660000D03*
%TO.P,D6,13,D4*%
%TO.N,/A4*%
X99060000Y-73660000D03*
%TO.P,D6,14,D5*%
%TO.N,/A5*%
X96520000Y-73660000D03*
%TO.P,D6,15,Q5*%
%TO.N,/AB5*%
X93980000Y-73660000D03*
%TO.P,D6,16,Q6*%
%TO.N,/AB6*%
X91440000Y-73660000D03*
%TO.P,D6,17,D6*%
%TO.N,/A6*%
X88900000Y-73660000D03*
%TO.P,D6,18,D7*%
%TO.N,/A7*%
X86360000Y-73660000D03*
%TO.P,D6,19,Q7*%
%TO.N,/AB7*%
X83820000Y-73660000D03*
%TO.P,D6,20,VCC*%
%TO.N,+5V*%
X81280000Y-73660000D03*
%TD*%
D21*
%TO.P,U1,1,STSTB*%
%TO.N,/STSTB*%
X60960000Y-45720000D03*
D18*
%TO.P,U1,2,HLDA*%
%TO.N,/HLDA*%
X60960000Y-48260000D03*
%TO.P,U1,3,WR*%
%TO.N,/~{WR}*%
X60960000Y-50800000D03*
%TO.P,U1,4,DBIN*%
%TO.N,/DBIN*%
X60960000Y-53340000D03*
%TO.P,U1,5,DB4*%
%TO.N,/DB4*%
X60960000Y-55880000D03*
%TO.P,U1,6,D4*%
%TO.N,/D4*%
X60960000Y-58420000D03*
%TO.P,U1,7,DB7*%
%TO.N,/DB7*%
X60960000Y-60960000D03*
%TO.P,U1,8,D7*%
%TO.N,/D7*%
X60960000Y-63500000D03*
%TO.P,U1,9,DB3*%
%TO.N,/DB3*%
X60960000Y-66040000D03*
%TO.P,U1,10,D3*%
%TO.N,/D3*%
X60960000Y-68580000D03*
%TO.P,U1,11,DB2*%
%TO.N,/DB2*%
X60960000Y-71120000D03*
%TO.P,U1,12,D2*%
%TO.N,/D2*%
X60960000Y-73660000D03*
%TO.P,U1,13,DB0*%
%TO.N,/DB0*%
X60960000Y-76200000D03*
%TO.P,U1,14,GND*%
%TO.N,GND*%
X60960000Y-78740000D03*
%TO.P,U1,15,D0*%
%TO.N,/D0*%
X76200000Y-78740000D03*
%TO.P,U1,16,DB1*%
%TO.N,/DB1*%
X76200000Y-76200000D03*
%TO.P,U1,17,D1*%
%TO.N,/D1*%
X76200000Y-73660000D03*
%TO.P,U1,18,DB5*%
%TO.N,/DB5*%
X76200000Y-71120000D03*
%TO.P,U1,19,D5*%
%TO.N,/D5*%
X76200000Y-68580000D03*
%TO.P,U1,20,DB6*%
%TO.N,/DB6*%
X76200000Y-66040000D03*
%TO.P,U1,21,D6*%
%TO.N,/D6*%
X76200000Y-63500000D03*
%TO.P,U1,22,BUSEN*%
%TO.N,/HLDA*%
X76200000Y-60960000D03*
%TO.P,U1,23,INTA*%
%TO.N,/~{INTA}*%
X76200000Y-58420000D03*
%TO.P,U1,24,MEMR*%
%TO.N,/~{MEMR}*%
X76200000Y-55880000D03*
%TO.P,U1,25,I/OR*%
%TO.N,/~{I{slash}OR}*%
X76200000Y-53340000D03*
%TO.P,U1,26,MEMW*%
%TO.N,/~{MEMW}*%
X76200000Y-50800000D03*
%TO.P,U1,27,I/OW*%
%TO.N,/~{I{slash}OW}*%
X76200000Y-48260000D03*
%TO.P,U1,28,VCC*%
%TO.N,+5V*%
X76200000Y-45720000D03*
%TD*%
D17*
%TO.P,D1,1,1*%
%TO.N,/AB0*%
X78740000Y-91440000D03*
D18*
%TO.P,D1,2,2*%
%TO.N,/AB1*%
X81280000Y-91440000D03*
%TO.P,D1,3,3*%
%TO.N,/AB2*%
X83820000Y-91440000D03*
%TO.P,D1,4,4*%
%TO.N,/AB3*%
X86360000Y-91440000D03*
%TO.P,D1,5,5*%
%TO.N,/AB4*%
X88900000Y-91440000D03*
%TO.P,D1,6,6*%
%TO.N,/AB5*%
X91440000Y-91440000D03*
%TO.P,D1,7,GND*%
%TO.N,GND*%
X93980000Y-91440000D03*
%TO.P,D1,8,8*%
%TO.N,Net-(D2A-B)*%
X93980000Y-83820000D03*
%TO.P,D1,9*%
%TO.N,unconnected-(D1-Pad9)*%
X91440000Y-83820000D03*
%TO.P,D1,10*%
%TO.N,unconnected-(D1-Pad10)*%
X88900000Y-83820000D03*
%TO.P,D1,11,11*%
%TO.N,/AB6*%
X86360000Y-83820000D03*
%TO.P,D1,12,12*%
%TO.N,/AB7*%
X83820000Y-83820000D03*
%TO.P,D1,13*%
%TO.N,unconnected-(D1-Pad13)*%
X81280000Y-83820000D03*
%TO.P,D1,14,VCC*%
%TO.N,+5V*%
X78740000Y-83820000D03*
%TD*%
D17*
%TO.P,D5,1,A*%
%TO.N,/HLDA*%
X99060000Y-111760000D03*
D18*
%TO.P,D5,2,Y*%
%TO.N,Net-(D20B-B)*%
X101600000Y-111760000D03*
%TO.P,D5,3,A*%
%TO.N,Net-(D5B-A)*%
X104140000Y-111760000D03*
%TO.P,D5,4,Y*%
%TO.N,Net-(D2B-A)*%
X106680000Y-111760000D03*
%TO.P,D5,5,A*%
%TO.N,/RESET*%
X109220000Y-111760000D03*
%TO.P,D5,6,Y*%
%TO.N,/~{RESET}*%
X111760000Y-111760000D03*
%TO.P,D5,7,GND*%
%TO.N,GND*%
X114300000Y-111760000D03*
%TO.P,D5,8,Y*%
%TO.N,/~{CC00_VI53_1_}*%
X114300000Y-104140000D03*
%TO.P,D5,9,A*%
%TO.N,Net-(D21B-Y)*%
X111760000Y-104140000D03*
%TO.P,D5,10,Y*%
%TO.N,Net-(D14A-A)*%
X109220000Y-104140000D03*
%TO.P,D5,11,A*%
%TO.N,/~{RAM_MAIN}*%
X106680000Y-104140000D03*
%TO.P,D5,12,Y*%
%TO.N,/~{C800_VI53_2_}*%
X104140000Y-104140000D03*
%TO.P,D5,13,A*%
%TO.N,/C800_VI53_2*%
X101600000Y-104140000D03*
%TO.P,D5,14,VCC*%
%TO.N,+5V*%
X99060000Y-104140000D03*
%TD*%
D21*
%TO.P,D15,1,0*%
%TO.N,/~{C200_PPI1}*%
X154940000Y-50800000D03*
D18*
%TO.P,D15,2,1*%
%TO.N,/~{C400_PPI2}*%
X154940000Y-53340000D03*
%TO.P,D15,3,2*%
%TO.N,/~{CS_VG75}*%
X154940000Y-55880000D03*
%TO.P,D15,4,3*%
%TO.N,/~{CS_RAMR}*%
X154940000Y-58420000D03*
%TO.P,D15,5,4*%
%TO.N,/~{CS_ROM}*%
X154940000Y-60960000D03*
%TO.P,D15,6,5*%
%TO.N,/~{RAM_MAIN}*%
X154940000Y-63500000D03*
%TO.P,D15,7,6*%
%TO.N,/~{CC00_VI53_1}*%
X154940000Y-66040000D03*
%TO.P,D15,8,7*%
%TO.N,/~{CS_DMA}*%
X154940000Y-68580000D03*
%TO.P,D15,9,8*%
%TO.N,/~{C800_VI53_2}*%
X154940000Y-71120000D03*
%TO.P,D15,10,9*%
%TO.N,/~{C100_SD_CNTR}*%
X154940000Y-73660000D03*
%TO.P,D15,11,10*%
%TO.N,/~{CS_D800}*%
X154940000Y-76200000D03*
%TO.P,D15,12,GND*%
%TO.N,GND*%
X154940000Y-78740000D03*
%TO.P,D15,13,11*%
%TO.N,/~{CE00}*%
X170180000Y-78740000D03*
%TO.P,D15,14,12*%
%TO.N,/~{C300}*%
X170180000Y-76200000D03*
%TO.P,D15,15,13*%
%TO.N,/~{CS_SRAM_8000}*%
X170180000Y-73660000D03*
%TO.P,D15,16,14*%
%TO.N,/~{CA00_PPI3}*%
X170180000Y-71120000D03*
%TO.P,D15,17,15*%
%TO.N,/~{F700}*%
X170180000Y-68580000D03*
%TO.P,D15,18,C*%
%TO.N,/~{D15_CS2}*%
X170180000Y-66040000D03*
%TO.P,D15,19,&C*%
%TO.N,/~{D15_CS1}*%
X170180000Y-63500000D03*
%TO.P,D15,20,8*%
%TO.N,/R3*%
X170180000Y-60960000D03*
%TO.P,D15,21,4*%
%TO.N,/R2*%
X170180000Y-58420000D03*
%TO.P,D15,22,2*%
%TO.N,/R1*%
X170180000Y-55880000D03*
%TO.P,D15,23,1*%
%TO.N,/R0*%
X170180000Y-53340000D03*
%TO.P,D15,24,VCC*%
%TO.N,+5V*%
X170180000Y-50800000D03*
%TD*%
D15*
%TO.P,R13,1,TOP*%
%TO.N,/~{CS_628512}*%
X167005000Y-102235000D03*
D16*
%TO.P,R13,2,BOT*%
%TO.N,+5V*%
X169545000Y-102235000D03*
%TD*%
D17*
%TO.P,D11,1,~{EO}*%
%TO.N,Net-(D11-~{EO})*%
X48260000Y-88900000D03*
D18*
%TO.P,D11,2,Q0*%
%TO.N,/DB0*%
X50800000Y-88900000D03*
%TO.P,D11,3,D0*%
%TO.N,/Q0*%
X53340000Y-88900000D03*
%TO.P,D11,4,D1*%
%TO.N,/Q1*%
X55880000Y-88900000D03*
%TO.P,D11,5,Q1*%
%TO.N,/DB1*%
X58420000Y-88900000D03*
%TO.P,D11,6,Q2*%
%TO.N,/DB2*%
X60960000Y-88900000D03*
%TO.P,D11,7,D2*%
%TO.N,/Q2*%
X63500000Y-88900000D03*
%TO.P,D11,8,D3*%
%TO.N,/Q3*%
X66040000Y-88900000D03*
%TO.P,D11,9,Q3*%
%TO.N,/DB3*%
X68580000Y-88900000D03*
%TO.P,D11,10,GND*%
%TO.N,GND*%
X71120000Y-88900000D03*
%TO.P,D11,11,PE*%
%TO.N,/"1"*%
X71120000Y-81280000D03*
%TO.P,D11,12,Q4*%
%TO.N,/DB4*%
X68580000Y-81280000D03*
%TO.P,D11,13,D4*%
%TO.N,/Q4*%
X66040000Y-81280000D03*
%TO.P,D11,14,D5*%
%TO.N,/Q5*%
X63500000Y-81280000D03*
%TO.P,D11,15,Q5*%
%TO.N,/DB5*%
X60960000Y-81280000D03*
%TO.P,D11,16,Q6*%
%TO.N,/DB6*%
X58420000Y-81280000D03*
%TO.P,D11,17,D6*%
%TO.N,/Q6*%
X55880000Y-81280000D03*
%TO.P,D11,18,D7*%
%TO.N,/Q7*%
X53340000Y-81280000D03*
%TO.P,D11,19,Q7*%
%TO.N,/DB7*%
X50800000Y-81280000D03*
%TO.P,D11,20,VCC*%
%TO.N,+5V*%
X48260000Y-81280000D03*
%TD*%
D15*
%TO.P,R8,1*%
%TO.N,Net-(D23A-~{R})*%
X130180000Y-121920000D03*
D16*
%TO.P,R8,2*%
%TO.N,+5V*%
X132720000Y-121920000D03*
%TD*%
D15*
%TO.P,R4,1,TOP*%
%TO.N,+5V*%
X86360000Y-45989000D03*
D16*
%TO.P,R4,2,BOT*%
%TO.N,/~{INTA}*%
X86360000Y-43449000D03*
%TD*%
D21*
%TO.P,D2,1,A*%
%TO.N,/~{I{slash}OW}*%
X50800000Y-43180000D03*
D18*
%TO.P,D2,2,B*%
%TO.N,Net-(D2A-B)*%
X50800000Y-45720000D03*
%TO.P,D2,3,Y*%
%TO.N,Net-(D14B-A)*%
X50800000Y-48260000D03*
%TO.P,D2,4,A*%
%TO.N,Net-(D2B-A)*%
X50800000Y-50800000D03*
%TO.P,D2,5,B*%
%TO.N,/~{I{slash}OW}*%
X50800000Y-53340000D03*
%TO.P,D2,6,Y*%
%TO.N,Net-(D2B-Y)*%
X50800000Y-55880000D03*
%TO.P,D2,7,GND*%
%TO.N,GND*%
X50800000Y-58420000D03*
%TO.P,D2,8,Y*%
%TO.N,Net-(D11-~{EO})*%
X58420000Y-58420000D03*
%TO.P,D2,9,A*%
%TO.N,Net-(D2A-B)*%
X58420000Y-55880000D03*
%TO.P,D2,10,B*%
%TO.N,/~{I{slash}OR}*%
X58420000Y-53340000D03*
%TO.P,D2,11,Y*%
%TO.N,/~{D15_CS2}*%
X58420000Y-50800000D03*
%TO.P,D2,12,A*%
%TO.N,Net-(D18B-D)*%
X58420000Y-48260000D03*
%TO.P,D2,13,B*%
%TO.N,Net-(D18B-Q)*%
X58420000Y-45720000D03*
%TO.P,D2,14,VCC*%
%TO.N,+5V*%
X58420000Y-43180000D03*
%TD*%
D19*
%TO.P,J2,1,Pin_1*%
%TO.N,/~{C200_PPI1_}*%
X182880000Y-45720000D03*
D20*
%TO.P,J2,2,Pin_2*%
%TO.N,/~{C400_PPI2_}*%
X182880000Y-48260000D03*
%TO.P,J2,3,Pin_3*%
%TO.N,/~{CS_VG75_}*%
X182880000Y-50800000D03*
%TO.P,J2,4,Pin_4*%
%TO.N,/~{C100_SD_CNTR}*%
X182880000Y-53340000D03*
%TO.P,J2,5,Pin_5*%
%TO.N,/~{CS_ROM}*%
X182880000Y-55880000D03*
%TO.P,J2,6,Pin_6*%
%TO.N,/~{RAM_MAIN}*%
X182880000Y-58420000D03*
%TO.P,J2,7,Pin_7*%
%TO.N,/~{CC00_VI53_1_}*%
X182880000Y-60960000D03*
%TO.P,J2,8,Pin_8*%
%TO.N,/~{CS_DMA_}*%
X182880000Y-63500000D03*
%TO.P,J2,9,Pin_9*%
%TO.N,/CLK*%
X182880000Y-66040000D03*
%TO.P,J2,10,Pin_10*%
%TO.N,/~{C800_VI53_2_}*%
X182880000Y-68580000D03*
%TO.P,J2,11,Pin_11*%
%TO.N,/~{CS_SRAM_8000}*%
X182880000Y-71120000D03*
%TO.P,J2,12,Pin_12*%
%TO.N,/~{CE00}*%
X182880000Y-73660000D03*
%TO.P,J2,13,Pin_13*%
%TO.N,/~{C300}*%
X182880000Y-76200000D03*
%TO.P,J2,14,Pin_14*%
%TO.N,/~{CS_D800}*%
X182880000Y-78740000D03*
%TO.P,J2,15,Pin_15*%
%TO.N,/~{CA00_PPI3}*%
X182880000Y-81280000D03*
%TO.P,J2,16,Pin_16*%
%TO.N,/RAM_SEL*%
X182880000Y-83820000D03*
%TO.P,J2,17,Pin_17*%
%TO.N,/~{MEMW_VT57}*%
X182880000Y-86360000D03*
%TO.P,J2,18,Pin_18*%
%TO.N,/Q7*%
X182880000Y-88900000D03*
%TO.P,J2,19,Pin_19*%
%TO.N,/~{MEMW}*%
X182880000Y-91440000D03*
%TO.P,J2,20,Pin_20*%
%TO.N,/STSTB*%
X182880000Y-93980000D03*
%TO.P,J2,21,Pin_21*%
%TO.N,/~{RD}*%
X182880000Y-96520000D03*
%TO.P,J2,22,Pin_22*%
%TO.N,/ROM_A13*%
X182880000Y-99060000D03*
%TO.P,J2,23,Pin_23*%
%TO.N,/ROM_A14*%
X182880000Y-101600000D03*
%TO.P,J2,24,Pin_24*%
%TO.N,/ROM_A15*%
X182880000Y-104140000D03*
%TD*%
D17*
%TO.P,D4,1,A*%
%TO.N,Net-(D4A-A)*%
X78740000Y-111760000D03*
D18*
%TO.P,D4,2,B*%
%TO.N,Net-(D18A-~{Q})*%
X81280000Y-111760000D03*
%TO.P,D4,3,Y*%
%TO.N,Net-(D18A-D)*%
X83820000Y-111760000D03*
%TO.P,D4,4,A*%
%TO.N,/P0*%
X86360000Y-111760000D03*
%TO.P,D4,5,B*%
%TO.N,Net-(D2B-Y)*%
X88900000Y-111760000D03*
%TO.P,D4,6,Y*%
%TO.N,Net-(D4A-A)*%
X91440000Y-111760000D03*
%TO.P,D4,7,GND*%
%TO.N,GND*%
X93980000Y-111760000D03*
%TO.P,D4,8,Y*%
%TO.N,/~{D15_CS1}*%
X93980000Y-104140000D03*
%TO.P,D4,9,A*%
%TO.N,/P1*%
X91440000Y-104140000D03*
%TO.P,D4,10,B*%
%TO.N,Net-(D14B-Y)*%
X88900000Y-104140000D03*
%TO.P,D4,11,Y*%
%TO.N,/~{WE_628512}*%
X86360000Y-104140000D03*
%TO.P,D4,12,A*%
%TO.N,/~{MWR}*%
X83820000Y-104140000D03*
%TO.P,D4,13,B*%
%TO.N,Net-(D14C-Y)*%
X81280000Y-104140000D03*
%TO.P,D4,14,VCC*%
%TO.N,+5V*%
X78740000Y-104140000D03*
%TD*%
D21*
%TO.P,D19,1,0*%
%TO.N,/AB7*%
X172720000Y-43180000D03*
D18*
%TO.P,D19,2,1*%
%TO.N,/AB6*%
X172720000Y-45720000D03*
%TO.P,D19,3,2*%
%TO.N,/AB5*%
X172720000Y-48260000D03*
%TO.P,D19,4,~{E2}*%
%TO.N,/~{F700}*%
X172720000Y-50800000D03*
%TO.P,D19,5,~{E3}*%
X172720000Y-53340000D03*
%TO.P,D19,6,E1*%
%TO.N,/"1"*%
X172720000Y-55880000D03*
%TO.P,D19,7,7*%
%TO.N,Net-(D24D-A)*%
X172720000Y-58420000D03*
%TO.P,D19,8,GND*%
%TO.N,GND*%
X172720000Y-60960000D03*
%TO.P,D19,9,6*%
%TO.N,Net-(D19-6)*%
X180340000Y-60960000D03*
%TO.P,D19,10,5*%
%TO.N,Net-(D19-5)*%
X180340000Y-58420000D03*
%TO.P,D19,11,4*%
%TO.N,Net-(D19-4)*%
X180340000Y-55880000D03*
%TO.P,D19,12,3*%
%TO.N,Net-(D19-3)*%
X180340000Y-53340000D03*
%TO.P,D19,13,2*%
%TO.N,Net-(D21B-A)*%
X180340000Y-50800000D03*
%TO.P,D19,14,1*%
%TO.N,unconnected-(D19-1-Pad14)*%
X180340000Y-48260000D03*
%TO.P,D19,15,0*%
%TO.N,unconnected-(D19-0-Pad15)*%
X180340000Y-45720000D03*
%TO.P,D19,16,VCC*%
%TO.N,+5V*%
X180340000Y-43180000D03*
%TD*%
D17*
%TO.P,D7,1,~{EO}*%
%TO.N,/HLDA*%
X109220000Y-81280000D03*
D18*
%TO.P,D7,2,Q0*%
%TO.N,/AB8*%
X111760000Y-81280000D03*
%TO.P,D7,3,D0*%
%TO.N,/A8*%
X114300000Y-81280000D03*
%TO.P,D7,4,D1*%
%TO.N,/A9*%
X116840000Y-81280000D03*
%TO.P,D7,5,Q1*%
%TO.N,/AB9*%
X119380000Y-81280000D03*
%TO.P,D7,6,Q2*%
%TO.N,/AB10*%
X121920000Y-81280000D03*
%TO.P,D7,7,D2*%
%TO.N,/A10*%
X124460000Y-81280000D03*
%TO.P,D7,8,D3*%
%TO.N,/A11*%
X127000000Y-81280000D03*
%TO.P,D7,9,Q3*%
%TO.N,/AB11*%
X129540000Y-81280000D03*
%TO.P,D7,10,GND*%
%TO.N,GND*%
X132080000Y-81280000D03*
%TO.P,D7,11,PE*%
%TO.N,/"1"*%
X132080000Y-73660000D03*
%TO.P,D7,12,Q4*%
%TO.N,/AB12*%
X129540000Y-73660000D03*
%TO.P,D7,13,D4*%
%TO.N,/A12*%
X127000000Y-73660000D03*
%TO.P,D7,14,D5*%
%TO.N,/A13*%
X124460000Y-73660000D03*
%TO.P,D7,15,Q5*%
%TO.N,/AB13*%
X121920000Y-73660000D03*
%TO.P,D7,16,Q6*%
%TO.N,/AB14*%
X119380000Y-73660000D03*
%TO.P,D7,17,D6*%
%TO.N,/A14*%
X116840000Y-73660000D03*
%TO.P,D7,18,D7*%
%TO.N,/A15*%
X114300000Y-73660000D03*
%TO.P,D7,19,Q7*%
%TO.N,/AB15*%
X111760000Y-73660000D03*
%TO.P,D7,20,VCC*%
%TO.N,+5V*%
X109220000Y-73660000D03*
%TD*%
D15*
%TO.P,R11,1,TOP*%
%TO.N,/P2*%
X102240000Y-83820000D03*
D16*
%TO.P,R11,2,BOT*%
%TO.N,+5V*%
X104780000Y-83820000D03*
%TD*%
D24*
%TO.P,D23,1,~{R}*%
%TO.N,Net-(D23A-~{R})*%
X127000000Y-106680000D03*
D18*
%TO.P,D23,2,D*%
%TO.N,Net-(D23A-D)*%
X127000000Y-109220000D03*
%TO.P,D23,3,C*%
%TO.N,Net-(D22E-Y)*%
X127000000Y-111760000D03*
%TO.P,D23,4,~{S}*%
%TO.N,Net-(D23A-~{R})*%
X127000000Y-114300000D03*
%TO.P,D23,5,Q*%
%TO.N,/8MHZ*%
X127000000Y-116840000D03*
%TO.P,D23,6,~{Q}*%
%TO.N,Net-(D23A-D)*%
X127000000Y-119380000D03*
%TO.P,D23,7,GND*%
%TO.N,GND*%
X127000000Y-121920000D03*
%TO.P,D23,8,~{Q}*%
%TO.N,Net-(D23A-~{R})*%
X119380000Y-121920000D03*
%TO.P,D23,9,Q*%
%TO.N,/CLK*%
X119380000Y-119380000D03*
%TO.P,D23,10,~{S}*%
%TO.N,Net-(D23A-~{R})*%
X119380000Y-116840000D03*
%TO.P,D23,11,C*%
%TO.N,/8MHZ*%
X119380000Y-114300000D03*
%TO.P,D23,12,D*%
%TO.N,Net-(D23A-~{R})*%
X119380000Y-111760000D03*
%TO.P,D23,13,~{R}*%
%TO.N,unconnected-(D23B-~{R}-Pad13)*%
X119380000Y-109220000D03*
%TO.P,D23,14,VCC*%
%TO.N,+5V*%
X119380000Y-106680000D03*
%TD*%
D25*
%TO.N,+5V*%
X109220000Y-78740000D03*
X172720000Y-93980000D03*
X156844301Y-78739301D03*
X77433240Y-66638240D03*
X131530000Y-84174260D03*
X79241000Y-43180000D03*
X111760000Y-78740000D03*
X128646220Y-83296740D03*
X102235000Y-109855000D03*
X79375000Y-70619000D03*
X114300000Y-107315000D03*
X114654260Y-79094260D03*
X99962000Y-108585000D03*
%TO.N,/"1"*%
X168910000Y-60325000D03*
X178440000Y-42540000D03*
X79375000Y-80010000D03*
X177163602Y-53340000D03*
X153035000Y-64770000D03*
X176965950Y-44894502D03*
X172170000Y-62016050D03*
X130175000Y-72390000D03*
X174625000Y-56331000D03*
D26*
X137300025Y-64629975D03*
D25*
X178188909Y-46108909D03*
X174625000Y-57785000D03*
X128905000Y-71755000D03*
X130556000Y-69850000D03*
X75565000Y-83820000D03*
%TO.N,/~{MEMR}*%
X77739000Y-50316072D03*
%TO.N,/P3*%
X118110000Y-96520000D03*
X98038591Y-90556409D03*
X103505000Y-92710000D03*
X114300000Y-92710000D03*
X99695000Y-90061546D03*
X107315000Y-92710000D03*
X105410000Y-92710000D03*
%TO.N,/P1*%
X106045000Y-88265000D03*
X107950000Y-87630000D03*
X91440000Y-96520000D03*
X98425000Y-94615000D03*
X111760000Y-88265000D03*
X102870000Y-90170000D03*
X109855000Y-88265000D03*
X99695000Y-88900000D03*
%TO.N,Net-(D22F-A)*%
X129540000Y-104191000D03*
%TO.N,Net-(D22E-A)*%
X131221000Y-112991000D03*
X122552299Y-113438851D03*
%TO.N,Net-(D23A-~{R})*%
X125476000Y-107696000D03*
X129540000Y-114300000D03*
X121920000Y-116586000D03*
X121920000Y-114750000D03*
X122357000Y-123974000D03*
X122174000Y-108712000D03*
%TO.N,/D5*%
X83370000Y-51693266D03*
D26*
%TO.N,GND*%
X106927948Y-79953577D03*
D25*
X54011760Y-76163240D03*
X114300000Y-124460000D03*
D26*
X162560000Y-88900000D03*
D25*
%TO.N,/A1*%
X87948199Y-77788199D03*
%TO.N,/~{WR}*%
X83363950Y-47159000D03*
X77889000Y-48260000D03*
%TO.N,/D6*%
X83370000Y-50800000D03*
%TO.N,/A2*%
X96416555Y-71570000D03*
X96520000Y-76200000D03*
%TO.N,/DBIN*%
X78290000Y-55880000D03*
%TO.N,/DB3*%
X147320000Y-86810000D03*
X172720000Y-86360000D03*
X64638000Y-78740000D03*
X162560000Y-86360000D03*
%TO.N,/AB8*%
X110659000Y-93980000D03*
%TO.N,/AB12*%
X110560863Y-105085137D03*
X121920000Y-109220000D03*
D26*
X111760000Y-106284274D03*
D25*
%TO.N,/R3*%
X164711091Y-68191091D03*
X148844000Y-94530000D03*
%TO.N,/AB4*%
X94298199Y-89218199D03*
%TO.N,/AB1*%
X97519043Y-86483139D03*
X83820000Y-86360000D03*
%TO.N,/DB7*%
X149225000Y-72390000D03*
X159456409Y-76271409D03*
X168275000Y-81915000D03*
X161290000Y-76835000D03*
%TO.N,/~{RD}*%
X166370000Y-126365000D03*
%TO.N,/AB5*%
X137996247Y-89302495D03*
X102050000Y-96520000D03*
X107130000Y-91440000D03*
X143764000Y-83058000D03*
X125561000Y-102235000D03*
X97933000Y-88534000D03*
X105951547Y-91440000D03*
X135382000Y-91186000D03*
X93980000Y-86360000D03*
X107265396Y-88951000D03*
X144272000Y-81894000D03*
X96573589Y-86941703D03*
X170831000Y-46990000D03*
X134620000Y-116390000D03*
D26*
X128579000Y-106610472D03*
D25*
%TO.N,/AB7*%
X156090003Y-78740000D03*
X86995000Y-97790000D03*
X119523525Y-115426475D03*
X166089000Y-92879000D03*
X160020000Y-38100000D03*
X121920000Y-119380000D03*
X157734000Y-80518000D03*
X152400000Y-68580000D03*
X154940000Y-38100000D03*
X113911091Y-119768909D03*
%TO.N,/AB10*%
X121920000Y-88900000D03*
D26*
X124460000Y-93980000D03*
D25*
%TO.N,/AB6*%
X165100000Y-73660000D03*
X178401749Y-52738251D03*
X76588000Y-104529817D03*
X167141000Y-90051000D03*
X68580000Y-109220000D03*
X172720000Y-69969997D03*
X76588000Y-93980000D03*
X180340000Y-63500000D03*
%TO.N,/AB0*%
X132080000Y-84996021D03*
X127293699Y-84162699D03*
X109220000Y-83820000D03*
X142558199Y-93430000D03*
X107130000Y-78740000D03*
%TO.N,/AB13*%
X119380000Y-91440000D03*
X124460000Y-96520000D03*
%TO.N,/DB4*%
X81280000Y-92710000D03*
X163195000Y-99695000D03*
X105410000Y-91440000D03*
X81915000Y-95250000D03*
X99695000Y-92710000D03*
X85090000Y-92710000D03*
X119380000Y-98425000D03*
X87701409Y-93416409D03*
X93345000Y-97155000D03*
X70556409Y-90241409D03*
X102870000Y-93345000D03*
X156845000Y-94615000D03*
X78176409Y-95321409D03*
X132715000Y-97155000D03*
%TO.N,/AB2*%
X116840000Y-104140000D03*
X98298000Y-87376000D03*
D26*
X88900000Y-86360000D03*
D25*
X93472000Y-85344000D03*
X97200843Y-86801339D03*
X103632000Y-90170000D03*
X93218000Y-82804000D03*
X105156000Y-90170000D03*
%TO.N,/DB2*%
X165100000Y-105529997D03*
X65405000Y-95885000D03*
X65405000Y-92710000D03*
X170180000Y-125730000D03*
X60960000Y-82782000D03*
X63147151Y-80006499D03*
%TO.N,/DB1*%
X146685000Y-89535000D03*
X165342169Y-104690000D03*
X166489997Y-106680000D03*
X149098000Y-88900000D03*
X84455000Y-79375000D03*
D26*
X108375025Y-78595025D03*
D25*
X137088591Y-75493591D03*
X137160000Y-85090000D03*
%TO.N,/DB5*%
X162560000Y-93980000D03*
X162560000Y-84970003D03*
X168275000Y-103505000D03*
X154940000Y-79890003D03*
X161674594Y-84491644D03*
X87173175Y-67766825D03*
X81280000Y-71120000D03*
X164338000Y-93377701D03*
X63500000Y-74295000D03*
X157480000Y-83820000D03*
X129540000Y-71120000D03*
%TO.N,/~{WE_628512}*%
X115570000Y-103505000D03*
X93345000Y-102870000D03*
X99610000Y-102235000D03*
X102235000Y-99060000D03*
X87173175Y-102413175D03*
X104775000Y-99695000D03*
%TO.N,/DB6*%
X164111000Y-93980000D03*
X154151000Y-79576649D03*
X129990000Y-66040000D03*
X73660000Y-75565000D03*
X142240000Y-66040000D03*
X166243169Y-104140000D03*
X86810000Y-65936555D03*
X81730000Y-66040000D03*
X84459277Y-65409277D03*
X87979348Y-66040000D03*
X73660000Y-68580000D03*
X132080000Y-66040000D03*
%TO.N,/DB0*%
X167640000Y-123825000D03*
%TO.N,/ARR18*%
X118566825Y-117653175D03*
X120481000Y-119380000D03*
X118110000Y-118432002D03*
X111210000Y-116451930D03*
X115689997Y-116840000D03*
%TO.N,/AB3*%
X107950000Y-82353147D03*
X123021000Y-102701000D03*
D26*
X90339000Y-79984950D03*
D25*
X108161954Y-85664421D03*
X128150003Y-109220000D03*
X124675633Y-104702185D03*
X104107314Y-84630504D03*
%TO.N,/HLDA*%
X98425000Y-105410000D03*
X103039000Y-78283950D03*
%TO.N,/STSTB*%
X63500000Y-38100000D03*
%TO.N,/~{RESET}*%
X93980000Y-109220000D03*
X102870000Y-110490000D03*
X93345000Y-109855000D03*
X92075000Y-109855000D03*
X83185000Y-99060000D03*
%TO.N,/Q5*%
X63500000Y-95250000D03*
X93345000Y-99695000D03*
X86923591Y-100258591D03*
X73025000Y-100330000D03*
%TO.N,Net-(D5B-A)*%
X114300000Y-117990003D03*
%TO.N,/Q6*%
X74295000Y-93980000D03*
X90871000Y-98359000D03*
X88900000Y-97790000D03*
X71120000Y-93345000D03*
X73660000Y-94615000D03*
%TO.N,Net-(D2B-A)*%
X105410000Y-110490000D03*
X86360000Y-102750003D03*
X95970000Y-106680000D03*
X73698800Y-99060000D03*
%TO.N,/Q7*%
X88265000Y-127000000D03*
X70485000Y-93980000D03*
X71755000Y-93980000D03*
X79375000Y-99695000D03*
X74295000Y-100965000D03*
X86360000Y-124460000D03*
X85725000Y-126365000D03*
X81915000Y-99060000D03*
%TO.N,/~{D15_CS1}*%
X121920000Y-95250000D03*
X118110000Y-92710000D03*
X107950000Y-104140000D03*
D26*
X95820000Y-103371818D03*
D25*
X101600000Y-102870000D03*
X99695000Y-102870000D03*
X107315000Y-106680000D03*
X102870000Y-106680000D03*
X140589000Y-92837000D03*
D26*
X108054031Y-105740999D03*
D25*
%TO.N,/~{RAM_MAIN}*%
X179790000Y-111760000D03*
X136525000Y-87630000D03*
X172068999Y-62669654D03*
X169029997Y-63500000D03*
%TO.N,/~{CC00_VI53_1}*%
X170180000Y-77350003D03*
%TO.N,/~{CS_SRAM_8000}*%
X176784000Y-71882000D03*
X171450000Y-112395000D03*
D26*
X171219000Y-77850003D03*
D25*
X174498000Y-77216000D03*
X168497038Y-90050000D03*
%TO.N,/~{CA00_PPI3}*%
X168275000Y-72871000D03*
%TO.N,/R2*%
X163949649Y-68580000D03*
D26*
%TO.N,/~{CE00}*%
X174800941Y-73157952D03*
X174049697Y-77946961D03*
D25*
%TO.N,/~{C300}*%
X174498000Y-75184000D03*
X174752000Y-73914000D03*
%TO.N,/~{C800_VI53_2}*%
X168656000Y-79248000D03*
%TO.N,/~{CS_D800}*%
X167640000Y-78740000D03*
X173509000Y-82983351D03*
%TO.N,/~{C100_SD_CNTR}*%
X178754843Y-53017225D03*
X177165000Y-59690000D03*
X174625000Y-61595000D03*
X161925000Y-74295000D03*
X158115000Y-73660000D03*
%TO.N,Net-(D10-D4)*%
X160020000Y-93345000D03*
X147320000Y-100330000D03*
X163195000Y-95250000D03*
X141605000Y-95250000D03*
X137160000Y-92710000D03*
X133985000Y-92075000D03*
%TO.N,Net-(D10-D5)*%
X162560000Y-86995000D03*
X133350000Y-90805000D03*
X172085000Y-86995000D03*
X138430000Y-88265000D03*
X139700000Y-86995000D03*
D26*
%TO.N,/AB15*%
X106680000Y-72390000D03*
D25*
X102235000Y-92075000D03*
%TO.N,Net-(D10-D2)*%
X149098000Y-94996000D03*
X142748000Y-101346000D03*
X150876000Y-92160000D03*
%TO.N,/AB14*%
X113149997Y-92075000D03*
%TO.N,Net-(D10-D6)*%
X141986000Y-87630000D03*
X132715000Y-90805000D03*
X161925000Y-87630000D03*
X137160000Y-88392000D03*
%TO.N,Net-(D10-D0)*%
X144272000Y-94488000D03*
X130090000Y-99822000D03*
X124206000Y-99568000D03*
X123444000Y-100838000D03*
%TO.N,Net-(D10-D7)*%
X154305000Y-81915000D03*
D26*
X164338000Y-82219001D03*
D25*
X146050000Y-81915000D03*
X131445000Y-90170000D03*
X137795000Y-88900000D03*
D26*
X155788530Y-82971470D03*
D25*
%TO.N,Net-(D10-~{WE})*%
X106230000Y-88900000D03*
X100161000Y-116205000D03*
X103752825Y-97414171D03*
%TO.N,Net-(D10-D3)*%
X139065000Y-85725000D03*
X142240000Y-86360000D03*
X132715000Y-85090000D03*
%TO.N,Net-(D10-D1)*%
X130090000Y-100571406D03*
X124714000Y-99822000D03*
X150622000Y-93726000D03*
%TO.N,Net-(D24D-A)*%
X170831000Y-59367998D03*
X167640000Y-60960000D03*
%TO.N,Net-(D21B-A)*%
X178816000Y-56134000D03*
X176784000Y-56896000D03*
X178816000Y-63246000D03*
X174236091Y-71366091D03*
X174244000Y-68580000D03*
%TO.N,Net-(D19-5)*%
X167640000Y-53340000D03*
X176699000Y-54779000D03*
%TO.N,Net-(D19-3)*%
X175379091Y-61856909D03*
X178562000Y-54864000D03*
X178308000Y-66548000D03*
D26*
X177800000Y-57819000D03*
D25*
X177546000Y-56388000D03*
%TO.N,/R7*%
X102235000Y-117475000D03*
X104376487Y-110091487D03*
X135890000Y-91440000D03*
X95885000Y-116840000D03*
X140970000Y-88265000D03*
X97155000Y-116840000D03*
X138430000Y-89535000D03*
X161500727Y-88054273D03*
%TO.N,/R5*%
X88265000Y-124460000D03*
X92075000Y-125095000D03*
X177800000Y-121285000D03*
%TO.N,/R6*%
X164084000Y-88138000D03*
X140208000Y-105156000D03*
X130556000Y-109220000D03*
X113750000Y-110236000D03*
X164592000Y-85852000D03*
X96273909Y-113276091D03*
X131064000Y-108204000D03*
X162269310Y-88318620D03*
X103320003Y-110490000D03*
X130556000Y-109220000D03*
X128524000Y-107696000D03*
X122682000Y-109220000D03*
X95885000Y-115570000D03*
X155448000Y-93472000D03*
X97155000Y-112395000D03*
%TO.N,Net-(D14C-Y)*%
X62865000Y-76835000D03*
X80010000Y-92710000D03*
%TO.N,Net-(D2A-B)*%
X82550000Y-85725000D03*
%TO.N,Net-(D2B-Y)*%
X73019326Y-108579326D03*
X50800000Y-75049997D03*
X55880000Y-86360000D03*
X83820000Y-109220000D03*
%TO.N,/ROM_A14*%
X93345000Y-125095000D03*
X183515000Y-118745000D03*
X88900000Y-124460000D03*
%TO.N,/ROM_A13*%
X93980000Y-125095000D03*
X184369000Y-116840000D03*
X89535000Y-124460000D03*
%TO.N,/~{MWR}*%
X97155000Y-118745000D03*
X87630000Y-117475000D03*
X95885000Y-118745000D03*
%TO.N,/ROM_A15*%
X116840000Y-125095000D03*
X89535000Y-116205000D03*
X121285000Y-126365000D03*
X87630000Y-124460000D03*
%TO.N,Net-(D14B-Y)*%
X72390000Y-108585000D03*
X86995000Y-106045000D03*
X85586547Y-107411916D03*
X88265000Y-106045000D03*
X51435000Y-97155000D03*
X76835000Y-108585000D03*
%TO.N,Net-(D21B-Y)*%
X140162090Y-92694697D03*
X123952000Y-98298000D03*
X117856000Y-99822000D03*
X128270000Y-93472000D03*
X145796000Y-86614000D03*
X160782000Y-86360000D03*
X114046000Y-100076000D03*
X170942000Y-80772000D03*
%TO.N,/~{CC00_VI53_1_}*%
X177546000Y-74168000D03*
X157480000Y-84582000D03*
X158242000Y-83820000D03*
X143510000Y-86614000D03*
X173990000Y-79756000D03*
X138684000Y-90424000D03*
X155956000Y-84582000D03*
X118364000Y-102870000D03*
X122936000Y-97790000D03*
X155201909Y-85844091D03*
X118110000Y-100330000D03*
X160570000Y-84935667D03*
X127254000Y-93218000D03*
%TO.N,/C800_VI53_2*%
X100512000Y-109855000D03*
X107950000Y-125222000D03*
X175006000Y-116840000D03*
X100076000Y-124714000D03*
X176276000Y-99568000D03*
%TO.N,Net-(D14A-A)*%
X82550000Y-108585000D03*
X75565000Y-106045000D03*
X97155000Y-104775000D03*
X109220000Y-107315000D03*
X62865000Y-78105000D03*
X109220000Y-106045000D03*
X102235000Y-107950000D03*
X100512000Y-107315000D03*
X89535000Y-109220000D03*
X95638909Y-112641091D03*
X100448817Y-105982531D03*
%TO.N,Net-(D20B-B)*%
X108585000Y-116205000D03*
%TO.N,/~{C800_VI53_2_}*%
X135382000Y-80264000D03*
X155956000Y-82296000D03*
X154178000Y-80264000D03*
X107442000Y-97790000D03*
X115824000Y-85598000D03*
X106172000Y-97790000D03*
X172212000Y-82804000D03*
X163830000Y-81718001D03*
X170688000Y-82550000D03*
X169672000Y-82550000D03*
%TO.N,/~{C400_PPI2_}*%
X172720000Y-40640000D03*
%TO.N,/~{C200_PPI1_}*%
X160020000Y-43180000D03*
%TO.N,/CLK*%
X175768000Y-88392000D03*
X174752000Y-89408000D03*
X134620000Y-120904000D03*
X170180000Y-97790000D03*
X153162000Y-104140000D03*
X159766000Y-104140000D03*
X173228000Y-94488000D03*
%TO.N,Net-(D22E-Y)*%
X124283751Y-123513851D03*
X123194276Y-120654276D03*
X123512001Y-122571000D03*
%TO.N,/R8*%
X81915000Y-115570000D03*
X50165000Y-72390000D03*
X93345000Y-107950000D03*
X104775000Y-108585000D03*
X72390000Y-113030000D03*
X76835000Y-114935000D03*
X103505000Y-109855000D03*
%TO.N,Net-(D21A-B)*%
X158750000Y-79502000D03*
X134366000Y-108712000D03*
X168148000Y-70358000D03*
X157988000Y-85598000D03*
X155956000Y-85852000D03*
X158122909Y-88765091D03*
X157480000Y-81280000D03*
X138938000Y-105156000D03*
X151384000Y-94488000D03*
X130048000Y-113792000D03*
X171196000Y-69850000D03*
X123190000Y-112268000D03*
D26*
%TO.N,/~{MEMW_VT57}*%
X101600000Y-125095000D03*
X174021079Y-123221079D03*
D25*
X103077732Y-124929000D03*
D26*
X182680000Y-110938946D03*
D25*
%TO.N,Net-(D20B-A)*%
X157226000Y-100838000D03*
X174018352Y-82182321D03*
X155702000Y-102362000D03*
X174244000Y-78740000D03*
X174752000Y-79756000D03*
X165100000Y-93218000D03*
X147320000Y-115824000D03*
X168148000Y-85852000D03*
%TO.N,/RAM_SEL*%
X182245000Y-38100000D03*
X184785000Y-85090000D03*
X184770000Y-83820000D03*
X56515000Y-43180000D03*
%TO.N,/~{CS_628512}*%
X173180000Y-108460000D03*
X178180000Y-111460000D03*
%TD*%
D27*
%TO.N,+5V*%
X114940000Y-83820000D02*
X115640000Y-83120000D01*
X114792480Y-105341000D02*
X114300000Y-105833480D01*
X99962000Y-108585000D02*
X100965000Y-108585000D01*
X119380000Y-106680000D02*
X117475000Y-104775000D01*
X79375000Y-70619000D02*
X79375000Y-71755000D01*
X111760000Y-78740000D02*
X109220000Y-78740000D01*
X169580000Y-102200000D02*
X169545000Y-102235000D01*
X81280000Y-55880000D02*
X79375000Y-57785000D01*
X137160000Y-83820000D02*
X139636000Y-81344000D01*
X115363471Y-104775000D02*
X114797471Y-105341000D01*
X81296000Y-46116000D02*
X86233000Y-46116000D01*
X78740000Y-43180000D02*
X76200000Y-45720000D01*
X114300000Y-105833480D02*
X114300000Y-107315000D01*
X117475000Y-104775000D02*
X115363471Y-104775000D01*
X169580000Y-97120000D02*
X169580000Y-102200000D01*
X79375000Y-64696480D02*
X77433240Y-66638240D01*
X86233000Y-46116000D02*
X86360000Y-45989000D01*
X100965000Y-108585000D02*
X102235000Y-109855000D01*
X130652480Y-83296740D02*
X131530000Y-84174260D01*
X128646220Y-83296740D02*
X130652480Y-83296740D01*
X79241000Y-43180000D02*
X78740000Y-43180000D01*
X115640000Y-80080000D02*
X114654260Y-79094260D01*
X114797471Y-105341000D02*
X114792480Y-105341000D01*
X156844301Y-78739301D02*
X156844301Y-78955749D01*
X154456050Y-81344000D02*
X154167480Y-81344000D01*
X139636000Y-81344000D02*
X154167480Y-81344000D01*
X79375000Y-71755000D02*
X81280000Y-73660000D01*
X81280000Y-53340000D02*
X81280000Y-55880000D01*
X119380000Y-106680000D02*
X124460000Y-106680000D01*
X156844301Y-78955749D02*
X154456050Y-81344000D01*
X79375000Y-57785000D02*
X79375000Y-64696480D01*
X115640000Y-83120000D02*
X115640000Y-80080000D01*
X172720000Y-93980000D02*
X169580000Y-97120000D01*
D28*
%TO.N,/"1"*%
X79375000Y-80010000D02*
X75565000Y-83820000D01*
X173176050Y-62061000D02*
X174625000Y-60612050D01*
X178440000Y-42540000D02*
X178440000Y-40640000D01*
X174625000Y-56331000D02*
X173171000Y-56331000D01*
X71534628Y-107681000D02*
X72121000Y-107094628D01*
X48260000Y-106680000D02*
X50163000Y-108583000D01*
X71534628Y-105679000D02*
X71120000Y-105679000D01*
X153035000Y-64770000D02*
X153035000Y-63989372D01*
X174625000Y-60612050D02*
X174625000Y-57785000D01*
X178111059Y-46108909D02*
X178188909Y-46108909D01*
X70019000Y-94149000D02*
X70019000Y-87461000D01*
X154525372Y-62499000D02*
X166736000Y-62499000D01*
X72121000Y-106265372D02*
X71534628Y-105679000D01*
X71120000Y-95250000D02*
X70019000Y-94149000D01*
X50163000Y-108583000D02*
X70774050Y-108583000D01*
X71120000Y-108237050D02*
X71120000Y-107681000D01*
X176965950Y-44894502D02*
X176965950Y-44963800D01*
X176347398Y-56331000D02*
X174625000Y-56331000D01*
X71120000Y-107681000D02*
X71534628Y-107681000D01*
X128905000Y-71755000D02*
X129540000Y-71755000D01*
X129540000Y-71755000D02*
X130175000Y-72390000D01*
X132080000Y-69850000D02*
X137300025Y-64629975D01*
X166736000Y-62499000D02*
X168910000Y-60325000D01*
X71120000Y-105679000D02*
X71120000Y-95250000D01*
X153035000Y-63989372D02*
X154525372Y-62499000D01*
X71120000Y-86360000D02*
X71120000Y-81280000D01*
X178251000Y-54427398D02*
X176347398Y-56331000D01*
X70774050Y-108583000D02*
X71120000Y-108237050D01*
X70019000Y-87461000D02*
X71120000Y-86360000D01*
X173171000Y-56331000D02*
X172720000Y-55880000D01*
X176965950Y-44963800D02*
X178111059Y-46108909D01*
X172214950Y-62061000D02*
X173176050Y-62061000D01*
X130556000Y-69850000D02*
X132080000Y-69850000D01*
X72121000Y-107094628D02*
X72121000Y-106265372D01*
X177163602Y-53340000D02*
X178251000Y-54427398D01*
X172170000Y-62016050D02*
X172214950Y-62061000D01*
%TO.N,/~{INTA}*%
X86360000Y-43449000D02*
X87718760Y-43449000D01*
X80279000Y-41879000D02*
X82669000Y-39489000D01*
X87718760Y-43449000D02*
X88380880Y-42786880D01*
X90051000Y-41116760D02*
X88380880Y-42786880D01*
X89376760Y-39489000D02*
X90051000Y-40163240D01*
X90051000Y-40163240D02*
X90051000Y-41116760D01*
X75743950Y-47159000D02*
X76714628Y-47159000D01*
X75099000Y-57319000D02*
X75099000Y-47803950D01*
X80279000Y-43594628D02*
X80279000Y-41879000D01*
X76714628Y-47159000D02*
X80279000Y-43594628D01*
X82669000Y-39489000D02*
X89376760Y-39489000D01*
X75099000Y-47803950D02*
X75743950Y-47159000D01*
X76200000Y-58420000D02*
X75099000Y-57319000D01*
%TO.N,/~{MEMW}*%
X79307100Y-45720000D02*
X79326372Y-45720000D01*
X77301000Y-47726100D02*
X79307100Y-45720000D01*
X77301000Y-49699000D02*
X77301000Y-47726100D01*
X76200000Y-50800000D02*
X77301000Y-49699000D01*
X79326372Y-45720000D02*
X80454372Y-44592000D01*
X80454372Y-44592000D02*
X82693000Y-44592000D01*
X82693000Y-44592000D02*
X83836000Y-43449000D01*
%TO.N,/~{I{slash}OW}*%
X57319000Y-59859000D02*
X57319000Y-75099000D01*
X82281000Y-42179000D02*
X87361000Y-42179000D01*
X57319000Y-75099000D02*
X58420000Y-76200000D01*
X76200000Y-48260000D02*
X81280000Y-43180000D01*
X76200000Y-48260000D02*
X82281000Y-42179000D01*
X50800000Y-53340000D02*
X57319000Y-59859000D01*
X87361000Y-42179000D02*
X88900000Y-40640000D01*
%TO.N,/~{MEMR}*%
X76200000Y-55880000D02*
X77201000Y-54879000D01*
X77201000Y-50854072D02*
X77739000Y-50316072D01*
X77201000Y-54879000D02*
X77201000Y-50854072D01*
%TO.N,/P3*%
X139700000Y-83820000D02*
X140970000Y-85090000D01*
X114300000Y-92710000D02*
X112629000Y-94381000D01*
X162209449Y-85186551D02*
X162159000Y-85136103D01*
X143084322Y-85090000D02*
X143216322Y-85222000D01*
X161544000Y-85852000D02*
X162209449Y-85186551D01*
X159086322Y-85852000D02*
X161544000Y-85852000D01*
X162159000Y-85136103D02*
X162159000Y-84803903D01*
X158324322Y-85090000D02*
X159086322Y-85852000D01*
X126031000Y-88599000D02*
X118110000Y-96520000D01*
X143216322Y-85222000D02*
X152980728Y-85222000D01*
X140970000Y-85090000D02*
X143084322Y-85090000D01*
X162393900Y-84569003D02*
X162560000Y-84569003D01*
X112629000Y-94381000D02*
X108986000Y-94381000D01*
X162159000Y-84803903D02*
X162393900Y-84569003D01*
X108986000Y-94381000D02*
X107315000Y-92710000D01*
X134620000Y-86360000D02*
X132381000Y-88599000D01*
X105410000Y-92710000D02*
X103505000Y-92710000D01*
X153112728Y-85090000D02*
X158324322Y-85090000D01*
X152980728Y-85222000D02*
X153112728Y-85090000D01*
X162560000Y-84569003D02*
X162560000Y-83820000D01*
X132381000Y-88599000D02*
X126031000Y-88599000D01*
X99695000Y-90061546D02*
X99200137Y-90556409D01*
X99200137Y-90556409D02*
X98038591Y-90556409D01*
%TO.N,/P2*%
X93980000Y-93980000D02*
X95419000Y-92541000D01*
X95419000Y-92541000D02*
X95419000Y-86995000D01*
X102240000Y-84460000D02*
X102240000Y-83820000D01*
X95419000Y-86995000D02*
X97155000Y-85259000D01*
X103039000Y-85259000D02*
X104140000Y-86360000D01*
X97155000Y-85259000D02*
X103039000Y-85259000D01*
X104140000Y-86360000D02*
X102240000Y-84460000D01*
%TO.N,/P1*%
X97637591Y-93827591D02*
X97637591Y-90390309D01*
X106045000Y-88265000D02*
X106145000Y-88265000D01*
X91440000Y-93980000D02*
X91440000Y-96520000D01*
X107950000Y-87630000D02*
X109220000Y-87630000D01*
X102870000Y-90170000D02*
X104775000Y-88265000D01*
X111760000Y-86360000D02*
X111760000Y-84460000D01*
X91440000Y-104140000D02*
X92541000Y-103039000D01*
X97637591Y-90390309D02*
X99127900Y-88900000D01*
X98425000Y-94615000D02*
X97637591Y-93827591D01*
X99127900Y-88900000D02*
X99695000Y-88900000D01*
X111760000Y-84460000D02*
X112400000Y-83820000D01*
X92541000Y-103039000D02*
X92541000Y-95081000D01*
X92541000Y-95081000D02*
X91440000Y-93980000D01*
X109220000Y-87630000D02*
X109855000Y-88265000D01*
X111760000Y-88265000D02*
X111760000Y-86360000D01*
X104775000Y-88265000D02*
X106045000Y-88265000D01*
%TO.N,/~{I{slash}OR}*%
X59521000Y-54441000D02*
X58420000Y-53340000D01*
X58420000Y-73660000D02*
X59521000Y-72559000D01*
X59521000Y-72559000D02*
X59521000Y-54441000D01*
%TO.N,Net-(D22F-A)*%
X129540000Y-104191000D02*
X130180000Y-104831000D01*
X130180000Y-104831000D02*
X130180000Y-106680000D01*
%TO.N,Net-(D22E-A)*%
X129019000Y-112991000D02*
X128889000Y-112861000D01*
X128889000Y-112861000D02*
X126543950Y-112861000D01*
X125442950Y-111760000D02*
X124460000Y-111760000D01*
X122552299Y-113438851D02*
X123598851Y-113438851D01*
X131221000Y-112991000D02*
X129019000Y-112991000D01*
X126543950Y-112861000D02*
X125442950Y-111760000D01*
X123598851Y-113438851D02*
X124460000Y-114300000D01*
%TO.N,Net-(D23A-~{R})*%
X121519000Y-124059000D02*
X119380000Y-121920000D01*
X127000000Y-114300000D02*
X125984000Y-113284000D01*
X123869678Y-113284000D02*
X123723529Y-113137851D01*
X122241525Y-113182525D02*
X121920000Y-112861000D01*
X120481000Y-112861000D02*
X119380000Y-111760000D01*
X121185000Y-116586000D02*
X120931000Y-116840000D01*
X125222000Y-107950000D02*
X122936000Y-107950000D01*
X122818399Y-113137851D02*
X122718399Y-113037851D01*
X125476000Y-107696000D02*
X125222000Y-107950000D01*
X121920000Y-116586000D02*
X121185000Y-116586000D01*
X122386199Y-113037851D02*
X122241525Y-113182525D01*
X129540000Y-114300000D02*
X127000000Y-114300000D01*
X123723529Y-113137851D02*
X122818399Y-113137851D01*
X125984000Y-113284000D02*
X123869678Y-113284000D01*
X122272000Y-124059000D02*
X121519000Y-124059000D01*
X120931000Y-116840000D02*
X119380000Y-116840000D01*
X122718399Y-113037851D02*
X122386199Y-113037851D01*
X122357000Y-123974000D02*
X122272000Y-124059000D01*
X121920000Y-112861000D02*
X120481000Y-112861000D01*
X121920000Y-114750000D02*
X121920000Y-112861000D01*
X122936000Y-107950000D02*
X122174000Y-108712000D01*
%TO.N,/D3*%
X114300000Y-48260000D02*
X114300000Y-53340000D01*
%TO.N,/A0*%
X87461000Y-74116050D02*
X87461000Y-72559000D01*
X86360000Y-81280000D02*
X86360000Y-75217050D01*
X87461000Y-72559000D02*
X91440000Y-68580000D01*
X91440000Y-63500000D02*
X91440000Y-68580000D01*
X86360000Y-75217050D02*
X87461000Y-74116050D01*
%TO.N,/D5*%
X82381000Y-55929003D02*
X80010000Y-58300003D01*
X121920000Y-48260000D02*
X121920000Y-53340000D01*
X83370000Y-51693266D02*
X82381000Y-52682266D01*
X80010000Y-58300003D02*
X80010000Y-64770000D01*
X82381000Y-52682266D02*
X82381000Y-55929003D01*
X80010000Y-64770000D02*
X76200000Y-68580000D01*
D27*
%TO.N,GND*%
X107148000Y-85784665D02*
X107148000Y-82826768D01*
X73660000Y-106680000D02*
X78740000Y-101600000D01*
X53340000Y-60960000D02*
X53340000Y-72956471D01*
X107148000Y-81487816D02*
X107148000Y-80618154D01*
X162560000Y-88900000D02*
X160020000Y-91440000D01*
X55279265Y-74895735D02*
X54011760Y-76163240D01*
X127000000Y-48260000D02*
X127000000Y-53340000D01*
X53340000Y-72956471D02*
X55279265Y-74895735D01*
X107048000Y-82726767D02*
X107048000Y-81979527D01*
X107048000Y-81979527D02*
X107315000Y-81712526D01*
X81280000Y-101600000D02*
X86360000Y-101600000D01*
X107315000Y-81654817D02*
X107148000Y-81487816D01*
X107148000Y-82826768D02*
X107048000Y-82726767D01*
X106483423Y-79953577D02*
X106927948Y-79953577D01*
X107315000Y-81712526D02*
X107315000Y-81654817D01*
X138176000Y-75184000D02*
X132080000Y-81280000D01*
X114300000Y-124460000D02*
X114300000Y-121920000D01*
X138176000Y-64516000D02*
X138176000Y-75184000D01*
X107148000Y-80618154D02*
X106483423Y-79953577D01*
X59759000Y-77539000D02*
X60960000Y-78740000D01*
X127000000Y-53340000D02*
X138176000Y-64516000D01*
X81280000Y-101600000D02*
X83820000Y-101600000D01*
X55279265Y-74895735D02*
X57922529Y-77539000D01*
X106680000Y-86360000D02*
X107201667Y-85838333D01*
X57922529Y-77539000D02*
X59759000Y-77539000D01*
X107201667Y-85838333D02*
X107148000Y-85784665D01*
X50800000Y-58420000D02*
X53340000Y-60960000D01*
D28*
%TO.N,/A3*%
X95419000Y-73203950D02*
X97786500Y-70836450D01*
X99343550Y-70836450D02*
X101600000Y-68580000D01*
X95419000Y-74116050D02*
X95419000Y-73203950D01*
X101600000Y-63500000D02*
X101600000Y-68580000D01*
X99060000Y-77757050D02*
X95419000Y-74116050D01*
X99060000Y-81280000D02*
X99060000Y-77757050D01*
X97786500Y-70836450D02*
X99343550Y-70836450D01*
%TO.N,/A1*%
X88900000Y-78740000D02*
X87948199Y-77788199D01*
X88900000Y-81280000D02*
X88900000Y-78740000D01*
X93980000Y-63500000D02*
X93980000Y-68580000D01*
%TO.N,/A8*%
X114300000Y-63500000D02*
X114300000Y-68580000D01*
%TO.N,/A14*%
X124916050Y-62399000D02*
X127000000Y-64482950D01*
X121463950Y-62399000D02*
X124916050Y-62399000D01*
X120819000Y-63043950D02*
X121463950Y-62399000D01*
X127000000Y-64482950D02*
X127000000Y-68580000D01*
X120819000Y-69681000D02*
X120819000Y-63043950D01*
X127000000Y-63500000D02*
X127000000Y-68580000D01*
X116840000Y-73660000D02*
X120819000Y-69681000D01*
%TO.N,/A4*%
X99060000Y-73660000D02*
X104140000Y-68580000D01*
X104140000Y-63500000D02*
X104140000Y-68580000D01*
%TO.N,/A15*%
X114300000Y-73660000D02*
X119380000Y-68580000D01*
X119380000Y-63500000D02*
X119380000Y-68580000D01*
%TO.N,/HLD*%
X99060000Y-48260000D02*
X99060000Y-53340000D01*
%TO.N,/INT*%
X96520000Y-48260000D02*
X96520000Y-53340000D01*
%TO.N,/~{WR}*%
X93511100Y-109454000D02*
X93178900Y-109454000D01*
X93746000Y-110021100D02*
X93746000Y-109688900D01*
X96039909Y-112549909D02*
X96039909Y-112474991D01*
X93178900Y-109454000D02*
X93078900Y-109554000D01*
X93078900Y-109554000D02*
X93044000Y-109554000D01*
X97091500Y-113601500D02*
X96674909Y-113184909D01*
X94436050Y-110659000D02*
X94149000Y-110659000D01*
X96674909Y-113109991D02*
X96440009Y-112875091D01*
X96674909Y-113184909D02*
X96674909Y-113109991D01*
X95081000Y-111303950D02*
X94436050Y-110659000D01*
X97091500Y-115379500D02*
X97091500Y-113601500D01*
X96440009Y-112875091D02*
X96365091Y-112875091D01*
X92900500Y-109410500D02*
X92265500Y-109410500D01*
X90001000Y-107146000D02*
X90001000Y-91321950D01*
X93044000Y-109554000D02*
X92900500Y-109410500D01*
X93628550Y-110138550D02*
X93746000Y-110021100D01*
X93746000Y-109688900D02*
X93511100Y-109454000D01*
X90001000Y-91321950D02*
X92541000Y-88781950D01*
X95805009Y-112240091D02*
X95730091Y-112240091D01*
X99060000Y-121920000D02*
X97959000Y-120819000D01*
X95730091Y-112240091D02*
X95081000Y-111591000D01*
X92541000Y-59521000D02*
X86360000Y-53340000D01*
X92265500Y-109410500D02*
X90001000Y-107146000D01*
X94149000Y-110659000D02*
X93628550Y-110138550D01*
X95081000Y-111591000D02*
X95081000Y-111303950D01*
X97959000Y-120819000D02*
X97959000Y-116247000D01*
X97959000Y-116247000D02*
X97091500Y-115379500D01*
X92541000Y-88781950D02*
X92541000Y-59521000D01*
X96039909Y-112474991D02*
X95805009Y-112240091D01*
X83363950Y-47159000D02*
X78990000Y-47159000D01*
X86360000Y-48260000D02*
X86360000Y-53340000D01*
X78990000Y-47159000D02*
X77889000Y-48260000D01*
X96365091Y-112875091D02*
X96039909Y-112549909D01*
%TO.N,/A6*%
X109220000Y-63500000D02*
X109220000Y-68580000D01*
%TO.N,/D4*%
X124460000Y-48260000D02*
X124460000Y-53340000D01*
%TO.N,/INTE*%
X91440000Y-48260000D02*
X91440000Y-53340000D01*
%TO.N,/D0*%
X106680000Y-48260000D02*
X106680000Y-53340000D01*
%TO.N,/SYN*%
X83820000Y-48260000D02*
X83820000Y-53340000D01*
%TO.N,/_HLDA*%
X81280000Y-63500000D02*
X81280000Y-68580000D01*
%TO.N,/+12V*%
X99060000Y-63500000D02*
X99060000Y-68580000D01*
%TO.N,/D7*%
X116840000Y-48260000D02*
X116840000Y-53340000D01*
%TO.N,/RESET*%
X105579000Y-101143950D02*
X106223950Y-100499000D01*
X107781000Y-85903950D02*
X107807692Y-85877258D01*
X107760954Y-85830521D02*
X107760954Y-85689099D01*
X107781000Y-86816050D02*
X107781000Y-85903950D01*
X106963900Y-78339000D02*
X107296100Y-78339000D01*
X101600000Y-48260000D02*
X101600000Y-53340000D01*
X106729000Y-78906100D02*
X106729000Y-78573900D01*
X107807692Y-85877258D02*
X107760954Y-85830521D01*
X105579000Y-104944000D02*
X105579000Y-101143950D01*
X107081000Y-64601000D02*
X107136050Y-64601000D01*
X107136050Y-67479000D02*
X107081000Y-67479000D01*
X107781000Y-69036050D02*
X107781000Y-68123950D01*
X107918000Y-81549296D02*
X107649000Y-81280296D01*
X107783900Y-81952147D02*
X107918000Y-81952147D01*
X106680000Y-58420000D02*
X101600000Y-53340000D01*
X107315000Y-78357900D02*
X107315000Y-69681000D01*
X107549000Y-82519247D02*
X107549000Y-82187047D01*
X106680000Y-62399000D02*
X106680000Y-58420000D01*
X107918000Y-81952147D02*
X107918000Y-81549296D01*
X107781000Y-63956050D02*
X107781000Y-63043950D01*
X106223950Y-100499000D02*
X106680000Y-100499000D01*
X107649000Y-81280296D02*
X107649000Y-79826100D01*
X107296100Y-78339000D02*
X107315000Y-78357900D01*
X106729000Y-78573900D02*
X106963900Y-78339000D01*
X107781000Y-63043950D02*
X107136050Y-62399000D01*
X106680000Y-100499000D02*
X106680000Y-87461000D01*
X107649000Y-85577145D02*
X107649000Y-82619247D01*
X106680000Y-109220000D02*
X106680000Y-106045000D01*
X107136050Y-62399000D02*
X106680000Y-62399000D01*
X107649000Y-79826100D02*
X106729000Y-78906100D01*
X107649000Y-82619247D02*
X107549000Y-82519247D01*
X107781000Y-68123950D02*
X107136050Y-67479000D01*
X107136050Y-64601000D02*
X107781000Y-63956050D01*
X107136050Y-69681000D02*
X107781000Y-69036050D01*
X107136050Y-87461000D02*
X107781000Y-86816050D01*
X109220000Y-111760000D02*
X106680000Y-109220000D01*
X107315000Y-69681000D02*
X107136050Y-69681000D01*
X107549000Y-82187047D02*
X107783900Y-81952147D01*
X106680000Y-106045000D02*
X105579000Y-104944000D01*
X107081000Y-67479000D02*
X107081000Y-64601000D01*
X107760954Y-85689099D02*
X107649000Y-85577145D01*
X106680000Y-87461000D02*
X107136050Y-87461000D01*
%TO.N,/-5V*%
X104140000Y-48260000D02*
X104140000Y-53340000D01*
%TO.N,/A10*%
X129540000Y-48260000D02*
X129540000Y-53340000D01*
%TO.N,/D6*%
X80179000Y-53796049D02*
X80179000Y-52883950D01*
X82262950Y-50800000D02*
X83370000Y-50800000D01*
X76200000Y-63500000D02*
X78339000Y-61361000D01*
X78339000Y-59403903D02*
X78740000Y-59002903D01*
X78339000Y-61361000D02*
X78339000Y-59403903D01*
X78740000Y-59002903D02*
X78740000Y-55235049D01*
X78740000Y-55235049D02*
X80179000Y-53796049D01*
X119380000Y-48260000D02*
X119380000Y-53340000D01*
X80179000Y-52883950D02*
X82262950Y-50800000D01*
%TO.N,/A12*%
X121920000Y-63500000D02*
X121920000Y-68580000D01*
%TO.N,/D1*%
X108119000Y-47159000D02*
X85903950Y-47159000D01*
X85259000Y-47803950D02*
X85259000Y-65245950D01*
X76200000Y-73025000D02*
X76200000Y-73660000D01*
X81694628Y-69581000D02*
X82554975Y-68720653D01*
X109220000Y-48260000D02*
X108119000Y-47159000D01*
X109220000Y-53340000D02*
X109220000Y-48260000D01*
X82554975Y-68720653D02*
X82554975Y-67949975D01*
X85903950Y-47159000D02*
X85259000Y-47803950D01*
X85259000Y-65245950D02*
X82554975Y-67949975D01*
X80010000Y-69215000D02*
X76200000Y-73025000D01*
X80376000Y-69581000D02*
X81694628Y-69581000D01*
X80010000Y-69215000D02*
X80376000Y-69581000D01*
%TO.N,/A9*%
X116840000Y-63500000D02*
X116840000Y-68580000D01*
%TO.N,/A5*%
X100161000Y-74116050D02*
X100161000Y-73203950D01*
X103683950Y-69681000D02*
X105579000Y-69681000D01*
X106680000Y-63500000D02*
X106680000Y-68580000D01*
X105579000Y-69681000D02*
X106680000Y-68580000D01*
X99516050Y-74761000D02*
X100161000Y-74116050D01*
X96520000Y-73660000D02*
X97621000Y-74761000D01*
X100161000Y-73203950D02*
X103683950Y-69681000D01*
X97621000Y-74761000D02*
X99516050Y-74761000D01*
%TO.N,/A2*%
X96520000Y-71466555D02*
X96520000Y-68580000D01*
X96520000Y-81280000D02*
X96520000Y-76200000D01*
X96520000Y-63500000D02*
X96520000Y-68580000D01*
X96416555Y-71570000D02*
X96520000Y-71466555D01*
%TO.N,/DBIN*%
X67141000Y-59521000D02*
X76656050Y-59521000D01*
X88900000Y-48260000D02*
X88900000Y-53340000D01*
X60960000Y-53340000D02*
X67141000Y-59521000D01*
X76656050Y-59521000D02*
X78290000Y-57887050D01*
X78290000Y-57887050D02*
X78290000Y-55880000D01*
%TO.N,/D2*%
X111760000Y-48260000D02*
X111760000Y-53340000D01*
%TO.N,/WI*%
X88900000Y-63500000D02*
X88900000Y-68580000D01*
%TO.N,/A13*%
X124460000Y-63500000D02*
X124460000Y-73660000D01*
X124460000Y-73660000D02*
X124460000Y-68580000D01*
%TO.N,/A7*%
X111760000Y-63500000D02*
X111760000Y-68580000D01*
%TO.N,/A11*%
X129540000Y-63500000D02*
X129540000Y-68580000D01*
X127000000Y-81280000D02*
X128101000Y-80179000D01*
X128101000Y-80179000D02*
X128101000Y-70019000D01*
X128101000Y-70019000D02*
X129540000Y-68580000D01*
%TO.N,/C2*%
X93980000Y-48260000D02*
X93980000Y-53340000D01*
%TO.N,/RDY*%
X86360000Y-63500000D02*
X86360000Y-68580000D01*
%TO.N,/DB3*%
X66040000Y-106680000D02*
X67141000Y-105579000D01*
X147320000Y-86761000D02*
X147320000Y-86810000D01*
X174159000Y-92879000D02*
X173736000Y-92456000D01*
X175260000Y-106680000D02*
X174159000Y-105579000D01*
X174159000Y-105579000D02*
X174159000Y-92879000D01*
X162560000Y-86360000D02*
X162159000Y-86761000D01*
X68580000Y-89544950D02*
X68580000Y-88900000D01*
X67141000Y-105579000D02*
X67141000Y-90983950D01*
X162159000Y-86761000D02*
X147320000Y-86761000D01*
X173736000Y-92456000D02*
X173736000Y-87376000D01*
X64638000Y-69718000D02*
X60960000Y-66040000D01*
X64638000Y-78740000D02*
X64638000Y-69718000D01*
X67141000Y-90983950D02*
X68580000Y-89544950D01*
X173736000Y-87376000D02*
X172720000Y-86360000D01*
%TO.N,/AB8*%
X110659000Y-82381000D02*
X111760000Y-81280000D01*
X142240000Y-99060000D02*
X149860000Y-106680000D01*
X123698000Y-99060000D02*
X142240000Y-99060000D01*
X110659000Y-93980000D02*
X110659000Y-82381000D01*
X119380000Y-101600000D02*
X121619000Y-99361000D01*
X123397000Y-99361000D02*
X123698000Y-99060000D01*
X121619000Y-99361000D02*
X123397000Y-99361000D01*
%TO.N,/AB9*%
X129179000Y-107094628D02*
X131304372Y-109220000D01*
X119794628Y-102601000D02*
X120919000Y-101476628D01*
X125730000Y-101454372D02*
X125730000Y-101745628D01*
X131304372Y-109220000D02*
X149860000Y-109220000D01*
X125730000Y-101745628D02*
X126365000Y-102380628D01*
X120919000Y-101185372D02*
X121774372Y-100330000D01*
X149860000Y-109220000D02*
X152400000Y-106680000D01*
X126365000Y-103505000D02*
X129179000Y-106319000D01*
X129179000Y-106319000D02*
X129179000Y-107094628D01*
X121774372Y-100330000D02*
X124605628Y-100330000D01*
X124605628Y-100330000D02*
X125730000Y-101454372D01*
X118965372Y-102601000D02*
X119794628Y-102601000D01*
X120919000Y-101476628D02*
X120919000Y-101185372D01*
X126365000Y-102380628D02*
X126365000Y-103505000D01*
X117475000Y-102235000D02*
X118599372Y-102235000D01*
X116840000Y-101600000D02*
X117475000Y-102235000D01*
X118599372Y-102235000D02*
X118965372Y-102601000D01*
%TO.N,/AB12*%
X111760000Y-106680000D02*
X113199000Y-108119000D01*
X110370003Y-102750003D02*
X109220000Y-101600000D01*
X110370003Y-104894277D02*
X110370003Y-102750003D01*
X110560863Y-105085137D02*
X110370003Y-104894277D01*
X120819000Y-108119000D02*
X121920000Y-109220000D01*
X111760000Y-106680000D02*
X111760000Y-106284274D01*
X113199000Y-108119000D02*
X120819000Y-108119000D01*
%TO.N,/R3*%
X148421000Y-93091000D02*
X148421000Y-90402000D01*
X156352799Y-80913649D02*
X156020599Y-80913649D01*
X154525372Y-82819000D02*
X153939000Y-83405372D01*
X155897475Y-81592525D02*
X154671000Y-82819000D01*
X161937248Y-74997000D02*
X156452799Y-80481449D01*
X148421000Y-90402000D02*
X146919000Y-88900000D01*
X164711091Y-68191091D02*
X165100000Y-68580000D01*
X138599000Y-86529000D02*
X138599000Y-83363950D01*
X165100000Y-71628000D02*
X162861000Y-73867000D01*
X148844000Y-94530000D02*
X148844000Y-93514000D01*
X165100000Y-68580000D02*
X165100000Y-71628000D01*
X155785699Y-81480749D02*
X155897475Y-81592525D01*
X162861000Y-74073248D02*
X162627000Y-74307248D01*
X154671000Y-82819000D02*
X154525372Y-82819000D01*
X162215778Y-74997000D02*
X161937248Y-74997000D01*
X152856050Y-84921000D02*
X143341000Y-84921000D01*
X148844000Y-93514000D02*
X148421000Y-93091000D01*
X153501000Y-84276050D02*
X152856050Y-84921000D01*
X138599000Y-83363950D02*
X139243950Y-82719000D01*
X153501000Y-83989000D02*
X153501000Y-84276050D01*
X139243950Y-82719000D02*
X141139000Y-82719000D01*
X162627000Y-74585778D02*
X162215778Y-74997000D01*
X156020599Y-80913649D02*
X155785699Y-81148549D01*
X155785699Y-81148549D02*
X155785699Y-81480749D01*
X162861000Y-73867000D02*
X162861000Y-74073248D01*
X162627000Y-74307248D02*
X162627000Y-74585778D01*
X153939000Y-83551000D02*
X153501000Y-83989000D01*
X146919000Y-88900000D02*
X140970000Y-88900000D01*
X156452799Y-81013649D02*
X156352799Y-80913649D01*
X143341000Y-84921000D02*
X142240000Y-83820000D01*
X140970000Y-88900000D02*
X138599000Y-86529000D01*
X153939000Y-83405372D02*
X153939000Y-83551000D01*
X141139000Y-82719000D02*
X142240000Y-83820000D01*
X156452799Y-80481449D02*
X156452799Y-81013649D01*
%TO.N,/AB4*%
X94298199Y-89148901D02*
X94381000Y-89066100D01*
X100161000Y-81594628D02*
X100161000Y-75099000D01*
X108119000Y-111303950D02*
X104140000Y-107324950D01*
X105410000Y-77470000D02*
X101600000Y-73660000D01*
X104140000Y-105918000D02*
X103139000Y-104917000D01*
X104596050Y-87461000D02*
X105241000Y-86816050D01*
X105781000Y-84234628D02*
X105781000Y-83405372D01*
X105141000Y-85945372D02*
X104775000Y-85579372D01*
X110965950Y-110659000D02*
X110321000Y-111303950D01*
X100161000Y-75099000D02*
X101600000Y-73660000D01*
X105141000Y-86141950D02*
X105141000Y-85945372D01*
X103139000Y-101243950D02*
X101600000Y-99704950D01*
X110321000Y-112216050D02*
X109676050Y-112861000D01*
X94381000Y-86201186D02*
X98301186Y-82281000D01*
X94298199Y-89218199D02*
X94298199Y-89148901D01*
X103139000Y-104917000D02*
X103139000Y-101243950D01*
X105410000Y-83034372D02*
X105410000Y-77470000D01*
X109676050Y-112861000D02*
X108763950Y-112861000D01*
X104775000Y-85579372D02*
X104775000Y-85240628D01*
X104775000Y-85240628D02*
X105781000Y-84234628D01*
X105241000Y-86241950D02*
X105141000Y-86141950D01*
X104140000Y-107324950D02*
X104140000Y-105918000D01*
X105781000Y-83405372D02*
X105410000Y-83034372D01*
X105241000Y-86816050D02*
X105241000Y-86241950D01*
X108119000Y-112216050D02*
X108119000Y-111303950D01*
X108763950Y-112861000D02*
X108119000Y-112216050D01*
X98301186Y-82281000D02*
X99474628Y-82281000D01*
X110321000Y-111303950D02*
X110321000Y-112216050D01*
X101600000Y-99704950D02*
X101600000Y-89882950D01*
X143679000Y-110659000D02*
X110965950Y-110659000D01*
X101600000Y-89882950D02*
X104021950Y-87461000D01*
X99474628Y-82281000D02*
X100161000Y-81594628D01*
X94381000Y-89066100D02*
X94381000Y-86201186D01*
X154940000Y-121920000D02*
X143679000Y-110659000D01*
X104021950Y-87461000D02*
X104596050Y-87461000D01*
%TO.N,/AB1*%
X121753900Y-115151000D02*
X122086100Y-115151000D01*
X127414628Y-115301000D02*
X127780628Y-114935000D01*
X81280000Y-88900000D02*
X81280000Y-91440000D01*
X118291186Y-113973186D02*
X118291186Y-114264442D01*
X105305339Y-109959661D02*
X105446761Y-109959661D01*
X116787628Y-115768000D02*
X116276000Y-115768000D01*
X108119000Y-114323372D02*
X108119000Y-114756050D01*
X116205000Y-115839000D02*
X116276000Y-115768000D01*
X102447839Y-107102161D02*
X105305339Y-109959661D01*
X105811000Y-110656100D02*
X105679000Y-110788100D01*
X105811000Y-110323900D02*
X105811000Y-110656100D01*
X120396000Y-113793100D02*
X121753900Y-115151000D01*
X100161000Y-87461000D02*
X100161000Y-104542306D01*
X106779058Y-113274686D02*
X107070314Y-113274686D01*
X125240628Y-114935000D02*
X126219372Y-114935000D01*
X123679372Y-114935000D02*
X124045372Y-115301000D01*
X105446761Y-109959661D02*
X105811000Y-110323900D01*
X120396000Y-113538000D02*
X120396000Y-113793100D01*
X108119000Y-114756050D02*
X108758975Y-115396025D01*
X154483950Y-123021000D02*
X161459000Y-123021000D01*
X126219372Y-114935000D02*
X126585372Y-115301000D01*
X147310050Y-114935000D02*
X153839000Y-121463950D01*
X118291186Y-113973186D02*
X118965372Y-113299000D01*
X153839000Y-121463950D02*
X153839000Y-122376050D01*
X108758975Y-115396025D02*
X110047025Y-115396025D01*
X110047025Y-115396025D02*
X110490000Y-115839000D01*
X124874628Y-115301000D02*
X125240628Y-114935000D01*
X124045372Y-115301000D02*
X124874628Y-115301000D01*
X120157000Y-113299000D02*
X120396000Y-113538000D01*
X161459000Y-123021000D02*
X162560000Y-121920000D01*
X122086100Y-115151000D02*
X122302100Y-114935000D01*
X97536000Y-86500096D02*
X99200096Y-86500096D01*
X110490000Y-115839000D02*
X116205000Y-115839000D01*
X122302100Y-114935000D02*
X123679372Y-114935000D01*
X99200096Y-86500096D02*
X100161000Y-87461000D01*
X100161000Y-104542306D02*
X102447839Y-106829145D01*
X83820000Y-86360000D02*
X81280000Y-88900000D01*
X153839000Y-122376050D02*
X154483950Y-123021000D01*
X105679000Y-110788100D02*
X105679000Y-112174628D01*
X126585372Y-115301000D02*
X127414628Y-115301000D01*
X118965372Y-113299000D02*
X120157000Y-113299000D01*
X107070314Y-113274686D02*
X108119000Y-114323372D01*
X105679000Y-112174628D02*
X106779058Y-113274686D01*
X127780628Y-114935000D02*
X147310050Y-114935000D01*
X118291186Y-114264442D02*
X116787628Y-115768000D01*
X97519043Y-86483139D02*
X97536000Y-86500096D01*
X102447839Y-106829145D02*
X102447839Y-107102161D01*
%TO.N,/AB11*%
X140701000Y-91175975D02*
X140701000Y-91025372D01*
X141139000Y-91613975D02*
X140701000Y-91175975D01*
X133429000Y-85169000D02*
X129540000Y-81280000D01*
X135969000Y-85169000D02*
X133429000Y-85169000D01*
X129540000Y-81280000D02*
X125899000Y-84921000D01*
X125899000Y-87461000D02*
X111760000Y-101600000D01*
X140114628Y-89314628D02*
X135969000Y-85169000D01*
X154940000Y-106680000D02*
X141139000Y-92879000D01*
X141139000Y-92879000D02*
X141139000Y-91613975D01*
X140701000Y-91025372D02*
X140114628Y-90439000D01*
X125899000Y-84921000D02*
X125899000Y-87461000D01*
X140114628Y-90439000D02*
X140114628Y-89314628D01*
%TO.N,/DB7*%
X167304498Y-105679000D02*
X166101000Y-105679000D01*
X169079000Y-84921000D02*
X169079000Y-100330000D01*
X169079000Y-100330000D02*
X168644000Y-100765000D01*
X159456409Y-76271409D02*
X157480000Y-76271409D01*
X168544000Y-101560000D02*
X168544000Y-103206900D01*
X154525372Y-77201000D02*
X153035000Y-75710628D01*
X168644000Y-101460000D02*
X168544000Y-101560000D01*
X149225000Y-71187900D02*
X149225000Y-72390000D01*
X168644000Y-100765000D02*
X168644000Y-101460000D01*
X51901000Y-90339000D02*
X51901000Y-82381000D01*
X157480000Y-76271409D02*
X156550409Y-77201000D01*
X152566100Y-68179000D02*
X152233900Y-68179000D01*
X152233900Y-68179000D02*
X149225000Y-71187900D01*
X168544000Y-103206900D02*
X168676000Y-103338900D01*
X156550409Y-77201000D02*
X154525372Y-77201000D01*
X153035000Y-68647900D02*
X152566100Y-68179000D01*
X165735000Y-81280000D02*
X166370000Y-81915000D01*
X170180000Y-83820000D02*
X169079000Y-84921000D01*
X50800000Y-91440000D02*
X51901000Y-90339000D01*
X51901000Y-82381000D02*
X50800000Y-81280000D01*
X166101000Y-105679000D02*
X165100000Y-106680000D01*
X153035000Y-75710628D02*
X153035000Y-68647900D01*
X168676000Y-104307498D02*
X167304498Y-105679000D01*
X166370000Y-81915000D02*
X168275000Y-81915000D01*
X165735000Y-81280000D02*
X161290000Y-76835000D01*
X168676000Y-103338900D02*
X168676000Y-104307498D01*
%TO.N,/~{RD}*%
X103779732Y-125219778D02*
X103368510Y-125631000D01*
X113498000Y-124792199D02*
X113498000Y-124507000D01*
X69365160Y-120819000D02*
X77639000Y-112545160D01*
X63043950Y-120819000D02*
X69365160Y-120819000D01*
X96520000Y-125095000D02*
X95885000Y-124460000D01*
X163661000Y-122376050D02*
X160307050Y-125730000D01*
X101807521Y-124594000D02*
X101392479Y-124594000D01*
X103679732Y-124538222D02*
X103779732Y-124638222D01*
X101392479Y-125596000D02*
X101675322Y-125596000D01*
X101099000Y-124887479D02*
X101099000Y-125302521D01*
X160307050Y-125730000D02*
X121075678Y-125730000D01*
X114632199Y-125262000D02*
X113967801Y-125262000D01*
X103679732Y-124507000D02*
X103679732Y-124538222D01*
X82381000Y-118279000D02*
X78740000Y-121920000D01*
X91139000Y-125553678D02*
X90962678Y-125730000D01*
X93594356Y-124694000D02*
X92543900Y-124694000D01*
X91908900Y-124694000D02*
X91139000Y-125463900D01*
X102502598Y-125346644D02*
X102277322Y-125346644D01*
X115102000Y-124507000D02*
X115102000Y-124792199D01*
X163661000Y-112861000D02*
X157480000Y-106680000D01*
X77639000Y-110974840D02*
X77954840Y-110659000D01*
X165100000Y-123815050D02*
X163661000Y-122376050D01*
X101099000Y-125302521D02*
X101392479Y-125596000D01*
X116235728Y-124507000D02*
X115102000Y-124507000D01*
X113967801Y-125262000D02*
X113498000Y-124792199D01*
X101809322Y-125730000D02*
X99257516Y-125730000D01*
X102101000Y-124887479D02*
X101807521Y-124594000D01*
X163661000Y-122376050D02*
X163661000Y-112861000D01*
X166370000Y-126365000D02*
X165100000Y-125095000D01*
X121075678Y-125730000D02*
X120139678Y-124794000D01*
X99257516Y-125730000D02*
X98622516Y-125095000D01*
X102786954Y-125631000D02*
X102502598Y-125346644D01*
X118700322Y-124206000D02*
X116536728Y-124206000D01*
X62399000Y-121463950D02*
X63043950Y-120819000D01*
X113498000Y-124507000D02*
X103679732Y-124507000D01*
X103779732Y-124638222D02*
X103779732Y-125219778D01*
X90962678Y-125730000D02*
X65752950Y-125730000D01*
X103368510Y-125631000D02*
X102786954Y-125631000D01*
X77954840Y-110659000D02*
X81736050Y-110659000D01*
X116536728Y-124206000D02*
X116235728Y-124507000D01*
X98622516Y-125095000D02*
X96520000Y-125095000D01*
X91139000Y-125463900D02*
X91139000Y-125553678D01*
X102277322Y-125346644D02*
X102101000Y-125170322D01*
X77639000Y-112545160D02*
X77639000Y-110974840D01*
X65752950Y-125730000D02*
X62399000Y-122376050D01*
X101675322Y-125596000D02*
X101809322Y-125730000D01*
X92392500Y-124845400D02*
X92241100Y-124694000D01*
X95885000Y-124460000D02*
X93828356Y-124460000D01*
X93828356Y-124460000D02*
X93594356Y-124694000D01*
X120139678Y-124794000D02*
X119288322Y-124794000D01*
X115102000Y-124792199D02*
X114632199Y-125262000D01*
X82381000Y-111303950D02*
X82381000Y-118279000D01*
X92543900Y-124694000D02*
X92392500Y-124845400D01*
X62399000Y-122376050D02*
X62399000Y-121463950D01*
X81736050Y-110659000D02*
X82381000Y-111303950D01*
X101392479Y-124594000D02*
X101099000Y-124887479D01*
X165100000Y-125095000D02*
X165100000Y-123815050D01*
X119288322Y-124794000D02*
X118700322Y-124206000D01*
X92241100Y-124694000D02*
X91908900Y-124694000D01*
X102101000Y-125170322D02*
X102101000Y-124887479D01*
%TO.N,/AB5*%
X107265396Y-91304604D02*
X107130000Y-91440000D01*
X125796160Y-103590000D02*
X128579000Y-106372840D01*
X125561000Y-102870000D02*
X125470317Y-102960683D01*
X103939636Y-97865171D02*
X103395171Y-97865171D01*
X93980000Y-84821000D02*
X93980000Y-86360000D01*
X146870000Y-116390000D02*
X134620000Y-116390000D01*
X105951547Y-95853260D02*
X103939636Y-97865171D01*
X125796160Y-103572557D02*
X125796160Y-103590000D01*
X94981000Y-80376000D02*
X93980000Y-79375000D01*
X170831000Y-46990000D02*
X171450000Y-46990000D01*
X94394628Y-84821000D02*
X94981000Y-84234628D01*
X105951547Y-91440000D02*
X105951547Y-95853260D01*
X171450000Y-46990000D02*
X172720000Y-48260000D01*
X103395171Y-97865171D02*
X102050000Y-96520000D01*
X125470317Y-102960683D02*
X125470317Y-103246714D01*
X135382000Y-91186000D02*
X135382000Y-90906162D01*
X136398000Y-89916000D02*
X137382742Y-89916000D01*
X97933000Y-88534000D02*
X97933000Y-88114372D01*
X93980000Y-86360000D02*
X93980000Y-88900000D01*
X136372162Y-89916000D02*
X136398000Y-89916000D01*
X125470317Y-103246714D02*
X125796160Y-103572557D01*
X143764000Y-83058000D02*
X143764000Y-82402000D01*
X94981000Y-84234628D02*
X94981000Y-80376000D01*
X93980000Y-84821000D02*
X94394628Y-84821000D01*
X125561000Y-102235000D02*
X125561000Y-102870000D01*
X137382742Y-89916000D02*
X137996247Y-89302495D01*
X93980000Y-73660000D02*
X93980000Y-79375000D01*
X97933000Y-88114372D02*
X96760331Y-86941703D01*
X143764000Y-82402000D02*
X144272000Y-81894000D01*
X96760331Y-86941703D02*
X96573589Y-86941703D01*
X107265396Y-88951000D02*
X107265396Y-91304604D01*
X93980000Y-88900000D02*
X91440000Y-91440000D01*
X152400000Y-121920000D02*
X146870000Y-116390000D01*
X128579000Y-106372840D02*
X128579000Y-106610472D01*
X135382000Y-90906162D02*
X136372162Y-89916000D01*
%TO.N,/ARR16*%
X113199000Y-121920000D02*
X111760000Y-121920000D01*
X114756050Y-120819000D02*
X113843950Y-120819000D01*
X118279000Y-119836050D02*
X117941000Y-119836050D01*
X119836050Y-118279000D02*
X118923950Y-118279000D01*
X116383950Y-120819000D02*
X115739000Y-121463950D01*
X115739000Y-121463950D02*
X115739000Y-121801950D01*
X120386550Y-118829500D02*
X119836050Y-118279000D01*
X120937050Y-118279000D02*
X120386550Y-118829500D01*
X113843950Y-120819000D02*
X113199000Y-121463950D01*
X117941000Y-119836050D02*
X116958050Y-120819000D01*
X115739000Y-121801950D02*
X114756050Y-120819000D01*
X113199000Y-121463950D02*
X113199000Y-121920000D01*
X118923950Y-118279000D02*
X118279000Y-118923950D01*
X116958050Y-120819000D02*
X116383950Y-120819000D01*
X136059000Y-118279000D02*
X120937050Y-118279000D01*
X118279000Y-118923950D02*
X118279000Y-119836050D01*
X139700000Y-121920000D02*
X136059000Y-118279000D01*
%TO.N,/AB7*%
X154483950Y-77639000D02*
X154017950Y-78105000D01*
X84921000Y-82719000D02*
X83820000Y-83820000D01*
X123021000Y-123021000D02*
X121920000Y-121920000D01*
X119523525Y-115426475D02*
X117999525Y-115426475D01*
X152400000Y-78105000D02*
X152400000Y-68580000D01*
X117856000Y-117239628D02*
X117239628Y-117856000D01*
X117239628Y-117856000D02*
X115824000Y-117856000D01*
X84742050Y-98425000D02*
X82719000Y-96401950D01*
X154017950Y-78105000D02*
X152400000Y-78105000D01*
X156041000Y-78283950D02*
X155396050Y-77639000D01*
X83820000Y-73660000D02*
X84921000Y-74761000D01*
X157734000Y-80518000D02*
X158530649Y-81314649D01*
X115824000Y-117856000D02*
X113911091Y-119768909D01*
X156041000Y-78740000D02*
X156041000Y-78283950D01*
X84921000Y-88781950D02*
X84921000Y-82719000D01*
X166201000Y-83363950D02*
X166201000Y-92767000D01*
X117856000Y-115570000D02*
X117856000Y-117239628D01*
X164151699Y-81314649D02*
X166201000Y-83363950D01*
X117999525Y-115426475D02*
X117856000Y-115570000D01*
X147320000Y-121920000D02*
X146219000Y-123021000D01*
X82719000Y-90983950D02*
X84921000Y-88781950D01*
X156090003Y-78740000D02*
X156041000Y-78740000D01*
X86995000Y-97790000D02*
X86360000Y-98425000D01*
X146219000Y-123021000D02*
X124003950Y-123021000D01*
X84921000Y-74761000D02*
X84921000Y-82719000D01*
X166201000Y-92767000D02*
X166089000Y-92879000D01*
X121920000Y-121920000D02*
X121920000Y-119380000D01*
X154940000Y-38100000D02*
X160020000Y-38100000D01*
X155396050Y-77639000D02*
X154483950Y-77639000D01*
X82719000Y-96401950D02*
X82719000Y-90983950D01*
X158530649Y-81314649D02*
X164151699Y-81314649D01*
X124003950Y-123021000D02*
X123021000Y-123021000D01*
X86360000Y-98425000D02*
X84742050Y-98425000D01*
%TO.N,/AB10*%
X120819000Y-90983950D02*
X110659000Y-101143950D01*
X159019000Y-105679000D02*
X160020000Y-106680000D01*
X121920000Y-88900000D02*
X120819000Y-88900000D01*
X121920000Y-81280000D02*
X120819000Y-82381000D01*
X120819000Y-82381000D02*
X120819000Y-88900000D01*
X112776000Y-104730322D02*
X112776000Y-103124000D01*
X141926900Y-94234000D02*
X153939000Y-106246100D01*
X110659000Y-101600000D02*
X110659000Y-102613322D01*
X110671003Y-102870000D02*
X110671003Y-104575003D01*
X110671003Y-104575003D02*
X111252000Y-105156000D01*
X157065372Y-105679000D02*
X159019000Y-105679000D01*
X110671003Y-102625325D02*
X110671003Y-102870000D01*
X124714000Y-94234000D02*
X141926900Y-94234000D01*
X110659000Y-101143950D02*
X110659000Y-101600000D01*
X156479000Y-106265372D02*
X157065372Y-105679000D01*
X155892628Y-107681000D02*
X156479000Y-107094628D01*
X154525372Y-107681000D02*
X155892628Y-107681000D01*
X124460000Y-93980000D02*
X124714000Y-94234000D01*
X120819000Y-88900000D02*
X120819000Y-90983950D01*
X112350322Y-105156000D02*
X112776000Y-104730322D01*
X111252000Y-105156000D02*
X112350322Y-105156000D01*
X112776000Y-103124000D02*
X114300000Y-101600000D01*
X156479000Y-107094628D02*
X156479000Y-106265372D01*
X110659000Y-102613322D02*
X110671003Y-102625325D01*
X153939000Y-107094628D02*
X154525372Y-107681000D01*
X153939000Y-106246100D02*
X153939000Y-107094628D01*
%TO.N,/AB6*%
X77191840Y-93980000D02*
X77639000Y-93532840D01*
X87209943Y-83820000D02*
X86360000Y-83820000D01*
X77639000Y-93523950D02*
X78283950Y-92879000D01*
X168741000Y-84276050D02*
X168741000Y-80478811D01*
X80179000Y-94436050D02*
X84167950Y-98425000D01*
X84167950Y-98425000D02*
X84316372Y-98425000D01*
X84921000Y-94436050D02*
X84921000Y-93523950D01*
X84455000Y-93057950D02*
X84455000Y-92220628D01*
X86995000Y-98425000D02*
X87630000Y-99060000D01*
X89501000Y-86111057D02*
X87209943Y-83820000D01*
X80179000Y-93523950D02*
X80179000Y-94436050D01*
X84921000Y-93523950D02*
X84455000Y-93057950D01*
X68580000Y-109220000D02*
X69031000Y-109671000D01*
X178401749Y-51401749D02*
X178401749Y-52738251D01*
X87630000Y-97152189D02*
X84917430Y-94439619D01*
X91440000Y-73660000D02*
X87461000Y-77639000D01*
X173870003Y-69969997D02*
X172720000Y-69969997D01*
X87461000Y-77639000D02*
X87461000Y-82719000D01*
X81594628Y-106356817D02*
X78415000Y-106356817D01*
X165100000Y-76837811D02*
X165100000Y-73660000D01*
X78415000Y-106356817D02*
X76588000Y-104529817D01*
X167141000Y-85876050D02*
X168741000Y-84276050D01*
X86785678Y-98425000D02*
X86995000Y-98425000D01*
X78283950Y-92879000D02*
X79534050Y-92879000D01*
X84821000Y-91288943D02*
X89501000Y-86608943D01*
X84917430Y-94439619D02*
X84921000Y-94436050D01*
X77639000Y-93532840D02*
X77639000Y-93523950D01*
X84617372Y-98726000D02*
X86484678Y-98726000D01*
X86484678Y-98726000D02*
X86785678Y-98425000D01*
X79534050Y-92879000D02*
X80179000Y-93523950D01*
X84271000Y-109406811D02*
X84271000Y-109033189D01*
X84821000Y-91854628D02*
X84821000Y-91288943D01*
X84006811Y-109671000D02*
X84271000Y-109406811D01*
X69031000Y-109671000D02*
X84006811Y-109671000D01*
X76588000Y-93980000D02*
X77191840Y-93980000D01*
X89501000Y-86608943D02*
X89501000Y-86111057D01*
X87630000Y-99060000D02*
X87630000Y-97152189D01*
X84316372Y-98425000D02*
X84617372Y-98726000D01*
X167141000Y-90051000D02*
X167141000Y-85876050D01*
X87461000Y-82719000D02*
X86360000Y-83820000D01*
X180340000Y-63500000D02*
X173870003Y-69969997D01*
X172720000Y-45720000D02*
X178401749Y-51401749D01*
X84271000Y-109033189D02*
X81594628Y-106356817D01*
X168741000Y-80478811D02*
X165100000Y-76837811D01*
X84455000Y-92220628D02*
X84821000Y-91854628D01*
%TO.N,/AB0*%
X78740000Y-91440000D02*
X78740000Y-87917050D01*
X108219000Y-82023738D02*
X108219000Y-80536262D01*
X109220000Y-83820000D02*
X109220000Y-82281000D01*
X108476262Y-82281000D02*
X108219000Y-82023738D01*
X108219000Y-80536262D02*
X108476262Y-80279000D01*
X165100000Y-113317050D02*
X165100000Y-121920000D01*
X108669000Y-80279000D02*
X107130000Y-78740000D01*
X132080000Y-84996021D02*
X131759239Y-84675260D01*
X146734623Y-97606424D02*
X154617796Y-97606424D01*
X154617796Y-97606424D02*
X161121000Y-104109628D01*
X127806260Y-84675260D02*
X127293699Y-84162699D01*
X109220000Y-82281000D02*
X108476262Y-82281000D01*
X108476262Y-80279000D02*
X108669000Y-80279000D01*
X82381000Y-82719000D02*
X83820000Y-81280000D01*
X131759239Y-84675260D02*
X127806260Y-84675260D01*
X161121000Y-104109628D02*
X161121000Y-109338050D01*
X78740000Y-87917050D02*
X82381000Y-84276050D01*
X161121000Y-109338050D02*
X165100000Y-113317050D01*
X82381000Y-84276050D02*
X82381000Y-82719000D01*
X142558199Y-93430000D02*
X146734623Y-97606424D01*
%TO.N,/AB13*%
X141257050Y-96520000D02*
X124460000Y-96520000D01*
X118279000Y-90001000D02*
X119380000Y-91102000D01*
X118279000Y-90001000D02*
X106680000Y-101600000D01*
X147320000Y-106680000D02*
X148421000Y-107781000D01*
X119380000Y-91102000D02*
X119380000Y-91440000D01*
X150961000Y-106223950D02*
X141257050Y-96520000D01*
X118279000Y-77301000D02*
X118279000Y-90001000D01*
X148421000Y-107781000D02*
X150316050Y-107781000D01*
X150316050Y-107781000D02*
X150961000Y-107136050D01*
X121920000Y-73660000D02*
X118279000Y-77301000D01*
X150961000Y-107136050D02*
X150961000Y-106223950D01*
%TO.N,/DB4*%
X99695000Y-93912100D02*
X96452100Y-97155000D01*
X82281000Y-93565372D02*
X82281000Y-94884000D01*
X74750900Y-92710000D02*
X73391000Y-92710000D01*
X87701409Y-93416409D02*
X86995000Y-92710000D01*
X81280000Y-92710000D02*
X81425628Y-92710000D01*
X68580000Y-81280000D02*
X67479000Y-82381000D01*
X160655000Y-97155000D02*
X159385000Y-97155000D01*
X99695000Y-92710000D02*
X99695000Y-93912100D01*
X81425628Y-92710000D02*
X82281000Y-93565372D01*
X67479000Y-82381000D02*
X65725372Y-82381000D01*
X102870000Y-92777900D02*
X102870000Y-93345000D01*
X71337037Y-90241409D02*
X70556409Y-90241409D01*
X120650000Y-97155000D02*
X119380000Y-98425000D01*
X132715000Y-97155000D02*
X120650000Y-97155000D01*
X66040000Y-91440000D02*
X67141000Y-90339000D01*
X159385000Y-97155000D02*
X156845000Y-94615000D01*
X65039000Y-80376000D02*
X65405000Y-80010000D01*
X82281000Y-94884000D02*
X81915000Y-95250000D01*
X105410000Y-91440000D02*
X104207900Y-91440000D01*
X73391000Y-92710000D02*
X72121000Y-91440000D01*
X96452100Y-97155000D02*
X93345000Y-97155000D01*
X65725372Y-82381000D02*
X65039000Y-81694628D01*
X163195000Y-99695000D02*
X160655000Y-97155000D01*
X104207900Y-91440000D02*
X102870000Y-92777900D01*
X65405000Y-80010000D02*
X65405000Y-60325000D01*
X86995000Y-92710000D02*
X85090000Y-92710000D01*
X77362309Y-95321409D02*
X74750900Y-92710000D01*
X67141000Y-90339000D02*
X67141000Y-82719000D01*
X72121000Y-91025372D02*
X71337037Y-90241409D01*
X78176409Y-95321409D02*
X77362309Y-95321409D01*
X65039000Y-81694628D02*
X65039000Y-80376000D01*
X65405000Y-60325000D02*
X60960000Y-55880000D01*
X67141000Y-82719000D02*
X68580000Y-81280000D01*
X72121000Y-91440000D02*
X72121000Y-91025372D01*
%TO.N,/AB2*%
X93218000Y-82804000D02*
X93218000Y-82042000D01*
X83820000Y-91440000D02*
X88900000Y-86360000D01*
X125561000Y-106223950D02*
X123477050Y-104140000D01*
X98298000Y-87376000D02*
X97775504Y-87376000D01*
X127785160Y-107781000D02*
X126205950Y-107781000D01*
X92879000Y-84751000D02*
X93472000Y-85344000D01*
X126205950Y-107781000D02*
X125561000Y-107136050D01*
X147721000Y-109621000D02*
X129625160Y-109621000D01*
X123477050Y-104140000D02*
X116840000Y-104140000D01*
X105156000Y-90170000D02*
X103632000Y-90170000D01*
X160020000Y-121920000D02*
X147721000Y-109621000D01*
X92879000Y-83143000D02*
X92879000Y-84751000D01*
X125561000Y-107136050D02*
X125561000Y-106223950D01*
X93218000Y-82804000D02*
X92879000Y-83143000D01*
X129625160Y-109621000D02*
X127785160Y-107781000D01*
X93218000Y-82042000D02*
X93980000Y-81280000D01*
X97775504Y-87376000D02*
X97200843Y-86801339D01*
%TO.N,/DB2*%
X163661000Y-102133900D02*
X165793169Y-104266069D01*
X60960000Y-92997050D02*
X59859000Y-91896050D01*
X59859000Y-90983950D02*
X60960000Y-89882950D01*
X165793169Y-104266069D02*
X165793169Y-104885831D01*
X64337000Y-74497000D02*
X60960000Y-71120000D01*
X156210000Y-83820000D02*
X157311000Y-82719000D01*
X60960000Y-106680000D02*
X60960000Y-92997050D01*
X162874628Y-82719000D02*
X163661000Y-83505372D01*
X63147151Y-80006499D02*
X64012650Y-79141000D01*
X59859000Y-91896050D02*
X59859000Y-90983950D01*
X64337000Y-77785900D02*
X64337000Y-74497000D01*
X65405000Y-92710000D02*
X66040000Y-93345000D01*
X66040000Y-93345000D02*
X66040000Y-95250000D01*
X64012650Y-79141000D02*
X64012650Y-78110250D01*
X64012650Y-78110250D02*
X64337000Y-77785900D01*
X154940000Y-83820000D02*
X156210000Y-83820000D01*
X60960000Y-82782000D02*
X60960000Y-88900000D01*
X165793169Y-104885831D02*
X165149003Y-105529997D01*
X165149003Y-105529997D02*
X165100000Y-105529997D01*
X163661000Y-83505372D02*
X163661000Y-102133900D01*
X66040000Y-95250000D02*
X65405000Y-95885000D01*
X170180000Y-125730000D02*
X172720000Y-123190000D01*
X172720000Y-123190000D02*
X172720000Y-121920000D01*
X157311000Y-82719000D02*
X162874628Y-82719000D01*
X60960000Y-89882950D02*
X60960000Y-88900000D01*
%TO.N,/DB1*%
X128402000Y-71690900D02*
X129607900Y-70485000D01*
X125999000Y-81694628D02*
X126585372Y-82281000D01*
X170180000Y-121920000D02*
X170180000Y-116840000D01*
X123459000Y-78325372D02*
X125999000Y-80865372D01*
X141179322Y-89535000D02*
X146685000Y-89535000D01*
X125999000Y-80865372D02*
X125999000Y-81694628D01*
X112309050Y-74661000D02*
X117254628Y-74661000D01*
X168041000Y-114701000D02*
X168041000Y-110948950D01*
X80279000Y-80279000D02*
X80279000Y-82023738D01*
X82819000Y-80865372D02*
X84309372Y-79375000D01*
X129607900Y-70485000D02*
X132080000Y-70485000D01*
X128402000Y-81293628D02*
X128402000Y-71690900D01*
X117254628Y-74661000D02*
X117841000Y-74074628D01*
X165342169Y-104690000D02*
X165342169Y-104382169D01*
X58420000Y-89544950D02*
X58420000Y-88900000D01*
X56981000Y-107781000D02*
X58876050Y-107781000D01*
X121920000Y-72390000D02*
X122603628Y-72390000D01*
X80536262Y-82281000D02*
X82023738Y-82281000D01*
X168041000Y-110948950D02*
X166489997Y-109397947D01*
X117841000Y-73294000D02*
X118745000Y-72390000D01*
X132080000Y-70485000D02*
X137088591Y-75493591D01*
X126585372Y-82281000D02*
X127414628Y-82281000D01*
X56981000Y-91896050D02*
X56981000Y-90983950D01*
X127414628Y-82281000D02*
X128402000Y-81293628D01*
X59521000Y-94436050D02*
X56981000Y-91896050D01*
X58876050Y-107781000D02*
X59521000Y-107136050D01*
X170180000Y-116840000D02*
X168041000Y-114701000D01*
X108375025Y-78595025D02*
X112309050Y-74661000D01*
X59521000Y-107136050D02*
X59521000Y-94436050D01*
X84309372Y-79375000D02*
X84455000Y-79375000D01*
X118745000Y-72390000D02*
X121920000Y-72390000D01*
X82023738Y-82281000D02*
X82819000Y-81485738D01*
X122603628Y-72390000D02*
X123459000Y-73245372D01*
X137160000Y-85515678D02*
X141179322Y-89535000D01*
X137160000Y-85090000D02*
X137160000Y-85515678D01*
X123459000Y-73245372D02*
X123459000Y-78325372D01*
X80279000Y-82023738D02*
X80536262Y-82281000D01*
X82819000Y-81485738D02*
X82819000Y-80865372D01*
X56981000Y-90983950D02*
X58420000Y-89544950D01*
X76200000Y-76200000D02*
X80279000Y-80279000D01*
X166489997Y-109397947D02*
X166489997Y-106680000D01*
X149098000Y-88900000D02*
X149860000Y-88900000D01*
X55880000Y-106680000D02*
X56981000Y-107781000D01*
X149860000Y-88900000D02*
X152400000Y-91440000D01*
X117841000Y-74074628D02*
X117841000Y-73294000D01*
X165342169Y-104382169D02*
X152400000Y-91440000D01*
%TO.N,/DB5*%
X130641000Y-81398050D02*
X131623950Y-82381000D01*
X62061000Y-82381000D02*
X60960000Y-81280000D01*
X133891050Y-81026000D02*
X139245479Y-81026000D01*
X130641000Y-72221000D02*
X130641000Y-81398050D01*
X87461000Y-70019000D02*
X86360000Y-71120000D01*
X170180000Y-108782000D02*
X176749000Y-115351000D01*
X164338000Y-93377701D02*
X164906200Y-93945901D01*
X170180000Y-106680000D02*
X170180000Y-108782000D01*
X179275000Y-115161000D02*
X179275000Y-112237778D01*
X179275000Y-112237778D02*
X178851000Y-111813778D01*
X178851000Y-111813778D02*
X178851000Y-111140000D01*
X165065901Y-93945901D02*
X167683199Y-96563199D01*
X87173175Y-67766825D02*
X87461000Y-68054650D01*
X164906200Y-93945901D02*
X165065901Y-93945901D01*
X159211000Y-85551000D02*
X157480000Y-83820000D01*
X168205000Y-103435000D02*
X168205000Y-100981801D01*
X168205000Y-103435000D02*
X168275000Y-103505000D01*
X86360000Y-71120000D02*
X81280000Y-71120000D01*
X179340000Y-110651000D02*
X179340000Y-108073000D01*
X63500000Y-78740000D02*
X63500000Y-74295000D01*
X60960000Y-81280000D02*
X63500000Y-78740000D01*
X60960000Y-91440000D02*
X62061000Y-90339000D01*
X163161000Y-89148943D02*
X161459000Y-90850943D01*
X139245479Y-81026000D02*
X139428480Y-80843000D01*
X179085000Y-115351000D02*
X179275000Y-115161000D01*
X176749000Y-115351000D02*
X179085000Y-115351000D01*
X161674594Y-84491644D02*
X160615238Y-85551000D01*
X178851000Y-111140000D02*
X179340000Y-110651000D01*
X132536050Y-82381000D02*
X133891050Y-81026000D01*
X161459000Y-92879000D02*
X162560000Y-93980000D01*
X160615238Y-85551000D02*
X159211000Y-85551000D01*
X163161000Y-85571003D02*
X163161000Y-89148943D01*
X178851000Y-95031000D02*
X175260000Y-91440000D01*
X168205000Y-100981801D02*
X167683199Y-100460000D01*
X87461000Y-68054650D02*
X87461000Y-70019000D01*
X162560000Y-84970003D02*
X163161000Y-85571003D01*
X161459000Y-90850943D02*
X161459000Y-92879000D01*
X62061000Y-90339000D02*
X62061000Y-82381000D01*
X154940000Y-80151530D02*
X154940000Y-79890003D01*
X167683199Y-96563199D02*
X167683199Y-100460000D01*
X179340000Y-108073000D02*
X178851000Y-107584000D01*
X139428480Y-80843000D02*
X154248530Y-80843000D01*
X178851000Y-107584000D02*
X178851000Y-95031000D01*
X131623950Y-82381000D02*
X132536050Y-82381000D01*
X154248530Y-80843000D02*
X154940000Y-80151530D01*
X129540000Y-71120000D02*
X130641000Y-72221000D01*
%TO.N,/~{WE_628512}*%
X97442050Y-102235000D02*
X96976050Y-102701000D01*
X150440728Y-108082000D02*
X151262000Y-107260728D01*
X115839000Y-103236000D02*
X115570000Y-103505000D01*
X87173175Y-103326825D02*
X86360000Y-104140000D01*
X93614000Y-102601000D02*
X93345000Y-102870000D01*
X96976050Y-102701000D02*
X96063950Y-102701000D01*
X104775000Y-99695000D02*
X104140000Y-99060000D01*
X151262000Y-107260728D02*
X151262000Y-106099272D01*
X87173175Y-102413175D02*
X87173175Y-103326825D01*
X94760628Y-102235000D02*
X94394628Y-102601000D01*
X99610000Y-102235000D02*
X97442050Y-102235000D01*
X94394628Y-102601000D02*
X93614000Y-102601000D01*
X144780000Y-106680000D02*
X146182000Y-108082000D01*
X95597950Y-102235000D02*
X94760628Y-102235000D01*
X104140000Y-99060000D02*
X102235000Y-99060000D01*
X96063950Y-102701000D02*
X95597950Y-102235000D01*
X151262000Y-106099272D02*
X141281728Y-96119000D01*
X146182000Y-108082000D02*
X150440728Y-108082000D01*
X120905372Y-96119000D02*
X115839000Y-101185372D01*
X86360000Y-103432893D02*
X86360000Y-104140000D01*
X115839000Y-101185372D02*
X115839000Y-103236000D01*
X141281728Y-96119000D02*
X120905372Y-96119000D01*
%TO.N,/DB6*%
X82365000Y-65405000D02*
X81730000Y-66040000D01*
X179554000Y-115752000D02*
X180142661Y-115163339D01*
X154151000Y-79576649D02*
X153998649Y-79576649D01*
X87723119Y-66296229D02*
X87169674Y-66296229D01*
X180039000Y-115059678D02*
X180039000Y-114819918D01*
X132080000Y-66040000D02*
X129990000Y-66040000D01*
X55880000Y-91440000D02*
X56981000Y-90339000D01*
X175580630Y-115752000D02*
X179554000Y-115752000D01*
X179975000Y-111377900D02*
X179975000Y-110056000D01*
X166243169Y-96112169D02*
X164111000Y-93980000D01*
X142240000Y-68531000D02*
X142240000Y-66040000D01*
X73660000Y-75565000D02*
X73660000Y-68580000D01*
X179721000Y-109802000D02*
X179721000Y-85741000D01*
X87979348Y-66040000D02*
X87723119Y-66296229D01*
X56981000Y-82719000D02*
X58420000Y-81280000D01*
X180142661Y-115163339D02*
X180039000Y-115059678D01*
X179913000Y-114693918D02*
X179913000Y-113906082D01*
X166004000Y-102649628D02*
X166004000Y-101820372D01*
X179389000Y-111593900D02*
X179623900Y-111359000D01*
X179721000Y-85741000D02*
X177800000Y-83820000D01*
X87169674Y-66296229D02*
X86810000Y-65936555D01*
X179975000Y-113844082D02*
X179975000Y-112142100D01*
X167640000Y-106680000D02*
X167640000Y-107811370D01*
X153670000Y-79248000D02*
X152957000Y-79248000D01*
X179956100Y-112161000D02*
X179623900Y-112161000D01*
X84080723Y-65409277D02*
X84076446Y-65405000D01*
X179956100Y-111359000D02*
X179975000Y-111377900D01*
X84076446Y-65405000D02*
X82365000Y-65405000D01*
X179975000Y-110056000D02*
X179721000Y-109802000D01*
X180039000Y-114819918D02*
X179913000Y-114693918D01*
X167640000Y-107811370D02*
X175580630Y-115752000D01*
X179623900Y-111359000D02*
X179956100Y-111359000D01*
X179975000Y-112142100D02*
X179956100Y-112161000D01*
X166243169Y-101581203D02*
X166243169Y-96112169D01*
X179389000Y-111926100D02*
X179389000Y-111593900D01*
X179913000Y-113906082D02*
X179975000Y-113844082D01*
X179623900Y-112161000D02*
X179389000Y-111926100D01*
X166243169Y-104140000D02*
X166243169Y-102888797D01*
X153998649Y-79576649D02*
X153670000Y-79248000D01*
X166004000Y-101820372D02*
X166243169Y-101581203D01*
X84459277Y-65409277D02*
X84080723Y-65409277D01*
X152957000Y-79248000D02*
X142240000Y-68531000D01*
X166243169Y-102888797D02*
X166004000Y-102649628D01*
X56981000Y-90339000D02*
X56981000Y-82719000D01*
%TO.N,/DB0*%
X149098000Y-95758000D02*
X144780000Y-91440000D01*
X167640000Y-111115050D02*
X163661000Y-107136050D01*
X167640000Y-123825000D02*
X167640000Y-121920000D01*
X153195050Y-95758000D02*
X149098000Y-95758000D01*
X163661000Y-106223950D02*
X153195050Y-95758000D01*
X163661000Y-107136050D02*
X163661000Y-106223950D01*
X50800000Y-88900000D02*
X49699000Y-90001000D01*
X49699000Y-90001000D02*
X49699000Y-105579000D01*
X49699000Y-105579000D02*
X50800000Y-106680000D01*
X167640000Y-121920000D02*
X167640000Y-111115050D01*
%TO.N,/ARR18*%
X111598070Y-116840000D02*
X115689997Y-116840000D01*
X124045372Y-120381000D02*
X124211778Y-120381000D01*
X122410778Y-118580000D02*
X123459000Y-119628222D01*
X121450000Y-118580000D02*
X122410778Y-118580000D01*
X118345270Y-118432002D02*
X118110000Y-118432002D01*
X123459000Y-119794628D02*
X124045372Y-120381000D01*
X123459000Y-119628222D02*
X123459000Y-119794628D01*
X120481000Y-119380000D02*
X120650000Y-119380000D01*
X118566825Y-118210447D02*
X118345270Y-118432002D01*
X135721000Y-120481000D02*
X137160000Y-121920000D01*
X118566825Y-117653175D02*
X118566825Y-118210447D01*
X124311778Y-120481000D02*
X135721000Y-120481000D01*
X111210000Y-116451930D02*
X111598070Y-116840000D01*
X120650000Y-119380000D02*
X121450000Y-118580000D01*
X124211778Y-120381000D02*
X124311778Y-120481000D01*
%TO.N,/AB3*%
X128952003Y-110022000D02*
X128150003Y-109220000D01*
X123719694Y-102701000D02*
X123920694Y-102902000D01*
X123920694Y-102902000D02*
X124020222Y-102902000D01*
X157480000Y-121920000D02*
X145582000Y-110022000D01*
X104107314Y-84630504D02*
X103779000Y-84302190D01*
X108161954Y-85664421D02*
X107950000Y-85452467D01*
X90339000Y-87461000D02*
X86360000Y-91440000D01*
X103779000Y-83459000D02*
X101600000Y-81280000D01*
X90339000Y-79984950D02*
X90339000Y-87461000D01*
X107950000Y-85452467D02*
X107950000Y-82353147D01*
X124169222Y-103051000D02*
X124360000Y-103051000D01*
X124360000Y-103051000D02*
X124675633Y-103366633D01*
X103779000Y-84302190D02*
X103779000Y-83459000D01*
X123021000Y-102701000D02*
X123719694Y-102701000D01*
X145582000Y-110022000D02*
X128952003Y-110022000D01*
X124020222Y-102902000D02*
X124169222Y-103051000D01*
X124675633Y-103366633D02*
X124675633Y-104702185D01*
%TO.N,/HLDA*%
X98425000Y-105410000D02*
X96740372Y-103725372D01*
X94132099Y-89619199D02*
X94464299Y-89619199D01*
X75099000Y-74116050D02*
X75743950Y-74761000D01*
X94845629Y-86507693D02*
X98671322Y-82682000D01*
X60960000Y-48260000D02*
X59859000Y-49361000D01*
X76656050Y-74761000D02*
X81280000Y-79384950D01*
X95324744Y-105141000D02*
X93565372Y-105141000D01*
X96740372Y-103725372D02*
X95324744Y-105141000D01*
X75099000Y-62061000D02*
X75099000Y-74116050D01*
X67935050Y-60960000D02*
X76200000Y-60960000D01*
X92879000Y-104454628D02*
X92879000Y-90872298D01*
X59859000Y-49361000D02*
X59859000Y-53796050D01*
X94845629Y-89237869D02*
X94845629Y-86507693D01*
X59859000Y-53796050D02*
X60503950Y-54441000D01*
X99640728Y-82682000D02*
X100599000Y-81723728D01*
X93565372Y-105141000D02*
X92879000Y-104454628D01*
X60503950Y-54441000D02*
X61416050Y-54441000D01*
X94464299Y-89619199D02*
X94845629Y-89237869D01*
X76200000Y-60960000D02*
X75099000Y-62061000D01*
X61416050Y-54441000D02*
X67935050Y-60960000D01*
X75743950Y-74761000D02*
X76656050Y-74761000D01*
X100599000Y-81723728D02*
X100599000Y-80723950D01*
X100599000Y-80723950D02*
X103039000Y-78283950D01*
X81280000Y-79384950D02*
X81280000Y-81280000D01*
X92879000Y-90872298D02*
X94132099Y-89619199D01*
X98671322Y-82682000D02*
X99640728Y-82682000D01*
%TO.N,/STSTB*%
X63500000Y-38100000D02*
X63500000Y-45720000D01*
X63500000Y-45720000D02*
X60960000Y-45720000D01*
%TO.N,/Q4*%
X69681000Y-80823950D02*
X69036050Y-80179000D01*
X67141000Y-80179000D02*
X66040000Y-81280000D01*
X69036050Y-80179000D02*
X67141000Y-80179000D01*
X68580000Y-91440000D02*
X69681000Y-90339000D01*
X69681000Y-90339000D02*
X69681000Y-80823950D01*
%TO.N,/~{RESET}*%
X102870000Y-110490000D02*
X102589260Y-110209260D01*
X82483000Y-98358000D02*
X83185000Y-99060000D01*
X92075000Y-109855000D02*
X93345000Y-109855000D01*
X102442520Y-110356000D02*
X102027480Y-110356000D01*
X78038000Y-98358000D02*
X82483000Y-98358000D01*
X102589260Y-110209260D02*
X102442520Y-110356000D01*
X102027480Y-110356000D02*
X100891480Y-109220000D01*
X71120000Y-91440000D02*
X78038000Y-98358000D01*
X100891480Y-109220000D02*
X93980000Y-109220000D01*
%TO.N,/Q5*%
X64601000Y-90339000D02*
X64601000Y-82381000D01*
X73426000Y-98659000D02*
X73025000Y-99060000D01*
X73025000Y-99060000D02*
X73025000Y-100330000D01*
X93980000Y-100330000D02*
X93345000Y-99695000D01*
X80699900Y-98659000D02*
X73426000Y-98659000D01*
X93980000Y-101600000D02*
X93980000Y-100330000D01*
X86923591Y-100258591D02*
X82299491Y-100258591D01*
X64601000Y-82381000D02*
X63500000Y-81280000D01*
X63500000Y-95250000D02*
X63500000Y-91440000D01*
X63500000Y-91440000D02*
X64601000Y-90339000D01*
X82299491Y-100258591D02*
X80699900Y-98659000D01*
%TO.N,Net-(D5B-A)*%
X114300000Y-117990003D02*
X113784997Y-117475000D01*
X108297950Y-117475000D02*
X105579000Y-114756050D01*
X105579000Y-114756050D02*
X105579000Y-113199000D01*
X105579000Y-113199000D02*
X104140000Y-111760000D01*
X113784997Y-117475000D02*
X108297950Y-117475000D01*
%TO.N,/Q2*%
X63500000Y-106680000D02*
X62399000Y-105579000D01*
X62399000Y-105579000D02*
X62399000Y-90983950D01*
X62399000Y-90983950D02*
X63500000Y-89882950D01*
X63500000Y-89882950D02*
X63500000Y-88900000D01*
%TO.N,/Q6*%
X74295000Y-93980000D02*
X78372000Y-98057000D01*
X71120000Y-93345000D02*
X72390000Y-93345000D01*
X59521000Y-90339000D02*
X59521000Y-80823950D01*
X83374272Y-98057000D02*
X84455000Y-99137728D01*
X91440000Y-101600000D02*
X91440000Y-98928000D01*
X84455000Y-99137728D02*
X84678272Y-99361000D01*
X78372000Y-98057000D02*
X83374272Y-98057000D01*
X58420000Y-91440000D02*
X59521000Y-90339000D01*
X58876050Y-80179000D02*
X56981000Y-80179000D01*
X59521000Y-80823950D02*
X58876050Y-80179000D01*
X91440000Y-98928000D02*
X90871000Y-98359000D01*
X72390000Y-93345000D02*
X73660000Y-94615000D01*
X88900000Y-98215678D02*
X88900000Y-97790000D01*
X84678272Y-99361000D02*
X87754678Y-99361000D01*
X87754678Y-99361000D02*
X88900000Y-98215678D01*
X56981000Y-80179000D02*
X55880000Y-81280000D01*
%TO.N,Net-(D14B-A)*%
X49699000Y-70019000D02*
X50800000Y-71120000D01*
X49699000Y-49361000D02*
X49699000Y-70019000D01*
X44619000Y-105579000D02*
X44619000Y-77301000D01*
X50800000Y-48260000D02*
X49699000Y-49361000D01*
X44619000Y-77301000D02*
X50800000Y-71120000D01*
X45720000Y-106680000D02*
X44619000Y-105579000D01*
%TO.N,/Q1*%
X54779000Y-90001000D02*
X55880000Y-88900000D01*
X58420000Y-106680000D02*
X54779000Y-103039000D01*
X54779000Y-103039000D02*
X54779000Y-90001000D01*
%TO.N,/Q0*%
X52239000Y-90983950D02*
X52239000Y-105579000D01*
X52239000Y-105579000D02*
X53340000Y-106680000D01*
X53340000Y-89882950D02*
X52239000Y-90983950D01*
X53340000Y-88900000D02*
X53340000Y-89882950D01*
%TO.N,Net-(D2B-A)*%
X79375000Y-99060000D02*
X79841000Y-99526000D01*
X105410000Y-110490000D02*
X101600000Y-106680000D01*
X79841000Y-102701000D02*
X79890003Y-102750003D01*
X79890003Y-102750003D02*
X86360000Y-102750003D01*
X73698800Y-99060000D02*
X79375000Y-99060000D01*
X79841000Y-99526000D02*
X79841000Y-102701000D01*
X101600000Y-106680000D02*
X95970000Y-106680000D01*
%TO.N,/Q3*%
X64939000Y-107136050D02*
X65583950Y-107781000D01*
X64939000Y-90983950D02*
X64939000Y-107136050D01*
X65583950Y-107781000D02*
X67479000Y-107781000D01*
X66040000Y-88900000D02*
X66040000Y-89882950D01*
X66040000Y-89882950D02*
X64939000Y-90983950D01*
X67479000Y-107781000D02*
X68580000Y-106680000D01*
%TO.N,Net-(D11-~{EO})*%
X49699000Y-106223950D02*
X47159000Y-103683950D01*
X47159000Y-103683950D02*
X47159000Y-90001000D01*
X47159000Y-90001000D02*
X48260000Y-88900000D01*
X49699000Y-107136050D02*
X49699000Y-106223950D01*
X71120000Y-106680000D02*
X69618000Y-108182000D01*
X49361000Y-87799000D02*
X48260000Y-88900000D01*
X69618000Y-108182000D02*
X50744950Y-108182000D01*
X50744950Y-108182000D02*
X49699000Y-107136050D01*
X49361000Y-75099000D02*
X49361000Y-87799000D01*
X50800000Y-73660000D02*
X49361000Y-75099000D01*
%TO.N,/Q7*%
X86360000Y-124460000D02*
X86360000Y-121920000D01*
X88900000Y-114300000D02*
X87799000Y-113199000D01*
X74295000Y-100965000D02*
X75565000Y-99695000D01*
X53340000Y-90872900D02*
X53340000Y-91440000D01*
X88265000Y-127000000D02*
X87630000Y-126365000D01*
X81915000Y-99060000D02*
X82667000Y-99812000D01*
X70485000Y-93980000D02*
X71755000Y-93980000D01*
X54779000Y-82719000D02*
X54779000Y-89433900D01*
X54779000Y-89433900D02*
X53340000Y-90872900D01*
X75565000Y-99695000D02*
X79375000Y-99695000D01*
X82667000Y-99812000D02*
X87112000Y-99812000D01*
X87630000Y-126365000D02*
X85725000Y-126365000D01*
X87799000Y-113199000D02*
X87799000Y-102701000D01*
X87799000Y-102701000D02*
X88900000Y-101600000D01*
X88900000Y-116840000D02*
X86360000Y-119380000D01*
X53340000Y-81280000D02*
X54779000Y-82719000D01*
X86360000Y-119380000D02*
X86360000Y-121920000D01*
X88900000Y-114300000D02*
X88900000Y-116840000D01*
X87112000Y-99812000D02*
X88900000Y-101600000D01*
%TO.N,/~{D15_CS1}*%
X124252479Y-93479000D02*
X123959000Y-93772479D01*
X123959000Y-93980000D02*
X123190000Y-93980000D01*
X100599000Y-104554628D02*
X102724372Y-106680000D01*
X123190000Y-93980000D02*
X121920000Y-95250000D01*
X140462000Y-93472000D02*
X140001000Y-93933000D01*
X140462000Y-92964000D02*
X140462000Y-93472000D01*
X98271132Y-103371818D02*
X98281475Y-103361475D01*
X125121521Y-93933000D02*
X124667521Y-93479000D01*
X98772950Y-102870000D02*
X99695000Y-102870000D01*
X101600000Y-102870000D02*
X101454372Y-102870000D01*
X123959000Y-93772479D02*
X123959000Y-93980000D01*
X101454372Y-102870000D02*
X100599000Y-103725372D01*
X140589000Y-92837000D02*
X140462000Y-92964000D01*
X116694372Y-92710000D02*
X107950000Y-101454372D01*
X124667521Y-93479000D02*
X124252479Y-93479000D01*
X107315000Y-106480030D02*
X108054031Y-105740999D01*
X100599000Y-103725372D02*
X100599000Y-104554628D01*
X102724372Y-106680000D02*
X102870000Y-106680000D01*
X107950000Y-101454372D02*
X107950000Y-104140000D01*
X98281475Y-103361475D02*
X98772950Y-102870000D01*
X107315000Y-106680000D02*
X107315000Y-106480030D01*
X140001000Y-93933000D02*
X125121521Y-93933000D01*
X95820000Y-103371818D02*
X98271132Y-103371818D01*
X118110000Y-92710000D02*
X116694372Y-92710000D01*
%TO.N,/~{RAM_MAIN}*%
X184404000Y-84903900D02*
X184404000Y-84021100D01*
X184404000Y-110236000D02*
X184404000Y-85276100D01*
X181729000Y-61436760D02*
X181729000Y-59571000D01*
X184404000Y-65698240D02*
X183356760Y-64651000D01*
X113299000Y-104633000D02*
X112268000Y-105664000D01*
X184404000Y-85276100D02*
X184384000Y-85256100D01*
X127644950Y-88900000D02*
X115401000Y-101143950D01*
X184384000Y-84923900D02*
X184404000Y-84903900D01*
X113299000Y-103725372D02*
X113299000Y-104633000D01*
X113792000Y-102752950D02*
X113792000Y-103232372D01*
X107846510Y-105239999D02*
X107813254Y-105273254D01*
X184404000Y-83618900D02*
X184404000Y-65698240D01*
X108261552Y-105239999D02*
X107846510Y-105239999D01*
X112268000Y-105664000D02*
X109406100Y-105664000D01*
X107813254Y-105273254D02*
X106680000Y-104140000D01*
X184384000Y-85256100D02*
X184384000Y-84923900D01*
X115401000Y-101143950D02*
X115401000Y-102056050D01*
X184369000Y-83653900D02*
X184404000Y-83618900D01*
X113792000Y-103232372D02*
X113299000Y-103725372D01*
X184404000Y-84021100D02*
X184369000Y-83986100D01*
X135255000Y-88900000D02*
X127644950Y-88900000D01*
X115401000Y-102056050D02*
X114756050Y-102701000D01*
X181729000Y-63976760D02*
X181729000Y-61436760D01*
X108555031Y-105664000D02*
X108555031Y-105533478D01*
X182880000Y-111760000D02*
X184404000Y-110236000D01*
X109406100Y-105664000D02*
X109386100Y-105644000D01*
X181729000Y-59571000D02*
X182880000Y-58420000D01*
X114756050Y-102701000D02*
X113843950Y-102701000D01*
X172068999Y-62669654D02*
X180496106Y-62669654D01*
X183356760Y-64651000D02*
X182403240Y-64651000D01*
X179790000Y-111760000D02*
X182880000Y-111760000D01*
X154940000Y-63500000D02*
X169029997Y-63500000D01*
X136525000Y-87630000D02*
X135255000Y-88900000D01*
X109033900Y-105664000D02*
X108555031Y-105664000D01*
X109386100Y-105644000D02*
X109053900Y-105644000D01*
X180496106Y-62669654D02*
X181729000Y-61436760D01*
X108555031Y-105533478D02*
X108261552Y-105239999D01*
X113843950Y-102701000D02*
X113792000Y-102752950D01*
X182403240Y-64651000D02*
X181729000Y-63976760D01*
X109053900Y-105644000D02*
X109033900Y-105664000D01*
X184369000Y-83986100D02*
X184369000Y-83653900D01*
%TO.N,/~{CC00_VI53_1}*%
X167640000Y-75217050D02*
X169772953Y-77350003D01*
X168439999Y-66839999D02*
X167640000Y-67639998D01*
X167640000Y-67639998D02*
X167640000Y-75217050D01*
X169772953Y-77350003D02*
X170180000Y-77350003D01*
X155739999Y-66839999D02*
X168439999Y-66839999D01*
X154940000Y-66040000D02*
X155739999Y-66839999D01*
%TO.N,/~{CS_ROM}*%
X153839000Y-59859000D02*
X153839000Y-57963950D01*
X154483950Y-57319000D02*
X181441000Y-57319000D01*
X154940000Y-60960000D02*
X153839000Y-59859000D01*
X181441000Y-57319000D02*
X182880000Y-55880000D01*
X153839000Y-57963950D02*
X154483950Y-57319000D01*
%TO.N,/~{CS_SRAM_8000}*%
X168778000Y-84664728D02*
X169042000Y-84400728D01*
X176784000Y-74676000D02*
X174498000Y-76962000D01*
X177800000Y-119380000D02*
X177800000Y-118745000D01*
X168778000Y-89406778D02*
X168778000Y-84664728D01*
X177800000Y-118745000D02*
X171450000Y-112395000D01*
X171318000Y-79017628D02*
X171318000Y-74798000D01*
X169042000Y-81293628D02*
X171318000Y-79017628D01*
X168497038Y-89687740D02*
X168778000Y-89406778D01*
X176784000Y-71882000D02*
X176784000Y-74676000D01*
X174498000Y-76962000D02*
X174498000Y-77216000D01*
X168497038Y-90050000D02*
X168497038Y-89687740D01*
X171318000Y-74798000D02*
X170180000Y-73660000D01*
X169042000Y-84400728D02*
X169042000Y-81293628D01*
%TO.N,/~{C400_PPI2}*%
X154940000Y-53340000D02*
X160020000Y-53340000D01*
X160020000Y-53340000D02*
X165100000Y-48260000D01*
%TO.N,/~{CA00_PPI3}*%
X168275000Y-72871000D02*
X168429000Y-72871000D01*
X168429000Y-72871000D02*
X170180000Y-71120000D01*
%TO.N,/~{CS_VG75}*%
X161915050Y-43824950D02*
X165100000Y-40640000D01*
X154940000Y-55880000D02*
X152400000Y-53340000D01*
X152400000Y-43824950D02*
X161915050Y-43824950D01*
X152400000Y-53340000D02*
X152400000Y-43824950D01*
%TO.N,/~{D15_CS2}*%
X155396050Y-64939000D02*
X154483950Y-64939000D01*
X59859000Y-48716050D02*
X58420000Y-50155050D01*
X153839000Y-65583950D02*
X153839000Y-66040000D01*
X149206160Y-66040000D02*
X122254160Y-39088000D01*
X153839000Y-66040000D02*
X149206160Y-66040000D01*
X81274950Y-39088000D02*
X73203950Y-47159000D01*
X156041000Y-65583950D02*
X155396050Y-64939000D01*
X122254160Y-39088000D02*
X81274950Y-39088000D01*
X170180000Y-66040000D02*
X156041000Y-66040000D01*
X59859000Y-47803950D02*
X59859000Y-48716050D01*
X73203950Y-47159000D02*
X60503950Y-47159000D01*
X156041000Y-66040000D02*
X156041000Y-65583950D01*
X60503950Y-47159000D02*
X59859000Y-47803950D01*
X154483950Y-64939000D02*
X153839000Y-65583950D01*
X58420000Y-50155050D02*
X58420000Y-50800000D01*
%TO.N,/~{CS_RAMR}*%
X171181000Y-61326000D02*
X171181000Y-60545372D01*
X172959000Y-74661000D02*
X172305372Y-74661000D01*
X171719000Y-70705372D02*
X172305372Y-70119000D01*
X171619000Y-81736050D02*
X171619000Y-80823950D01*
X171704000Y-74059628D02*
X171704000Y-71549628D01*
X168741000Y-59521000D02*
X167640000Y-58420000D01*
X172319000Y-69803897D02*
X172466000Y-69656897D01*
X177117000Y-113617000D02*
X177641000Y-113617000D01*
X171619000Y-80823950D02*
X172263950Y-80179000D01*
X171619000Y-82127000D02*
X171814475Y-81931525D01*
X172843372Y-67041000D02*
X173463738Y-67041000D01*
X172305372Y-67579000D02*
X172466000Y-67579000D01*
X171450000Y-108585000D02*
X171450000Y-105410000D01*
X172466000Y-69581000D02*
X172305372Y-69581000D01*
X171667999Y-62503554D02*
X171879202Y-62292351D01*
X171719000Y-71534628D02*
X171719000Y-70705372D01*
X173355000Y-109220000D02*
X172085000Y-109220000D01*
X171450000Y-105410000D02*
X173736000Y-103124000D01*
X171814475Y-81931525D02*
X171619000Y-81736050D01*
X172085000Y-109220000D02*
X171450000Y-108585000D01*
X173463738Y-67041000D02*
X173721000Y-66783738D01*
X173736000Y-103124000D02*
X173736000Y-93218000D01*
X171879202Y-62292351D02*
X171769000Y-62182150D01*
X172319000Y-70119000D02*
X172319000Y-69803897D01*
X171704000Y-87376000D02*
X171684000Y-87356000D01*
X171704000Y-71549628D02*
X171719000Y-71534628D01*
X172305372Y-69581000D02*
X171719000Y-68994628D01*
X172466000Y-69656897D02*
X172466000Y-69581000D01*
X173082372Y-93218000D02*
X171704000Y-91839628D01*
X172335099Y-62970654D02*
X172235099Y-63070654D01*
X171667999Y-62835754D02*
X171667999Y-62503554D01*
X171704000Y-91839628D02*
X171704000Y-87376000D01*
X169376000Y-59521000D02*
X168741000Y-59521000D01*
X171684000Y-84836000D02*
X171619000Y-84771000D01*
X171902899Y-63070654D02*
X171667999Y-62835754D01*
X171619000Y-84771000D02*
X171619000Y-82127000D01*
X171684000Y-87356000D02*
X171684000Y-84836000D01*
X173355000Y-63500000D02*
X172825654Y-62970654D01*
X171769000Y-61914000D02*
X171181000Y-61326000D01*
X173355000Y-65039000D02*
X173355000Y-63500000D01*
X173721000Y-65296262D02*
X173463738Y-65039000D01*
X173134628Y-79741000D02*
X173721000Y-79154628D01*
X173721000Y-66783738D02*
X173721000Y-65296262D01*
X171769000Y-62182150D02*
X171769000Y-61914000D01*
X172235099Y-63070654D02*
X171902899Y-63070654D01*
X172305372Y-74661000D02*
X171704000Y-74059628D01*
X173548697Y-76786931D02*
X173721000Y-76614628D01*
X171719000Y-68994628D02*
X171719000Y-68165372D01*
X169814000Y-59959000D02*
X169376000Y-59521000D01*
X173736000Y-93218000D02*
X173082372Y-93218000D01*
X171719000Y-68165372D02*
X172305372Y-67579000D01*
X173721000Y-79154628D02*
X173721000Y-78326785D01*
X173355000Y-109855000D02*
X173355000Y-109220000D01*
X177117000Y-113617000D02*
X173355000Y-109855000D01*
X172263950Y-80179000D02*
X173134628Y-80179000D01*
X171181000Y-60545372D02*
X170594628Y-59959000D01*
X173721000Y-76614628D02*
X173721000Y-75423000D01*
X172825654Y-62970654D02*
X172335099Y-62970654D01*
X173721000Y-75423000D02*
X172959000Y-74661000D01*
X173548697Y-78154482D02*
X173548697Y-76786931D01*
X167640000Y-58420000D02*
X154940000Y-58420000D01*
X173463738Y-65039000D02*
X173355000Y-65039000D01*
X173134628Y-80179000D02*
X173134628Y-79741000D01*
X172305372Y-70119000D02*
X172319000Y-70119000D01*
X173721000Y-78326785D02*
X173548697Y-78154482D01*
X172466000Y-67579000D02*
X172466000Y-67418372D01*
X177641000Y-113617000D02*
X178324000Y-114300000D01*
X172466000Y-67418372D02*
X172843372Y-67041000D01*
X170594628Y-59959000D02*
X169814000Y-59959000D01*
%TO.N,/R2*%
X161812570Y-74696000D02*
X155484699Y-81023871D01*
X162560000Y-71120000D02*
X162560000Y-73948570D01*
X162326000Y-74182570D02*
X162326000Y-74461100D01*
X155484699Y-81023871D02*
X155484699Y-81579623D01*
X162326000Y-74461100D02*
X162091100Y-74696000D01*
X154199694Y-82719000D02*
X150961000Y-82719000D01*
X163949649Y-69730351D02*
X162560000Y-71120000D01*
X163949649Y-68580000D02*
X163949649Y-69730351D01*
X150961000Y-82719000D02*
X149860000Y-83820000D01*
X154546322Y-82518000D02*
X154400694Y-82518000D01*
X155484699Y-81579623D02*
X154546322Y-82518000D01*
X162560000Y-73948570D02*
X162326000Y-74182570D01*
X162091100Y-74696000D02*
X161812570Y-74696000D01*
X154400694Y-82518000D02*
X154199694Y-82719000D01*
%TO.N,/~{CE00}*%
X174351000Y-73747900D02*
X174351000Y-73807000D01*
X174800941Y-73357059D02*
X174645000Y-73513000D01*
X174645000Y-73513000D02*
X174585900Y-73513000D01*
X174029958Y-77430042D02*
X174049697Y-77449781D01*
X174351000Y-73807000D02*
X174029958Y-74128042D01*
X174800941Y-73157952D02*
X174800941Y-73357059D01*
X174049697Y-77449781D02*
X174049697Y-77946961D01*
X174585900Y-73513000D02*
X174351000Y-73747900D01*
X174029958Y-74128042D02*
X174029958Y-77430042D01*
%TO.N,/~{C300}*%
X174752000Y-74930000D02*
X174498000Y-75184000D01*
X174752000Y-73914000D02*
X174752000Y-74930000D01*
%TO.N,/~{C800_VI53_2}*%
X168656000Y-79248000D02*
X168148000Y-78740000D01*
X168148000Y-78740000D02*
X168148000Y-77858003D01*
X166354100Y-76064103D02*
X166354100Y-67240999D01*
X158819001Y-67240999D02*
X154940000Y-71120000D01*
X168148000Y-77858003D02*
X166354100Y-76064103D01*
X166354100Y-67240999D02*
X158819001Y-67240999D01*
%TO.N,/~{CS_D800}*%
X165953100Y-77053100D02*
X165953100Y-68795289D01*
X177038000Y-80264000D02*
X181356000Y-80264000D01*
X174318649Y-82983351D02*
X177038000Y-80264000D01*
X167640000Y-78740000D02*
X165953100Y-77053100D01*
X165953100Y-68795289D02*
X164897902Y-67740091D01*
X173509000Y-82983351D02*
X174318649Y-82983351D01*
X163399909Y-67740091D02*
X154940000Y-76200000D01*
X164897902Y-67740091D02*
X163399909Y-67740091D01*
X181356000Y-80264000D02*
X182880000Y-78740000D01*
%TO.N,/~{C200_PPI1}*%
X154940000Y-50800000D02*
X157480000Y-48260000D01*
%TO.N,/~{C100_SD_CNTR}*%
X178754843Y-53170471D02*
X178754843Y-53017225D01*
X181879000Y-54341000D02*
X179925372Y-54341000D01*
X159385000Y-72390000D02*
X158115000Y-73660000D01*
X179925372Y-54341000D02*
X178754843Y-53170471D01*
X161925000Y-74295000D02*
X160020000Y-72390000D01*
X176530000Y-59690000D02*
X174625000Y-61595000D01*
X160020000Y-72390000D02*
X159385000Y-72390000D01*
X182880000Y-53340000D02*
X181879000Y-54341000D01*
X177165000Y-59690000D02*
X176530000Y-59690000D01*
%TO.N,Net-(D10-D4)*%
X133985000Y-92075000D02*
X134620000Y-92710000D01*
X161925000Y-95250000D02*
X163195000Y-95250000D01*
X160020000Y-93345000D02*
X161925000Y-95250000D01*
X147157514Y-100330000D02*
X147320000Y-100330000D01*
X141605000Y-95250000D02*
X142077514Y-95250000D01*
X142077514Y-95250000D02*
X147157514Y-100330000D01*
X134620000Y-92710000D02*
X137160000Y-92710000D01*
%TO.N,Net-(D10-D5)*%
X147635100Y-87062000D02*
X162283678Y-87062000D01*
X145482900Y-86868000D02*
X145629900Y-87015000D01*
X135130322Y-90270000D02*
X134595322Y-90805000D01*
X143343900Y-87015000D02*
X143676100Y-87015000D01*
X143676100Y-87015000D02*
X143823100Y-86868000D01*
X138430000Y-88265000D02*
X138078550Y-88616450D01*
X145629900Y-87015000D02*
X145962100Y-87015000D01*
X137628900Y-88499000D02*
X137194900Y-88933000D01*
X137961100Y-88499000D02*
X137628900Y-88499000D01*
X136929484Y-88933000D02*
X136708484Y-89154000D01*
X136271000Y-89154000D02*
X135155000Y-90270000D01*
X145962100Y-87015000D02*
X146109100Y-86868000D01*
X138078550Y-88616450D02*
X137961100Y-88499000D01*
X137194900Y-88933000D02*
X136929484Y-88933000D01*
X146919000Y-86976100D02*
X147153900Y-87211000D01*
X143823100Y-86868000D02*
X145482900Y-86868000D01*
X147153900Y-87211000D02*
X147486100Y-87211000D01*
X139700000Y-86995000D02*
X139827000Y-86868000D01*
X172085000Y-86995000D02*
X172085000Y-87630000D01*
X172720000Y-88265000D02*
X172720000Y-91440000D01*
X143196900Y-86868000D02*
X143343900Y-87015000D01*
X172085000Y-87630000D02*
X172720000Y-88265000D01*
X162455339Y-86890339D02*
X162560000Y-86995000D01*
X135155000Y-90270000D02*
X135130322Y-90270000D01*
X139827000Y-86868000D02*
X143196900Y-86868000D01*
X146919000Y-86868000D02*
X146919000Y-86976100D01*
X136708484Y-89154000D02*
X136271000Y-89154000D01*
X147486100Y-87211000D02*
X147635100Y-87062000D01*
X162283678Y-87062000D02*
X162455339Y-86890339D01*
X146109100Y-86868000D02*
X146919000Y-86868000D01*
X134595322Y-90805000D02*
X133350000Y-90805000D01*
%TO.N,/AB15*%
X104710900Y-87762000D02*
X104720728Y-87762000D01*
X102235000Y-90237900D02*
X104710900Y-87762000D01*
X106082000Y-84418000D02*
X106082000Y-80260674D01*
X105131364Y-87351364D02*
X105542000Y-86940728D01*
X106082000Y-80260674D02*
X105982423Y-80161097D01*
X102235000Y-92075000D02*
X102235000Y-90237900D01*
X105542000Y-86940728D02*
X105542000Y-84958000D01*
X105542000Y-84958000D02*
X105827000Y-84673000D01*
X105827000Y-84673000D02*
X106082000Y-84418000D01*
X105982423Y-73087577D02*
X106680000Y-72390000D01*
X104720728Y-87762000D02*
X105131364Y-87351364D01*
X105982423Y-80161097D02*
X105982423Y-73087577D01*
%TO.N,Net-(D10-D2)*%
X151023000Y-93892100D02*
X151023000Y-92307000D01*
X149352000Y-94742000D02*
X149098000Y-94996000D01*
X128101000Y-102701000D02*
X127000000Y-101600000D01*
X151023000Y-92307000D02*
X150876000Y-92160000D01*
X150173100Y-94742000D02*
X151023000Y-93892100D01*
X141393000Y-102701000D02*
X128101000Y-102701000D01*
X149352000Y-94742000D02*
X150173100Y-94742000D01*
X142748000Y-101346000D02*
X141393000Y-102701000D01*
%TO.N,/AB14*%
X119380000Y-73660000D02*
X112861000Y-80179000D01*
X113149997Y-84344210D02*
X113149997Y-92075000D01*
X112861000Y-83006793D02*
X113301000Y-83446793D01*
X113301000Y-83446793D02*
X113301000Y-84193207D01*
X112861000Y-80179000D02*
X112861000Y-83006793D01*
X113301000Y-84193207D02*
X113149997Y-84344210D01*
%TO.N,Net-(D10-D6)*%
X136790806Y-88646000D02*
X135934678Y-88646000D01*
X134954000Y-89201000D02*
X134921000Y-89234000D01*
X134921000Y-89234000D02*
X134286000Y-89234000D01*
X137160000Y-88392000D02*
X136920000Y-88632000D01*
X134286000Y-89234000D02*
X132715000Y-90805000D01*
X135934678Y-88646000D02*
X135379678Y-89201000D01*
X136920000Y-88632000D02*
X136804806Y-88632000D01*
X135379678Y-89201000D02*
X134954000Y-89201000D01*
X161925000Y-87630000D02*
X141986000Y-87630000D01*
X136804806Y-88632000D02*
X136790806Y-88646000D01*
%TO.N,Net-(D10-D0)*%
X144272000Y-93472000D02*
X144272000Y-94488000D01*
X121920000Y-101600000D02*
X122682000Y-101600000D01*
X142240000Y-91440000D02*
X144272000Y-93472000D01*
X122682000Y-101600000D02*
X123444000Y-100838000D01*
X130090000Y-99822000D02*
X130043000Y-99775000D01*
X124353000Y-99421000D02*
X128170000Y-99421000D01*
X128170000Y-99421000D02*
X128524000Y-99775000D01*
X130043000Y-99775000D02*
X128524000Y-99775000D01*
X124206000Y-99568000D02*
X124353000Y-99421000D01*
%TO.N,Net-(D10-D7)*%
X134386000Y-91440000D02*
X135255000Y-90571000D01*
X132715000Y-91440000D02*
X134386000Y-91440000D01*
X135255000Y-90571000D02*
X135279678Y-90571000D01*
X131445000Y-90170000D02*
X132715000Y-91440000D01*
X137477500Y-89234000D02*
X137477500Y-89217500D01*
X135279678Y-90571000D02*
X136395678Y-89455000D01*
X157810999Y-82219001D02*
X157612000Y-82418000D01*
X156632852Y-82971470D02*
X155788530Y-82971470D01*
X136833162Y-89455000D02*
X137054162Y-89234000D01*
X136395678Y-89455000D02*
X136833162Y-89455000D01*
X146050000Y-81915000D02*
X154305000Y-81915000D01*
X137477500Y-89217500D02*
X137795000Y-88900000D01*
X164338000Y-82219001D02*
X157810999Y-82219001D01*
X157186322Y-82418000D02*
X156632852Y-82971470D01*
X157612000Y-82418000D02*
X157186322Y-82418000D01*
X137054162Y-89234000D02*
X137477500Y-89234000D01*
%TO.N,Net-(D10-~{WE})*%
X102569000Y-93078900D02*
X102469000Y-93178900D01*
X100584000Y-116628000D02*
X100584000Y-124551123D01*
X105243900Y-91039000D02*
X105143900Y-91139000D01*
X89928966Y-125095000D02*
X71755000Y-125095000D01*
X100497000Y-124638123D02*
X100497000Y-125128000D01*
X104083222Y-91139000D02*
X102569000Y-92653222D01*
X90931966Y-124092000D02*
X89928966Y-125095000D01*
X102001000Y-95662346D02*
X103752825Y-97414171D01*
X106230000Y-88900000D02*
X106230000Y-90112000D01*
X105143900Y-91139000D02*
X104083222Y-91139000D01*
X102001000Y-94341000D02*
X102001000Y-95662346D01*
X99506872Y-125128000D02*
X98871872Y-124493000D01*
X105303000Y-91039000D02*
X105243900Y-91039000D01*
X102469000Y-93178900D02*
X102469000Y-93511100D01*
X102649950Y-93692050D02*
X102001000Y-94341000D01*
X100584000Y-124551123D02*
X100497000Y-124638123D01*
X71755000Y-125095000D02*
X68580000Y-121920000D01*
X97834678Y-123825000D02*
X93612000Y-123825000D01*
X100161000Y-116205000D02*
X100584000Y-116628000D01*
X93612000Y-123825000D02*
X93345000Y-124092000D01*
X106230000Y-90112000D02*
X105303000Y-91039000D01*
X98502678Y-124493000D02*
X97834678Y-123825000D01*
X98871872Y-124493000D02*
X98502678Y-124493000D01*
X102569000Y-92653222D02*
X102569000Y-93078900D01*
X100497000Y-125128000D02*
X99506872Y-125128000D01*
X102469000Y-93511100D02*
X102649950Y-93692050D01*
X93345000Y-124092000D02*
X90931966Y-124092000D01*
%TO.N,Net-(D10-D3)*%
X141605000Y-85725000D02*
X139065000Y-85725000D01*
X131445000Y-86360000D02*
X129540000Y-86360000D01*
X132715000Y-85090000D02*
X131445000Y-86360000D01*
X142240000Y-86360000D02*
X141605000Y-85725000D01*
%TO.N,Net-(D10-D1)*%
X125730000Y-100076000D02*
X124968000Y-100076000D01*
X129594594Y-100076000D02*
X125730000Y-100076000D01*
X150622000Y-93726000D02*
X149860000Y-92964000D01*
X149860000Y-92964000D02*
X149860000Y-91440000D01*
X130090000Y-100571406D02*
X129594594Y-100076000D01*
X124968000Y-100076000D02*
X124714000Y-99822000D01*
%TO.N,Net-(D24D-A)*%
X158888630Y-41771370D02*
X153886480Y-41771370D01*
X160020000Y-40640000D02*
X158888630Y-41771370D01*
X151999000Y-43658850D02*
X151999000Y-59576050D01*
X153886480Y-41771370D02*
X151999000Y-43658850D01*
X170831000Y-59367998D02*
X171778998Y-58420000D01*
X171778998Y-58420000D02*
X172720000Y-58420000D01*
X151999000Y-59576050D02*
X154483950Y-62061000D01*
X166539000Y-62061000D02*
X167640000Y-60960000D01*
X154483950Y-62061000D02*
X166539000Y-62061000D01*
%TO.N,Net-(D21B-A)*%
X178562000Y-56896000D02*
X176784000Y-56896000D01*
X178816000Y-56642000D02*
X178562000Y-56896000D01*
X174236091Y-72143909D02*
X172720000Y-73660000D01*
X178816000Y-63246000D02*
X174244000Y-67818000D01*
X174244000Y-67818000D02*
X174244000Y-68580000D01*
X174236091Y-71366091D02*
X174236091Y-72143909D01*
X178816000Y-56134000D02*
X178816000Y-56642000D01*
%TO.N,Net-(D19-6)*%
X183356760Y-54729000D02*
X184031000Y-55403240D01*
X184031000Y-56594760D02*
X183356760Y-57269000D01*
X167640000Y-40640000D02*
X171281000Y-44281000D01*
X174498000Y-49699000D02*
X174498000Y-48622372D01*
X183356760Y-57269000D02*
X182403240Y-57269000D01*
X174498000Y-49699000D02*
X174726100Y-49699000D01*
X184031000Y-55403240D02*
X184031000Y-56594760D01*
X172028000Y-46721000D02*
X171281000Y-45974000D01*
X181729000Y-58896760D02*
X180340000Y-60285760D01*
X174498000Y-48622372D02*
X172596628Y-46721000D01*
X171281000Y-44281000D02*
X171281000Y-45974000D01*
X179756100Y-54729000D02*
X183356760Y-54729000D01*
X182403240Y-57269000D02*
X181729000Y-57943240D01*
X172596628Y-46721000D02*
X172028000Y-46721000D01*
X174726100Y-49699000D02*
X179756100Y-54729000D01*
X181729000Y-57943240D02*
X181729000Y-58896760D01*
X180340000Y-60285760D02*
X180340000Y-60960000D01*
%TO.N,Net-(D19-5)*%
X176699000Y-54779000D02*
X169079000Y-54779000D01*
X169079000Y-54779000D02*
X167640000Y-53340000D01*
%TO.N,Net-(D19-4)*%
X166201000Y-48716050D02*
X169723950Y-52239000D01*
X165556050Y-47159000D02*
X166201000Y-47803950D01*
X156041000Y-47159000D02*
X165556050Y-47159000D01*
X154940000Y-48260000D02*
X156041000Y-47159000D01*
X169723950Y-52239000D02*
X176699000Y-52239000D01*
X176699000Y-52239000D02*
X180340000Y-55880000D01*
X166201000Y-47803950D02*
X166201000Y-48716050D01*
%TO.N,Net-(D19-3)*%
X175565191Y-61856909D02*
X177800000Y-59622100D01*
X177546000Y-56388000D02*
X177546000Y-55880000D01*
X175379091Y-61856909D02*
X175565191Y-61856909D01*
X178054000Y-76454000D02*
X178054000Y-66802000D01*
X177546000Y-55880000D02*
X178562000Y-54864000D01*
X177800000Y-59622100D02*
X177800000Y-57819000D01*
X180340000Y-78740000D02*
X178054000Y-76454000D01*
X178054000Y-66802000D02*
X178308000Y-66548000D01*
%TO.N,/R7*%
X103994372Y-110490000D02*
X103139000Y-111345372D01*
X137626000Y-90339000D02*
X138430000Y-89535000D01*
X95885000Y-116840000D02*
X97155000Y-116840000D01*
X103139000Y-111345372D02*
X103139000Y-113299000D01*
X136374840Y-90339000D02*
X137626000Y-90339000D01*
X141180727Y-88054273D02*
X161500727Y-88054273D01*
X102235000Y-117475000D02*
X102235000Y-116205000D01*
X140970000Y-88265000D02*
X141180727Y-88054273D01*
X135890000Y-91440000D02*
X135890000Y-90823840D01*
X103994372Y-110473602D02*
X103994372Y-110490000D01*
X102235000Y-116205000D02*
X104140000Y-114300000D01*
X104376487Y-110091487D02*
X103994372Y-110473602D01*
X103139000Y-113299000D02*
X104140000Y-114300000D01*
X135890000Y-90823840D02*
X136374840Y-90339000D01*
%TO.N,/R5*%
X170434000Y-91186000D02*
X170434000Y-84821000D01*
X171958000Y-66802000D02*
X172720000Y-66040000D01*
X170521900Y-82149000D02*
X170434000Y-82236900D01*
X171418000Y-69119306D02*
X171418000Y-68040694D01*
X88900000Y-123825000D02*
X88900000Y-121920000D01*
X170434000Y-82236900D02*
X170434000Y-80327306D01*
X171619000Y-78158524D02*
X171720000Y-78057524D01*
X171619000Y-74673322D02*
X171755508Y-74536814D01*
X170434000Y-84821000D02*
X170594628Y-84821000D01*
X170180000Y-91440000D02*
X170434000Y-91186000D01*
X179769000Y-119773000D02*
X179769000Y-118464660D01*
X170434000Y-80327306D02*
X171619000Y-79142306D01*
X171418000Y-70580694D02*
X172018000Y-69980694D01*
X171403000Y-74184306D02*
X171403000Y-71424950D01*
X171755508Y-74536814D02*
X171403000Y-74184306D01*
X171418000Y-68040694D02*
X171958000Y-67500694D01*
X171089000Y-82716100D02*
X171089000Y-82383900D01*
X170726628Y-82951000D02*
X170854100Y-82951000D01*
X181794661Y-116439000D02*
X184535100Y-116439000D01*
X170854100Y-82951000D02*
X171089000Y-82716100D01*
X171181000Y-83405372D02*
X170726628Y-82951000D01*
X170594628Y-84821000D02*
X171181000Y-84234628D01*
X171619000Y-79142306D02*
X171619000Y-78158524D01*
X178859500Y-120682500D02*
X179769000Y-119773000D01*
X171418000Y-71409950D02*
X171418000Y-70580694D01*
X184770000Y-118125000D02*
X173863000Y-129032000D01*
X171181000Y-84234628D02*
X171181000Y-83405372D01*
X172018000Y-69719306D02*
X171418000Y-69119306D01*
X178402500Y-120682500D02*
X178859500Y-120682500D01*
X184770000Y-116673900D02*
X184770000Y-118125000D01*
X179769000Y-118464660D02*
X181794661Y-116439000D01*
X171958000Y-67500694D02*
X171958000Y-66802000D01*
X96012000Y-129032000D02*
X92075000Y-125095000D01*
X184535100Y-116439000D02*
X184770000Y-116673900D01*
X172018000Y-69980694D02*
X172018000Y-69719306D01*
X170854100Y-82149000D02*
X170521900Y-82149000D01*
X173863000Y-129032000D02*
X96012000Y-129032000D01*
X177800000Y-121285000D02*
X178402500Y-120682500D01*
X171720000Y-77642482D02*
X171619000Y-77541482D01*
X171619000Y-77541482D02*
X171619000Y-74673322D01*
X171403000Y-71424950D02*
X171418000Y-71409950D01*
X171720000Y-78057524D02*
X171720000Y-77642482D01*
X88265000Y-124460000D02*
X88900000Y-123825000D01*
X171089000Y-82383900D02*
X170854100Y-82149000D01*
%TO.N,/R6*%
X139700000Y-104648000D02*
X136026207Y-104648000D01*
X136026207Y-104648000D02*
X132470207Y-108204000D01*
X103320003Y-110607097D02*
X103320003Y-110490000D01*
X102601000Y-114714628D02*
X102601000Y-111326100D01*
X162269310Y-88318620D02*
X161941930Y-88646000D01*
X122682000Y-109220000D02*
X121666000Y-110236000D01*
X160274000Y-88646000D02*
X155448000Y-93472000D01*
X100161000Y-114521150D02*
X100940850Y-115301000D01*
X95885000Y-113665000D02*
X95885000Y-115570000D01*
X97959000Y-113199000D02*
X99516050Y-113199000D01*
X140208000Y-105156000D02*
X139700000Y-104648000D01*
X161941930Y-88646000D02*
X160274000Y-88646000D01*
X132470207Y-108204000D02*
X131064000Y-108204000D01*
X121666000Y-110236000D02*
X113750000Y-110236000D01*
X164592000Y-87630000D02*
X164084000Y-88138000D01*
X130556000Y-109220000D02*
X129032000Y-107696000D01*
X96273909Y-113276091D02*
X95885000Y-113665000D01*
X164592000Y-85852000D02*
X164592000Y-87630000D01*
X102601000Y-111326100D02*
X103320003Y-110607097D01*
X100940850Y-115301000D02*
X102014628Y-115301000D01*
X99516050Y-113199000D02*
X100161000Y-113843950D01*
X102014628Y-115301000D02*
X102601000Y-114714628D01*
X97155000Y-112395000D02*
X97959000Y-113199000D01*
X129032000Y-107696000D02*
X128524000Y-107696000D01*
X130556000Y-109220000D02*
X130683000Y-109093000D01*
X100161000Y-113843950D02*
X100161000Y-114521150D01*
%TO.N,Net-(D14C-Y)*%
X62061000Y-79196050D02*
X62061000Y-77639000D01*
X61416050Y-79841000D02*
X62061000Y-79196050D01*
X80010000Y-92710000D02*
X81280000Y-93980000D01*
X59521000Y-79841000D02*
X61416050Y-79841000D01*
X62061000Y-77639000D02*
X62865000Y-76835000D01*
X58420000Y-78740000D02*
X59521000Y-79841000D01*
%TO.N,Net-(D18B-D)*%
X50343950Y-44619000D02*
X45720000Y-49242950D01*
X53993840Y-116840000D02*
X60960000Y-116840000D01*
X44619000Y-107465160D02*
X44934840Y-107781000D01*
X45720000Y-49242950D02*
X45720000Y-75632900D01*
X44218000Y-105745100D02*
X44619000Y-106146100D01*
X45720000Y-75632900D02*
X44218000Y-77134900D01*
X45720000Y-108566160D02*
X53993840Y-116840000D01*
X44218000Y-77134900D02*
X44218000Y-105745100D01*
X44934840Y-107781000D02*
X45720000Y-107781000D01*
X45720000Y-107781000D02*
X45720000Y-108566160D01*
X54779000Y-44619000D02*
X50343950Y-44619000D01*
X44619000Y-106146100D02*
X44619000Y-107465160D01*
X60960000Y-116840000D02*
X63500000Y-114300000D01*
X58420000Y-48260000D02*
X54779000Y-44619000D01*
%TO.N,Net-(D18B-Q)*%
X43817000Y-48276840D02*
X43817000Y-109203160D01*
X53827740Y-117241000D02*
X68179000Y-117241000D01*
X58420000Y-45720000D02*
X54779000Y-42079000D01*
X68179000Y-117241000D02*
X71120000Y-114300000D01*
X43817000Y-109203160D02*
X51453840Y-116840000D01*
X51453840Y-116840000D02*
X53426740Y-116840000D01*
X54779000Y-42079000D02*
X50014840Y-42079000D01*
X53426740Y-116840000D02*
X53827740Y-117241000D01*
X50014840Y-42079000D02*
X43817000Y-48276840D01*
%TO.N,Net-(D2A-B)*%
X61374628Y-54879000D02*
X74798000Y-68302372D01*
X74798000Y-89242738D02*
X77996262Y-92441000D01*
X74798000Y-68302372D02*
X74798000Y-89242738D01*
X58834628Y-52339000D02*
X59421000Y-52925372D01*
X50800000Y-45720000D02*
X51901000Y-46821000D01*
X51901000Y-49361000D02*
X58420000Y-55880000D01*
X80279000Y-91854628D02*
X80279000Y-87996000D01*
X58005372Y-52339000D02*
X58834628Y-52339000D01*
X80279000Y-87996000D02*
X82550000Y-85725000D01*
X60384678Y-54879000D02*
X61374628Y-54879000D01*
X59421000Y-53915322D02*
X60384678Y-54879000D01*
X79692628Y-92441000D02*
X80279000Y-91854628D01*
X58420000Y-55880000D02*
X57419000Y-54879000D01*
X57419000Y-52925372D02*
X58005372Y-52339000D01*
X51901000Y-46821000D02*
X51901000Y-49361000D01*
X77996262Y-92441000D02*
X79692628Y-92441000D01*
X59421000Y-52925372D02*
X59421000Y-53915322D01*
X57419000Y-54879000D02*
X57419000Y-52925372D01*
%TO.N,Net-(D2B-Y)*%
X73019326Y-108579326D02*
X73660000Y-109220000D01*
X50800000Y-75049997D02*
X51545047Y-75049997D01*
X56580000Y-85660000D02*
X55880000Y-86360000D01*
X51545047Y-75049997D02*
X54779000Y-78283950D01*
X73660000Y-109220000D02*
X83820000Y-109220000D01*
X55880000Y-83820000D02*
X56580000Y-84520000D01*
X54779000Y-78283950D02*
X54779000Y-82068000D01*
X56580000Y-84520000D02*
X56580000Y-85660000D01*
X54779000Y-82068000D02*
X55880000Y-83169000D01*
X55880000Y-83169000D02*
X55880000Y-83820000D01*
%TO.N,/ROM_A14*%
X93980000Y-114300000D02*
X95081000Y-115401000D01*
X96555322Y-128731000D02*
X173529000Y-128731000D01*
X89901000Y-122824000D02*
X89201000Y-123524000D01*
X89901000Y-120581000D02*
X89901000Y-122824000D01*
X89201000Y-123524000D02*
X89201000Y-124159000D01*
X89201000Y-124159000D02*
X88900000Y-124460000D01*
X93345000Y-125095000D02*
X93345000Y-125520678D01*
X95081000Y-115401000D02*
X89901000Y-120581000D01*
X93345000Y-125520678D02*
X96555322Y-128731000D01*
X173529000Y-128731000D02*
X183515000Y-118745000D01*
%TO.N,/ROM_A13*%
X96680000Y-128430000D02*
X173210000Y-128430000D01*
X184369000Y-117271000D02*
X184369000Y-116840000D01*
X89535000Y-123825000D02*
X91440000Y-121920000D01*
X93980000Y-125730000D02*
X96680000Y-128430000D01*
X89535000Y-124460000D02*
X89535000Y-123825000D01*
X93980000Y-125095000D02*
X93980000Y-125730000D01*
X173210000Y-128430000D02*
X184369000Y-117271000D01*
%TO.N,/~{MWR}*%
X84921000Y-118279000D02*
X86954678Y-118279000D01*
X86954678Y-118279000D02*
X87630000Y-117603678D01*
X95885000Y-118745000D02*
X97155000Y-118745000D01*
X84921000Y-105241000D02*
X83820000Y-104140000D01*
X87630000Y-117603678D02*
X87630000Y-117475000D01*
X81280000Y-121920000D02*
X84921000Y-118279000D01*
X84921000Y-118279000D02*
X84921000Y-105241000D01*
%TO.N,/ROM_A15*%
X87630000Y-124460000D02*
X87630000Y-121774372D01*
X120015000Y-125095000D02*
X116840000Y-125095000D01*
X121285000Y-126365000D02*
X120015000Y-125095000D01*
X89535000Y-119869372D02*
X89535000Y-116205000D01*
X87630000Y-121774372D02*
X89535000Y-119869372D01*
%TO.N,Net-(D14B-Y)*%
X85628084Y-107411916D02*
X85586547Y-107411916D01*
X88900000Y-104140000D02*
X88265000Y-104775000D01*
X72390000Y-108585000D02*
X73025000Y-107950000D01*
X51801000Y-91025372D02*
X51801000Y-91854628D01*
X73025000Y-107950000D02*
X76200000Y-107950000D01*
X86995000Y-106045000D02*
X85628084Y-107411916D01*
X51435000Y-92220628D02*
X51435000Y-97155000D01*
X52267797Y-77667797D02*
X52267797Y-90529475D01*
X51786450Y-91010822D02*
X51801000Y-91025372D01*
X50800000Y-76200000D02*
X52267797Y-77667797D01*
X88265000Y-104775000D02*
X88265000Y-106045000D01*
X52267797Y-90529475D02*
X51786450Y-91010822D01*
X51801000Y-91854628D02*
X51435000Y-92220628D01*
X76200000Y-107950000D02*
X76835000Y-108585000D01*
%TO.N,Net-(D18A-~{Q})*%
X80179000Y-112861000D02*
X81280000Y-111760000D01*
X77954840Y-112861000D02*
X80179000Y-112861000D01*
X71120000Y-121920000D02*
X71120000Y-119695840D01*
X71120000Y-119695840D02*
X77954840Y-112861000D01*
%TO.N,Net-(D21B-Y)*%
X146050000Y-86360000D02*
X145796000Y-86614000D01*
X138082000Y-93472000D02*
X128270000Y-93472000D01*
X139478787Y-93378000D02*
X138684000Y-93378000D01*
X171482000Y-79978000D02*
X171482000Y-80010000D01*
X114046000Y-100076000D02*
X113030000Y-101092000D01*
X171482000Y-80010000D02*
X170942000Y-80550000D01*
X119947100Y-99060000D02*
X118276100Y-100731000D01*
X117709000Y-99969000D02*
X117856000Y-99822000D01*
X138684000Y-93378000D02*
X138176000Y-93378000D01*
X128270000Y-93472000D02*
X128386503Y-93472000D01*
X160782000Y-86360000D02*
X146050000Y-86360000D01*
X113030000Y-101092000D02*
X113030000Y-101854000D01*
X140162090Y-92694697D02*
X139478787Y-93378000D01*
X123952000Y-98298000D02*
X123190000Y-99060000D01*
X111760000Y-103124000D02*
X111760000Y-104140000D01*
X138176000Y-93378000D02*
X138082000Y-93472000D01*
X118276100Y-100731000D02*
X117943900Y-100731000D01*
X113030000Y-101854000D02*
X111760000Y-103124000D01*
X117943900Y-100731000D02*
X117709000Y-100496100D01*
X117709000Y-100496100D02*
X117709000Y-99969000D01*
X123190000Y-99060000D02*
X119947100Y-99060000D01*
X170942000Y-80550000D02*
X170942000Y-80772000D01*
X172720000Y-78740000D02*
X171482000Y-79978000D01*
%TO.N,/~{CC00_VI53_1_}*%
X177546000Y-74168000D02*
X177546000Y-76200000D01*
X138176000Y-92964000D02*
X137473100Y-92964000D01*
X138261000Y-91440000D02*
X138261000Y-90847000D01*
X143031550Y-86135550D02*
X143510000Y-86614000D01*
X160570000Y-84935667D02*
X159357667Y-84935667D01*
X134448322Y-92964000D02*
X127508000Y-92964000D01*
X137326100Y-93111000D02*
X136993900Y-93111000D01*
X143323009Y-85844091D02*
X155201909Y-85844091D01*
X116985628Y-102870000D02*
X118364000Y-102870000D01*
X127508000Y-92964000D02*
X127254000Y-93218000D01*
X138261000Y-92879000D02*
X138176000Y-92964000D01*
X118110000Y-100330000D02*
X120650000Y-97790000D01*
X138261000Y-91440000D02*
X138261000Y-92879000D01*
X157480000Y-84582000D02*
X155956000Y-84582000D01*
X138261000Y-90847000D02*
X138684000Y-90424000D01*
X136893900Y-93011000D02*
X134495322Y-93011000D01*
X115715628Y-104140000D02*
X116985628Y-102870000D01*
X134495322Y-93011000D02*
X134448322Y-92964000D01*
X114300000Y-104140000D02*
X115715628Y-104140000D01*
X136993900Y-93111000D02*
X136893900Y-93011000D01*
X137473100Y-92964000D02*
X137326100Y-93111000D01*
X120650000Y-97790000D02*
X122936000Y-97790000D01*
X177546000Y-76200000D02*
X173990000Y-79756000D01*
X143031550Y-86135550D02*
X143323009Y-85844091D01*
X159357667Y-84935667D02*
X158242000Y-83820000D01*
%TO.N,/C800_VI53_2*%
X100012628Y-112761000D02*
X98156000Y-112761000D01*
X176784000Y-83711628D02*
X176784000Y-82550000D01*
X176784000Y-99060000D02*
X176784000Y-94234000D01*
X176784000Y-82550000D02*
X178054000Y-81280000D01*
X167053628Y-127000000D02*
X171396952Y-122656676D01*
X100061000Y-120127000D02*
X100061000Y-122428000D01*
X99314000Y-117176322D02*
X99314000Y-119380000D01*
X97790000Y-114300000D02*
X97790000Y-115652322D01*
X97155000Y-111760000D02*
X96754000Y-112161000D01*
X99314000Y-119380000D02*
X100061000Y-120127000D01*
X100599000Y-112174628D02*
X100012628Y-112761000D01*
X174244000Y-91948000D02*
X174244000Y-86251628D01*
X176530000Y-94234000D02*
X174244000Y-91948000D01*
X96754000Y-112161000D02*
X96754000Y-112763404D01*
X97790000Y-115652322D02*
X99314000Y-117176322D01*
X98156000Y-112761000D02*
X97155000Y-111760000D01*
X100599000Y-109942000D02*
X100599000Y-112174628D01*
X100512000Y-109855000D02*
X100599000Y-109942000D01*
X176784000Y-94234000D02*
X176530000Y-94234000D01*
X174244000Y-86251628D02*
X176784000Y-83711628D01*
X176276000Y-99568000D02*
X176784000Y-99060000D01*
X171396952Y-120449048D02*
X175006000Y-116840000D01*
X171396952Y-122656676D02*
X171396952Y-120449048D01*
X178054000Y-81280000D02*
X180340000Y-81280000D01*
X109728000Y-127000000D02*
X167053628Y-127000000D01*
X100061000Y-124699000D02*
X100076000Y-124714000D01*
X107950000Y-125222000D02*
X109728000Y-127000000D01*
X100061000Y-122428000D02*
X100061000Y-124699000D01*
X97790000Y-113799404D02*
X97790000Y-114300000D01*
X96754000Y-112763404D02*
X97790000Y-113799404D01*
%TO.N,Net-(D14A-A)*%
X92441000Y-111778050D02*
X92441000Y-111345372D01*
X101600000Y-107315000D02*
X102235000Y-107950000D01*
X61540728Y-80142000D02*
X61511628Y-80142000D01*
X62362000Y-78105000D02*
X62362000Y-79320728D01*
X100448817Y-105982531D02*
X100386348Y-106045000D01*
X95250000Y-113030000D02*
X93692950Y-113030000D01*
X109220000Y-107315000D02*
X109220000Y-106045000D01*
X75565000Y-106045000D02*
X78105000Y-108585000D01*
X61511628Y-80142000D02*
X61374628Y-80279000D01*
X91854628Y-110759000D02*
X91074000Y-110759000D01*
X100386348Y-106045000D02*
X98425000Y-106045000D01*
X59000728Y-79878000D02*
X57018000Y-79878000D01*
X60179372Y-80645000D02*
X59767728Y-80645000D01*
X60545372Y-80279000D02*
X60179372Y-80645000D01*
X100512000Y-107315000D02*
X101600000Y-107315000D01*
X57018000Y-79878000D02*
X51801000Y-74661000D01*
X61374628Y-80279000D02*
X60545372Y-80279000D01*
X92441000Y-111345372D02*
X91854628Y-110759000D01*
X51801000Y-64501000D02*
X50800000Y-63500000D01*
X98425000Y-106045000D02*
X97155000Y-104775000D01*
X78105000Y-108585000D02*
X82550000Y-108585000D01*
X51801000Y-74661000D02*
X51801000Y-64501000D01*
X59767728Y-80645000D02*
X59000728Y-79878000D01*
X62865000Y-78105000D02*
X62362000Y-78105000D01*
X62362000Y-79320728D02*
X61540728Y-80142000D01*
X95638909Y-112641091D02*
X95250000Y-113030000D01*
X93692950Y-113030000D02*
X92441000Y-111778050D01*
X91074000Y-110759000D02*
X89535000Y-109220000D01*
%TO.N,Net-(D20B-B)*%
X109554000Y-117174000D02*
X114051097Y-117174000D01*
X111125000Y-120015000D02*
X109220000Y-121920000D01*
X114701000Y-117823903D02*
X114701000Y-118156103D01*
X108585000Y-116205000D02*
X109554000Y-117174000D01*
X101600000Y-111760000D02*
X101600000Y-114300000D01*
X114051097Y-117174000D02*
X114701000Y-117823903D01*
X114701000Y-118156103D02*
X112842103Y-120015000D01*
X112842103Y-120015000D02*
X111125000Y-120015000D01*
%TO.N,/~{C800_VI53_2_}*%
X115824000Y-85598000D02*
X115570000Y-85852000D01*
X174498000Y-81534000D02*
X174498000Y-82296000D01*
X105156000Y-100692372D02*
X105156000Y-103124000D01*
X172941649Y-82582351D02*
X174211649Y-82582351D01*
X105156000Y-103124000D02*
X104140000Y-104140000D01*
X180532628Y-79963000D02*
X176069000Y-79963000D01*
X156464000Y-81788000D02*
X155956000Y-82296000D01*
X154178000Y-80264000D02*
X135382000Y-80264000D01*
X109787100Y-97790000D02*
X107442000Y-97790000D01*
X181610000Y-69850000D02*
X181610000Y-78885628D01*
X106172000Y-99676372D02*
X105156000Y-100692372D01*
X176069000Y-79963000D02*
X174498000Y-81534000D01*
X115570000Y-85852000D02*
X115570000Y-92007100D01*
X172720000Y-82804000D02*
X172212000Y-82804000D01*
X174211649Y-82582351D02*
X174498000Y-82296000D01*
X181610000Y-78885628D02*
X180532628Y-79963000D01*
X182880000Y-68580000D02*
X181610000Y-69850000D01*
X170688000Y-82550000D02*
X169672000Y-82550000D01*
X163830000Y-81718001D02*
X163760001Y-81788000D01*
X115570000Y-92007100D02*
X109787100Y-97790000D01*
X106172000Y-97790000D02*
X106172000Y-99676372D01*
X163760001Y-81788000D02*
X156464000Y-81788000D01*
X172720000Y-82804000D02*
X172941649Y-82582351D01*
%TO.N,/~{CS_DMA_}*%
X173176050Y-44619000D02*
X173821000Y-45263950D01*
X162560000Y-40640000D02*
X163661000Y-39539000D01*
X173821000Y-46176050D02*
X179833950Y-52189000D01*
X163661000Y-39539000D02*
X168096050Y-39539000D01*
X172263950Y-44619000D02*
X173176050Y-44619000D01*
X184432000Y-61948000D02*
X182880000Y-63500000D01*
X168741000Y-41096050D02*
X172263950Y-44619000D01*
X168096050Y-39539000D02*
X168741000Y-40183950D01*
X173821000Y-45263950D02*
X173821000Y-46176050D01*
X168741000Y-40183950D02*
X168741000Y-41096050D01*
X179833950Y-52189000D02*
X183356760Y-52189000D01*
X183356760Y-52189000D02*
X184432000Y-53264240D01*
X184432000Y-53264240D02*
X184432000Y-61948000D01*
%TO.N,/~{C400_PPI2_}*%
X181729000Y-47109000D02*
X182880000Y-48260000D01*
X172720000Y-40640000D02*
X175260000Y-43180000D01*
X176948000Y-43885050D02*
X180171950Y-47109000D01*
X176948000Y-43180000D02*
X176948000Y-43885050D01*
X180171950Y-47109000D02*
X181729000Y-47109000D01*
X175260000Y-43180000D02*
X176948000Y-43180000D01*
%TO.N,/~{C200_PPI1_}*%
X162504950Y-39138000D02*
X161459000Y-40183950D01*
X178118905Y-43498905D02*
X177986811Y-43631000D01*
X181779000Y-44619000D02*
X179239000Y-44619000D01*
X177349000Y-42993189D02*
X177481094Y-42861094D01*
X177481094Y-42861094D02*
X176545500Y-41925500D01*
X175269500Y-41925500D02*
X172482000Y-39138000D01*
X176545500Y-41925500D02*
X175269500Y-41925500D01*
X161459000Y-40183950D02*
X161459000Y-41741000D01*
X177349000Y-43366811D02*
X177349000Y-42993189D01*
X177613189Y-43631000D02*
X177349000Y-43366811D01*
X179239000Y-44619000D02*
X178118905Y-43498905D01*
X182880000Y-45720000D02*
X181779000Y-44619000D01*
X172482000Y-39138000D02*
X162504950Y-39138000D01*
X161459000Y-41741000D02*
X160020000Y-43180000D01*
X177986811Y-43631000D02*
X177613189Y-43631000D01*
%TO.N,/~{CS_VG75_}*%
X179239000Y-47803950D02*
X179239000Y-49054050D01*
X181779000Y-49699000D02*
X182880000Y-50800000D01*
X179239000Y-49054050D02*
X179883950Y-49699000D01*
X172075050Y-40640000D02*
X179239000Y-47803950D01*
X170180000Y-40640000D02*
X172075050Y-40640000D01*
X179883950Y-49699000D02*
X181779000Y-49699000D01*
%TO.N,/CLK*%
X98378000Y-124794000D02*
X97710000Y-124126000D01*
X103478732Y-124762900D02*
X103478732Y-125095100D01*
X113799000Y-124206000D02*
X103241644Y-124206000D01*
X124545000Y-120819000D02*
X124460000Y-120904000D01*
X113799000Y-124667521D02*
X113799000Y-124206000D01*
X102911632Y-125330000D02*
X102676732Y-125095100D01*
X116111050Y-124206000D02*
X114801000Y-124206000D01*
X102676732Y-125095100D02*
X102676732Y-124770912D01*
X103243832Y-125330000D02*
X102911632Y-125330000D01*
X91784222Y-124393000D02*
X90805000Y-125372222D01*
X120179999Y-120179999D02*
X119380000Y-119380000D01*
X119380000Y-119380000D02*
X118279000Y-120481000D01*
X90805000Y-125372222D02*
X90805000Y-125429000D01*
X159766000Y-104140000D02*
X153162000Y-104140000D01*
X173228000Y-94488000D02*
X172920520Y-94488000D01*
X124142694Y-120904000D02*
X122217694Y-118979000D01*
X103478732Y-125095100D02*
X103243832Y-125330000D01*
X172920520Y-94488000D02*
X170180000Y-97228520D01*
X124460000Y-120904000D02*
X124142694Y-120904000D01*
X93469678Y-124393000D02*
X91784222Y-124393000D01*
X134535000Y-120819000D02*
X124545000Y-120819000D01*
X121559000Y-118979000D02*
X120358001Y-120179999D01*
X97710000Y-124126000D02*
X93736678Y-124126000D01*
X100798000Y-125427199D02*
X100799801Y-125429000D01*
X114801000Y-124206000D02*
X114801000Y-124667521D01*
X122217694Y-118979000D02*
X121559000Y-118979000D01*
X102402000Y-124762801D02*
X101932199Y-124293000D01*
X101267801Y-124293000D02*
X100798000Y-124762801D01*
X93736678Y-124126000D02*
X93469678Y-124393000D01*
X102676732Y-124770912D02*
X102402000Y-125045644D01*
X103378732Y-124506054D02*
X103378732Y-124662900D01*
X134620000Y-120904000D02*
X134535000Y-120819000D01*
X103241644Y-124206000D02*
X103160161Y-124287483D01*
X118279000Y-122038050D02*
X116111050Y-124206000D01*
X98747194Y-124794000D02*
X98378000Y-124794000D01*
X118279000Y-120481000D02*
X118279000Y-122038050D01*
X114801000Y-124667521D02*
X114507521Y-124961000D01*
X175768000Y-88392000D02*
X174752000Y-89408000D01*
X101932199Y-124293000D02*
X101267801Y-124293000D01*
X120358001Y-120179999D02*
X120179999Y-120179999D01*
X103160161Y-124287483D02*
X103378732Y-124506054D01*
X99382194Y-125429000D02*
X98747194Y-124794000D01*
X100798000Y-124762801D02*
X100798000Y-125427199D01*
X102402000Y-125045644D02*
X102402000Y-124762801D01*
X114507521Y-124961000D02*
X114092479Y-124961000D01*
X103378732Y-124662900D02*
X103478732Y-124762900D01*
X67009000Y-125429000D02*
X63500000Y-121920000D01*
X90805000Y-125429000D02*
X67009000Y-125429000D01*
X114092479Y-124961000D02*
X113799000Y-124667521D01*
X170180000Y-97228520D02*
X170180000Y-97790000D01*
X100799801Y-125429000D02*
X99382194Y-125429000D01*
%TO.N,Net-(D22E-Y)*%
X147283199Y-123513851D02*
X148421000Y-122376050D01*
X123194276Y-120654276D02*
X123194276Y-122253275D01*
X148421000Y-122376050D02*
X148421000Y-121463950D01*
X124283751Y-123513851D02*
X147283199Y-123513851D01*
X148421000Y-121463950D02*
X143797050Y-116840000D01*
X123194276Y-122253275D02*
X123512001Y-122571000D01*
X143797050Y-116840000D02*
X132080000Y-116840000D01*
%TO.N,/R8*%
X50165000Y-72390000D02*
X46858000Y-75697000D01*
X116840000Y-111760000D02*
X115438000Y-113162000D01*
X71265628Y-113030000D02*
X72390000Y-113030000D01*
X46858000Y-75697000D02*
X46858000Y-109278482D01*
X67514110Y-109278482D02*
X71265628Y-113030000D01*
X101600000Y-107950000D02*
X93345000Y-107950000D01*
X46858000Y-109278482D02*
X67514110Y-109278482D01*
X104974372Y-108585000D02*
X104775000Y-108585000D01*
X107818000Y-111428628D02*
X104974372Y-108585000D01*
X115438000Y-113162000D02*
X108639272Y-113162000D01*
X103505000Y-109855000D02*
X101600000Y-107950000D01*
X81915000Y-115570000D02*
X77470000Y-115570000D01*
X108639272Y-113162000D02*
X107818000Y-112340728D01*
X77470000Y-115570000D02*
X76835000Y-114935000D01*
X107818000Y-112340728D02*
X107818000Y-111428628D01*
%TO.N,Net-(D21A-B)*%
X148629186Y-88801714D02*
X148931900Y-88499000D01*
X171196000Y-69850000D02*
X168656000Y-69850000D01*
X156210000Y-85598000D02*
X155956000Y-85852000D01*
X157856818Y-88499000D02*
X158122909Y-88765091D01*
X138938000Y-105156000D02*
X137126950Y-105156000D01*
X123190000Y-112268000D02*
X123279356Y-112268000D01*
X157988000Y-85598000D02*
X156210000Y-85598000D01*
X123994356Y-112983000D02*
X126191000Y-112983000D01*
X126507000Y-113299000D02*
X129555000Y-113299000D01*
X129555000Y-113299000D02*
X130048000Y-113792000D01*
X168656000Y-69850000D02*
X168148000Y-70358000D01*
X148629186Y-89622814D02*
X148629186Y-88801714D01*
X150274628Y-90439000D02*
X149445372Y-90439000D01*
X157226000Y-80458900D02*
X157226000Y-81026000D01*
X158750000Y-79502000D02*
X158182900Y-79502000D01*
X158182900Y-79502000D02*
X157226000Y-80458900D01*
X123279356Y-112268000D02*
X123994356Y-112983000D01*
X137126950Y-105156000D02*
X134366000Y-107916950D01*
X148931900Y-88499000D02*
X157856818Y-88499000D01*
X157226000Y-81026000D02*
X157480000Y-81280000D01*
X149445372Y-90439000D02*
X148629186Y-89622814D01*
X134366000Y-107916950D02*
X134366000Y-108712000D01*
X151384000Y-94488000D02*
X151384000Y-91548372D01*
X151384000Y-91548372D02*
X150274628Y-90439000D01*
X126191000Y-112983000D02*
X126507000Y-113299000D01*
%TO.N,/~{MEMW_VT57}*%
X103077732Y-124929000D02*
X103077732Y-124630732D01*
X121158000Y-128129000D02*
X104634000Y-128129000D01*
X180022000Y-106250000D02*
X180022000Y-92725000D01*
X180022000Y-92725000D02*
X180594000Y-92725000D01*
X182680000Y-110938946D02*
X182058946Y-110938946D01*
X180594000Y-92725000D02*
X181610000Y-91709000D01*
X121920000Y-127367000D02*
X121158000Y-128129000D01*
X181689000Y-107917000D02*
X180022000Y-106250000D01*
X174021079Y-125063921D02*
X171718000Y-127367000D01*
X181689000Y-110569000D02*
X181689000Y-107917000D01*
X171718000Y-127367000D02*
X121920000Y-127367000D01*
X181610000Y-91709000D02*
X181610000Y-87630000D01*
X103077732Y-124630732D02*
X101600000Y-123153000D01*
X174021079Y-123221079D02*
X174021079Y-125063921D01*
X182058946Y-110938946D02*
X181689000Y-110569000D01*
X181610000Y-87630000D02*
X182880000Y-86360000D01*
X104634000Y-128129000D02*
X101600000Y-125095000D01*
X101600000Y-123153000D02*
X101600000Y-121920000D01*
%TO.N,Net-(D20B-A)*%
X110490000Y-122065628D02*
X110490000Y-121774372D01*
X118379000Y-116425372D02*
X118976897Y-115827475D01*
X174752000Y-79756000D02*
X173990000Y-80518000D01*
X173990000Y-81026000D02*
X173990000Y-82153969D01*
X118119764Y-117513864D02*
X118379000Y-117254628D01*
X175789101Y-70320001D02*
X177185000Y-71715900D01*
X177185000Y-72048100D02*
X177085000Y-72148100D01*
X172720000Y-71120000D02*
X173519999Y-70320001D01*
X114076728Y-120316000D02*
X116150728Y-118242000D01*
X155702000Y-102362000D02*
X157226000Y-100838000D01*
X168641000Y-91963000D02*
X168641000Y-91025372D01*
X106680000Y-121920000D02*
X107681000Y-122921000D01*
X165162000Y-93280000D02*
X167324000Y-93280000D01*
X167894000Y-90278372D02*
X167894000Y-86106000D01*
X117420728Y-118242000D02*
X118110000Y-117552728D01*
X122424525Y-115827475D02*
X122428000Y-115824000D01*
X173990000Y-82153969D02*
X174018352Y-82182321D01*
X167894000Y-86106000D02*
X168148000Y-85852000D01*
X165100000Y-93218000D02*
X165162000Y-93280000D01*
X118110000Y-117513864D02*
X118119764Y-117513864D01*
X118110000Y-117552728D02*
X118110000Y-117513864D01*
X177085000Y-75899000D02*
X174244000Y-78740000D01*
X173990000Y-80518000D02*
X173990000Y-81026000D01*
X167324000Y-93280000D02*
X168641000Y-91963000D01*
X173519999Y-70320001D02*
X175789101Y-70320001D01*
X116150728Y-118242000D02*
X117420728Y-118242000D01*
X177185000Y-71715900D02*
X177185000Y-72048100D01*
X110490000Y-121774372D02*
X111948372Y-120316000D01*
X118976897Y-115827475D02*
X120904000Y-115827475D01*
X118379000Y-116840000D02*
X118379000Y-116425372D01*
X107681000Y-122921000D02*
X109634628Y-122921000D01*
X122428000Y-115824000D02*
X147320000Y-115824000D01*
X168641000Y-91025372D02*
X167894000Y-90278372D01*
X109634628Y-122921000D02*
X110490000Y-122065628D01*
X120904000Y-115827475D02*
X122424525Y-115827475D01*
X111948372Y-120316000D02*
X114076728Y-120316000D01*
X177085000Y-72148100D02*
X177085000Y-75899000D01*
X118379000Y-117254628D02*
X118379000Y-116840000D01*
%TO.N,/RAM_SEL*%
X56515000Y-43180000D02*
X62865000Y-36830000D01*
X180975000Y-36830000D02*
X182245000Y-38100000D01*
X184770000Y-83820000D02*
X184770000Y-85075000D01*
X62865000Y-36830000D02*
X180975000Y-36830000D01*
X184770000Y-85075000D02*
X184785000Y-85090000D01*
%TO.N,/~{CS_628512}*%
X175180000Y-110460000D02*
X176180000Y-111460000D01*
X180340000Y-114300000D02*
X180340000Y-114935000D01*
X173180000Y-108460000D02*
X175180000Y-110460000D01*
X176180000Y-111460000D02*
X178180000Y-111460000D01*
%TD*%
M02*
