%TF.GenerationSoftware,KiCad,Pcbnew,9.0.1*%
%TF.CreationDate,2025-04-10T23:57:45+03:00*%
%TF.ProjectId,ProgDC,50726f67-4443-42e6-9b69-6361645f7063,rev?*%
%TF.SameCoordinates,Original*%
%TF.FileFunction,Copper,L2,Bot*%
%TF.FilePolarity,Positive*%
%FSLAX46Y46*%
G04 Gerber Fmt 4.6, Leading zero omitted, Abs format (unit mm)*
G04 Created by KiCad (PCBNEW 9.0.1) date 2025-04-10 23:57:45*
%MOMM*%
%LPD*%
G01*
G04 APERTURE LIST*
G04 Aperture macros list*
%AMRoundRect*
0 Rectangle with rounded corners*
0 $1 Rounding radius*
0 $2 $3 $4 $5 $6 $7 $8 $9 X,Y pos of 4 corners*
0 Add a 4 corners polygon primitive as box body*
4,1,4,$2,$3,$4,$5,$6,$7,$8,$9,$2,$3,0*
0 Add four circle primitives for the rounded corners*
1,1,$1+$1,$2,$3*
1,1,$1+$1,$4,$5*
1,1,$1+$1,$6,$7*
1,1,$1+$1,$8,$9*
0 Add four rect primitives between the rounded corners*
20,1,$1+$1,$2,$3,$4,$5,0*
20,1,$1+$1,$4,$5,$6,$7,0*
20,1,$1+$1,$6,$7,$8,$9,0*
20,1,$1+$1,$8,$9,$2,$3,0*%
G04 Aperture macros list end*
%TA.AperFunction,ComponentPad*%
%ADD10R,1.500000X1.500000*%
%TD*%
%TA.AperFunction,ComponentPad*%
%ADD11O,1.500000X1.500000*%
%TD*%
%TA.AperFunction,ComponentPad*%
%ADD12C,1.400000*%
%TD*%
%TA.AperFunction,ComponentPad*%
%ADD13O,1.400000X1.400000*%
%TD*%
%TA.AperFunction,ComponentPad*%
%ADD14RoundRect,0.250000X0.550000X-0.550000X0.550000X0.550000X-0.550000X0.550000X-0.550000X-0.550000X0*%
%TD*%
%TA.AperFunction,ComponentPad*%
%ADD15C,1.600000*%
%TD*%
%TA.AperFunction,ComponentPad*%
%ADD16R,1.700000X1.700000*%
%TD*%
%TA.AperFunction,ComponentPad*%
%ADD17C,1.700000*%
%TD*%
%TA.AperFunction,ComponentPad*%
%ADD18RoundRect,0.250000X-0.550000X-0.550000X0.550000X-0.550000X0.550000X0.550000X-0.550000X0.550000X0*%
%TD*%
%TA.AperFunction,ComponentPad*%
%ADD19RoundRect,0.250000X-0.550000X0.550000X-0.550000X-0.550000X0.550000X-0.550000X0.550000X0.550000X0*%
%TD*%
%TA.AperFunction,ComponentPad*%
%ADD20C,1.500000*%
%TD*%
%TA.AperFunction,ComponentPad*%
%ADD21RoundRect,0.250000X0.550000X0.550000X-0.550000X0.550000X-0.550000X-0.550000X0.550000X-0.550000X0*%
%TD*%
%TA.AperFunction,ViaPad*%
%ADD22C,0.300000*%
%TD*%
%TA.AperFunction,ViaPad*%
%ADD23C,0.600000*%
%TD*%
%TA.AperFunction,Conductor*%
%ADD24C,0.400000*%
%TD*%
%TA.AperFunction,Conductor*%
%ADD25C,0.200000*%
%TD*%
G04 APERTURE END LIST*
D10*
%TO.P,VD2,1,K*%
%TO.N,/~{CS_SRAM_8000}*%
X178180000Y-119460000D03*
D11*
%TO.P,VD2,2,A*%
%TO.N,/~{CS_628512}*%
X180720000Y-119460000D03*
%TD*%
D12*
%TO.P,R6,1,TOP*%
%TO.N,+5V*%
X175707000Y-40528000D03*
D13*
%TO.P,R6,2,BOT*%
%TO.N,/"1"*%
X178247000Y-40528000D03*
%TD*%
D14*
%TO.P,D3,1,A*%
%TO.N,/~{RD}*%
X78740000Y-121920000D03*
D15*
%TO.P,D3,2,B*%
%TO.N,/~{MWR}*%
X81280000Y-121920000D03*
%TO.P,D3,3,Y*%
%TO.N,Net-(D18B-D)*%
X83820000Y-121920000D03*
%TO.P,D3,4,A*%
%TO.N,/Q7*%
X86360000Y-121920000D03*
%TO.P,D3,5,B*%
%TO.N,/R5*%
X88900000Y-121920000D03*
%TO.P,D3,6,Y*%
%TO.N,/ROM_A13*%
X91440000Y-121920000D03*
%TO.P,D3,7,GND*%
%TO.N,GND*%
X93980000Y-121920000D03*
%TO.P,D3,8,Y*%
%TO.N,/ROM_A14*%
X93980000Y-114300000D03*
%TO.P,D3,9,A*%
%TO.N,/R6*%
X91440000Y-114300000D03*
%TO.P,D3,10,B*%
%TO.N,/Q7*%
X88900000Y-114300000D03*
%TO.P,D3,11,Y*%
%TO.N,/ROM_A15*%
X86360000Y-114300000D03*
%TO.P,D3,12,A*%
%TO.N,/R7*%
X83820000Y-114300000D03*
%TO.P,D3,13,B*%
%TO.N,/Q7*%
X81280000Y-114300000D03*
%TO.P,D3,14,VCC*%
%TO.N,+5V*%
X78740000Y-114300000D03*
%TD*%
D12*
%TO.P,R7,1*%
%TO.N,Net-(D22F-A)*%
X130180000Y-106680000D03*
D13*
%TO.P,R7,2*%
%TO.N,Net-(D22E-A)*%
X132720000Y-106680000D03*
%TD*%
D12*
%TO.P,R1,1,TOP*%
%TO.N,+5V*%
X60976000Y-43145000D03*
D13*
%TO.P,R1,2,BOT*%
%TO.N,/~{MEMR}*%
X60976000Y-40605000D03*
%TD*%
D16*
%TO.P,J3,1,Pin_1*%
%TO.N,/~{I{slash}OR}*%
X83820000Y-40640000D03*
D17*
%TO.P,J3,2,Pin_2*%
%TO.N,/~{MEMW}*%
X86360000Y-40640000D03*
%TO.P,J3,3,Pin_3*%
%TO.N,/~{I{slash}OW}*%
X88900000Y-40640000D03*
%TD*%
D10*
%TO.P,VD1,1,K*%
%TO.N,/~{CS_RAMR}*%
X178324000Y-114300000D03*
D11*
%TO.P,VD1,2,A*%
%TO.N,/~{CS_628512}*%
X180864000Y-114300000D03*
%TD*%
D14*
%TO.P,D12,1,~{CS}*%
%TO.N,GND*%
X160020000Y-91440000D03*
D15*
%TO.P,D12,2,DO0*%
%TO.N,/R4*%
X162560000Y-91440000D03*
%TO.P,D12,3,DB0*%
%TO.N,Net-(D10-D4)*%
X165100000Y-91440000D03*
%TO.P,D12,4,DI0*%
%TO.N,/DB4*%
X167640000Y-91440000D03*
%TO.P,D12,5,DO1*%
%TO.N,/R5*%
X170180000Y-91440000D03*
%TO.P,D12,6,DB1*%
%TO.N,Net-(D10-D5)*%
X172720000Y-91440000D03*
%TO.P,D12,7,DI1*%
%TO.N,/DB5*%
X175260000Y-91440000D03*
%TO.P,D12,8,GND*%
%TO.N,GND*%
X177800000Y-91440000D03*
%TO.P,D12,9,DI2*%
%TO.N,/DB6*%
X177800000Y-83820000D03*
%TO.P,D12,10,DB2*%
%TO.N,Net-(D10-D6)*%
X175260000Y-83820000D03*
%TO.P,D12,11,DO2*%
%TO.N,/R6*%
X172720000Y-83820000D03*
%TO.P,D12,12,DI3*%
%TO.N,/DB7*%
X170180000Y-83820000D03*
%TO.P,D12,13,DB3*%
%TO.N,Net-(D10-D7)*%
X167640000Y-83820000D03*
%TO.P,D12,14,DO3*%
%TO.N,/R7*%
X165100000Y-83820000D03*
%TO.P,D12,15,~{CE}*%
%TO.N,/P3*%
X162560000Y-83820000D03*
%TO.P,D12,16,VCC*%
%TO.N,+5V*%
X160020000Y-83820000D03*
%TD*%
D18*
%TO.P,D21,1,A*%
%TO.N,/R5*%
X172720000Y-66040000D03*
D15*
%TO.P,D21,2,B*%
%TO.N,Net-(D21A-B)*%
X172720000Y-68580000D03*
%TO.P,D21,3,Y*%
%TO.N,Net-(D20B-A)*%
X172720000Y-71120000D03*
%TO.P,D21,4,A*%
%TO.N,Net-(D21B-A)*%
X172720000Y-73660000D03*
%TO.P,D21,5,B*%
%TO.N,/~{CC00_VI53_1}*%
X172720000Y-76200000D03*
%TO.P,D21,6,Y*%
%TO.N,Net-(D21B-Y)*%
X172720000Y-78740000D03*
%TO.P,D21,7,GND*%
%TO.N,GND*%
X172720000Y-81280000D03*
%TO.P,D21,8,Y*%
%TO.N,/C800_VI53_2*%
X180340000Y-81280000D03*
%TO.P,D21,9,A*%
%TO.N,Net-(D19-3)*%
X180340000Y-78740000D03*
%TO.P,D21,10,B*%
%TO.N,/~{C800_VI53_2}*%
X180340000Y-76200000D03*
%TO.P,D21,11,Y*%
%TO.N,unconnected-(D21D-Y-Pad11)*%
X180340000Y-73660000D03*
%TO.P,D21,12,A*%
%TO.N,unconnected-(D21D-A-Pad12)*%
X180340000Y-71120000D03*
%TO.P,D21,13,B*%
%TO.N,unconnected-(D21D-B-Pad13)*%
X180340000Y-68580000D03*
%TO.P,D21,14,VCC*%
%TO.N,+5V*%
X180340000Y-66040000D03*
%TD*%
D14*
%TO.P,D18,1,~{R}*%
%TO.N,unconnected-(D18A-~{R}-Pad1)*%
X58420000Y-121920000D03*
D15*
%TO.P,D18,2,D*%
%TO.N,Net-(D18A-D)*%
X60960000Y-121920000D03*
%TO.P,D18,3,C*%
%TO.N,/CLK*%
X63500000Y-121920000D03*
%TO.P,D18,4,~{S}*%
%TO.N,unconnected-(D18A-~{S}-Pad4)*%
X66040000Y-121920000D03*
%TO.P,D18,5,Q*%
%TO.N,Net-(D10-~{WE})*%
X68580000Y-121920000D03*
%TO.P,D18,6,~{Q}*%
%TO.N,Net-(D18A-~{Q})*%
X71120000Y-121920000D03*
%TO.P,D18,7,GND*%
%TO.N,GND*%
X73660000Y-121920000D03*
%TO.P,D18,8,~{Q}*%
%TO.N,unconnected-(D18B-~{Q}-Pad8)*%
X73660000Y-114300000D03*
%TO.P,D18,9,Q*%
%TO.N,Net-(D18B-Q)*%
X71120000Y-114300000D03*
%TO.P,D18,10,~{S}*%
%TO.N,unconnected-(D18B-~{S}-Pad10)*%
X68580000Y-114300000D03*
%TO.P,D18,11,C*%
%TO.N,/8MHZ*%
X66040000Y-114300000D03*
%TO.P,D18,12,D*%
%TO.N,Net-(D18B-D)*%
X63500000Y-114300000D03*
%TO.P,D18,13,~{R}*%
%TO.N,unconnected-(D18B-~{R}-Pad13)*%
X60960000Y-114300000D03*
%TO.P,D18,14,VCC*%
%TO.N,+5V*%
X58420000Y-114300000D03*
%TD*%
D14*
%TO.P,D20,1,A*%
%TO.N,/~{WR}*%
X99060000Y-121920000D03*
D15*
%TO.P,D20,2,B*%
%TO.N,/~{MEMW_VT57}*%
X101600000Y-121920000D03*
%TO.P,D20,3,Y*%
%TO.N,/~{MWR}*%
X104140000Y-121920000D03*
%TO.P,D20,4,A*%
%TO.N,Net-(D20B-A)*%
X106680000Y-121920000D03*
%TO.P,D20,5,B*%
%TO.N,Net-(D20B-B)*%
X109220000Y-121920000D03*
%TO.P,D20,6,Y*%
%TO.N,/ARR16*%
X111760000Y-121920000D03*
%TO.P,D20,7,GND*%
%TO.N,GND*%
X114300000Y-121920000D03*
%TO.P,D20,8,Y*%
%TO.N,/ARR17*%
X114300000Y-114300000D03*
%TO.P,D20,9,A*%
%TO.N,/R6*%
X111760000Y-114300000D03*
%TO.P,D20,10,B*%
%TO.N,Net-(D20B-B)*%
X109220000Y-114300000D03*
%TO.P,D20,11,Y*%
%TO.N,/ARR18*%
X106680000Y-114300000D03*
%TO.P,D20,12,A*%
%TO.N,/R7*%
X104140000Y-114300000D03*
%TO.P,D20,13,B*%
%TO.N,Net-(D20B-B)*%
X101600000Y-114300000D03*
%TO.P,D20,14,VCC*%
%TO.N,+5V*%
X99060000Y-114300000D03*
%TD*%
D14*
%TO.P,D10,1,A3*%
%TO.N,/AB15*%
X101600000Y-101600000D03*
D15*
%TO.P,D10,2,A4*%
%TO.N,/AB14*%
X104140000Y-101600000D03*
%TO.P,D10,3,A5*%
%TO.N,/AB13*%
X106680000Y-101600000D03*
%TO.P,D10,4,A6*%
%TO.N,/AB12*%
X109220000Y-101600000D03*
%TO.P,D10,5,A7*%
%TO.N,/AB11*%
X111760000Y-101600000D03*
%TO.P,D10,6,A8*%
%TO.N,/AB10*%
X114300000Y-101600000D03*
%TO.P,D10,7,A9*%
%TO.N,/AB9*%
X116840000Y-101600000D03*
%TO.P,D10,8,A10*%
%TO.N,/AB8*%
X119380000Y-101600000D03*
%TO.P,D10,9,D0*%
%TO.N,Net-(D10-D0)*%
X121920000Y-101600000D03*
%TO.P,D10,10,D1*%
%TO.N,Net-(D10-D1)*%
X124460000Y-101600000D03*
%TO.P,D10,11,D2*%
%TO.N,Net-(D10-D2)*%
X127000000Y-101600000D03*
%TO.P,D10,12,GND*%
%TO.N,GND*%
X129540000Y-101600000D03*
%TO.P,D10,13,D3*%
%TO.N,Net-(D10-D3)*%
X129540000Y-86360000D03*
%TO.P,D10,14,D4*%
%TO.N,Net-(D10-D4)*%
X127000000Y-86360000D03*
%TO.P,D10,15,D5*%
%TO.N,Net-(D10-D5)*%
X124460000Y-86360000D03*
%TO.P,D10,16,D6*%
%TO.N,Net-(D10-D6)*%
X121920000Y-86360000D03*
%TO.P,D10,17,D7*%
%TO.N,Net-(D10-D7)*%
X119380000Y-86360000D03*
%TO.P,D10,18,~{CS}*%
%TO.N,GND*%
X116840000Y-86360000D03*
%TO.P,D10,19,A0*%
X114300000Y-86360000D03*
%TO.P,D10,20,~{OE}*%
%TO.N,/P1*%
X111760000Y-86360000D03*
%TO.P,D10,21,~{WE}*%
%TO.N,Net-(D10-~{WE})*%
X109220000Y-86360000D03*
%TO.P,D10,22,A1*%
%TO.N,GND*%
X106680000Y-86360000D03*
%TO.P,D10,23,A2*%
%TO.N,/P2*%
X104140000Y-86360000D03*
%TO.P,D10,24,VCC*%
%TO.N,+5V*%
X101600000Y-86360000D03*
%TD*%
D14*
%TO.P,D13,1,~{CS}*%
%TO.N,GND*%
X137160000Y-91440000D03*
D15*
%TO.P,D13,2,DO0*%
%TO.N,/R0*%
X139700000Y-91440000D03*
%TO.P,D13,3,DB0*%
%TO.N,Net-(D10-D0)*%
X142240000Y-91440000D03*
%TO.P,D13,4,DI0*%
%TO.N,/DB0*%
X144780000Y-91440000D03*
%TO.P,D13,5,DO1*%
%TO.N,/R1*%
X147320000Y-91440000D03*
%TO.P,D13,6,DB1*%
%TO.N,Net-(D10-D1)*%
X149860000Y-91440000D03*
%TO.P,D13,7,DI1*%
%TO.N,/DB1*%
X152400000Y-91440000D03*
%TO.P,D13,8,GND*%
%TO.N,GND*%
X154940000Y-91440000D03*
%TO.P,D13,9,DI2*%
%TO.N,/DB2*%
X154940000Y-83820000D03*
%TO.P,D13,10,DB2*%
%TO.N,Net-(D10-D2)*%
X152400000Y-83820000D03*
%TO.P,D13,11,DO2*%
%TO.N,/R2*%
X149860000Y-83820000D03*
%TO.P,D13,12,DI3*%
%TO.N,/DB3*%
X147320000Y-83820000D03*
%TO.P,D13,13,DB3*%
%TO.N,Net-(D10-D3)*%
X144780000Y-83820000D03*
%TO.P,D13,14,DO3*%
%TO.N,/R3*%
X142240000Y-83820000D03*
%TO.P,D13,15,~{CE}*%
%TO.N,/P3*%
X139700000Y-83820000D03*
%TO.P,D13,16,VCC*%
%TO.N,+5V*%
X137160000Y-83820000D03*
%TD*%
D12*
%TO.P,R2,1,TOP*%
%TO.N,+5V*%
X78629000Y-53340000D03*
D13*
%TO.P,R2,2,BOT*%
%TO.N,/~{I{slash}OR}*%
X78629000Y-50800000D03*
%TD*%
D12*
%TO.P,R12,1,TOP*%
%TO.N,/P3*%
X134509000Y-86360000D03*
D13*
%TO.P,R12,2,BOT*%
%TO.N,+5V*%
X134509000Y-83820000D03*
%TD*%
D14*
%TO.P,D9,1,A6*%
%TO.N,GND*%
X78740000Y-101600000D03*
D15*
%TO.P,D9,2,A5*%
X81280000Y-101600000D03*
%TO.P,D9,3,A4*%
X83820000Y-101600000D03*
%TO.P,D9,4,A3*%
X86360000Y-101600000D03*
%TO.P,D9,5,A0*%
%TO.N,/Q7*%
X88900000Y-101600000D03*
%TO.P,D9,6,A1*%
%TO.N,/Q6*%
X91440000Y-101600000D03*
%TO.P,D9,7,A2*%
%TO.N,/Q5*%
X93980000Y-101600000D03*
%TO.P,D9,8,GND*%
%TO.N,GND*%
X96520000Y-101600000D03*
%TO.P,D9,9,D3*%
%TO.N,/P3*%
X96520000Y-93980000D03*
%TO.P,D9,10,D2*%
%TO.N,/P2*%
X93980000Y-93980000D03*
%TO.P,D9,11,D1*%
%TO.N,/P1*%
X91440000Y-93980000D03*
%TO.P,D9,12,D0*%
%TO.N,/P0*%
X88900000Y-93980000D03*
%TO.P,D9,13,~{CS1}*%
%TO.N,GND*%
X86360000Y-93980000D03*
%TO.P,D9,14,~{CS2}*%
X83820000Y-93980000D03*
%TO.P,D9,15,A7*%
%TO.N,Net-(D14C-Y)*%
X81280000Y-93980000D03*
%TO.P,D9,16,+5V*%
%TO.N,+5V*%
X78740000Y-93980000D03*
%TD*%
D10*
%TO.P,VD3,1,K*%
%TO.N,/~{RAM_MAIN}*%
X178197000Y-109220000D03*
D11*
%TO.P,VD3,2,A*%
%TO.N,/~{CS_628512}*%
X180737000Y-109220000D03*
%TD*%
D19*
%TO.P,U3,1,A10*%
%TO.N,/A10*%
X129540000Y-53340000D03*
D15*
%TO.P,U3,2,GND*%
%TO.N,GND*%
X127000000Y-53340000D03*
%TO.P,U3,3,D4*%
%TO.N,/D4*%
X124460000Y-53340000D03*
%TO.P,U3,4,D5*%
%TO.N,/D5*%
X121920000Y-53340000D03*
%TO.P,U3,5,D6*%
%TO.N,/D6*%
X119380000Y-53340000D03*
%TO.P,U3,6,D7*%
%TO.N,/D7*%
X116840000Y-53340000D03*
%TO.P,U3,7,D3*%
%TO.N,/D3*%
X114300000Y-53340000D03*
%TO.P,U3,8,D2*%
%TO.N,/D2*%
X111760000Y-53340000D03*
%TO.P,U3,9,D1*%
%TO.N,/D1*%
X109220000Y-53340000D03*
%TO.P,U3,10,D0*%
%TO.N,/D0*%
X106680000Y-53340000D03*
%TO.P,U3,11,-5V*%
%TO.N,/-5V*%
X104140000Y-53340000D03*
%TO.P,U3,12,RST*%
%TO.N,/RESET*%
X101600000Y-53340000D03*
%TO.P,U3,13,HLD*%
%TO.N,/HLD*%
X99060000Y-53340000D03*
%TO.P,U3,14,INT*%
%TO.N,/INT*%
X96520000Y-53340000D03*
%TO.P,U3,15,C2*%
%TO.N,/C2*%
X93980000Y-53340000D03*
%TO.P,U3,16,INTE*%
%TO.N,/INTE*%
X91440000Y-53340000D03*
%TO.P,U3,17,RC*%
%TO.N,/DBIN*%
X88900000Y-53340000D03*
%TO.P,U3,18,TR*%
%TO.N,/~{WR}*%
X86360000Y-53340000D03*
%TO.P,U3,19,SYN*%
%TO.N,/SYN*%
X83820000Y-53340000D03*
%TO.P,U3,20,VCC*%
%TO.N,+5V*%
X81280000Y-53340000D03*
%TO.P,U3,21,HLDA*%
%TO.N,/_HLDA*%
X81280000Y-68580000D03*
%TO.P,U3,22,C1*%
%TO.N,/C1*%
X83820000Y-68580000D03*
%TO.P,U3,23,RDY*%
%TO.N,/RDY*%
X86360000Y-68580000D03*
%TO.P,U3,24,WI*%
%TO.N,/WI*%
X88900000Y-68580000D03*
%TO.P,U3,25,A0*%
%TO.N,/A0*%
X91440000Y-68580000D03*
%TO.P,U3,26,A1*%
%TO.N,/A1*%
X93980000Y-68580000D03*
%TO.P,U3,27,A2*%
%TO.N,/A2*%
X96520000Y-68580000D03*
%TO.P,U3,28,+12V*%
%TO.N,/+12V*%
X99060000Y-68580000D03*
%TO.P,U3,29,A3*%
%TO.N,/A3*%
X101600000Y-68580000D03*
%TO.P,U3,30,A4*%
%TO.N,/A4*%
X104140000Y-68580000D03*
%TO.P,U3,31,A5*%
%TO.N,/A5*%
X106680000Y-68580000D03*
%TO.P,U3,32,A6*%
%TO.N,/A6*%
X109220000Y-68580000D03*
%TO.P,U3,33,A7*%
%TO.N,/A7*%
X111760000Y-68580000D03*
%TO.P,U3,34,A8*%
%TO.N,/A8*%
X114300000Y-68580000D03*
%TO.P,U3,35,A9*%
%TO.N,/A9*%
X116840000Y-68580000D03*
%TO.P,U3,36,A15*%
%TO.N,/A15*%
X119380000Y-68580000D03*
%TO.P,U3,37,A12*%
%TO.N,/A12*%
X121920000Y-68580000D03*
%TO.P,U3,38,A13*%
%TO.N,/A13*%
X124460000Y-68580000D03*
%TO.P,U3,39,A14*%
%TO.N,/A14*%
X127000000Y-68580000D03*
%TO.P,U3,40,A11*%
%TO.N,/A11*%
X129540000Y-68580000D03*
%TD*%
D12*
%TO.P,R9,1,TOP*%
%TO.N,/P0*%
X96663000Y-90800000D03*
D13*
%TO.P,R9,2,BOT*%
%TO.N,+5V*%
X96663000Y-88260000D03*
%TD*%
D20*
%TO.P,ZQ1,1*%
%TO.N,Net-(D22E-Y)*%
X132080000Y-116840000D03*
%TO.P,ZQ1,2*%
%TO.N,Net-(D22F-A)*%
X132080000Y-111940000D03*
%TD*%
D14*
%TO.P,D24,1,A*%
%TO.N,Net-(D19-4)*%
X154940000Y-48260000D03*
D15*
%TO.P,D24,2,B*%
%TO.N,/~{C200_PPI1}*%
X157480000Y-48260000D03*
%TO.P,D24,3,Y*%
%TO.N,/~{C200_PPI1_}*%
X160020000Y-48260000D03*
%TO.P,D24,4,A*%
%TO.N,Net-(D19-5)*%
X162560000Y-48260000D03*
%TO.P,D24,5,B*%
%TO.N,/~{C400_PPI2}*%
X165100000Y-48260000D03*
%TO.P,D24,6,Y*%
%TO.N,/~{C400_PPI2_}*%
X167640000Y-48260000D03*
%TO.P,D24,7,GND*%
%TO.N,GND*%
X170180000Y-48260000D03*
%TO.P,D24,8,Y*%
%TO.N,/~{CS_VG75_}*%
X170180000Y-40640000D03*
%TO.P,D24,9,A*%
%TO.N,Net-(D19-6)*%
X167640000Y-40640000D03*
%TO.P,D24,10,B*%
%TO.N,/~{CS_VG75}*%
X165100000Y-40640000D03*
%TO.P,D24,11,Y*%
%TO.N,/~{CS_DMA_}*%
X162560000Y-40640000D03*
%TO.P,D24,12,A*%
%TO.N,Net-(D24D-A)*%
X160020000Y-40640000D03*
%TO.P,D24,13,B*%
%TO.N,/~{CS_DMA}*%
X157480000Y-40640000D03*
%TO.P,D24,14,VCC*%
%TO.N,+5V*%
X154940000Y-40640000D03*
%TD*%
D19*
%TO.P,J1,1,Pin_1*%
%TO.N,/A10*%
X129540000Y-48260000D03*
D15*
%TO.P,J1,2,Pin_2*%
%TO.N,GND*%
X127000000Y-48260000D03*
%TO.P,J1,3,Pin_3*%
%TO.N,/D4*%
X124460000Y-48260000D03*
%TO.P,J1,4,Pin_4*%
%TO.N,/D5*%
X121920000Y-48260000D03*
%TO.P,J1,5,Pin_5*%
%TO.N,/D6*%
X119380000Y-48260000D03*
%TO.P,J1,6,Pin_6*%
%TO.N,/D7*%
X116840000Y-48260000D03*
%TO.P,J1,7,Pin_7*%
%TO.N,/D3*%
X114300000Y-48260000D03*
%TO.P,J1,8,Pin_8*%
%TO.N,/D2*%
X111760000Y-48260000D03*
%TO.P,J1,9,Pin_9*%
%TO.N,/D1*%
X109220000Y-48260000D03*
%TO.P,J1,10,Pin_10*%
%TO.N,/D0*%
X106680000Y-48260000D03*
%TO.P,J1,11,Pin_11*%
%TO.N,/-5V*%
X104140000Y-48260000D03*
%TO.P,J1,12,Pin_12*%
%TO.N,/RESET*%
X101600000Y-48260000D03*
%TO.P,J1,13,Pin_13*%
%TO.N,/HLD*%
X99060000Y-48260000D03*
%TO.P,J1,14,Pin_14*%
%TO.N,/INT*%
X96520000Y-48260000D03*
%TO.P,J1,15,Pin_15*%
%TO.N,/C2*%
X93980000Y-48260000D03*
%TO.P,J1,16,Pin_16*%
%TO.N,/INTE*%
X91440000Y-48260000D03*
%TO.P,J1,17,Pin_17*%
%TO.N,/DBIN*%
X88900000Y-48260000D03*
%TO.P,J1,18,Pin_18*%
%TO.N,/~{WR}*%
X86360000Y-48260000D03*
%TO.P,J1,19,Pin_19*%
%TO.N,/SYN*%
X83820000Y-48260000D03*
%TO.P,J1,20,Pin_20*%
%TO.N,+5V*%
X81280000Y-48260000D03*
%TO.P,J1,21,Pin_21*%
%TO.N,/_HLDA*%
X81280000Y-63500000D03*
%TO.P,J1,22,Pin_22*%
%TO.N,/C1*%
X83820000Y-63500000D03*
%TO.P,J1,23,Pin_23*%
%TO.N,/RDY*%
X86360000Y-63500000D03*
%TO.P,J1,24,Pin_24*%
%TO.N,/WI*%
X88900000Y-63500000D03*
%TO.P,J1,25,Pin_25*%
%TO.N,/A0*%
X91440000Y-63500000D03*
%TO.P,J1,26,Pin_26*%
%TO.N,/A1*%
X93980000Y-63500000D03*
%TO.P,J1,27,Pin_27*%
%TO.N,/A2*%
X96520000Y-63500000D03*
%TO.P,J1,28,Pin_28*%
%TO.N,/+12V*%
X99060000Y-63500000D03*
%TO.P,J1,29,Pin_29*%
%TO.N,/A3*%
X101600000Y-63500000D03*
%TO.P,J1,30,Pin_30*%
%TO.N,/A4*%
X104140000Y-63500000D03*
%TO.P,J1,31,Pin_31*%
%TO.N,/A5*%
X106680000Y-63500000D03*
%TO.P,J1,32,Pin_32*%
%TO.N,/A6*%
X109220000Y-63500000D03*
%TO.P,J1,33,Pin_33*%
%TO.N,/A7*%
X111760000Y-63500000D03*
%TO.P,J1,34,Pin_34*%
%TO.N,/A8*%
X114300000Y-63500000D03*
%TO.P,J1,35,Pin_35*%
%TO.N,/A9*%
X116840000Y-63500000D03*
%TO.P,J1,36,Pin_36*%
%TO.N,/A15*%
X119380000Y-63500000D03*
%TO.P,J1,37,Pin_37*%
%TO.N,/A12*%
X121920000Y-63500000D03*
%TO.P,J1,38,Pin_38*%
%TO.N,/A13*%
X124460000Y-63500000D03*
%TO.P,J1,39,Pin_39*%
%TO.N,/A14*%
X127000000Y-63500000D03*
%TO.P,J1,40,Pin_40*%
%TO.N,/A11*%
X129540000Y-63500000D03*
%TD*%
D12*
%TO.P,R5,1,TOP*%
%TO.N,+5V*%
X83836000Y-45989000D03*
D13*
%TO.P,R5,2,BOT*%
%TO.N,/~{MEMW}*%
X83836000Y-43449000D03*
%TD*%
D14*
%TO.P,U2,1,A18*%
%TO.N,/ARR18*%
X137160000Y-121920000D03*
D15*
%TO.P,U2,2,A16*%
%TO.N,/ARR16*%
X139700000Y-121920000D03*
%TO.P,U2,3,A14*%
%TO.N,/R4*%
X142240000Y-121920000D03*
%TO.P,U2,4,A12*%
%TO.N,/AB12*%
X144780000Y-121920000D03*
%TO.P,U2,5,A7*%
%TO.N,/AB7*%
X147320000Y-121920000D03*
%TO.P,U2,6,A6*%
%TO.N,/AB6*%
X149860000Y-121920000D03*
%TO.P,U2,7,A5*%
%TO.N,/AB5*%
X152400000Y-121920000D03*
%TO.P,U2,8,A4*%
%TO.N,/AB4*%
X154940000Y-121920000D03*
%TO.P,U2,9,A3*%
%TO.N,/AB3*%
X157480000Y-121920000D03*
%TO.P,U2,10,A2*%
%TO.N,/AB2*%
X160020000Y-121920000D03*
%TO.P,U2,11,A1*%
%TO.N,/AB1*%
X162560000Y-121920000D03*
%TO.P,U2,12,A0*%
%TO.N,/AB0*%
X165100000Y-121920000D03*
%TO.P,U2,13,D0*%
%TO.N,/DB0*%
X167640000Y-121920000D03*
%TO.P,U2,14,D1*%
%TO.N,/DB1*%
X170180000Y-121920000D03*
%TO.P,U2,15,D2*%
%TO.N,/DB2*%
X172720000Y-121920000D03*
%TO.P,U2,16,GND*%
%TO.N,GND*%
X175260000Y-121920000D03*
%TO.P,U2,17,D3*%
%TO.N,/DB3*%
X175260000Y-106680000D03*
%TO.P,U2,18,D4*%
%TO.N,/DB4*%
X172720000Y-106680000D03*
%TO.P,U2,19,D5*%
%TO.N,/DB5*%
X170180000Y-106680000D03*
%TO.P,U2,20,D6*%
%TO.N,/DB6*%
X167640000Y-106680000D03*
%TO.P,U2,21,D7*%
%TO.N,/DB7*%
X165100000Y-106680000D03*
%TO.P,U2,22,CS*%
%TO.N,/~{CS_628512}*%
X162560000Y-106680000D03*
%TO.P,U2,23,A10*%
%TO.N,/AB10*%
X160020000Y-106680000D03*
%TO.P,U2,24,RD*%
%TO.N,/~{RD}*%
X157480000Y-106680000D03*
%TO.P,U2,25,A11*%
%TO.N,/AB11*%
X154940000Y-106680000D03*
%TO.P,U2,26,A9*%
%TO.N,/AB9*%
X152400000Y-106680000D03*
%TO.P,U2,27,A8*%
%TO.N,/AB8*%
X149860000Y-106680000D03*
%TO.P,U2,28,A13*%
%TO.N,/AB13*%
X147320000Y-106680000D03*
%TO.P,U2,29,WR*%
%TO.N,/~{WE_628512}*%
X144780000Y-106680000D03*
%TO.P,U2,30,A17*%
%TO.N,/ARR17*%
X142240000Y-106680000D03*
%TO.P,U2,31,A15*%
%TO.N,/R3*%
X139700000Y-106680000D03*
%TO.P,U2,32,VCC*%
%TO.N,+5V*%
X137160000Y-106680000D03*
%TD*%
D12*
%TO.P,R10,1,TOP*%
%TO.N,/P1*%
X112400000Y-83820000D03*
D13*
%TO.P,R10,2,BOT*%
%TO.N,+5V*%
X114940000Y-83820000D03*
%TD*%
D12*
%TO.P,R3,1,TOP*%
%TO.N,+5V*%
X81296000Y-46116000D03*
D13*
%TO.P,R3,2,BOT*%
%TO.N,/~{I{slash}OW}*%
X81296000Y-43576000D03*
%TD*%
D18*
%TO.P,D14,1,A*%
%TO.N,Net-(D14A-A)*%
X50800000Y-63500000D03*
D15*
%TO.P,D14,2,B*%
%TO.N,/RAM_SEL*%
X50800000Y-66040000D03*
%TO.P,D14,3,Y*%
%TO.N,/R8*%
X50800000Y-68580000D03*
%TO.P,D14,4,A*%
%TO.N,Net-(D14B-A)*%
X50800000Y-71120000D03*
%TO.P,D14,5,B*%
%TO.N,Net-(D11-~{EO})*%
X50800000Y-73660000D03*
%TO.P,D14,6,Y*%
%TO.N,Net-(D14B-Y)*%
X50800000Y-76200000D03*
%TO.P,D14,7,GND*%
%TO.N,GND*%
X50800000Y-78740000D03*
%TO.P,D14,8,Y*%
%TO.N,Net-(D14C-Y)*%
X58420000Y-78740000D03*
%TO.P,D14,9,A*%
%TO.N,/~{I{slash}OW}*%
X58420000Y-76200000D03*
%TO.P,D14,10,B*%
%TO.N,/~{I{slash}OR}*%
X58420000Y-73660000D03*
%TO.P,D14,11,Y*%
%TO.N,unconnected-(D14D-Y-Pad11)*%
X58420000Y-71120000D03*
%TO.P,D14,12,A*%
%TO.N,unconnected-(D14D-A-Pad12)*%
X58420000Y-68580000D03*
%TO.P,D14,13,B*%
%TO.N,unconnected-(D14D-B-Pad13)*%
X58420000Y-66040000D03*
%TO.P,D14,14,VCC*%
%TO.N,+5V*%
X58420000Y-63500000D03*
%TD*%
D14*
%TO.P,D8,1,CS1*%
%TO.N,Net-(D14B-A)*%
X45720000Y-106680000D03*
D15*
%TO.P,D8,2,MD*%
%TO.N,/"1"*%
X48260000Y-106680000D03*
%TO.P,D8,3,D0*%
%TO.N,/DB0*%
X50800000Y-106680000D03*
%TO.P,D8,4,Q0*%
%TO.N,/Q0*%
X53340000Y-106680000D03*
%TO.P,D8,5,D1*%
%TO.N,/DB1*%
X55880000Y-106680000D03*
%TO.P,D8,6,Q1*%
%TO.N,/Q1*%
X58420000Y-106680000D03*
%TO.P,D8,7,D2*%
%TO.N,/DB2*%
X60960000Y-106680000D03*
%TO.P,D8,8,Q2*%
%TO.N,/Q2*%
X63500000Y-106680000D03*
%TO.P,D8,9,D3*%
%TO.N,/DB3*%
X66040000Y-106680000D03*
%TO.P,D8,10,Q3*%
%TO.N,/Q3*%
X68580000Y-106680000D03*
%TO.P,D8,11,EV*%
%TO.N,Net-(D11-~{EO})*%
X71120000Y-106680000D03*
%TO.P,D8,12,GND*%
%TO.N,GND*%
X73660000Y-106680000D03*
%TO.P,D8,13,CS2*%
%TO.N,Net-(D2B-A)*%
X73660000Y-91440000D03*
%TO.P,D8,14,RES*%
%TO.N,/~{RESET}*%
X71120000Y-91440000D03*
%TO.P,D8,15,Q4*%
%TO.N,/Q4*%
X68580000Y-91440000D03*
%TO.P,D8,16,D4*%
%TO.N,/DB4*%
X66040000Y-91440000D03*
%TO.P,D8,17,Q5*%
%TO.N,/Q5*%
X63500000Y-91440000D03*
%TO.P,D8,18,D5*%
%TO.N,/DB5*%
X60960000Y-91440000D03*
%TO.P,D8,19,Q6*%
%TO.N,/Q6*%
X58420000Y-91440000D03*
%TO.P,D8,20,D6*%
%TO.N,/DB6*%
X55880000Y-91440000D03*
%TO.P,D8,21,Q7*%
%TO.N,/Q7*%
X53340000Y-91440000D03*
%TO.P,D8,22,D7*%
%TO.N,/DB7*%
X50800000Y-91440000D03*
%TO.P,D8,23,S1*%
%TO.N,Net-(D5B-A)*%
X48260000Y-91440000D03*
%TO.P,D8,24,VCC*%
%TO.N,+5V*%
X45720000Y-91440000D03*
%TD*%
D18*
%TO.P,D22,1,A*%
%TO.N,unconnected-(D22A-A-Pad1)*%
X116840000Y-106680000D03*
D15*
%TO.P,D22,2,Y*%
%TO.N,unconnected-(D22A-Y-Pad2)*%
X116840000Y-109220000D03*
%TO.P,D22,3,A*%
%TO.N,/R8*%
X116840000Y-111760000D03*
%TO.P,D22,4,Y*%
%TO.N,Net-(D21A-B)*%
X116840000Y-114300000D03*
%TO.P,D22,5,A*%
%TO.N,unconnected-(D22C-A-Pad5)*%
X116840000Y-116840000D03*
%TO.P,D22,6,Y*%
%TO.N,unconnected-(D22C-Y-Pad6)*%
X116840000Y-119380000D03*
%TO.P,D22,7,GND*%
%TO.N,GND*%
X116840000Y-121920000D03*
%TO.P,D22,8,Y*%
%TO.N,unconnected-(D22D-Y-Pad8)*%
X124460000Y-121920000D03*
%TO.P,D22,9,A*%
%TO.N,unconnected-(D22D-A-Pad9)*%
X124460000Y-119380000D03*
%TO.P,D22,10,Y*%
%TO.N,Net-(D22E-Y)*%
X124460000Y-116840000D03*
%TO.P,D22,11,A*%
%TO.N,Net-(D22E-A)*%
X124460000Y-114300000D03*
%TO.P,D22,12,Y*%
X124460000Y-111760000D03*
%TO.P,D22,13,A*%
%TO.N,Net-(D22F-A)*%
X124460000Y-109220000D03*
%TO.P,D22,14,VCC*%
%TO.N,+5V*%
X124460000Y-106680000D03*
%TD*%
D14*
%TO.P,D6,1,~{EO}*%
%TO.N,/HLDA*%
X81280000Y-81280000D03*
D15*
%TO.P,D6,2,Q0*%
%TO.N,/AB0*%
X83820000Y-81280000D03*
%TO.P,D6,3,D0*%
%TO.N,/A0*%
X86360000Y-81280000D03*
%TO.P,D6,4,D1*%
%TO.N,/A1*%
X88900000Y-81280000D03*
%TO.P,D6,5,Q1*%
%TO.N,/AB1*%
X91440000Y-81280000D03*
%TO.P,D6,6,Q2*%
%TO.N,/AB2*%
X93980000Y-81280000D03*
%TO.P,D6,7,D2*%
%TO.N,/A2*%
X96520000Y-81280000D03*
%TO.P,D6,8,D3*%
%TO.N,/A3*%
X99060000Y-81280000D03*
%TO.P,D6,9,Q3*%
%TO.N,/AB3*%
X101600000Y-81280000D03*
%TO.P,D6,10,GND*%
%TO.N,GND*%
X104140000Y-81280000D03*
%TO.P,D6,11,PE*%
%TO.N,/"1"*%
X104140000Y-73660000D03*
%TO.P,D6,12,Q4*%
%TO.N,/AB4*%
X101600000Y-73660000D03*
%TO.P,D6,13,D4*%
%TO.N,/A4*%
X99060000Y-73660000D03*
%TO.P,D6,14,D5*%
%TO.N,/A5*%
X96520000Y-73660000D03*
%TO.P,D6,15,Q5*%
%TO.N,/AB5*%
X93980000Y-73660000D03*
%TO.P,D6,16,Q6*%
%TO.N,/AB6*%
X91440000Y-73660000D03*
%TO.P,D6,17,D6*%
%TO.N,/A6*%
X88900000Y-73660000D03*
%TO.P,D6,18,D7*%
%TO.N,/A7*%
X86360000Y-73660000D03*
%TO.P,D6,19,Q7*%
%TO.N,/AB7*%
X83820000Y-73660000D03*
%TO.P,D6,20,VCC*%
%TO.N,+5V*%
X81280000Y-73660000D03*
%TD*%
D18*
%TO.P,U1,1,STSTB*%
%TO.N,/STSTB*%
X60960000Y-45720000D03*
D15*
%TO.P,U1,2,HLDA*%
%TO.N,/HLDA*%
X60960000Y-48260000D03*
%TO.P,U1,3,WR*%
%TO.N,/~{WR}*%
X60960000Y-50800000D03*
%TO.P,U1,4,DBIN*%
%TO.N,/DBIN*%
X60960000Y-53340000D03*
%TO.P,U1,5,DB4*%
%TO.N,/DB4*%
X60960000Y-55880000D03*
%TO.P,U1,6,D4*%
%TO.N,/D4*%
X60960000Y-58420000D03*
%TO.P,U1,7,DB7*%
%TO.N,/DB7*%
X60960000Y-60960000D03*
%TO.P,U1,8,D7*%
%TO.N,/D7*%
X60960000Y-63500000D03*
%TO.P,U1,9,DB3*%
%TO.N,/DB3*%
X60960000Y-66040000D03*
%TO.P,U1,10,D3*%
%TO.N,/D3*%
X60960000Y-68580000D03*
%TO.P,U1,11,DB2*%
%TO.N,/DB2*%
X60960000Y-71120000D03*
%TO.P,U1,12,D2*%
%TO.N,/D2*%
X60960000Y-73660000D03*
%TO.P,U1,13,DB0*%
%TO.N,/DB0*%
X60960000Y-76200000D03*
%TO.P,U1,14,GND*%
%TO.N,GND*%
X60960000Y-78740000D03*
%TO.P,U1,15,D0*%
%TO.N,/D0*%
X76200000Y-78740000D03*
%TO.P,U1,16,DB1*%
%TO.N,/DB1*%
X76200000Y-76200000D03*
%TO.P,U1,17,D1*%
%TO.N,/D1*%
X76200000Y-73660000D03*
%TO.P,U1,18,DB5*%
%TO.N,/DB5*%
X76200000Y-71120000D03*
%TO.P,U1,19,D5*%
%TO.N,/D5*%
X76200000Y-68580000D03*
%TO.P,U1,20,DB6*%
%TO.N,/DB6*%
X76200000Y-66040000D03*
%TO.P,U1,21,D6*%
%TO.N,/D6*%
X76200000Y-63500000D03*
%TO.P,U1,22,BUSEN*%
%TO.N,/HLDA*%
X76200000Y-60960000D03*
%TO.P,U1,23,INTA*%
%TO.N,/~{INTA}*%
X76200000Y-58420000D03*
%TO.P,U1,24,MEMR*%
%TO.N,/~{MEMR}*%
X76200000Y-55880000D03*
%TO.P,U1,25,I/OR*%
%TO.N,/~{I{slash}OR}*%
X76200000Y-53340000D03*
%TO.P,U1,26,MEMW*%
%TO.N,/~{MEMW}*%
X76200000Y-50800000D03*
%TO.P,U1,27,I/OW*%
%TO.N,/~{I{slash}OW}*%
X76200000Y-48260000D03*
%TO.P,U1,28,VCC*%
%TO.N,+5V*%
X76200000Y-45720000D03*
%TD*%
D14*
%TO.P,D1,1,1*%
%TO.N,/AB0*%
X78740000Y-91440000D03*
D15*
%TO.P,D1,2,2*%
%TO.N,/AB1*%
X81280000Y-91440000D03*
%TO.P,D1,3,3*%
%TO.N,/AB2*%
X83820000Y-91440000D03*
%TO.P,D1,4,4*%
%TO.N,/AB3*%
X86360000Y-91440000D03*
%TO.P,D1,5,5*%
%TO.N,/AB4*%
X88900000Y-91440000D03*
%TO.P,D1,6,6*%
%TO.N,/AB5*%
X91440000Y-91440000D03*
%TO.P,D1,7,GND*%
%TO.N,GND*%
X93980000Y-91440000D03*
%TO.P,D1,8,8*%
%TO.N,Net-(D2A-B)*%
X93980000Y-83820000D03*
%TO.P,D1,9*%
%TO.N,unconnected-(D1-Pad9)*%
X91440000Y-83820000D03*
%TO.P,D1,10*%
%TO.N,unconnected-(D1-Pad10)*%
X88900000Y-83820000D03*
%TO.P,D1,11,11*%
%TO.N,/AB6*%
X86360000Y-83820000D03*
%TO.P,D1,12,12*%
%TO.N,/AB7*%
X83820000Y-83820000D03*
%TO.P,D1,13*%
%TO.N,unconnected-(D1-Pad13)*%
X81280000Y-83820000D03*
%TO.P,D1,14,VCC*%
%TO.N,+5V*%
X78740000Y-83820000D03*
%TD*%
D14*
%TO.P,D5,1,A*%
%TO.N,/HLDA*%
X99060000Y-111760000D03*
D15*
%TO.P,D5,2,Y*%
%TO.N,Net-(D20B-B)*%
X101600000Y-111760000D03*
%TO.P,D5,3,A*%
%TO.N,Net-(D5B-A)*%
X104140000Y-111760000D03*
%TO.P,D5,4,Y*%
%TO.N,Net-(D2B-A)*%
X106680000Y-111760000D03*
%TO.P,D5,5,A*%
%TO.N,/RESET*%
X109220000Y-111760000D03*
%TO.P,D5,6,Y*%
%TO.N,/~{RESET}*%
X111760000Y-111760000D03*
%TO.P,D5,7,GND*%
%TO.N,GND*%
X114300000Y-111760000D03*
%TO.P,D5,8,Y*%
%TO.N,/~{CC00_VI53_1_}*%
X114300000Y-104140000D03*
%TO.P,D5,9,A*%
%TO.N,Net-(D21B-Y)*%
X111760000Y-104140000D03*
%TO.P,D5,10,Y*%
%TO.N,Net-(D14A-A)*%
X109220000Y-104140000D03*
%TO.P,D5,11,A*%
%TO.N,/~{RAM_MAIN}*%
X106680000Y-104140000D03*
%TO.P,D5,12,Y*%
%TO.N,/~{C800_VI53_2_}*%
X104140000Y-104140000D03*
%TO.P,D5,13,A*%
%TO.N,/C800_VI53_2*%
X101600000Y-104140000D03*
%TO.P,D5,14,VCC*%
%TO.N,+5V*%
X99060000Y-104140000D03*
%TD*%
D18*
%TO.P,D15,1,0*%
%TO.N,/~{C200_PPI1}*%
X154940000Y-50800000D03*
D15*
%TO.P,D15,2,1*%
%TO.N,/~{C400_PPI2}*%
X154940000Y-53340000D03*
%TO.P,D15,3,2*%
%TO.N,/~{CS_VG75}*%
X154940000Y-55880000D03*
%TO.P,D15,4,3*%
%TO.N,/~{CS_RAMR}*%
X154940000Y-58420000D03*
%TO.P,D15,5,4*%
%TO.N,/~{CS_ROM}*%
X154940000Y-60960000D03*
%TO.P,D15,6,5*%
%TO.N,/~{RAM_MAIN}*%
X154940000Y-63500000D03*
%TO.P,D15,7,6*%
%TO.N,/~{CC00_VI53_1}*%
X154940000Y-66040000D03*
%TO.P,D15,8,7*%
%TO.N,/~{CS_DMA}*%
X154940000Y-68580000D03*
%TO.P,D15,9,8*%
%TO.N,/~{C800_VI53_2}*%
X154940000Y-71120000D03*
%TO.P,D15,10,9*%
%TO.N,/~{C100_SD_CNTR}*%
X154940000Y-73660000D03*
%TO.P,D15,11,10*%
%TO.N,/~{CS_D800}*%
X154940000Y-76200000D03*
%TO.P,D15,12,GND*%
%TO.N,GND*%
X154940000Y-78740000D03*
%TO.P,D15,13,11*%
%TO.N,/~{CE00}*%
X170180000Y-78740000D03*
%TO.P,D15,14,12*%
%TO.N,/~{C300}*%
X170180000Y-76200000D03*
%TO.P,D15,15,13*%
%TO.N,/~{CS_SRAM_8000}*%
X170180000Y-73660000D03*
%TO.P,D15,16,14*%
%TO.N,/~{CA00_PPI3}*%
X170180000Y-71120000D03*
%TO.P,D15,17,15*%
%TO.N,/~{F700}*%
X170180000Y-68580000D03*
%TO.P,D15,18,C*%
%TO.N,/~{D15_CS2}*%
X170180000Y-66040000D03*
%TO.P,D15,19,&C*%
%TO.N,/~{D15_CS1}*%
X170180000Y-63500000D03*
%TO.P,D15,20,8*%
%TO.N,/R3*%
X170180000Y-60960000D03*
%TO.P,D15,21,4*%
%TO.N,/R2*%
X170180000Y-58420000D03*
%TO.P,D15,22,2*%
%TO.N,/R1*%
X170180000Y-55880000D03*
%TO.P,D15,23,1*%
%TO.N,/R0*%
X170180000Y-53340000D03*
%TO.P,D15,24,VCC*%
%TO.N,+5V*%
X170180000Y-50800000D03*
%TD*%
D12*
%TO.P,R13,1,TOP*%
%TO.N,/~{CS_628512}*%
X167005000Y-102235000D03*
D13*
%TO.P,R13,2,BOT*%
%TO.N,+5V*%
X169545000Y-102235000D03*
%TD*%
D14*
%TO.P,D11,1,~{EO}*%
%TO.N,Net-(D11-~{EO})*%
X48260000Y-88900000D03*
D15*
%TO.P,D11,2,Q0*%
%TO.N,/DB0*%
X50800000Y-88900000D03*
%TO.P,D11,3,D0*%
%TO.N,/Q0*%
X53340000Y-88900000D03*
%TO.P,D11,4,D1*%
%TO.N,/Q1*%
X55880000Y-88900000D03*
%TO.P,D11,5,Q1*%
%TO.N,/DB1*%
X58420000Y-88900000D03*
%TO.P,D11,6,Q2*%
%TO.N,/DB2*%
X60960000Y-88900000D03*
%TO.P,D11,7,D2*%
%TO.N,/Q2*%
X63500000Y-88900000D03*
%TO.P,D11,8,D3*%
%TO.N,/Q3*%
X66040000Y-88900000D03*
%TO.P,D11,9,Q3*%
%TO.N,/DB3*%
X68580000Y-88900000D03*
%TO.P,D11,10,GND*%
%TO.N,GND*%
X71120000Y-88900000D03*
%TO.P,D11,11,PE*%
%TO.N,/"1"*%
X71120000Y-81280000D03*
%TO.P,D11,12,Q4*%
%TO.N,/DB4*%
X68580000Y-81280000D03*
%TO.P,D11,13,D4*%
%TO.N,/Q4*%
X66040000Y-81280000D03*
%TO.P,D11,14,D5*%
%TO.N,/Q5*%
X63500000Y-81280000D03*
%TO.P,D11,15,Q5*%
%TO.N,/DB5*%
X60960000Y-81280000D03*
%TO.P,D11,16,Q6*%
%TO.N,/DB6*%
X58420000Y-81280000D03*
%TO.P,D11,17,D6*%
%TO.N,/Q6*%
X55880000Y-81280000D03*
%TO.P,D11,18,D7*%
%TO.N,/Q7*%
X53340000Y-81280000D03*
%TO.P,D11,19,Q7*%
%TO.N,/DB7*%
X50800000Y-81280000D03*
%TO.P,D11,20,VCC*%
%TO.N,+5V*%
X48260000Y-81280000D03*
%TD*%
D12*
%TO.P,R8,1*%
%TO.N,Net-(D23A-~{R})*%
X130180000Y-121920000D03*
D13*
%TO.P,R8,2*%
%TO.N,+5V*%
X132720000Y-121920000D03*
%TD*%
D12*
%TO.P,R4,1,TOP*%
%TO.N,+5V*%
X86360000Y-45989000D03*
D13*
%TO.P,R4,2,BOT*%
%TO.N,/~{INTA}*%
X86360000Y-43449000D03*
%TD*%
D18*
%TO.P,D2,1,A*%
%TO.N,/~{I{slash}OW}*%
X50800000Y-43180000D03*
D15*
%TO.P,D2,2,B*%
%TO.N,Net-(D2A-B)*%
X50800000Y-45720000D03*
%TO.P,D2,3,Y*%
%TO.N,Net-(D14B-A)*%
X50800000Y-48260000D03*
%TO.P,D2,4,A*%
%TO.N,Net-(D2B-A)*%
X50800000Y-50800000D03*
%TO.P,D2,5,B*%
%TO.N,/~{I{slash}OW}*%
X50800000Y-53340000D03*
%TO.P,D2,6,Y*%
%TO.N,Net-(D2B-Y)*%
X50800000Y-55880000D03*
%TO.P,D2,7,GND*%
%TO.N,GND*%
X50800000Y-58420000D03*
%TO.P,D2,8,Y*%
%TO.N,Net-(D11-~{EO})*%
X58420000Y-58420000D03*
%TO.P,D2,9,A*%
%TO.N,Net-(D2A-B)*%
X58420000Y-55880000D03*
%TO.P,D2,10,B*%
%TO.N,/~{I{slash}OR}*%
X58420000Y-53340000D03*
%TO.P,D2,11,Y*%
%TO.N,/~{D15_CS2}*%
X58420000Y-50800000D03*
%TO.P,D2,12,A*%
%TO.N,Net-(D18B-D)*%
X58420000Y-48260000D03*
%TO.P,D2,13,B*%
%TO.N,Net-(D18B-Q)*%
X58420000Y-45720000D03*
%TO.P,D2,14,VCC*%
%TO.N,+5V*%
X58420000Y-43180000D03*
%TD*%
D16*
%TO.P,J2,1,Pin_1*%
%TO.N,/~{C200_PPI1_}*%
X182880000Y-45720000D03*
D17*
%TO.P,J2,2,Pin_2*%
%TO.N,/~{C400_PPI2_}*%
X182880000Y-48260000D03*
%TO.P,J2,3,Pin_3*%
%TO.N,/~{CS_VG75_}*%
X182880000Y-50800000D03*
%TO.P,J2,4,Pin_4*%
%TO.N,/~{C100_SD_CNTR}*%
X182880000Y-53340000D03*
%TO.P,J2,5,Pin_5*%
%TO.N,/~{CS_ROM}*%
X182880000Y-55880000D03*
%TO.P,J2,6,Pin_6*%
%TO.N,/~{RAM_MAIN}*%
X182880000Y-58420000D03*
%TO.P,J2,7,Pin_7*%
%TO.N,/~{CC00_VI53_1_}*%
X182880000Y-60960000D03*
%TO.P,J2,8,Pin_8*%
%TO.N,/~{CS_DMA_}*%
X182880000Y-63500000D03*
%TO.P,J2,9,Pin_9*%
%TO.N,/CLK*%
X182880000Y-66040000D03*
%TO.P,J2,10,Pin_10*%
%TO.N,/~{C800_VI53_2_}*%
X182880000Y-68580000D03*
%TO.P,J2,11,Pin_11*%
%TO.N,/~{CS_SRAM_8000}*%
X182880000Y-71120000D03*
%TO.P,J2,12,Pin_12*%
%TO.N,/~{CE00}*%
X182880000Y-73660000D03*
%TO.P,J2,13,Pin_13*%
%TO.N,/~{C300}*%
X182880000Y-76200000D03*
%TO.P,J2,14,Pin_14*%
%TO.N,/~{CS_D800}*%
X182880000Y-78740000D03*
%TO.P,J2,15,Pin_15*%
%TO.N,/~{CA00_PPI3}*%
X182880000Y-81280000D03*
%TO.P,J2,16,Pin_16*%
%TO.N,/RAM_SEL*%
X182880000Y-83820000D03*
%TO.P,J2,17,Pin_17*%
%TO.N,/~{MEMW_VT57}*%
X182880000Y-86360000D03*
%TO.P,J2,18,Pin_18*%
%TO.N,/Q7*%
X182880000Y-88900000D03*
%TO.P,J2,19,Pin_19*%
%TO.N,/~{MEMW}*%
X182880000Y-91440000D03*
%TO.P,J2,20,Pin_20*%
%TO.N,/STSTB*%
X182880000Y-93980000D03*
%TO.P,J2,21,Pin_21*%
%TO.N,/~{RD}*%
X182880000Y-96520000D03*
%TO.P,J2,22,Pin_22*%
%TO.N,/ROM_A13*%
X182880000Y-99060000D03*
%TO.P,J2,23,Pin_23*%
%TO.N,/ROM_A14*%
X182880000Y-101600000D03*
%TO.P,J2,24,Pin_24*%
%TO.N,/ROM_A15*%
X182880000Y-104140000D03*
%TD*%
D14*
%TO.P,D4,1,A*%
%TO.N,Net-(D4A-A)*%
X78740000Y-111760000D03*
D15*
%TO.P,D4,2,B*%
%TO.N,Net-(D18A-~{Q})*%
X81280000Y-111760000D03*
%TO.P,D4,3,Y*%
%TO.N,Net-(D18A-D)*%
X83820000Y-111760000D03*
%TO.P,D4,4,A*%
%TO.N,/P0*%
X86360000Y-111760000D03*
%TO.P,D4,5,B*%
%TO.N,Net-(D2B-Y)*%
X88900000Y-111760000D03*
%TO.P,D4,6,Y*%
%TO.N,Net-(D4A-A)*%
X91440000Y-111760000D03*
%TO.P,D4,7,GND*%
%TO.N,GND*%
X93980000Y-111760000D03*
%TO.P,D4,8,Y*%
%TO.N,/~{D15_CS1}*%
X93980000Y-104140000D03*
%TO.P,D4,9,A*%
%TO.N,/P1*%
X91440000Y-104140000D03*
%TO.P,D4,10,B*%
%TO.N,Net-(D14B-Y)*%
X88900000Y-104140000D03*
%TO.P,D4,11,Y*%
%TO.N,/~{WE_628512}*%
X86360000Y-104140000D03*
%TO.P,D4,12,A*%
%TO.N,/~{MWR}*%
X83820000Y-104140000D03*
%TO.P,D4,13,B*%
%TO.N,Net-(D14C-Y)*%
X81280000Y-104140000D03*
%TO.P,D4,14,VCC*%
%TO.N,+5V*%
X78740000Y-104140000D03*
%TD*%
D18*
%TO.P,D19,1,0*%
%TO.N,/AB7*%
X172720000Y-43180000D03*
D15*
%TO.P,D19,2,1*%
%TO.N,/AB6*%
X172720000Y-45720000D03*
%TO.P,D19,3,2*%
%TO.N,/AB5*%
X172720000Y-48260000D03*
%TO.P,D19,4,~{E2}*%
%TO.N,/~{F700}*%
X172720000Y-50800000D03*
%TO.P,D19,5,~{E3}*%
X172720000Y-53340000D03*
%TO.P,D19,6,E1*%
%TO.N,/"1"*%
X172720000Y-55880000D03*
%TO.P,D19,7,7*%
%TO.N,Net-(D24D-A)*%
X172720000Y-58420000D03*
%TO.P,D19,8,GND*%
%TO.N,GND*%
X172720000Y-60960000D03*
%TO.P,D19,9,6*%
%TO.N,Net-(D19-6)*%
X180340000Y-60960000D03*
%TO.P,D19,10,5*%
%TO.N,Net-(D19-5)*%
X180340000Y-58420000D03*
%TO.P,D19,11,4*%
%TO.N,Net-(D19-4)*%
X180340000Y-55880000D03*
%TO.P,D19,12,3*%
%TO.N,Net-(D19-3)*%
X180340000Y-53340000D03*
%TO.P,D19,13,2*%
%TO.N,Net-(D21B-A)*%
X180340000Y-50800000D03*
%TO.P,D19,14,1*%
%TO.N,unconnected-(D19-1-Pad14)*%
X180340000Y-48260000D03*
%TO.P,D19,15,0*%
%TO.N,unconnected-(D19-0-Pad15)*%
X180340000Y-45720000D03*
%TO.P,D19,16,VCC*%
%TO.N,+5V*%
X180340000Y-43180000D03*
%TD*%
D14*
%TO.P,D7,1,~{EO}*%
%TO.N,/HLDA*%
X109220000Y-81280000D03*
D15*
%TO.P,D7,2,Q0*%
%TO.N,/AB8*%
X111760000Y-81280000D03*
%TO.P,D7,3,D0*%
%TO.N,/A8*%
X114300000Y-81280000D03*
%TO.P,D7,4,D1*%
%TO.N,/A9*%
X116840000Y-81280000D03*
%TO.P,D7,5,Q1*%
%TO.N,/AB9*%
X119380000Y-81280000D03*
%TO.P,D7,6,Q2*%
%TO.N,/AB10*%
X121920000Y-81280000D03*
%TO.P,D7,7,D2*%
%TO.N,/A10*%
X124460000Y-81280000D03*
%TO.P,D7,8,D3*%
%TO.N,/A11*%
X127000000Y-81280000D03*
%TO.P,D7,9,Q3*%
%TO.N,/AB11*%
X129540000Y-81280000D03*
%TO.P,D7,10,GND*%
%TO.N,GND*%
X132080000Y-81280000D03*
%TO.P,D7,11,PE*%
%TO.N,/"1"*%
X132080000Y-73660000D03*
%TO.P,D7,12,Q4*%
%TO.N,/AB12*%
X129540000Y-73660000D03*
%TO.P,D7,13,D4*%
%TO.N,/A12*%
X127000000Y-73660000D03*
%TO.P,D7,14,D5*%
%TO.N,/A13*%
X124460000Y-73660000D03*
%TO.P,D7,15,Q5*%
%TO.N,/AB13*%
X121920000Y-73660000D03*
%TO.P,D7,16,Q6*%
%TO.N,/AB14*%
X119380000Y-73660000D03*
%TO.P,D7,17,D6*%
%TO.N,/A14*%
X116840000Y-73660000D03*
%TO.P,D7,18,D7*%
%TO.N,/A15*%
X114300000Y-73660000D03*
%TO.P,D7,19,Q7*%
%TO.N,/AB15*%
X111760000Y-73660000D03*
%TO.P,D7,20,VCC*%
%TO.N,+5V*%
X109220000Y-73660000D03*
%TD*%
D12*
%TO.P,R11,1,TOP*%
%TO.N,/P2*%
X102240000Y-83820000D03*
D13*
%TO.P,R11,2,BOT*%
%TO.N,+5V*%
X104780000Y-83820000D03*
%TD*%
D21*
%TO.P,D23,1,~{R}*%
%TO.N,Net-(D23A-~{R})*%
X127000000Y-106680000D03*
D15*
%TO.P,D23,2,D*%
%TO.N,Net-(D23A-D)*%
X127000000Y-109220000D03*
%TO.P,D23,3,C*%
%TO.N,Net-(D22E-Y)*%
X127000000Y-111760000D03*
%TO.P,D23,4,~{S}*%
%TO.N,Net-(D23A-~{R})*%
X127000000Y-114300000D03*
%TO.P,D23,5,Q*%
%TO.N,/8MHZ*%
X127000000Y-116840000D03*
%TO.P,D23,6,~{Q}*%
%TO.N,Net-(D23A-D)*%
X127000000Y-119380000D03*
%TO.P,D23,7,GND*%
%TO.N,GND*%
X127000000Y-121920000D03*
%TO.P,D23,8,~{Q}*%
%TO.N,Net-(D23A-~{R})*%
X119380000Y-121920000D03*
%TO.P,D23,9,Q*%
%TO.N,/CLK*%
X119380000Y-119380000D03*
%TO.P,D23,10,~{S}*%
%TO.N,Net-(D23A-~{R})*%
X119380000Y-116840000D03*
%TO.P,D23,11,C*%
%TO.N,/8MHZ*%
X119380000Y-114300000D03*
%TO.P,D23,12,D*%
%TO.N,Net-(D23A-~{R})*%
X119380000Y-111760000D03*
%TO.P,D23,13,~{R}*%
%TO.N,unconnected-(D23B-~{R}-Pad13)*%
X119380000Y-109220000D03*
%TO.P,D23,14,VCC*%
%TO.N,+5V*%
X119380000Y-106680000D03*
%TD*%
D22*
%TO.N,+5V*%
X109220000Y-78740000D03*
X172720000Y-93980000D03*
X156844301Y-78739301D03*
X77433240Y-66638240D03*
X131530000Y-84174260D03*
X79241000Y-43180000D03*
X111760000Y-78740000D03*
X128646220Y-83296740D03*
X102235000Y-109855000D03*
X79375000Y-70619000D03*
X114300000Y-107315000D03*
X114654260Y-79094260D03*
X99962000Y-108585000D03*
%TO.N,/"1"*%
X168910000Y-60325000D03*
X178440000Y-42540000D03*
X79375000Y-80010000D03*
X177163602Y-53340000D03*
X153035000Y-64770000D03*
X176965950Y-44894502D03*
X172170000Y-62016050D03*
X130175000Y-72390000D03*
X174625000Y-56331000D03*
D23*
X137300025Y-64629975D03*
D22*
X178188909Y-46108909D03*
X174625000Y-57785000D03*
X128905000Y-71755000D03*
X130556000Y-69850000D03*
X75565000Y-83820000D03*
%TO.N,/~{MEMR}*%
X77739000Y-50316072D03*
%TO.N,/P3*%
X118110000Y-96520000D03*
X98038591Y-90556409D03*
X103505000Y-92710000D03*
X114300000Y-92710000D03*
X99695000Y-90061546D03*
X107315000Y-92710000D03*
X105410000Y-92710000D03*
%TO.N,/P1*%
X106045000Y-88265000D03*
X107950000Y-87630000D03*
X91440000Y-96520000D03*
X98425000Y-94615000D03*
X111760000Y-88265000D03*
X102870000Y-90170000D03*
X109855000Y-88265000D03*
X99695000Y-88900000D03*
%TO.N,Net-(D22F-A)*%
X129540000Y-104191000D03*
%TO.N,Net-(D22E-A)*%
X131221000Y-112991000D03*
X122552299Y-113438851D03*
%TO.N,Net-(D23A-~{R})*%
X125476000Y-107696000D03*
X129540000Y-114300000D03*
X121920000Y-116586000D03*
X121920000Y-114750000D03*
X122357000Y-123974000D03*
X122174000Y-108712000D03*
%TO.N,/D5*%
X83370000Y-51693266D03*
D23*
%TO.N,GND*%
X106927948Y-79953577D03*
D22*
X54011760Y-76163240D03*
X114300000Y-124460000D03*
D23*
X162560000Y-88900000D03*
D22*
%TO.N,/A1*%
X87948199Y-77788199D03*
%TO.N,/~{WR}*%
X83363950Y-47159000D03*
X77889000Y-48260000D03*
%TO.N,/D6*%
X83370000Y-50800000D03*
%TO.N,/A2*%
X96416555Y-71570000D03*
X96520000Y-76200000D03*
%TO.N,/DBIN*%
X78290000Y-55880000D03*
%TO.N,/DB3*%
X147320000Y-86810000D03*
X172720000Y-86360000D03*
X64638000Y-78740000D03*
X162560000Y-86360000D03*
%TO.N,/AB8*%
X110659000Y-93980000D03*
%TO.N,/AB12*%
X110560863Y-105085137D03*
X121920000Y-109220000D03*
D23*
X111760000Y-106284274D03*
D22*
%TO.N,/R3*%
X164711091Y-68191091D03*
X148844000Y-94530000D03*
%TO.N,/AB4*%
X94298199Y-89218199D03*
%TO.N,/AB1*%
X97519043Y-86483139D03*
X83820000Y-86360000D03*
%TO.N,/DB7*%
X149225000Y-72390000D03*
X159456409Y-76271409D03*
X168275000Y-81915000D03*
X161290000Y-76835000D03*
%TO.N,/~{RD}*%
X166370000Y-126365000D03*
%TO.N,/AB5*%
X137996247Y-89302495D03*
X102050000Y-96520000D03*
X107130000Y-91440000D03*
X143764000Y-83058000D03*
X125561000Y-102235000D03*
X97933000Y-88534000D03*
X105951547Y-91440000D03*
X135382000Y-91186000D03*
X93980000Y-86360000D03*
X107265396Y-88951000D03*
X144272000Y-81894000D03*
X96573589Y-86941703D03*
X170831000Y-46990000D03*
X134620000Y-116390000D03*
D23*
X128579000Y-106610472D03*
D22*
%TO.N,/AB7*%
X156090003Y-78740000D03*
X86995000Y-97790000D03*
X119523525Y-115426475D03*
X166089000Y-92879000D03*
X160020000Y-38100000D03*
X121920000Y-119380000D03*
X157734000Y-80518000D03*
X152400000Y-68580000D03*
X154940000Y-38100000D03*
X113911091Y-119768909D03*
%TO.N,/AB10*%
X121920000Y-88900000D03*
D23*
X124460000Y-93980000D03*
D22*
%TO.N,/AB6*%
X165100000Y-73660000D03*
X178401749Y-52738251D03*
X76588000Y-104529817D03*
X167141000Y-90051000D03*
X68580000Y-109220000D03*
X172720000Y-69969997D03*
X76588000Y-93980000D03*
X180340000Y-63500000D03*
%TO.N,/AB0*%
X132080000Y-84996021D03*
X127293699Y-84162699D03*
X109220000Y-83820000D03*
X142558199Y-93430000D03*
X107130000Y-78740000D03*
%TO.N,/AB13*%
X119380000Y-91440000D03*
X124460000Y-96520000D03*
%TO.N,/DB4*%
X81280000Y-92710000D03*
X163195000Y-99695000D03*
X105410000Y-91440000D03*
X81915000Y-95250000D03*
X99695000Y-92710000D03*
X85090000Y-92710000D03*
X119380000Y-98425000D03*
X87701409Y-93416409D03*
X93345000Y-97155000D03*
X70556409Y-90241409D03*
X102870000Y-93345000D03*
X156845000Y-94615000D03*
X78176409Y-95321409D03*
X132715000Y-97155000D03*
%TO.N,/AB2*%
X116840000Y-104140000D03*
X98298000Y-87376000D03*
D23*
X88900000Y-86360000D03*
D22*
X93472000Y-85344000D03*
X97200843Y-86801339D03*
X103632000Y-90170000D03*
X93218000Y-82804000D03*
X105156000Y-90170000D03*
%TO.N,/DB2*%
X165100000Y-105529997D03*
X65405000Y-95885000D03*
X65405000Y-92710000D03*
X170180000Y-125730000D03*
X60960000Y-82782000D03*
X63147151Y-80006499D03*
%TO.N,/DB1*%
X146685000Y-89535000D03*
X165342169Y-104690000D03*
X166489997Y-106680000D03*
X149098000Y-88900000D03*
X84455000Y-79375000D03*
D23*
X108375025Y-78595025D03*
D22*
X137088591Y-75493591D03*
X137160000Y-85090000D03*
%TO.N,/DB5*%
X162560000Y-93980000D03*
X162560000Y-84970003D03*
X168275000Y-103505000D03*
X154940000Y-79890003D03*
X161674594Y-84491644D03*
X87173175Y-67766825D03*
X81280000Y-71120000D03*
X164338000Y-93377701D03*
X63500000Y-74295000D03*
X157480000Y-83820000D03*
X129540000Y-71120000D03*
%TO.N,/~{WE_628512}*%
X115570000Y-103505000D03*
X93345000Y-102870000D03*
X99610000Y-102235000D03*
X102235000Y-99060000D03*
X87173175Y-102413175D03*
X104775000Y-99695000D03*
%TO.N,/DB6*%
X164111000Y-93980000D03*
X154151000Y-79576649D03*
X129990000Y-66040000D03*
X73660000Y-75565000D03*
X142240000Y-66040000D03*
X166243169Y-104140000D03*
X86810000Y-65936555D03*
X81730000Y-66040000D03*
X84459277Y-65409277D03*
X87979348Y-66040000D03*
X73660000Y-68580000D03*
X132080000Y-66040000D03*
%TO.N,/DB0*%
X167640000Y-123825000D03*
%TO.N,/ARR18*%
X118566825Y-117653175D03*
X120481000Y-119380000D03*
X118110000Y-118432002D03*
X111210000Y-116451930D03*
X115689997Y-116840000D03*
%TO.N,/AB3*%
X107950000Y-82353147D03*
X123021000Y-102701000D03*
D23*
X90339000Y-79984950D03*
D22*
X108161954Y-85664421D03*
X128150003Y-109220000D03*
X124675633Y-104702185D03*
X104107314Y-84630504D03*
%TO.N,/HLDA*%
X98425000Y-105410000D03*
X103039000Y-78283950D03*
%TO.N,/STSTB*%
X63500000Y-38100000D03*
%TO.N,/~{RESET}*%
X93980000Y-109220000D03*
X102870000Y-110490000D03*
X93345000Y-109855000D03*
X92075000Y-109855000D03*
X83185000Y-99060000D03*
%TO.N,/Q5*%
X63500000Y-95250000D03*
X93345000Y-99695000D03*
X86923591Y-100258591D03*
X73025000Y-100330000D03*
%TO.N,Net-(D5B-A)*%
X114300000Y-117990003D03*
%TO.N,/Q6*%
X74295000Y-93980000D03*
X90871000Y-98359000D03*
X88900000Y-97790000D03*
X71120000Y-93345000D03*
X73660000Y-94615000D03*
%TO.N,Net-(D2B-A)*%
X105410000Y-110490000D03*
X86360000Y-102750003D03*
X95970000Y-106680000D03*
X73698800Y-99060000D03*
%TO.N,/Q7*%
X88265000Y-127000000D03*
X70485000Y-93980000D03*
X71755000Y-93980000D03*
X79375000Y-99695000D03*
X74295000Y-100965000D03*
X86360000Y-124460000D03*
X85725000Y-126365000D03*
X81915000Y-99060000D03*
%TO.N,/~{D15_CS1}*%
X121920000Y-95250000D03*
X118110000Y-92710000D03*
X107950000Y-104140000D03*
D23*
X95820000Y-103371818D03*
D22*
X101600000Y-102870000D03*
X99695000Y-102870000D03*
X107315000Y-106680000D03*
X102870000Y-106680000D03*
X140589000Y-92837000D03*
D23*
X108054031Y-105740999D03*
D22*
%TO.N,/~{RAM_MAIN}*%
X179790000Y-111760000D03*
X136525000Y-87630000D03*
X172068999Y-62669654D03*
X169029997Y-63500000D03*
%TO.N,/~{CC00_VI53_1}*%
X170180000Y-77350003D03*
%TO.N,/~{CS_SRAM_8000}*%
X176784000Y-71882000D03*
X171450000Y-112395000D03*
D23*
X171219000Y-77850003D03*
D22*
X174498000Y-77216000D03*
X168497038Y-90050000D03*
%TO.N,/~{CA00_PPI3}*%
X168275000Y-72871000D03*
%TO.N,/R2*%
X163949649Y-68580000D03*
D23*
%TO.N,/~{CE00}*%
X174800941Y-73157952D03*
X174049697Y-77946961D03*
D22*
%TO.N,/~{C300}*%
X174498000Y-75184000D03*
X174752000Y-73914000D03*
%TO.N,/~{C800_VI53_2}*%
X168656000Y-79248000D03*
%TO.N,/~{CS_D800}*%
X167640000Y-78740000D03*
X173509000Y-82983351D03*
%TO.N,/~{C100_SD_CNTR}*%
X178754843Y-53017225D03*
X177165000Y-59690000D03*
X174625000Y-61595000D03*
X161925000Y-74295000D03*
X158115000Y-73660000D03*
%TO.N,Net-(D10-D4)*%
X160020000Y-93345000D03*
X147320000Y-100330000D03*
X163195000Y-95250000D03*
X141605000Y-95250000D03*
X137160000Y-92710000D03*
X133985000Y-92075000D03*
%TO.N,Net-(D10-D5)*%
X162560000Y-86995000D03*
X133350000Y-90805000D03*
X172085000Y-86995000D03*
X138430000Y-88265000D03*
X139700000Y-86995000D03*
D23*
%TO.N,/AB15*%
X106680000Y-72390000D03*
D22*
X102235000Y-92075000D03*
%TO.N,Net-(D10-D2)*%
X149098000Y-94996000D03*
X142748000Y-101346000D03*
X150876000Y-92160000D03*
%TO.N,/AB14*%
X113149997Y-92075000D03*
%TO.N,Net-(D10-D6)*%
X141986000Y-87630000D03*
X132715000Y-90805000D03*
X161925000Y-87630000D03*
X137160000Y-88392000D03*
%TO.N,Net-(D10-D0)*%
X144272000Y-94488000D03*
X130090000Y-99822000D03*
X124206000Y-99568000D03*
X123444000Y-100838000D03*
%TO.N,Net-(D10-D7)*%
X154305000Y-81915000D03*
D23*
X164338000Y-82219001D03*
D22*
X146050000Y-81915000D03*
X131445000Y-90170000D03*
X137795000Y-88900000D03*
D23*
X155788530Y-82971470D03*
D22*
%TO.N,Net-(D10-~{WE})*%
X106230000Y-88900000D03*
X100161000Y-116205000D03*
X103752825Y-97414171D03*
%TO.N,Net-(D10-D3)*%
X139065000Y-85725000D03*
X142240000Y-86360000D03*
X132715000Y-85090000D03*
%TO.N,Net-(D10-D1)*%
X130090000Y-100571406D03*
X124714000Y-99822000D03*
X150622000Y-93726000D03*
%TO.N,Net-(D24D-A)*%
X170831000Y-59367998D03*
X167640000Y-60960000D03*
%TO.N,Net-(D21B-A)*%
X178816000Y-56134000D03*
X176784000Y-56896000D03*
X178816000Y-63246000D03*
X174236091Y-71366091D03*
X174244000Y-68580000D03*
%TO.N,Net-(D19-5)*%
X167640000Y-53340000D03*
X176699000Y-54779000D03*
%TO.N,Net-(D19-3)*%
X175379091Y-61856909D03*
X178562000Y-54864000D03*
X178308000Y-66548000D03*
D23*
X177800000Y-57819000D03*
D22*
X177546000Y-56388000D03*
%TO.N,/R7*%
X102235000Y-117475000D03*
X104376487Y-110091487D03*
X135890000Y-91440000D03*
X95885000Y-116840000D03*
X140970000Y-88265000D03*
X97155000Y-116840000D03*
X138430000Y-89535000D03*
X161500727Y-88054273D03*
%TO.N,/R5*%
X88265000Y-124460000D03*
X92075000Y-125095000D03*
X177800000Y-121285000D03*
%TO.N,/R6*%
X164084000Y-88138000D03*
X140208000Y-105156000D03*
X130556000Y-109220000D03*
X113750000Y-110236000D03*
X164592000Y-85852000D03*
X96273909Y-113276091D03*
X131064000Y-108204000D03*
X162269310Y-88318620D03*
X103320003Y-110490000D03*
X130556000Y-109220000D03*
X128524000Y-107696000D03*
X122682000Y-109220000D03*
X95885000Y-115570000D03*
X155448000Y-93472000D03*
X97155000Y-112395000D03*
%TO.N,Net-(D14C-Y)*%
X62865000Y-76835000D03*
X80010000Y-92710000D03*
%TO.N,Net-(D2A-B)*%
X82550000Y-85725000D03*
%TO.N,Net-(D2B-Y)*%
X73019326Y-108579326D03*
X50800000Y-75049997D03*
X55880000Y-86360000D03*
X83820000Y-109220000D03*
%TO.N,/ROM_A14*%
X93345000Y-125095000D03*
X183515000Y-118745000D03*
X88900000Y-124460000D03*
%TO.N,/ROM_A13*%
X93980000Y-125095000D03*
X184369000Y-116840000D03*
X89535000Y-124460000D03*
%TO.N,/~{MWR}*%
X97155000Y-118745000D03*
X87630000Y-117475000D03*
X95885000Y-118745000D03*
%TO.N,/ROM_A15*%
X116840000Y-125095000D03*
X89535000Y-116205000D03*
X121285000Y-126365000D03*
X87630000Y-124460000D03*
%TO.N,Net-(D14B-Y)*%
X72390000Y-108585000D03*
X86995000Y-106045000D03*
X85586547Y-107411916D03*
X88265000Y-106045000D03*
X51435000Y-97155000D03*
X76835000Y-108585000D03*
%TO.N,Net-(D21B-Y)*%
X140162090Y-92694697D03*
X123952000Y-98298000D03*
X117856000Y-99822000D03*
X128270000Y-93472000D03*
X145796000Y-86614000D03*
X160782000Y-86360000D03*
X114046000Y-100076000D03*
X170942000Y-80772000D03*
%TO.N,/~{CC00_VI53_1_}*%
X177546000Y-74168000D03*
X157480000Y-84582000D03*
X158242000Y-83820000D03*
X143510000Y-86614000D03*
X173990000Y-79756000D03*
X138684000Y-90424000D03*
X155956000Y-84582000D03*
X118364000Y-102870000D03*
X122936000Y-97790000D03*
X155201909Y-85844091D03*
X118110000Y-100330000D03*
X160570000Y-84935667D03*
X127254000Y-93218000D03*
%TO.N,/C800_VI53_2*%
X100512000Y-109855000D03*
X107950000Y-125222000D03*
X175006000Y-116840000D03*
X100076000Y-124714000D03*
X176276000Y-99568000D03*
%TO.N,Net-(D14A-A)*%
X82550000Y-108585000D03*
X75565000Y-106045000D03*
X97155000Y-104775000D03*
X109220000Y-107315000D03*
X62865000Y-78105000D03*
X109220000Y-106045000D03*
X102235000Y-107950000D03*
X100512000Y-107315000D03*
X89535000Y-109220000D03*
X95638909Y-112641091D03*
X100448817Y-105982531D03*
%TO.N,Net-(D20B-B)*%
X108585000Y-116205000D03*
%TO.N,/~{C800_VI53_2_}*%
X135382000Y-80264000D03*
X155956000Y-82296000D03*
X154178000Y-80264000D03*
X107442000Y-97790000D03*
X115824000Y-85598000D03*
X106172000Y-97790000D03*
X172212000Y-82804000D03*
X163830000Y-81718001D03*
X170688000Y-82550000D03*
X169672000Y-82550000D03*
%TO.N,/~{C400_PPI2_}*%
X172720000Y-40640000D03*
%TO.N,/~{C200_PPI1_}*%
X160020000Y-43180000D03*
%TO.N,/CLK*%
X175768000Y-88392000D03*
X174752000Y-89408000D03*
X134620000Y-120904000D03*
X170180000Y-97790000D03*
X153162000Y-104140000D03*
X159766000Y-104140000D03*
X173228000Y-94488000D03*
%TO.N,Net-(D22E-Y)*%
X124283751Y-123513851D03*
X123194276Y-120654276D03*
X123512001Y-122571000D03*
%TO.N,/R8*%
X81915000Y-115570000D03*
X50165000Y-72390000D03*
X93345000Y-107950000D03*
X104775000Y-108585000D03*
X72390000Y-113030000D03*
X76835000Y-114935000D03*
X103505000Y-109855000D03*
%TO.N,Net-(D21A-B)*%
X158750000Y-79502000D03*
X134366000Y-108712000D03*
X168148000Y-70358000D03*
X157988000Y-85598000D03*
X155956000Y-85852000D03*
X158122909Y-88765091D03*
X157480000Y-81280000D03*
X138938000Y-105156000D03*
X151384000Y-94488000D03*
X130048000Y-113792000D03*
X171196000Y-69850000D03*
X123190000Y-112268000D03*
D23*
%TO.N,/~{MEMW_VT57}*%
X101600000Y-125095000D03*
X174021079Y-123221079D03*
D22*
X103077732Y-124929000D03*
D23*
X182680000Y-110938946D03*
D22*
%TO.N,Net-(D20B-A)*%
X157226000Y-100838000D03*
X174018352Y-82182321D03*
X155702000Y-102362000D03*
X174244000Y-78740000D03*
X174752000Y-79756000D03*
X165100000Y-93218000D03*
X147320000Y-115824000D03*
X168148000Y-85852000D03*
%TO.N,/RAM_SEL*%
X182245000Y-38100000D03*
X184785000Y-85090000D03*
X184770000Y-83820000D03*
X56515000Y-43180000D03*
%TO.N,/~{CS_628512}*%
X173180000Y-108460000D03*
X178180000Y-111460000D03*
%TD*%
D24*
%TO.N,+5V*%
X60960000Y-43180000D02*
X59759000Y-44381000D01*
X104056000Y-108034000D02*
X102235000Y-109855000D01*
X137160000Y-117480000D02*
X137160000Y-106680000D01*
X99962000Y-106238479D02*
X99060000Y-105336480D01*
X160020000Y-87351364D02*
X162269636Y-89601000D01*
X59621000Y-62299000D02*
X59621000Y-44381000D01*
X58420000Y-63500000D02*
X59621000Y-62299000D01*
X175260000Y-53598189D02*
X174984166Y-53322354D01*
X99060000Y-104140000D02*
X99060000Y-90800000D01*
X78740000Y-104140000D02*
X77539000Y-102939000D01*
X45720000Y-91440000D02*
X45720000Y-83820000D01*
X99886580Y-112961000D02*
X100261000Y-112586580D01*
X154940000Y-40640000D02*
X155540000Y-40040000D01*
X98420000Y-86360000D02*
X96520000Y-88260000D01*
X99060000Y-90800000D02*
X96520000Y-88260000D01*
X162269636Y-89601000D02*
X165240529Y-89601000D01*
X48260000Y-79581529D02*
X48260000Y-81280000D01*
X160020000Y-81915000D02*
X156844301Y-78739301D01*
X78740000Y-83820000D02*
X80645000Y-85725000D01*
X171519000Y-90942529D02*
X171519000Y-92779000D01*
X99060000Y-114300000D02*
X99060000Y-112961000D01*
X113114000Y-107315000D02*
X112395000Y-108034000D01*
X114300000Y-107315000D02*
X113114000Y-107315000D01*
X100261000Y-112586580D02*
X100261000Y-110933420D01*
X174984166Y-50662166D02*
X173921000Y-49599000D01*
X78740000Y-104140000D02*
X77539000Y-105341000D01*
X170180000Y-50800000D02*
X171381000Y-49599000D01*
X173921000Y-49599000D02*
X180340000Y-43180000D01*
X80079000Y-90942529D02*
X80079000Y-91937471D01*
X156982529Y-41841000D02*
X157977471Y-41841000D01*
X171519000Y-92779000D02*
X172720000Y-93980000D01*
X175900000Y-42027580D02*
X175900000Y-40640000D01*
X174059000Y-72321000D02*
X180340000Y-66040000D01*
X99060000Y-112961000D02*
X99886580Y-112961000D01*
X58420000Y-63500000D02*
X53340000Y-68580000D01*
X77539000Y-102939000D02*
X77539000Y-95181000D01*
X173546580Y-44381000D02*
X175900000Y-42027580D01*
X174984166Y-53322354D02*
X174984166Y-50662166D01*
X80645000Y-85725000D02*
X80645000Y-90376529D01*
X80079000Y-91937471D02*
X80645000Y-92503471D01*
X81280000Y-48260000D02*
X81280000Y-53340000D01*
X76200000Y-106743570D02*
X76200000Y-111760000D01*
X78740000Y-76200000D02*
X81280000Y-73660000D01*
X171381000Y-45159000D02*
X172159000Y-44381000D01*
X175260000Y-60960000D02*
X175260000Y-53598189D01*
X126399000Y-104741000D02*
X135221000Y-104741000D01*
X112114260Y-79094260D02*
X111760000Y-78740000D01*
X172159000Y-44381000D02*
X173546580Y-44381000D01*
X156279000Y-41137471D02*
X156982529Y-41841000D01*
X100261000Y-110933420D02*
X99962000Y-110634420D01*
X80645000Y-92503471D02*
X80645000Y-92916529D01*
X77539000Y-105341000D02*
X77539000Y-105404571D01*
X59621000Y-44381000D02*
X58420000Y-43180000D01*
X59759000Y-44381000D02*
X59621000Y-44381000D01*
X53340000Y-68580000D02*
X53340000Y-75496471D01*
X156542000Y-39038000D02*
X158517000Y-37063000D01*
X99962000Y-110634420D02*
X99962000Y-106238479D01*
X78740000Y-83820000D02*
X78740000Y-76200000D01*
X76200000Y-116840000D02*
X78740000Y-114300000D01*
X101600000Y-86360000D02*
X98420000Y-86360000D01*
X45720000Y-83820000D02*
X48260000Y-81280000D01*
X115441000Y-83319000D02*
X124460000Y-83319000D01*
X156586521Y-39038000D02*
X156542000Y-39038000D01*
X171381000Y-49599000D02*
X173921000Y-49599000D01*
X131530000Y-84174260D02*
X134265740Y-84174260D01*
X167147520Y-72321000D02*
X174059000Y-72321000D01*
X124460000Y-83319000D02*
X128623960Y-83319000D01*
X109220000Y-73660000D02*
X109220000Y-78740000D01*
X81280000Y-45720000D02*
X81280000Y-45219000D01*
X165240529Y-89601000D02*
X165341529Y-89500000D01*
X51297471Y-77539000D02*
X50302529Y-77539000D01*
X80079000Y-93482529D02*
X80079000Y-93980000D01*
X170076471Y-89500000D02*
X171519000Y-90942529D01*
X135221000Y-104741000D02*
X137160000Y-106680000D01*
X77433240Y-68677240D02*
X79375000Y-70619000D01*
X158681000Y-41137471D02*
X158681000Y-40142529D01*
X104056000Y-108034000D02*
X112395000Y-108034000D01*
X60960000Y-116840000D02*
X76200000Y-116840000D01*
X124460000Y-106680000D02*
X126399000Y-104741000D01*
X109220000Y-78740000D02*
X104780000Y-83180000D01*
X99060000Y-105336480D02*
X99060000Y-104140000D01*
X180340000Y-66040000D02*
X175260000Y-60960000D01*
X58420000Y-114300000D02*
X60960000Y-116840000D01*
X156279000Y-40147520D02*
X156279000Y-41137471D01*
X158517000Y-37063000D02*
X172323000Y-37063000D01*
X81280000Y-48260000D02*
X81280000Y-45720000D01*
X167005000Y-72463520D02*
X167147520Y-72321000D01*
X156987521Y-39439000D02*
X156586521Y-39038000D01*
X104780000Y-83180000D02*
X104780000Y-83820000D01*
X167005000Y-76835000D02*
X167005000Y-72463520D01*
X157977471Y-39439000D02*
X156987521Y-39439000D01*
X83180000Y-88260000D02*
X96520000Y-88260000D01*
X77433240Y-66638240D02*
X77433240Y-68677240D01*
X160020000Y-83820000D02*
X160020000Y-81915000D01*
X101600000Y-86360000D02*
X104140000Y-83820000D01*
X63500000Y-45720000D02*
X76200000Y-45720000D01*
X134620000Y-83820000D02*
X137160000Y-83820000D01*
X155540000Y-40040000D02*
X156171480Y-40040000D01*
X53340000Y-75496471D02*
X51297471Y-77539000D01*
X104140000Y-83820000D02*
X104780000Y-83820000D01*
X60960000Y-43180000D02*
X63500000Y-45720000D01*
X81280000Y-53340000D02*
X78740000Y-53340000D01*
X157977471Y-41841000D02*
X158681000Y-41137471D01*
X158681000Y-40142529D02*
X157977471Y-39439000D01*
X165341529Y-89500000D02*
X170076471Y-89500000D01*
X114654260Y-79094260D02*
X112114260Y-79094260D01*
X171381000Y-49599000D02*
X171381000Y-45159000D01*
X81280000Y-45219000D02*
X79241000Y-43180000D01*
X77539000Y-95181000D02*
X78740000Y-93980000D01*
X132720000Y-121920000D02*
X137160000Y-117480000D01*
X172323000Y-37063000D02*
X175900000Y-40640000D01*
X134265740Y-84174260D02*
X134620000Y-83820000D01*
X156171480Y-40040000D02*
X156279000Y-40147520D01*
X50302529Y-77539000D02*
X48260000Y-79581529D01*
X160020000Y-83820000D02*
X167005000Y-76835000D01*
X80079000Y-93980000D02*
X78740000Y-93980000D01*
X128623960Y-83319000D02*
X128646220Y-83296740D01*
X76200000Y-111760000D02*
X78740000Y-114300000D01*
X77539000Y-105404571D02*
X76200000Y-106743570D01*
X80645000Y-90376529D02*
X80079000Y-90942529D01*
X78740000Y-83820000D02*
X83180000Y-88260000D01*
X114940000Y-83820000D02*
X115441000Y-83319000D01*
X160020000Y-83820000D02*
X160020000Y-87351364D01*
X80645000Y-92916529D02*
X80079000Y-93482529D01*
D25*
%TO.N,/"1"*%
X83100801Y-78189199D02*
X99610801Y-78189199D01*
X147882875Y-64629975D02*
X152233900Y-68981000D01*
X118444000Y-69485306D02*
X118444000Y-69964728D01*
X81280000Y-80010000D02*
X83100801Y-78189199D01*
X152566100Y-68981000D02*
X153035000Y-68512100D01*
X79375000Y-80010000D02*
X81280000Y-80010000D01*
X168910000Y-60325000D02*
X169276000Y-59959000D01*
X118078000Y-69119306D02*
X118444000Y-69485306D01*
X175485166Y-53114834D02*
X175485166Y-48812652D01*
X104140000Y-73660000D02*
X106379000Y-71421000D01*
X73660000Y-83820000D02*
X75565000Y-83820000D01*
X169276000Y-59959000D02*
X171010480Y-59959000D01*
X130556000Y-70231000D02*
X130678000Y-70353000D01*
X175485166Y-48812652D02*
X178188909Y-46108909D01*
X137300025Y-64629975D02*
X147882875Y-64629975D01*
X120234272Y-71755000D02*
X128905000Y-71755000D01*
X177163602Y-53340000D02*
X175710332Y-53340000D01*
X171010480Y-59959000D02*
X171450000Y-60398520D01*
X116138000Y-66742000D02*
X117751322Y-66742000D01*
X106379000Y-71421000D02*
X110872628Y-71421000D01*
X130810000Y-72390000D02*
X132080000Y-73660000D01*
X130175000Y-72390000D02*
X130810000Y-72390000D01*
X115570000Y-67310000D02*
X116138000Y-66742000D01*
X130678000Y-72258000D02*
X132080000Y-73660000D01*
X174625000Y-57785000D02*
X174625000Y-56331000D01*
X71120000Y-81280000D02*
X73660000Y-83820000D01*
X130556000Y-69850000D02*
X130556000Y-70231000D01*
X118078000Y-67068678D02*
X118078000Y-69119306D01*
X99610801Y-78189199D02*
X104140000Y-73660000D01*
X114154372Y-67310000D02*
X115570000Y-67310000D01*
X178440000Y-42540000D02*
X176965950Y-44014050D01*
X118444000Y-69964728D02*
X120234272Y-71755000D01*
X171450000Y-61296050D02*
X172170000Y-62016050D01*
X117751322Y-66742000D02*
X118078000Y-67068678D01*
X175710332Y-53340000D02*
X175485166Y-53114834D01*
X113299000Y-68165372D02*
X114154372Y-67310000D01*
X113299000Y-68994628D02*
X113299000Y-68165372D01*
X153035000Y-68512100D02*
X153035000Y-64770000D01*
X171450000Y-60398520D02*
X171450000Y-61296050D01*
X130678000Y-70353000D02*
X130678000Y-72258000D01*
X152233900Y-68981000D02*
X152566100Y-68981000D01*
X176965950Y-44014050D02*
X176965950Y-44894502D01*
X110872628Y-71421000D02*
X113299000Y-68994628D01*
%TO.N,/~{MEMW}*%
X180796050Y-42079000D02*
X181441000Y-42723950D01*
X86360000Y-41671000D02*
X85614000Y-41671000D01*
X86360000Y-40640000D02*
X86360000Y-41671000D01*
X177925372Y-42079000D02*
X180796050Y-42079000D01*
X183315339Y-82769000D02*
X182444661Y-82769000D01*
X183315339Y-59909000D02*
X184564000Y-61157661D01*
X85614000Y-41671000D02*
X83836000Y-43449000D01*
X181441000Y-83772661D02*
X181441000Y-90001000D01*
X181441000Y-42723950D02*
X181441000Y-59304661D01*
X182444661Y-82769000D02*
X181441000Y-83772661D01*
X182045339Y-59909000D02*
X183315339Y-59909000D01*
X181441000Y-90001000D02*
X182880000Y-91440000D01*
X176901000Y-41054628D02*
X177925372Y-42079000D01*
X173237628Y-36562000D02*
X176901000Y-40225372D01*
X86360000Y-40640000D02*
X90438000Y-36562000D01*
X176901000Y-40225372D02*
X176901000Y-41054628D01*
X184564000Y-61157661D02*
X184564000Y-82804000D01*
X183350339Y-82804000D02*
X183315339Y-82769000D01*
X181441000Y-59304661D02*
X182045339Y-59909000D01*
X184564000Y-82804000D02*
X183350339Y-82804000D01*
X90438000Y-36562000D02*
X173237628Y-36562000D01*
%TO.N,/~{I{slash}OW}*%
X84971000Y-39489000D02*
X84971000Y-41791000D01*
X50800000Y-53340000D02*
X53340000Y-50800000D01*
X53340000Y-45720000D02*
X59822000Y-39238000D01*
X50800000Y-53340000D02*
X49699000Y-52239000D01*
X84971000Y-41791000D02*
X82669000Y-41791000D01*
X84720000Y-39238000D02*
X84971000Y-39489000D01*
X53340000Y-50800000D02*
X53340000Y-45720000D01*
X49699000Y-44281000D02*
X50800000Y-43180000D01*
X82669000Y-41791000D02*
X81280000Y-43180000D01*
X49699000Y-52239000D02*
X49699000Y-44281000D01*
X59822000Y-39238000D02*
X84720000Y-39238000D01*
%TO.N,/~{MEMR}*%
X72677050Y-40640000D02*
X60960000Y-40640000D01*
X77739000Y-50316072D02*
X78339000Y-49716072D01*
X78339000Y-46301950D02*
X72677050Y-40640000D01*
X78339000Y-49716072D02*
X78339000Y-46301950D01*
%TO.N,/P3*%
X98038591Y-92461409D02*
X98038591Y-90556409D01*
X137160000Y-86360000D02*
X139700000Y-83820000D01*
X114846662Y-92710000D02*
X114300000Y-92710000D01*
X96520000Y-93980000D02*
X98038591Y-92461409D01*
X107315000Y-92710000D02*
X105410000Y-92710000D01*
X118110000Y-96520000D02*
X118110000Y-95973338D01*
X99695000Y-90061546D02*
X100856546Y-90061546D01*
X118110000Y-95973338D02*
X114846662Y-92710000D01*
X134620000Y-86360000D02*
X137160000Y-86360000D01*
X100856546Y-90061546D02*
X103505000Y-92710000D01*
%TO.N,/P1*%
X91440000Y-96520000D02*
X96520000Y-96520000D01*
X109855000Y-88265000D02*
X111760000Y-88265000D01*
X107331000Y-88249000D02*
X107950000Y-87630000D01*
X106061000Y-88249000D02*
X107331000Y-88249000D01*
X106045000Y-88265000D02*
X106061000Y-88249000D01*
X101600000Y-88900000D02*
X102870000Y-90170000D01*
X99695000Y-88900000D02*
X101600000Y-88900000D01*
X96520000Y-96520000D02*
X98425000Y-94615000D01*
%TO.N,/P0*%
X92309000Y-109454000D02*
X92541000Y-109686000D01*
X94779000Y-92541000D02*
X96520000Y-90800000D01*
X93587520Y-92541000D02*
X94779000Y-92541000D01*
X82719000Y-93523950D02*
X82719000Y-94436050D01*
X93587521Y-92541000D02*
X94436050Y-92541000D01*
X82719000Y-94436050D02*
X85259000Y-96976050D01*
X92541000Y-94436050D02*
X92541000Y-93587521D01*
X90001000Y-95081000D02*
X91896050Y-95081000D01*
X84742050Y-93345000D02*
X84276050Y-92879000D01*
X92541000Y-109686000D02*
X92541000Y-112216050D01*
X88900000Y-93980000D02*
X90001000Y-95081000D01*
X92541000Y-112216050D02*
X91896050Y-112861000D01*
X95081000Y-91896050D02*
X95081000Y-89363189D01*
X85259000Y-96976050D02*
X85259000Y-106680000D01*
X90015751Y-88767199D02*
X87491479Y-91291471D01*
X89457272Y-106680000D02*
X92231272Y-109454000D01*
X94436050Y-92541000D02*
X95081000Y-91896050D01*
X85437950Y-93345000D02*
X84742050Y-93345000D01*
X91896050Y-95081000D02*
X92541000Y-94436050D01*
X84276050Y-92879000D02*
X83363950Y-92879000D01*
X85903950Y-92879000D02*
X85437950Y-93345000D01*
X94485010Y-88767199D02*
X90015751Y-88767199D01*
X83363950Y-92879000D02*
X82719000Y-93523950D01*
X92541000Y-93587521D02*
X93587521Y-92541000D01*
X85259000Y-106680000D02*
X89457272Y-106680000D01*
X91896050Y-112861000D02*
X87461000Y-112861000D01*
X87491479Y-91291471D02*
X87491479Y-92140000D01*
X92541000Y-94436050D02*
X92541000Y-93587520D01*
X92231272Y-109454000D02*
X92309000Y-109454000D01*
X95081000Y-89363189D02*
X94485010Y-88767199D01*
X92541000Y-93587520D02*
X93587520Y-92541000D01*
X87491479Y-92140000D02*
X86752479Y-92879000D01*
X87461000Y-112861000D02*
X86360000Y-111760000D01*
X86752479Y-92879000D02*
X85903950Y-92879000D01*
%TO.N,/~{I{slash}OR}*%
X83820000Y-40640000D02*
X78740000Y-40640000D01*
X57319000Y-52239000D02*
X57319000Y-42723950D01*
X82819000Y-39639000D02*
X83820000Y-40640000D01*
X78740000Y-40640000D02*
X78740000Y-50800000D01*
X78740000Y-50800000D02*
X76200000Y-53340000D01*
X58420000Y-53340000D02*
X57319000Y-52239000D01*
X60403950Y-39639000D02*
X82819000Y-39639000D01*
X57319000Y-42723950D02*
X60403950Y-39639000D01*
%TO.N,Net-(D22F-A)*%
X123058000Y-107818000D02*
X123058000Y-106680000D01*
X124670718Y-104140000D02*
X125222000Y-104140000D01*
X124311359Y-104499359D02*
X124670718Y-104140000D01*
X132080000Y-108580000D02*
X130180000Y-106680000D01*
X123058000Y-105752718D02*
X124311359Y-104499359D01*
X128778000Y-104240000D02*
X129491000Y-104240000D01*
X132080000Y-111940000D02*
X132080000Y-108580000D01*
X123058000Y-106680000D02*
X123058000Y-105752718D01*
X125830000Y-104240000D02*
X128778000Y-104240000D01*
X124460000Y-109220000D02*
X123058000Y-107818000D01*
X125222000Y-104140000D02*
X125730000Y-104140000D01*
X129491000Y-104240000D02*
X129540000Y-104191000D01*
X125730000Y-104140000D02*
X125830000Y-104240000D01*
%TO.N,Net-(D22E-A)*%
X132515339Y-112991000D02*
X133131000Y-112375339D01*
X124460000Y-111760000D02*
X122781149Y-113438851D01*
X131221000Y-112991000D02*
X132515339Y-112991000D01*
X133131000Y-112375339D02*
X133131000Y-107091000D01*
X133131000Y-107091000D02*
X132720000Y-106680000D01*
X122781149Y-113438851D02*
X122552299Y-113438851D01*
%TO.N,Net-(D23A-~{R})*%
X127000000Y-114570102D02*
X130180000Y-117750102D01*
X125561000Y-121463950D02*
X125561000Y-122873000D01*
X122174000Y-108712000D02*
X122174000Y-108731100D01*
X127000000Y-106680000D02*
X126492000Y-106680000D01*
X126543950Y-120481000D02*
X125561000Y-121463950D01*
X119380000Y-111192900D02*
X119380000Y-111760000D01*
X125561000Y-122873000D02*
X124460000Y-123974000D01*
X130180000Y-117750102D02*
X130180000Y-121920000D01*
X128078000Y-106817993D02*
X128371479Y-107111472D01*
X129540000Y-107997150D02*
X129540000Y-114300000D01*
X127000000Y-114570102D02*
X128502000Y-116072102D01*
X122174000Y-108731100D02*
X122086100Y-108819000D01*
X121920000Y-116586000D02*
X121920000Y-114750000D01*
X127456050Y-120481000D02*
X126543950Y-120481000D01*
X121753900Y-108819000D02*
X119380000Y-111192900D01*
X128078000Y-106680000D02*
X128078000Y-106817993D01*
X127000000Y-114300000D02*
X127000000Y-114570102D01*
X128371479Y-107111472D02*
X128654322Y-107111472D01*
X128502000Y-119435050D02*
X127456050Y-120481000D01*
X122086100Y-108819000D02*
X121753900Y-108819000D01*
X127000000Y-106680000D02*
X128078000Y-106680000D01*
X124460000Y-123974000D02*
X122357000Y-123974000D01*
X128654322Y-107111472D02*
X129540000Y-107997150D01*
X128502000Y-116072102D02*
X128502000Y-119435050D01*
X126492000Y-106680000D02*
X125476000Y-107696000D01*
%TO.N,/D3*%
X100499000Y-52883950D02*
X101827756Y-51555194D01*
X60960000Y-68580000D02*
X68580000Y-60960000D01*
X77301000Y-60503950D02*
X77301000Y-60960000D01*
X100499000Y-53796050D02*
X100499000Y-52883950D01*
X93335050Y-60960000D02*
X100499000Y-53796050D01*
X75099000Y-60503950D02*
X75743950Y-59859000D01*
X101827756Y-51555194D02*
X112515194Y-51555194D01*
X75743950Y-59859000D02*
X76656050Y-59859000D01*
X112515194Y-51555194D02*
X114300000Y-53340000D01*
X68580000Y-60960000D02*
X75099000Y-60960000D01*
X77301000Y-60960000D02*
X93335050Y-60960000D01*
X75099000Y-60960000D02*
X75099000Y-60503950D01*
X76656050Y-59859000D02*
X77301000Y-60503950D01*
%TO.N,/D5*%
X119380000Y-50800000D02*
X121920000Y-53340000D01*
X114728776Y-50661676D02*
X114867100Y-50800000D01*
X114867100Y-50800000D02*
X119380000Y-50800000D01*
X99137850Y-50800000D02*
X99276174Y-50661676D01*
X83370000Y-51693266D02*
X83820000Y-51243266D01*
X83820000Y-51243266D02*
X83820000Y-51165855D01*
X84185855Y-50800000D02*
X99137850Y-50800000D01*
X83820000Y-51165855D02*
X84185855Y-50800000D01*
X99276174Y-50661676D02*
X114728776Y-50661676D01*
D24*
%TO.N,GND*%
X114300000Y-86360000D02*
X116840000Y-86360000D01*
X87630000Y-100330000D02*
X86360000Y-101600000D01*
X114300000Y-113099000D02*
X114300000Y-111760000D01*
X147539148Y-93345000D02*
X143109199Y-93345000D01*
X135864232Y-90889000D02*
X135610232Y-90635000D01*
X155539003Y-78740000D02*
X154940000Y-78740000D01*
X116840000Y-121920000D02*
X111760000Y-116840000D01*
X175260000Y-121920000D02*
X179887760Y-121920000D01*
X113099000Y-87561000D02*
X114300000Y-86360000D01*
X182180000Y-100530818D02*
X182180000Y-100129182D01*
X156595359Y-78138301D02*
X156431447Y-78302213D01*
X179887760Y-121920000D02*
X182078000Y-119729760D01*
X182180000Y-110447582D02*
X182180000Y-105209182D01*
X136441000Y-91440000D02*
X136441000Y-91211768D01*
X81841480Y-120650000D02*
X74930000Y-120650000D01*
X160020000Y-91440000D02*
X154940000Y-91440000D01*
X82513240Y-121321760D02*
X81841480Y-120650000D01*
X160020000Y-91440000D02*
X153601000Y-85021000D01*
X153670000Y-78740000D02*
X154940000Y-78740000D01*
X73660000Y-89535000D02*
X73025000Y-88900000D01*
X96520000Y-101600000D02*
X95250000Y-100330000D01*
X125187380Y-103137000D02*
X125934621Y-103137000D01*
X168979000Y-49461000D02*
X170180000Y-48260000D01*
X115501000Y-108019000D02*
X120580999Y-108019000D01*
X143109199Y-93345000D02*
X143109199Y-93658232D01*
X96520000Y-109220000D02*
X96520000Y-101600000D01*
X181629000Y-101081818D02*
X182180000Y-100530818D01*
X128270000Y-102870000D02*
X129540000Y-101600000D01*
X135121000Y-90162000D02*
X135121000Y-89955446D01*
X87561000Y-121560529D02*
X87561000Y-122417471D01*
X109671891Y-85113421D02*
X110559000Y-86000529D01*
X120580999Y-108019000D02*
X121920000Y-106679999D01*
X181629000Y-97038182D02*
X181629000Y-96001818D01*
X174059000Y-87699000D02*
X177800000Y-91440000D01*
X182180000Y-114549479D02*
X182180000Y-111430310D01*
X86360000Y-93980000D02*
X86360000Y-101600000D01*
X154940000Y-91440000D02*
X153670000Y-92710000D01*
X181629000Y-102118182D02*
X181629000Y-101081818D01*
X181979000Y-110648582D02*
X182180000Y-110447582D01*
X113099000Y-123121000D02*
X114300000Y-121920000D01*
X175260000Y-82121529D02*
X176461000Y-83322529D01*
X172720000Y-62796471D02*
X170677471Y-64839000D01*
X142279967Y-93931000D02*
X139925430Y-93931000D01*
X181979000Y-111229310D02*
X181979000Y-110648582D01*
X106680000Y-86360000D02*
X107926579Y-85113421D01*
X93980000Y-111760000D02*
X96520000Y-109220000D01*
X143109199Y-93658232D02*
X142786431Y-93981000D01*
X148174148Y-92710000D02*
X147539148Y-93345000D01*
X126201621Y-102870000D02*
X128270000Y-102870000D01*
X172720000Y-81280000D02*
X175260000Y-81280000D01*
X155861771Y-78189000D02*
X155539003Y-78511768D01*
X130118000Y-85159000D02*
X128201000Y-85159000D01*
X139065000Y-93345000D02*
X137160000Y-91440000D01*
X181629000Y-104658182D02*
X181629000Y-103621818D01*
X64701000Y-86995000D02*
X64701000Y-80782529D01*
X87699000Y-92641000D02*
X92779000Y-92641000D01*
X153670000Y-92710000D02*
X148174148Y-92710000D01*
X54011760Y-76163240D02*
X51435000Y-78740000D01*
X168979000Y-66537471D02*
X168695764Y-66254236D01*
X127000000Y-123051370D02*
X125507370Y-124544000D01*
X169682529Y-64839000D02*
X168979000Y-65542529D01*
X68082529Y-90101000D02*
X67241000Y-89259472D01*
X113802529Y-115501000D02*
X113099000Y-114797471D01*
X62658471Y-78740000D02*
X60960000Y-78740000D01*
X182180000Y-102669182D02*
X181629000Y-102118182D01*
X175260000Y-81280000D02*
X175260000Y-82121529D01*
X176530000Y-85090000D02*
X176530000Y-85228000D01*
X95181000Y-123121000D02*
X113099000Y-123121000D01*
X123394621Y-103603000D02*
X123880621Y-103117000D01*
X96520000Y-119380000D02*
X96520000Y-114300000D01*
X135121000Y-89955446D02*
X132661554Y-87496000D01*
X172720000Y-60960000D02*
X171381000Y-59621000D01*
X181629000Y-98541818D02*
X182180000Y-97990818D01*
X156318235Y-78189000D02*
X155861771Y-78189000D01*
X155539003Y-78511768D02*
X155539003Y-78740000D01*
X111760000Y-115501000D02*
X113802529Y-115501000D01*
X171381000Y-52000999D02*
X169682528Y-52000999D01*
X69919000Y-90101000D02*
X68082529Y-90101000D01*
X132661554Y-87496000D02*
X132455000Y-87496000D01*
X64701000Y-80782529D02*
X62658471Y-78740000D01*
X176530000Y-85228000D02*
X174059000Y-87699000D01*
X132455000Y-87496000D02*
X130118000Y-85159000D01*
X106285423Y-79953577D02*
X105278949Y-80960051D01*
X51435000Y-78740000D02*
X50800000Y-78740000D01*
X114300000Y-109220000D02*
X115501000Y-108019000D01*
X75262000Y-104229470D02*
X73660000Y-105831470D01*
X118041000Y-85159000D02*
X116840000Y-86360000D01*
X107926579Y-85113421D02*
X109671891Y-85113421D01*
X92710000Y-120650000D02*
X88471529Y-120650000D01*
X129540000Y-99060000D02*
X137160000Y-91440000D01*
X122848480Y-103603000D02*
X123394621Y-103603000D01*
X174059000Y-87699000D02*
X172858000Y-88900000D01*
X111760000Y-116840000D02*
X111760000Y-115501000D01*
X73660000Y-105831470D02*
X73660000Y-106680000D01*
X71120000Y-88900000D02*
X73025000Y-88900000D01*
X181629000Y-96001818D02*
X181948979Y-95681839D01*
X74930000Y-120650000D02*
X73660000Y-121920000D01*
X110559000Y-86000529D02*
X110559000Y-86857471D01*
X182180000Y-97589182D02*
X181629000Y-97038182D01*
X86857471Y-123121000D02*
X83322529Y-123121000D01*
X78740000Y-101600000D02*
X81280000Y-101600000D01*
X135610232Y-90635000D02*
X135594000Y-90635000D01*
X169682528Y-52000999D02*
X168979000Y-51297471D01*
X157093243Y-78138301D02*
X156595359Y-78138301D01*
X171381000Y-59621000D02*
X171381000Y-52000999D01*
X168695764Y-66254236D02*
X156952471Y-77997529D01*
X172858000Y-88900000D02*
X162560000Y-88900000D01*
X82513240Y-122311711D02*
X82513240Y-121321760D01*
X92779000Y-92641000D02*
X93980000Y-91440000D01*
X182180000Y-100129182D02*
X181629000Y-99578182D01*
X168979000Y-65542529D02*
X168979000Y-66537471D01*
X181629000Y-99578182D02*
X181629000Y-98541818D01*
X67241000Y-89259472D02*
X67241000Y-88402529D01*
X142786431Y-93981000D02*
X142329967Y-93981000D01*
X136441000Y-91211768D02*
X136118232Y-90889000D01*
X105278949Y-80960051D02*
X104459949Y-80960051D01*
X73660000Y-89535000D02*
X74502520Y-89535000D01*
X113099000Y-114797471D02*
X113099000Y-113802529D01*
X182180000Y-111430310D02*
X181979000Y-111229310D01*
X153601000Y-78809000D02*
X153670000Y-78740000D01*
X129540000Y-101600000D02*
X129540000Y-99060000D01*
X168979000Y-51297471D02*
X168979000Y-49461000D01*
X156952471Y-77997529D02*
X157093243Y-78138301D01*
X170677471Y-64839000D02*
X169682529Y-64839000D01*
X114300000Y-111760000D02*
X114300000Y-109220000D01*
X75262000Y-90294480D02*
X75262000Y-104229470D01*
X95250000Y-100330000D02*
X87630000Y-100330000D01*
X83322529Y-123121000D02*
X82513240Y-122311711D01*
X65405000Y-87699000D02*
X64701000Y-86995000D01*
X139339430Y-93345000D02*
X139065000Y-93345000D01*
X181948979Y-95681839D02*
X177800000Y-91532860D01*
X93980000Y-121920000D02*
X92710000Y-120650000D01*
X66537470Y-87699000D02*
X65405000Y-87699000D01*
X93980000Y-121920000D02*
X95181000Y-123121000D01*
X181629000Y-103621818D02*
X182180000Y-103070818D01*
X71120000Y-88900000D02*
X69919000Y-90101000D01*
X113802529Y-113099000D02*
X114300000Y-113099000D01*
X114384000Y-124544000D02*
X114300000Y-124460000D01*
X121920000Y-106679999D02*
X121920000Y-104531480D01*
X153601000Y-85021000D02*
X153601000Y-78809000D01*
X156431447Y-78302213D02*
X156318235Y-78189000D01*
X106927948Y-79953577D02*
X106285423Y-79953577D01*
X182180000Y-105209182D02*
X181629000Y-104658182D01*
X93980000Y-121920000D02*
X96520000Y-119380000D01*
X87561000Y-122417471D02*
X86857471Y-123121000D01*
X111262529Y-87561000D02*
X113099000Y-87561000D01*
X74502520Y-89535000D02*
X75262000Y-90294480D01*
X137160000Y-91440000D02*
X136441000Y-91440000D01*
X86360000Y-93980000D02*
X83820000Y-93980000D01*
X104459949Y-80960051D02*
X104140000Y-81280000D01*
X113099000Y-113802529D02*
X113802529Y-113099000D01*
X86360000Y-93980000D02*
X87699000Y-92641000D01*
X125167379Y-103117000D02*
X125187380Y-103137000D01*
X125934621Y-103137000D02*
X126201621Y-102870000D01*
X136118232Y-90889000D02*
X135864232Y-90889000D01*
X176109236Y-84669236D02*
X176530000Y-85090000D01*
X96520000Y-114300000D02*
X93980000Y-111760000D01*
X139925430Y-93931000D02*
X139339430Y-93345000D01*
X128201000Y-85159000D02*
X118041000Y-85159000D01*
X88471529Y-120650000D02*
X87561000Y-121560529D01*
X121920000Y-104531480D02*
X122848480Y-103603000D01*
X127000000Y-121920000D02*
X127000000Y-123051370D01*
X67241000Y-88402529D02*
X66537470Y-87699000D01*
X176461000Y-83322529D02*
X176461000Y-84317471D01*
X177800000Y-91532860D02*
X177800000Y-91440000D01*
X172720000Y-60960000D02*
X172720000Y-62796471D01*
X123880621Y-103117000D02*
X125167379Y-103117000D01*
X135594000Y-90635000D02*
X135121000Y-90162000D01*
X182180000Y-103070818D02*
X182180000Y-102669182D01*
X116840000Y-121920000D02*
X114300000Y-121920000D01*
X182078000Y-119729760D02*
X182078000Y-114651480D01*
X182180000Y-97990818D02*
X182180000Y-97589182D01*
X110559000Y-86857471D02*
X111262529Y-87561000D01*
X176461000Y-84317471D02*
X176109236Y-84669236D01*
X125507370Y-124544000D02*
X114384000Y-124544000D01*
X142329967Y-93981000D02*
X142279967Y-93931000D01*
X182078000Y-114651480D02*
X182180000Y-114549479D01*
X132080000Y-81280000D02*
X128201000Y-85159000D01*
D25*
%TO.N,/A1*%
X82719000Y-73203950D02*
X83363950Y-72559000D01*
X88443950Y-67479000D02*
X92879000Y-67479000D01*
X87948199Y-77788199D02*
X86391149Y-77788199D01*
X92879000Y-67479000D02*
X93980000Y-68580000D01*
X87799000Y-68123950D02*
X88443950Y-67479000D01*
X87799000Y-69036050D02*
X87799000Y-68123950D01*
X86391149Y-77788199D02*
X82719000Y-74116050D01*
X82719000Y-74116050D02*
X82719000Y-73203950D01*
X84276050Y-72559000D02*
X87799000Y-69036050D01*
X83363950Y-72559000D02*
X84276050Y-72559000D01*
%TO.N,/A8*%
X114300000Y-81280000D02*
X115401000Y-80179000D01*
X115401000Y-80179000D02*
X115401000Y-69681000D01*
X115401000Y-69681000D02*
X114300000Y-68580000D01*
%TO.N,/~{WR}*%
X77410201Y-50007060D02*
X77410201Y-48446335D01*
X77410201Y-48446335D02*
X77596536Y-48260000D01*
X77604072Y-48267536D02*
X77881464Y-48267536D01*
X60960000Y-50800000D02*
X62110003Y-51950003D01*
X83363950Y-47159000D02*
X85259000Y-47159000D01*
X77881464Y-48267536D02*
X77889000Y-48260000D01*
X85259000Y-47159000D02*
X86360000Y-48260000D01*
X77288000Y-50502883D02*
X77288000Y-50129261D01*
X77288000Y-50129261D02*
X77410201Y-50007060D01*
X77003625Y-51950003D02*
X77552189Y-51401439D01*
X77552189Y-51401439D02*
X77552189Y-50767072D01*
X77596536Y-48260000D02*
X77604072Y-48267536D01*
X77552189Y-50767072D02*
X77288000Y-50502883D01*
X62110003Y-51950003D02*
X77003625Y-51950003D01*
%TO.N,/A6*%
X108119000Y-69681000D02*
X109220000Y-68580000D01*
X88900000Y-73660000D02*
X87799000Y-74761000D01*
X85903950Y-74761000D02*
X85259000Y-74116050D01*
X85259000Y-73203950D02*
X88781950Y-69681000D01*
X88781950Y-69681000D02*
X108119000Y-69681000D01*
X87799000Y-74761000D02*
X85903950Y-74761000D01*
X85259000Y-74116050D02*
X85259000Y-73203950D01*
%TO.N,/D4*%
X81736050Y-54441000D02*
X82381000Y-53796050D01*
X64939000Y-54441000D02*
X81736050Y-54441000D01*
X83321324Y-49859676D02*
X122860324Y-49859676D01*
X122860324Y-49859676D02*
X124460000Y-48260000D01*
X82381000Y-53796050D02*
X82381000Y-50800000D01*
X60960000Y-58420000D02*
X64939000Y-54441000D01*
X82381000Y-50800000D02*
X83321324Y-49859676D01*
%TO.N,/D0*%
X84276050Y-69681000D02*
X84921000Y-69036050D01*
X76200000Y-78740000D02*
X77301000Y-77639000D01*
X92234050Y-64601000D02*
X92879000Y-63956050D01*
X88781950Y-64601000D02*
X92234050Y-64601000D01*
X97621000Y-62399000D02*
X106680000Y-53340000D01*
X92879000Y-63956050D02*
X92879000Y-63043950D01*
X77301000Y-77639000D02*
X77301000Y-75743950D01*
X92879000Y-63043950D02*
X93523950Y-62399000D01*
X93523950Y-62399000D02*
X97621000Y-62399000D01*
X84921000Y-69036050D02*
X84921000Y-68461950D01*
X84921000Y-68461950D02*
X88781950Y-64601000D01*
X77301000Y-75743950D02*
X83363950Y-69681000D01*
X83363950Y-69681000D02*
X84276050Y-69681000D01*
%TO.N,/D7*%
X114562676Y-51062676D02*
X116840000Y-53340000D01*
X67479000Y-56981000D02*
X94774050Y-56981000D01*
X97959000Y-53796050D02*
X97959000Y-52545950D01*
X94774050Y-56981000D02*
X97959000Y-53796050D01*
X60960000Y-63500000D02*
X67479000Y-56981000D01*
X97959000Y-52545950D02*
X99442274Y-51062676D01*
X99442274Y-51062676D02*
X114562676Y-51062676D01*
%TO.N,/A10*%
X133350000Y-72856000D02*
X130979000Y-70485000D01*
X130175000Y-75565000D02*
X132080000Y-75565000D01*
X133350000Y-74295000D02*
X133350000Y-72856000D01*
X124460000Y-81280000D02*
X130175000Y-75565000D01*
X130979000Y-54779000D02*
X129540000Y-53340000D01*
X132080000Y-75565000D02*
X133350000Y-74295000D01*
X130979000Y-70485000D02*
X130979000Y-54779000D01*
%TO.N,/D6*%
X120937050Y-50800000D02*
X123021000Y-52883950D01*
X84019755Y-50399000D02*
X98971750Y-50399000D01*
X83370000Y-50800000D02*
X83618755Y-50800000D01*
X120481000Y-54441000D02*
X119380000Y-53340000D01*
X123021000Y-53796050D02*
X122376050Y-54441000D01*
X83618755Y-50800000D02*
X84019755Y-50399000D01*
X119947100Y-50800000D02*
X120937050Y-50800000D01*
X99110074Y-50260676D02*
X114894876Y-50260676D01*
X114894876Y-50260676D02*
X115033200Y-50399000D01*
X123021000Y-52883950D02*
X123021000Y-53796050D01*
X119546100Y-50399000D02*
X119947100Y-50800000D01*
X115033200Y-50399000D02*
X119546100Y-50399000D01*
X122376050Y-54441000D02*
X120481000Y-54441000D01*
X98971750Y-50399000D02*
X99110074Y-50260676D01*
%TO.N,/A12*%
X124059000Y-70719000D02*
X129706100Y-70719000D01*
X127567100Y-73660000D02*
X127000000Y-73660000D01*
X129941000Y-71286100D02*
X127567100Y-73660000D01*
X121920000Y-68580000D02*
X124059000Y-70719000D01*
X129706100Y-70719000D02*
X129941000Y-70953900D01*
X129941000Y-70953900D02*
X129941000Y-71286100D01*
%TO.N,/A9*%
X117941000Y-69681000D02*
X116840000Y-68580000D01*
X116840000Y-81280000D02*
X117941000Y-80179000D01*
X117941000Y-80179000D02*
X117941000Y-69681000D01*
%TO.N,/A2*%
X97909997Y-74810003D02*
X97909997Y-73063442D01*
X97909997Y-73063442D02*
X96416555Y-71570000D01*
X96520000Y-76200000D02*
X97909997Y-74810003D01*
%TO.N,/C1*%
X83820000Y-63500000D02*
X83820000Y-68580000D01*
%TO.N,/DBIN*%
X78290000Y-55880000D02*
X86360000Y-55880000D01*
X86360000Y-55880000D02*
X88900000Y-53340000D01*
%TO.N,/D2*%
X105579000Y-53796050D02*
X105579000Y-52883950D01*
X105579000Y-52883950D02*
X106223950Y-52239000D01*
X103495050Y-55880000D02*
X105579000Y-53796050D01*
X99475850Y-55880000D02*
X103495050Y-55880000D01*
X110659000Y-52239000D02*
X111760000Y-53340000D01*
X92956850Y-62399000D02*
X99475850Y-55880000D01*
X72221000Y-62399000D02*
X92956850Y-62399000D01*
X60960000Y-73660000D02*
X72221000Y-62399000D01*
X106223950Y-52239000D02*
X110659000Y-52239000D01*
%TO.N,/A7*%
X88900000Y-71120000D02*
X109220000Y-71120000D01*
X86360000Y-73660000D02*
X88900000Y-71120000D01*
X109220000Y-71120000D02*
X111760000Y-68580000D01*
%TO.N,/DB3*%
X118377000Y-125396000D02*
X146809678Y-125396000D01*
X173111050Y-123424000D02*
X174159000Y-122376050D01*
X117408000Y-126365000D02*
X118377000Y-125396000D01*
X66040000Y-106680000D02*
X64770000Y-107950000D01*
X88622778Y-126365000D02*
X117408000Y-126365000D01*
X85809644Y-127334000D02*
X86778644Y-126365000D01*
X174159000Y-107781000D02*
X175260000Y-106680000D01*
X167473900Y-123424000D02*
X173111050Y-123424000D01*
X147110678Y-125095000D02*
X161925000Y-125095000D01*
X67141000Y-80823950D02*
X67141000Y-87461000D01*
X165009272Y-123524000D02*
X167373900Y-123524000D01*
X172720000Y-86360000D02*
X162560000Y-86360000D01*
X167373900Y-123524000D02*
X167473900Y-123424000D01*
X164799000Y-123768222D02*
X164799000Y-123734272D01*
X59898028Y-127334000D02*
X85809644Y-127334000D01*
X87974222Y-126298000D02*
X88555778Y-126298000D01*
X86778644Y-126365000D02*
X87907222Y-126365000D01*
X164039322Y-124460000D02*
X164506422Y-123992900D01*
X164506422Y-123992900D02*
X164574322Y-123992900D01*
X162560000Y-124460000D02*
X164039322Y-124460000D01*
X174159000Y-122376050D02*
X174159000Y-107781000D01*
X64770000Y-107950000D02*
X61085972Y-107950000D01*
X88555778Y-126298000D02*
X88622778Y-126365000D01*
X67141000Y-87461000D02*
X68580000Y-88900000D01*
X65057050Y-78740000D02*
X64638000Y-78740000D01*
X147320000Y-86810000D02*
X147320000Y-83820000D01*
X65057050Y-78740000D02*
X67141000Y-80823950D01*
X146809678Y-125396000D02*
X147110678Y-125095000D01*
X164574322Y-123992900D02*
X164799000Y-123768222D01*
X61085972Y-107950000D02*
X50800000Y-118235972D01*
X87907222Y-126365000D02*
X87974222Y-126298000D01*
X164799000Y-123734272D02*
X165009272Y-123524000D01*
X161925000Y-125095000D02*
X162560000Y-124460000D01*
X50800000Y-118235972D02*
X59898028Y-127334000D01*
%TO.N,/AB8*%
X110659000Y-97959000D02*
X111760000Y-99060000D01*
X110659000Y-93980000D02*
X110659000Y-97959000D01*
X111760000Y-99060000D02*
X117971372Y-99060000D01*
X117971372Y-99060000D02*
X119380000Y-100468628D01*
X119380000Y-100468628D02*
X119380000Y-101600000D01*
%TO.N,/AB9*%
X105793850Y-85122000D02*
X103962372Y-85122000D01*
X108119000Y-101143950D02*
X108119000Y-102056050D01*
X108763950Y-102701000D02*
X115739000Y-102701000D01*
X108497850Y-82418000D02*
X105793850Y-85122000D01*
X108119000Y-102056050D02*
X108763950Y-102701000D01*
X104140000Y-89154000D02*
X104140000Y-97164950D01*
X103139000Y-85945372D02*
X103139000Y-88153000D01*
X103962372Y-85122000D02*
X103139000Y-85945372D01*
X115739000Y-102701000D02*
X116840000Y-101600000D01*
X103139000Y-88153000D02*
X104140000Y-89154000D01*
X104140000Y-97164950D02*
X108119000Y-101143950D01*
X118242000Y-82418000D02*
X108497850Y-82418000D01*
X119380000Y-81280000D02*
X118242000Y-82418000D01*
%TO.N,/AB12*%
X144780000Y-121920000D02*
X143679000Y-123021000D01*
X131719000Y-122334628D02*
X131719000Y-118722002D01*
X123359000Y-110659000D02*
X121920000Y-109220000D01*
X108663950Y-82819000D02*
X123359000Y-82819000D01*
X128101000Y-115104002D02*
X128101000Y-113843950D01*
X105266475Y-86216475D02*
X108663950Y-82819000D01*
X109220000Y-101600000D02*
X104590000Y-96970000D01*
X124916050Y-110659000D02*
X123359000Y-110659000D01*
X104590000Y-96970000D02*
X104590000Y-87325628D01*
X127456050Y-113199000D02*
X127456050Y-112861000D01*
X123359000Y-82819000D02*
X123359000Y-79841000D01*
X125899000Y-112216050D02*
X125899000Y-111303950D01*
X126543950Y-112861000D02*
X125899000Y-112216050D01*
X104590000Y-87325628D02*
X105266475Y-86649153D01*
X132405372Y-123021000D02*
X131719000Y-122334628D01*
X123359000Y-79841000D02*
X129540000Y-73660000D01*
X105266475Y-86649153D02*
X105266475Y-86216475D01*
X110560863Y-105085137D02*
X111760000Y-106284274D01*
X128101000Y-113843950D02*
X127456050Y-113199000D01*
X125561000Y-111303950D02*
X124916050Y-110659000D01*
X125899000Y-111303950D02*
X125561000Y-111303950D01*
X127456050Y-112861000D02*
X126543950Y-112861000D01*
X131719000Y-118722002D02*
X128101000Y-115104002D01*
X143679000Y-123021000D02*
X132405372Y-123021000D01*
%TO.N,/R4*%
X156464000Y-107696000D02*
X156464000Y-97536000D01*
X142240000Y-121920000D02*
X156464000Y-107696000D01*
X156464000Y-97536000D02*
X162560000Y-91440000D01*
%TO.N,/R3*%
X164711091Y-66428909D02*
X164711091Y-68191091D01*
X148844000Y-94530000D02*
X148802000Y-94530000D01*
X170180000Y-60960000D02*
X164711091Y-66428909D01*
X148802000Y-94530000D02*
X138176000Y-105156000D01*
X138176000Y-105156000D02*
X139700000Y-106680000D01*
%TO.N,/AB4*%
X91121801Y-89218199D02*
X88900000Y-91440000D01*
X94298199Y-89218199D02*
X91121801Y-89218199D01*
%TO.N,/AB1*%
X88443950Y-82381000D02*
X87461000Y-83363950D01*
X96887904Y-85852000D02*
X97519043Y-86483139D01*
X96012000Y-85852000D02*
X96887904Y-85852000D01*
X94436050Y-80179000D02*
X95081000Y-80823950D01*
X91440000Y-81280000D02*
X92541000Y-80179000D01*
X90339000Y-82381000D02*
X88443950Y-82381000D01*
X87461000Y-83363950D02*
X87461000Y-85671182D01*
X86772182Y-86360000D02*
X83820000Y-86360000D01*
X87461000Y-85671182D02*
X86772182Y-86360000D01*
X95081000Y-84921000D02*
X96012000Y-85852000D01*
X95081000Y-80823950D02*
X95081000Y-84921000D01*
X92541000Y-80179000D02*
X94436050Y-80179000D01*
X91440000Y-81280000D02*
X90339000Y-82381000D01*
%TO.N,/DB7*%
X141965975Y-65130975D02*
X149225000Y-72390000D01*
X160726409Y-76271409D02*
X159456409Y-76271409D01*
X128539000Y-53878000D02*
X128539000Y-52596262D01*
X105278000Y-53671372D02*
X105278000Y-52759272D01*
X58538050Y-64939000D02*
X57963950Y-64939000D01*
X59959000Y-63085372D02*
X59959000Y-68994628D01*
X59859000Y-63618050D02*
X58538050Y-64939000D01*
X103370372Y-55579000D02*
X105278000Y-53671372D01*
X60960000Y-60960000D02*
X60960000Y-61942950D01*
X57963950Y-64939000D02*
X55880000Y-67022950D01*
X61374628Y-69581000D02*
X68994628Y-61961000D01*
X168275000Y-81915000D02*
X170180000Y-81915000D01*
X128796262Y-52339000D02*
X130283738Y-52339000D01*
X60960000Y-62084372D02*
X59959000Y-63085372D01*
X59959000Y-68994628D02*
X60545372Y-69581000D01*
X131280000Y-53335262D02*
X131280000Y-59318471D01*
X68994628Y-61961000D02*
X92969172Y-61961000D01*
X55880000Y-76200000D02*
X50800000Y-81280000D01*
X105278000Y-52759272D02*
X106099272Y-51938000D01*
X114483000Y-55062000D02*
X127355000Y-55062000D01*
X60960000Y-60960000D02*
X60960000Y-62084372D01*
X59859000Y-63043950D02*
X59859000Y-63618050D01*
X112761000Y-53340000D02*
X114483000Y-55062000D01*
X106099272Y-51938000D02*
X111773628Y-51938000D01*
X99351172Y-55579000D02*
X103370372Y-55579000D01*
X92969172Y-61961000D02*
X99351172Y-55579000D01*
X128539000Y-52596262D02*
X128796262Y-52339000D01*
X137092504Y-65130975D02*
X141965975Y-65130975D01*
X55880000Y-67022950D02*
X55880000Y-76200000D01*
X127355000Y-55062000D02*
X128539000Y-53878000D01*
X111773628Y-51938000D02*
X112761000Y-52925372D01*
X170180000Y-83820000D02*
X170180000Y-81915000D01*
X60545372Y-69581000D02*
X61374628Y-69581000D01*
X131280000Y-59318471D02*
X137092504Y-65130975D01*
X60960000Y-61942950D02*
X59859000Y-63043950D01*
X161290000Y-76835000D02*
X160726409Y-76271409D01*
X130283738Y-52339000D02*
X131280000Y-53335262D01*
X112761000Y-52925372D02*
X112761000Y-53340000D01*
%TO.N,/~{RD}*%
X166370000Y-126365000D02*
X167214322Y-126365000D01*
X167214322Y-126365000D02*
X169119322Y-124460000D01*
X184819000Y-98459000D02*
X182880000Y-96520000D01*
X184819000Y-118840322D02*
X184819000Y-98459000D01*
X179199322Y-124460000D02*
X184819000Y-118840322D01*
X169119322Y-124460000D02*
X179199322Y-124460000D01*
%TO.N,/AB5*%
X129941000Y-107972472D02*
X128579000Y-106610472D01*
X168478000Y-53069100D02*
X168478000Y-49253479D01*
X125492525Y-99568000D02*
X125492525Y-98822525D01*
X169079000Y-48652480D02*
X169079000Y-47803950D01*
X154662372Y-69982000D02*
X155520728Y-69982000D01*
X135382000Y-91245100D02*
X135382000Y-91186000D01*
X143764000Y-83820000D02*
X143764000Y-83058000D01*
X122952525Y-98535475D02*
X123223050Y-98806000D01*
X97933000Y-88895182D02*
X102050000Y-93012182D01*
X94694000Y-86360000D02*
X95275703Y-86941703D01*
X97933000Y-88534000D02*
X97933000Y-88895182D01*
X105951547Y-91440000D02*
X107130000Y-91440000D01*
X137996247Y-89302495D02*
X138164742Y-89134000D01*
X143764000Y-84137306D02*
X143764000Y-83820000D01*
X127821100Y-98806000D02*
X135382000Y-91245100D01*
X93980000Y-86360000D02*
X94694000Y-86360000D01*
X138164742Y-89134000D02*
X138767306Y-89134000D01*
X169079000Y-47803950D02*
X169892950Y-46990000D01*
X144272000Y-80372372D02*
X154662372Y-69982000D01*
X168478000Y-49253479D02*
X169079000Y-48652480D01*
X125476000Y-98806000D02*
X126017050Y-98806000D01*
X133982189Y-116390000D02*
X129941000Y-112348811D01*
X159367968Y-62179132D02*
X168478000Y-53069100D01*
X129941000Y-112348811D02*
X129941000Y-107972472D01*
X125492525Y-101600000D02*
X125492525Y-99568000D01*
X102050000Y-93012182D02*
X102050000Y-96520000D01*
X134620000Y-116390000D02*
X133982189Y-116390000D01*
X144272000Y-81894000D02*
X144272000Y-80372372D01*
X126017050Y-98806000D02*
X127821100Y-98806000D01*
X125492525Y-102166525D02*
X125492525Y-101600000D01*
X123223050Y-98806000D02*
X125476000Y-98806000D01*
X159367968Y-66134760D02*
X159367968Y-62179132D01*
X155520728Y-69982000D02*
X159367968Y-66134760D01*
X95275703Y-86941703D02*
X96573589Y-86941703D01*
X125492525Y-98822525D02*
X125476000Y-98806000D01*
X113368050Y-88951000D02*
X107265396Y-88951000D01*
X125561000Y-102235000D02*
X125492525Y-102166525D01*
X122952525Y-98535475D02*
X113368050Y-88951000D01*
X169892950Y-46990000D02*
X170831000Y-46990000D01*
X138767306Y-89134000D02*
X143764000Y-84137306D01*
%TO.N,/AB7*%
X160020000Y-38100000D02*
X170817811Y-38100000D01*
X102636000Y-117475000D02*
X111617182Y-117475000D01*
X158581000Y-103039000D02*
X158581000Y-110659000D01*
X86995000Y-97790000D02*
X88265000Y-99060000D01*
X161058000Y-100317375D02*
X161058000Y-100562000D01*
X121920000Y-117822950D02*
X121920000Y-119380000D01*
X152400000Y-68580000D02*
X152400000Y-40640000D01*
X157734000Y-80518000D02*
X156186699Y-78970699D01*
X161058000Y-100562000D02*
X158581000Y-103039000D01*
X156186699Y-78836696D02*
X156090003Y-78740000D01*
X97959000Y-109753900D02*
X97558000Y-110154900D01*
X97558000Y-114922150D02*
X99809850Y-117174000D01*
X97558000Y-110154900D02*
X97558000Y-114922150D01*
X102068900Y-117074000D02*
X102401100Y-117074000D01*
X88265000Y-99060000D02*
X96520000Y-99060000D01*
X97959000Y-100499000D02*
X97959000Y-109753900D01*
X111617182Y-117475000D02*
X113911091Y-119768909D01*
X152400000Y-40640000D02*
X154940000Y-38100000D01*
X102401100Y-117074000D02*
X102636000Y-117308900D01*
X170817811Y-38100000D02*
X173171000Y-40453189D01*
X166089000Y-95286375D02*
X161058000Y-100317375D01*
X158581000Y-110659000D02*
X147320000Y-121920000D01*
X99809850Y-117174000D02*
X101968900Y-117174000D01*
X101968900Y-117174000D02*
X102068900Y-117074000D01*
X119523525Y-115426475D02*
X121920000Y-117822950D01*
X102636000Y-117308900D02*
X102636000Y-117475000D01*
X96520000Y-99060000D02*
X97959000Y-100499000D01*
X173171000Y-42729000D02*
X172720000Y-43180000D01*
X173171000Y-40453189D02*
X173171000Y-42729000D01*
X166089000Y-92879000D02*
X166089000Y-95286375D01*
X156186699Y-78970699D02*
X156186699Y-78836696D01*
%TO.N,/AB10*%
X124460000Y-93980000D02*
X121920000Y-91440000D01*
X121920000Y-91440000D02*
X121920000Y-88900000D01*
%TO.N,/AB6*%
X161021000Y-107094628D02*
X161021000Y-106265372D01*
X170594628Y-70119000D02*
X169765372Y-70119000D01*
X146685000Y-125095000D02*
X149860000Y-121920000D01*
X88747456Y-126064000D02*
X116840000Y-126064000D01*
X87782544Y-126064000D02*
X87849544Y-125997000D01*
X169765372Y-70119000D02*
X169179000Y-70705372D01*
X56116000Y-113345650D02*
X56116000Y-122636360D01*
X149860000Y-121920000D02*
X160528000Y-111252000D01*
X172720000Y-69969997D02*
X172570997Y-70119000D01*
X169179000Y-70866000D02*
X167894000Y-70866000D01*
X117809000Y-125095000D02*
X146685000Y-125095000D01*
X166539000Y-95403475D02*
X166539000Y-90653000D01*
X175810000Y-54060000D02*
X176177000Y-53693000D01*
X172570997Y-70119000D02*
X172305372Y-70119000D01*
X161359000Y-100686678D02*
X161359000Y-100583475D01*
X86653966Y-126064000D02*
X87782544Y-126064000D01*
X76588000Y-93980000D02*
X76588000Y-104529817D01*
X88680456Y-125997000D02*
X88747456Y-126064000D01*
X68580000Y-109220000D02*
X60241650Y-109220000D01*
X177399000Y-53741000D02*
X178401749Y-52738251D01*
X172305372Y-70119000D02*
X171719000Y-70705372D01*
X60241650Y-109220000D02*
X56116000Y-113345650D01*
X161359000Y-100583475D02*
X166539000Y-95403475D01*
X166539000Y-90653000D02*
X167141000Y-90051000D01*
X176578000Y-53741000D02*
X177399000Y-53741000D01*
X87849544Y-125997000D02*
X88680456Y-125997000D01*
X171719000Y-70705372D02*
X171719000Y-70866000D01*
X167894000Y-70866000D02*
X165100000Y-73660000D01*
X176177000Y-53693000D02*
X176530000Y-53693000D01*
X180340000Y-63500000D02*
X175810000Y-58970000D01*
X160528000Y-107587628D02*
X161021000Y-107094628D01*
X169179000Y-70705372D02*
X169179000Y-70866000D01*
X161021000Y-106265372D02*
X159258000Y-104502372D01*
X159258000Y-104502372D02*
X159258000Y-102787678D01*
X171181000Y-70866000D02*
X171181000Y-70705372D01*
X171181000Y-70705372D02*
X170594628Y-70119000D01*
X160528000Y-111252000D02*
X160528000Y-107587628D01*
X85684966Y-127033000D02*
X86653966Y-126064000D01*
X159258000Y-102787678D02*
X161359000Y-100686678D01*
X56116000Y-122636360D02*
X60512640Y-127033000D01*
X171719000Y-70866000D02*
X171181000Y-70866000D01*
X176530000Y-53693000D02*
X176578000Y-53741000D01*
X60512640Y-127033000D02*
X85684966Y-127033000D01*
X116840000Y-126064000D02*
X117809000Y-125095000D01*
X175810000Y-58970000D02*
X175810000Y-54060000D01*
%TO.N,/AB0*%
X142558199Y-93430000D02*
X140132950Y-93430000D01*
X116384812Y-83820000D02*
X124411000Y-83820000D01*
X107130000Y-78740000D02*
X106495000Y-79375000D01*
X85725000Y-79375000D02*
X83820000Y-81280000D01*
X134419814Y-88545740D02*
X132869074Y-86995000D01*
X136151900Y-88545740D02*
X134419814Y-88545740D01*
X116384812Y-83820000D02*
X115383812Y-84821000D01*
X106495000Y-79375000D02*
X85725000Y-79375000D01*
X140132950Y-93430000D02*
X138261000Y-91558050D01*
X132662520Y-86995000D02*
X132080000Y-86412480D01*
X126951000Y-83820000D02*
X127293699Y-84162699D01*
X124411000Y-83820000D02*
X126951000Y-83820000D01*
X132869074Y-86995000D02*
X132662520Y-86995000D01*
X132080000Y-86412480D02*
X132080000Y-84996021D01*
X115383812Y-84821000D02*
X110221000Y-84821000D01*
X110221000Y-84821000D02*
X109220000Y-83820000D01*
X138261000Y-91558050D02*
X138261000Y-90654840D01*
X138261000Y-90654840D02*
X136151900Y-88545740D01*
%TO.N,/AB13*%
X124460000Y-96520000D02*
X119380000Y-91440000D01*
%TO.N,/DB4*%
X143629952Y-93846000D02*
X140320952Y-97155000D01*
X67041000Y-92441000D02*
X66040000Y-91440000D01*
X151631000Y-93211000D02*
X148381668Y-93211000D01*
X119380000Y-98425000D02*
X113618050Y-92663050D01*
X81915000Y-95250000D02*
X78247818Y-95250000D01*
X105785447Y-91841000D02*
X105410000Y-91465553D01*
X69850000Y-90947818D02*
X69850000Y-91585628D01*
X87701409Y-94197037D02*
X87701409Y-93416409D01*
X81412000Y-92578000D02*
X81280000Y-92710000D01*
X140320952Y-97155000D02*
X132715000Y-97155000D01*
X148381668Y-93211000D02*
X147746668Y-93846000D01*
X78247818Y-95250000D02*
X78176409Y-95321409D01*
X113082097Y-91440000D02*
X112681097Y-91841000D01*
X112681097Y-91841000D02*
X105785447Y-91841000D01*
X171174265Y-94974265D02*
X167640000Y-91440000D01*
X101883900Y-96921000D02*
X99695000Y-94732100D01*
X172720000Y-106680000D02*
X172720000Y-104000000D01*
X84958000Y-92578000D02*
X81412000Y-92578000D01*
X113618050Y-92663050D02*
X113618050Y-91975953D01*
X171174265Y-102454265D02*
X171174265Y-94974265D01*
X172720000Y-104000000D02*
X171174265Y-102454265D01*
X167640000Y-95250000D02*
X163195000Y-99695000D01*
X102216100Y-96921000D02*
X101883900Y-96921000D01*
X153035000Y-94615000D02*
X151631000Y-93211000D01*
X70556409Y-90241409D02*
X69850000Y-90947818D01*
X99695000Y-94732100D02*
X99695000Y-92710000D01*
X113618050Y-91975953D02*
X113082097Y-91440000D01*
X105410000Y-91465553D02*
X105410000Y-91440000D01*
X147746668Y-93846000D02*
X143629952Y-93846000D01*
X90659372Y-97155000D02*
X87701409Y-94197037D01*
X156845000Y-94615000D02*
X153035000Y-94615000D01*
X102870000Y-93345000D02*
X102870000Y-96267100D01*
X68994628Y-92441000D02*
X67041000Y-92441000D01*
X167640000Y-91440000D02*
X167640000Y-95250000D01*
X93345000Y-97155000D02*
X90659372Y-97155000D01*
X69850000Y-91585628D02*
X68994628Y-92441000D01*
X102870000Y-96267100D02*
X102216100Y-96921000D01*
X85090000Y-92710000D02*
X84958000Y-92578000D01*
%TO.N,/AB2*%
X117941000Y-103039000D02*
X117941000Y-101143950D01*
X104902000Y-90424000D02*
X105156000Y-90170000D01*
X117296050Y-100499000D02*
X108686100Y-100499000D01*
X96940207Y-86540703D02*
X95300381Y-86540703D01*
X104902000Y-93472000D02*
X104902000Y-92202000D01*
X107843000Y-98405000D02*
X107843000Y-96413000D01*
X95300381Y-86540703D02*
X94103678Y-85344000D01*
X92726525Y-84090525D02*
X92726525Y-83295475D01*
X88900000Y-86360000D02*
X90457050Y-86360000D01*
X100838000Y-87376000D02*
X98298000Y-87376000D01*
X116840000Y-104140000D02*
X117941000Y-103039000D01*
X104902000Y-92202000D02*
X104902000Y-90424000D01*
X97200843Y-86801339D02*
X97060504Y-86661000D01*
X94103678Y-85344000D02*
X93472000Y-85344000D01*
X90457050Y-86360000D02*
X92726525Y-84090525D01*
X97060504Y-86661000D02*
X96940207Y-86540703D01*
X107217550Y-99030450D02*
X107843000Y-98405000D01*
X92726525Y-83295475D02*
X93218000Y-82804000D01*
X103632000Y-90170000D02*
X100838000Y-87376000D01*
X108686100Y-100499000D02*
X107217550Y-99030450D01*
X97060504Y-86661000D02*
X96859986Y-86661000D01*
X107843000Y-96413000D02*
X104902000Y-93472000D01*
X117941000Y-101143950D02*
X117296050Y-100499000D01*
%TO.N,/DB2*%
X63914628Y-90439000D02*
X64501000Y-91025372D01*
X52070000Y-95885000D02*
X49699001Y-98255999D01*
X62499000Y-90439000D02*
X63914628Y-90439000D01*
X165100000Y-105529997D02*
X164692953Y-105529997D01*
X64501000Y-91806000D02*
X65405000Y-92710000D01*
X163999000Y-113199000D02*
X172720000Y-121920000D01*
X61015050Y-82782000D02*
X62061000Y-81736050D01*
X49699001Y-118279001D02*
X60706000Y-129286000D01*
X65405000Y-95885000D02*
X52070000Y-95885000D01*
X49699001Y-98255999D02*
X49699001Y-118279001D01*
X160909000Y-129286000D02*
X161925000Y-128270000D01*
X62061000Y-81092650D02*
X63147151Y-80006499D01*
X167640000Y-128270000D02*
X170180000Y-125730000D01*
X163999000Y-106223950D02*
X163999000Y-113199000D01*
X64501000Y-91025372D02*
X64501000Y-91806000D01*
X161925000Y-128270000D02*
X167640000Y-128270000D01*
X60960000Y-88900000D02*
X62499000Y-90439000D01*
X60706000Y-129286000D02*
X160909000Y-129286000D01*
X60960000Y-82782000D02*
X61015050Y-82782000D01*
X62061000Y-81736050D02*
X62061000Y-81092650D01*
X164692953Y-105529997D02*
X163999000Y-106223950D01*
%TO.N,/DB1*%
X138261000Y-76666000D02*
X138261000Y-84833322D01*
X149098000Y-88900000D02*
X147320000Y-88900000D01*
X51901000Y-90983950D02*
X51901000Y-91896050D01*
X47803950Y-92541000D02*
X47159000Y-91896050D01*
X75099000Y-75099000D02*
X76200000Y-76200000D01*
X106963900Y-78339000D02*
X108119000Y-78339000D01*
X52239000Y-81736050D02*
X52239000Y-80823950D01*
X51256050Y-92541000D02*
X47803950Y-92541000D01*
X52239000Y-80823950D02*
X57963950Y-75099000D01*
X137088591Y-75493591D02*
X138261000Y-76666000D01*
X166489997Y-105837828D02*
X165342169Y-104690000D01*
X57963950Y-75099000D02*
X75099000Y-75099000D01*
X84455000Y-79375000D02*
X84756000Y-79074000D01*
X166489997Y-106680000D02*
X166489997Y-105837828D01*
X138004322Y-85090000D02*
X137160000Y-85090000D01*
X58420000Y-88900000D02*
X56981000Y-90339000D01*
X138261000Y-84833322D02*
X138004322Y-85090000D01*
X56981000Y-90339000D02*
X52545950Y-90339000D01*
X147320000Y-88900000D02*
X146685000Y-89535000D01*
X47159000Y-86816050D02*
X52239000Y-81736050D01*
X51901000Y-91896050D02*
X51256050Y-92541000D01*
X106228900Y-79074000D02*
X106963900Y-78339000D01*
X47159000Y-91896050D02*
X47159000Y-86816050D01*
X52545950Y-90339000D02*
X51901000Y-90983950D01*
X84756000Y-79074000D02*
X106228900Y-79074000D01*
X108119000Y-78339000D02*
X108375025Y-78595025D01*
%TO.N,/DB5*%
X164297811Y-94431000D02*
X163011000Y-94431000D01*
X63500000Y-74295000D02*
X66675000Y-71120000D01*
X118379000Y-66944000D02*
X117876000Y-66441000D01*
X162560000Y-84970003D02*
X162152953Y-84970003D01*
X81280000Y-71120000D02*
X76200000Y-71120000D01*
X118379000Y-68994628D02*
X118379000Y-66944000D01*
X120024950Y-71120000D02*
X118745000Y-69840050D01*
X164338000Y-93639900D02*
X164512000Y-93813900D01*
X157480000Y-82550000D02*
X157480000Y-83820000D01*
X164512000Y-93813900D02*
X164512000Y-94146100D01*
X129540000Y-71120000D02*
X120024950Y-71120000D01*
X168275000Y-103505000D02*
X168233199Y-103546801D01*
X88499000Y-66441000D02*
X87173175Y-67766825D01*
X118745000Y-69840050D02*
X118745000Y-69360628D01*
X118745000Y-69360628D02*
X118379000Y-68994628D01*
X117876000Y-66441000D02*
X88499000Y-66441000D01*
X163011000Y-94431000D02*
X162560000Y-93980000D01*
X162152953Y-84970003D02*
X161674594Y-84491644D01*
X168233199Y-103546801D02*
X168233199Y-104733199D01*
X168233199Y-104733199D02*
X170180000Y-106680000D01*
X164512000Y-94146100D02*
X164338000Y-94320100D01*
X154940000Y-80010000D02*
X157480000Y-82550000D01*
X164338000Y-93377701D02*
X164338000Y-93639900D01*
X164338000Y-94390811D02*
X164297811Y-94431000D01*
X66675000Y-71120000D02*
X76200000Y-71120000D01*
X164338000Y-94320100D02*
X164338000Y-94390811D01*
%TO.N,/ARR17*%
X119295000Y-110321000D02*
X119395000Y-110221000D01*
X122470000Y-104690000D02*
X123056000Y-104104000D01*
X117941000Y-112216050D02*
X117941000Y-111303950D01*
X124979866Y-103638000D02*
X124979871Y-103638005D01*
X125187392Y-103638000D02*
X126142142Y-103638000D01*
X119794628Y-110221000D02*
X120381000Y-109634628D01*
X124088141Y-103618000D02*
X124959859Y-103618000D01*
X117941000Y-111303950D02*
X118923950Y-110321000D01*
X122274259Y-107230000D02*
X122470000Y-107034259D01*
X126142142Y-103638000D02*
X126409141Y-103371000D01*
X120381000Y-109235000D02*
X122274259Y-107341741D01*
X114300000Y-114300000D02*
X115739000Y-112861000D01*
X138905950Y-107781000D02*
X141139000Y-107781000D01*
X119395000Y-110221000D02*
X119794628Y-110221000D01*
X138261000Y-107136050D02*
X138905950Y-107781000D01*
X122274259Y-107341741D02*
X122274259Y-107230000D01*
X117296050Y-112861000D02*
X117941000Y-112216050D01*
X128724521Y-103124000D02*
X135161050Y-103124000D01*
X123056000Y-104104000D02*
X123602142Y-104104000D01*
X122470000Y-107034259D02*
X122470000Y-104690000D01*
X135161050Y-103124000D02*
X138261000Y-106223950D01*
X128477520Y-103371000D02*
X128724521Y-103124000D01*
X126409141Y-103371000D02*
X128477520Y-103371000D01*
X138261000Y-106223950D02*
X138261000Y-107136050D01*
X120381000Y-109634628D02*
X120381000Y-109235000D01*
X124979859Y-103638000D02*
X124979866Y-103638000D01*
X124979871Y-103638005D02*
X125187392Y-103638000D01*
X118923950Y-110321000D02*
X119295000Y-110321000D01*
X115739000Y-112861000D02*
X117296050Y-112861000D01*
X124959859Y-103618000D02*
X124979859Y-103638000D01*
X123602142Y-104104000D02*
X124088141Y-103618000D01*
X141139000Y-107781000D02*
X142240000Y-106680000D01*
%TO.N,/~{WE_628512}*%
X99610000Y-101685000D02*
X99610000Y-102235000D01*
X93345000Y-102870000D02*
X88267577Y-102870000D01*
X105141000Y-101966000D02*
X105141000Y-100061000D01*
X115570000Y-103505000D02*
X115204000Y-103139000D01*
X102235000Y-99060000D02*
X99610000Y-101685000D01*
X105141000Y-100061000D02*
X104775000Y-99695000D01*
X106314000Y-103139000D02*
X105141000Y-101966000D01*
X88267577Y-102870000D02*
X87630000Y-102870000D01*
X87630000Y-102870000D02*
X87173175Y-102413175D01*
X115204000Y-103139000D02*
X106314000Y-103139000D01*
%TO.N,/DB6*%
X154482851Y-79908500D02*
X154539000Y-79908500D01*
X163661000Y-90983950D02*
X163661000Y-93530000D01*
X154795325Y-80291003D02*
X156845000Y-82340678D01*
X163661000Y-93530000D02*
X164111000Y-93980000D01*
X156845000Y-82340678D02*
X156845000Y-85080050D01*
X154539000Y-79908500D02*
X154539000Y-80056103D01*
X84463554Y-65405000D02*
X86278445Y-65405000D01*
X166243169Y-104140000D02*
X166243169Y-104689999D01*
X60379272Y-77338000D02*
X61794900Y-77338000D01*
X84459277Y-65409277D02*
X84463554Y-65405000D01*
X87979348Y-66040000D02*
X129990000Y-66040000D01*
X59558000Y-78159272D02*
X60379272Y-77338000D01*
X142240000Y-66040000D02*
X132080000Y-66040000D01*
X154151000Y-79576649D02*
X154482851Y-79908500D01*
X166243169Y-104689999D02*
X167640000Y-106086830D01*
X73660000Y-68580000D02*
X76200000Y-66040000D01*
X162779050Y-90102000D02*
X163661000Y-90983950D01*
X154539000Y-80056103D02*
X154773900Y-80291003D01*
X61794900Y-77338000D02*
X63567900Y-75565000D01*
X167640000Y-106086830D02*
X167640000Y-106680000D01*
X59558000Y-80142000D02*
X59558000Y-78159272D01*
X161866950Y-90102000D02*
X162779050Y-90102000D01*
X63567900Y-75565000D02*
X73660000Y-75565000D01*
X81730000Y-66040000D02*
X76200000Y-66040000D01*
X86278445Y-65405000D02*
X86810000Y-65936555D01*
X156845000Y-85080050D02*
X161866950Y-90102000D01*
X154773900Y-80291003D02*
X154795325Y-80291003D01*
X58420000Y-81280000D02*
X59558000Y-80142000D01*
%TO.N,/DB0*%
X59773350Y-127635000D02*
X85934322Y-127635000D01*
X54779000Y-84921000D02*
X50800000Y-88900000D01*
X146934356Y-125697000D02*
X147235356Y-125396000D01*
X54779000Y-80823950D02*
X54779000Y-84921000D01*
X88431100Y-126599000D02*
X88531100Y-126699000D01*
X119747000Y-125697000D02*
X146934356Y-125697000D01*
X85934322Y-127635000D02*
X86569322Y-127000000D01*
X50800000Y-106680000D02*
X50000001Y-107479999D01*
X165100000Y-123892900D02*
X165100000Y-123858950D01*
X50000001Y-117861651D02*
X59773350Y-127635000D01*
X164699000Y-124293900D02*
X165100000Y-123892900D01*
X165133950Y-123825000D02*
X167640000Y-123825000D01*
X118745000Y-126699000D02*
X119747000Y-125697000D01*
X87864000Y-126833900D02*
X88098900Y-126599000D01*
X164631100Y-124293900D02*
X164699000Y-124293900D01*
X60960000Y-76200000D02*
X59859000Y-77301000D01*
X163830000Y-125095000D02*
X164631100Y-124293900D01*
X58301950Y-77301000D02*
X54779000Y-80823950D01*
X88098900Y-126599000D02*
X88431100Y-126599000D01*
X162049678Y-125396000D02*
X162350678Y-125095000D01*
X87864000Y-127000000D02*
X87864000Y-126833900D01*
X59859000Y-77301000D02*
X58301950Y-77301000D01*
X86569322Y-127000000D02*
X87864000Y-127000000D01*
X165100000Y-123858950D02*
X165133950Y-123825000D01*
X162350678Y-125095000D02*
X163830000Y-125095000D01*
X88531100Y-126699000D02*
X118745000Y-126699000D01*
X147235356Y-125396000D02*
X162049678Y-125396000D01*
X50000001Y-107479999D02*
X50000001Y-117861651D01*
%TO.N,/ARR18*%
X115739000Y-116889003D02*
X115689997Y-116840000D01*
X117449052Y-118432002D02*
X117296050Y-118279000D01*
X120481000Y-118923950D02*
X119498050Y-117941000D01*
X106680000Y-115570000D02*
X108284000Y-117174000D01*
X108284000Y-117174000D02*
X110487930Y-117174000D01*
X106680000Y-114300000D02*
X106680000Y-115570000D01*
X117296050Y-118279000D02*
X117296050Y-117941000D01*
X115739000Y-117296050D02*
X115739000Y-116889003D01*
X120481000Y-119380000D02*
X120481000Y-118923950D01*
X119498050Y-117941000D02*
X118854650Y-117941000D01*
X118854650Y-117941000D02*
X118566825Y-117653175D01*
X116383950Y-117941000D02*
X115739000Y-117296050D01*
X117296050Y-117941000D02*
X116383950Y-117941000D01*
X110487930Y-117174000D02*
X111210000Y-116451930D01*
X118110000Y-118432002D02*
X117449052Y-118432002D01*
%TO.N,/AB3*%
X124426950Y-108204000D02*
X128083838Y-108204000D01*
X104891000Y-89401000D02*
X104891000Y-88110218D01*
X107136050Y-87461000D02*
X108161954Y-86435096D01*
X107662481Y-82353147D02*
X107950000Y-82353147D01*
X128150003Y-108137835D02*
X128150003Y-109220000D01*
X123021000Y-100458660D02*
X111963340Y-89401000D01*
X90339000Y-79984950D02*
X90545950Y-79778000D01*
X105540218Y-87461000D02*
X107136050Y-87461000D01*
X111963340Y-89401000D02*
X104891000Y-89401000D01*
X100098000Y-79778000D02*
X101600000Y-81280000D01*
X104891000Y-88110218D02*
X105540218Y-87461000D01*
X128083838Y-108204000D02*
X128150003Y-108137835D01*
X124675633Y-104702185D02*
X123359000Y-106018818D01*
X90545950Y-79778000D02*
X100098000Y-79778000D01*
X123359000Y-106018818D02*
X123359000Y-107136050D01*
X104297810Y-84821000D02*
X105194628Y-84821000D01*
X123359000Y-107136050D02*
X124426950Y-108204000D01*
X123021000Y-102701000D02*
X123021000Y-100458660D01*
X104107314Y-84630504D02*
X104297810Y-84821000D01*
X108161954Y-86435096D02*
X108161954Y-85664421D01*
X105194628Y-84821000D02*
X107662481Y-82353147D01*
%TO.N,/HLDA*%
X109676050Y-72559000D02*
X108763950Y-72559000D01*
X99461000Y-106446000D02*
X98425000Y-105410000D01*
X109220000Y-81280000D02*
X110321000Y-80179000D01*
X110321000Y-80179000D02*
X110321000Y-73203950D01*
X102549950Y-78773000D02*
X83787000Y-78773000D01*
X83787000Y-78773000D02*
X81280000Y-81280000D01*
X110321000Y-73203950D02*
X109676050Y-72559000D01*
X99461000Y-111359000D02*
X99461000Y-106446000D01*
X103039000Y-78283950D02*
X102549950Y-78773000D01*
X99060000Y-111760000D02*
X99461000Y-111359000D01*
X108763950Y-72559000D02*
X103039000Y-78283950D01*
%TO.N,/STSTB*%
X185420000Y-91440000D02*
X185420000Y-84221000D01*
X65439000Y-36161000D02*
X63500000Y-38100000D01*
X175623000Y-36161000D02*
X65439000Y-36161000D01*
X184603900Y-84221000D02*
X184369000Y-83986100D01*
X184369000Y-83653900D02*
X184865000Y-83157900D01*
X184865000Y-45403000D02*
X175623000Y-36161000D01*
X184865000Y-83157900D02*
X184865000Y-45403000D01*
X182880000Y-93980000D02*
X185420000Y-91440000D01*
X185420000Y-84221000D02*
X184603900Y-84221000D01*
X184369000Y-83986100D02*
X184369000Y-83653900D01*
%TO.N,/~{RESET}*%
X84958000Y-106804678D02*
X85134322Y-106981000D01*
X93980000Y-109220000D02*
X93345000Y-109855000D01*
X84958000Y-100833000D02*
X83185000Y-99060000D01*
X84958000Y-106045000D02*
X84958000Y-100833000D01*
X110622000Y-112898000D02*
X102902000Y-112898000D01*
X84958000Y-106045000D02*
X84958000Y-106804678D01*
X102902000Y-112898000D02*
X102902000Y-110522000D01*
X89201000Y-106981000D02*
X92075000Y-109855000D01*
X85134322Y-106981000D02*
X89201000Y-106981000D01*
X102902000Y-110522000D02*
X102870000Y-110490000D01*
X111760000Y-111760000D02*
X110622000Y-112898000D01*
%TO.N,/Q5*%
X73025000Y-100330000D02*
X67945000Y-95250000D01*
X93345000Y-99695000D02*
X87487182Y-99695000D01*
X67945000Y-95250000D02*
X63500000Y-95250000D01*
X87487182Y-99695000D02*
X86923591Y-100258591D01*
%TO.N,Net-(D5B-A)*%
X51901000Y-89356050D02*
X51256050Y-90001000D01*
X74528802Y-123923000D02*
X74096802Y-123491000D01*
X91097178Y-123222000D02*
X90396178Y-123923000D01*
X113863198Y-123491000D02*
X113431198Y-123923000D01*
X122376050Y-113899000D02*
X122965950Y-113899000D01*
X61797406Y-123491000D02*
X61665406Y-123623000D01*
X114300000Y-117990003D02*
X114300000Y-115712049D01*
X52545950Y-87799000D02*
X51901000Y-88443950D01*
X60254594Y-123623000D02*
X60122594Y-123491000D01*
X117251728Y-123491000D02*
X113863198Y-123491000D01*
X113431198Y-123923000D02*
X94848802Y-123923000D01*
X125561000Y-119836050D02*
X124916050Y-120481000D01*
X117552728Y-123190000D02*
X117251728Y-123491000D01*
X126543950Y-115739000D02*
X127456050Y-115739000D01*
X60122594Y-123491000D02*
X57679162Y-123491000D01*
X124003950Y-113199000D02*
X124916050Y-113199000D01*
X59859000Y-78283950D02*
X59859000Y-81736050D01*
X121294950Y-123190000D02*
X117552728Y-123190000D01*
X94848802Y-123923000D02*
X94247802Y-123322000D01*
X59859000Y-81736050D02*
X53796050Y-87799000D01*
X124916050Y-120481000D02*
X124003950Y-120481000D01*
X114756050Y-115401000D02*
X115401000Y-114756050D01*
X114303529Y-115708521D02*
X114303529Y-115401000D01*
X56517000Y-113511750D02*
X57631750Y-112397000D01*
X93399272Y-123322000D02*
X92933272Y-122856000D01*
X77038000Y-105197050D02*
X77038000Y-82118000D01*
X92933272Y-122856000D02*
X92345306Y-122856000D01*
X91979306Y-123222000D02*
X91097178Y-123222000D01*
X57378162Y-123190000D02*
X57236740Y-123190000D01*
X90396178Y-123923000D02*
X74528802Y-123923000D01*
X121676050Y-113199000D02*
X122376050Y-113899000D01*
X69838050Y-112397000D02*
X77038000Y-105197050D01*
X57679162Y-123491000D02*
X57378162Y-123190000D01*
X125561000Y-114756050D02*
X126543950Y-115739000D01*
X117941000Y-114181950D02*
X118923950Y-113199000D01*
X127456050Y-115739000D02*
X128101000Y-116383950D01*
X56517000Y-122470260D02*
X56517000Y-113511750D01*
X124003950Y-120481000D02*
X121294950Y-123190000D01*
X115401000Y-114756050D02*
X116383950Y-115739000D01*
X114300000Y-115712049D02*
X114303529Y-115708521D01*
X128101000Y-116383950D02*
X128101000Y-117296050D01*
X57236740Y-123190000D02*
X56517000Y-122470260D01*
X74096802Y-123491000D02*
X61797406Y-123491000D01*
X116383950Y-115739000D02*
X116925000Y-115739000D01*
X61665406Y-123623000D02*
X60254594Y-123623000D01*
X117941000Y-114723000D02*
X117941000Y-114181950D01*
X49699000Y-90001000D02*
X48260000Y-91440000D01*
X125561000Y-118923950D02*
X125561000Y-119836050D01*
X128101000Y-117296050D02*
X127456050Y-117941000D01*
X72559000Y-77639000D02*
X60503950Y-77639000D01*
X125561000Y-113843950D02*
X125561000Y-114756050D01*
X123487849Y-113377101D02*
X123825849Y-113377101D01*
X51901000Y-88443950D02*
X51901000Y-89356050D01*
X116925000Y-115739000D02*
X117941000Y-114723000D01*
X77038000Y-82118000D02*
X72559000Y-77639000D01*
X114303529Y-115401000D02*
X114756050Y-115401000D01*
X124916050Y-113199000D02*
X125561000Y-113843950D01*
X51256050Y-90001000D02*
X49699000Y-90001000D01*
X53796050Y-87799000D02*
X52545950Y-87799000D01*
X127456050Y-117941000D02*
X126543950Y-117941000D01*
X57631750Y-112397000D02*
X69838050Y-112397000D01*
X94247802Y-123322000D02*
X93399272Y-123322000D01*
X60503950Y-77639000D02*
X59859000Y-78283950D01*
X123825849Y-113377101D02*
X124003950Y-113199000D01*
X126543950Y-117941000D02*
X125561000Y-118923950D01*
X118923950Y-113199000D02*
X121676050Y-113199000D01*
X92345306Y-122856000D02*
X91979306Y-123222000D01*
X122965950Y-113899000D02*
X123487849Y-113377101D01*
%TO.N,/Q6*%
X71053000Y-93412000D02*
X71120000Y-93345000D01*
X60392000Y-93412000D02*
X71053000Y-93412000D01*
X90302000Y-97790000D02*
X90871000Y-98359000D01*
X73660000Y-94615000D02*
X74295000Y-93980000D01*
X88900000Y-97790000D02*
X90302000Y-97790000D01*
X58420000Y-91440000D02*
X60392000Y-93412000D01*
%TO.N,Net-(D2B-A)*%
X87799000Y-104596050D02*
X90343975Y-107141025D01*
X70485000Y-94615000D02*
X47337950Y-94615000D01*
X86801483Y-102750003D02*
X87799000Y-103747520D01*
X90343975Y-107141025D02*
X95508975Y-107141025D01*
X47159000Y-81672480D02*
X47159000Y-80823950D01*
X47159000Y-80823950D02*
X47759000Y-80223950D01*
X51901000Y-42394840D02*
X51901000Y-49699000D01*
X47337950Y-94615000D02*
X44619000Y-91896050D01*
X73660000Y-91440000D02*
X70485000Y-94615000D01*
X51901000Y-49699000D02*
X50800000Y-50800000D01*
X44619000Y-91896050D02*
X44619000Y-90983950D01*
X73698800Y-99060000D02*
X73025000Y-98386200D01*
X45219000Y-90383950D02*
X45219000Y-83612480D01*
X86360000Y-102750003D02*
X86801483Y-102750003D01*
X73025000Y-98386200D02*
X73025000Y-92075000D01*
X105410000Y-110490000D02*
X106680000Y-111760000D01*
X51585160Y-42079000D02*
X51901000Y-42394840D01*
X95508975Y-107141025D02*
X95970000Y-106680000D01*
X48260000Y-43833840D02*
X50014840Y-42079000D01*
X45219000Y-83612480D02*
X47159000Y-81672480D01*
X47759000Y-79374008D02*
X48260000Y-78873009D01*
X44619000Y-90983950D02*
X45219000Y-90383950D01*
X47759000Y-80223950D02*
X47759000Y-79374008D01*
X73025000Y-92075000D02*
X73660000Y-91440000D01*
X50014840Y-42079000D02*
X51585160Y-42079000D01*
X87799000Y-103747520D02*
X87799000Y-104596050D01*
X48260000Y-78873009D02*
X48260000Y-43833840D01*
%TO.N,Net-(D11-~{EO})*%
X52839000Y-64001000D02*
X58420000Y-58420000D01*
X52839000Y-71621000D02*
X52839000Y-64001000D01*
X50800000Y-73660000D02*
X52839000Y-71621000D01*
%TO.N,/Q7*%
X71755000Y-93980000D02*
X71755000Y-98425000D01*
X81280000Y-114300000D02*
X81280000Y-116840000D01*
X182880000Y-88900000D02*
X183931000Y-89951000D01*
X79375000Y-99695000D02*
X80010000Y-99060000D01*
X81280000Y-116840000D02*
X86360000Y-121920000D01*
X169244000Y-124761000D02*
X167005000Y-127000000D01*
X185120000Y-97273661D02*
X185120000Y-118965000D01*
X85725000Y-125095000D02*
X86360000Y-124460000D01*
X181829000Y-93106661D02*
X181829000Y-94853339D01*
X182444661Y-95469000D02*
X183315339Y-95469000D01*
X167005000Y-127000000D02*
X88265000Y-127000000D01*
X183931000Y-91875339D02*
X183315339Y-92491000D01*
X182444661Y-92491000D02*
X181829000Y-93106661D01*
X183315339Y-92491000D02*
X182444661Y-92491000D01*
X85725000Y-126365000D02*
X85725000Y-125095000D01*
X183931000Y-89951000D02*
X183931000Y-91875339D01*
X183315339Y-95469000D02*
X185120000Y-97273661D01*
X53340000Y-91440000D02*
X55880000Y-93980000D01*
X71755000Y-98425000D02*
X74295000Y-100965000D01*
X185120000Y-118965000D02*
X179324000Y-124761000D01*
X179324000Y-124761000D02*
X169244000Y-124761000D01*
X181829000Y-94853339D02*
X182444661Y-95469000D01*
X55880000Y-93980000D02*
X70485000Y-93980000D01*
X80010000Y-99060000D02*
X81915000Y-99060000D01*
%TO.N,/~{D15_CS1}*%
X142716678Y-93029000D02*
X142901678Y-92844000D01*
X101331000Y-103139000D02*
X101600000Y-102870000D01*
X140881000Y-93129000D02*
X142292099Y-93129000D01*
X142292099Y-93129000D02*
X142392099Y-93029000D01*
X148321000Y-91025372D02*
X151262000Y-88084372D01*
X142901678Y-92844000D02*
X147331628Y-92844000D01*
X154062480Y-77639000D02*
X156041000Y-77639000D01*
X102870000Y-106680000D02*
X107315000Y-106680000D01*
X107950000Y-105636968D02*
X108054031Y-105740999D01*
X107950000Y-104140000D02*
X107950000Y-105636968D01*
X156041000Y-77639000D02*
X170180000Y-63500000D01*
X148321000Y-91854628D02*
X148321000Y-91025372D01*
X151262000Y-88084372D02*
X151262000Y-80439480D01*
X142392099Y-93029000D02*
X142716678Y-93029000D01*
X94748182Y-103371818D02*
X95820000Y-103371818D01*
X151262000Y-80439480D02*
X154062480Y-77639000D01*
X93980000Y-104140000D02*
X94748182Y-103371818D01*
X140589000Y-92837000D02*
X140881000Y-93129000D01*
X121920000Y-95250000D02*
X120650000Y-95250000D01*
X120650000Y-95250000D02*
X118110000Y-92710000D01*
X99964000Y-103139000D02*
X101331000Y-103139000D01*
X147331628Y-92844000D02*
X148321000Y-91854628D01*
X99695000Y-102870000D02*
X99964000Y-103139000D01*
%TO.N,/~{RAM_MAIN}*%
X169029997Y-63092953D02*
X169944297Y-62178653D01*
X140801000Y-83363950D02*
X154483950Y-69681000D01*
X179790000Y-111210000D02*
X179790000Y-111760000D01*
X136525000Y-87630000D02*
X137727100Y-87630000D01*
X177800000Y-109220000D02*
X179790000Y-111210000D01*
X156041000Y-69036050D02*
X156041000Y-64601000D01*
X169944297Y-62178653D02*
X171577998Y-62178653D01*
X140801000Y-84556100D02*
X140801000Y-83363950D01*
X137727100Y-87630000D02*
X140801000Y-84556100D01*
X155396050Y-69681000D02*
X156041000Y-69036050D01*
X154483950Y-69681000D02*
X155396050Y-69681000D01*
X169029997Y-63500000D02*
X169029997Y-63092953D01*
X171577998Y-62178653D02*
X172068999Y-62669654D01*
X156041000Y-64601000D02*
X154940000Y-63500000D01*
%TO.N,/~{CC00_VI53_1}*%
X170180000Y-77350003D02*
X171569997Y-77350003D01*
X171569997Y-77350003D02*
X172720000Y-76200000D01*
%TO.N,/~{CS_SRAM_8000}*%
X181879000Y-70119000D02*
X178547000Y-70119000D01*
X174498000Y-77216000D02*
X172129678Y-77216000D01*
X182880000Y-71120000D02*
X181879000Y-70119000D01*
X178547000Y-70119000D02*
X176784000Y-71882000D01*
X172129678Y-77216000D02*
X171495675Y-77850003D01*
X173721000Y-96396628D02*
X169179000Y-91854628D01*
X169179000Y-91854628D02*
X169179000Y-90731962D01*
X169179000Y-90731962D02*
X168497038Y-90050000D01*
X173721000Y-110124000D02*
X173721000Y-96396628D01*
X171495675Y-77850003D02*
X171219000Y-77850003D01*
X171450000Y-112395000D02*
X173721000Y-110124000D01*
%TO.N,/~{CA00_PPI3}*%
X180216628Y-74661000D02*
X181341000Y-75785372D01*
X168275000Y-72871000D02*
X168275000Y-73170628D01*
X168275000Y-73170628D02*
X169765372Y-74661000D01*
X169765372Y-74661000D02*
X180216628Y-74661000D01*
X181341000Y-79741000D02*
X182880000Y-81280000D01*
X181341000Y-75785372D02*
X181341000Y-79741000D01*
%TO.N,/R0*%
X155354628Y-72121000D02*
X159668968Y-67806660D01*
X144780000Y-87917050D02*
X144780000Y-84921000D01*
X140801000Y-90339000D02*
X142358050Y-90339000D01*
X153727950Y-73456422D02*
X155063372Y-72121000D01*
X145881000Y-83363950D02*
X145558525Y-83041475D01*
X153727950Y-74872050D02*
X153727950Y-73456422D01*
X142358050Y-90339000D02*
X144780000Y-87917050D01*
X145881000Y-84276050D02*
X145881000Y-83363950D01*
X159668968Y-63851032D02*
X170180000Y-53340000D01*
X145236050Y-84921000D02*
X145881000Y-84276050D01*
X159668968Y-67806660D02*
X159668968Y-63851032D01*
X139700000Y-91440000D02*
X140801000Y-90339000D01*
X145558525Y-83041475D02*
X153727950Y-74872050D01*
X155063372Y-72121000D02*
X155354628Y-72121000D01*
X144780000Y-84921000D02*
X145236050Y-84921000D01*
%TO.N,/~{F700}*%
X173821000Y-66825160D02*
X173821000Y-54441000D01*
X172720000Y-50800000D02*
X172720000Y-53340000D01*
X170180000Y-68580000D02*
X171619000Y-67141000D01*
X171619000Y-67141000D02*
X173505160Y-67141000D01*
X173821000Y-54441000D02*
X172720000Y-53340000D01*
X173505160Y-67141000D02*
X173821000Y-66825160D01*
%TO.N,/R2*%
X169048630Y-58420000D02*
X170180000Y-58420000D01*
X163949649Y-68252797D02*
X162961000Y-67264148D01*
X162961000Y-64507630D02*
X169048630Y-58420000D01*
X162961000Y-67264148D02*
X162961000Y-64507630D01*
X163949649Y-68580000D02*
X163949649Y-68252797D01*
%TO.N,/~{CE00}*%
X172305372Y-77739000D02*
X173841736Y-77739000D01*
X173841736Y-77739000D02*
X174049697Y-77946961D01*
X171304372Y-78740000D02*
X172305372Y-77739000D01*
X170180000Y-78740000D02*
X171304372Y-78740000D01*
X174800941Y-73157952D02*
X175082370Y-73157952D01*
X175882322Y-72358000D02*
X181578000Y-72358000D01*
X175082370Y-73157952D02*
X175882322Y-72358000D01*
X181578000Y-72358000D02*
X182880000Y-73660000D01*
%TO.N,/~{C300}*%
X182880000Y-76200000D02*
X181341000Y-74661000D01*
X171196000Y-75184000D02*
X170180000Y-76200000D01*
X181341000Y-74661000D02*
X181341000Y-73245372D01*
X176007000Y-72659000D02*
X174752000Y-73914000D01*
X181341000Y-73245372D02*
X180754628Y-72659000D01*
X174498000Y-75184000D02*
X171196000Y-75184000D01*
X180754628Y-72659000D02*
X176007000Y-72659000D01*
%TO.N,/~{CS_DMA}*%
X154483950Y-39539000D02*
X156379000Y-39539000D01*
X153839000Y-40183950D02*
X154483950Y-39539000D01*
X156379000Y-39539000D02*
X157480000Y-40640000D01*
X154940000Y-68580000D02*
X153839000Y-67479000D01*
X153839000Y-67479000D02*
X153839000Y-40183950D01*
%TO.N,/~{C800_VI53_2}*%
X168656000Y-79756000D02*
X169029997Y-80129997D01*
X176361000Y-80179000D02*
X180340000Y-76200000D01*
X169029997Y-80179000D02*
X176361000Y-80179000D01*
X168656000Y-79248000D02*
X168656000Y-79756000D01*
X169029997Y-80129997D02*
X169029997Y-80179000D01*
%TO.N,/R1*%
X150961000Y-87799000D02*
X147320000Y-91440000D01*
X155396050Y-77301000D02*
X153839000Y-77301000D01*
X153839000Y-77301000D02*
X150961000Y-80179000D01*
X170180000Y-55880000D02*
X162560000Y-63500000D01*
X150961000Y-80179000D02*
X150961000Y-87799000D01*
X162560000Y-70137050D02*
X155396050Y-77301000D01*
X162560000Y-63500000D02*
X162560000Y-70137050D01*
%TO.N,/~{CS_D800}*%
X167894000Y-81280000D02*
X170180000Y-81280000D01*
X171945900Y-82503000D02*
X172045900Y-82403000D01*
X171281000Y-82381000D02*
X171789000Y-82381000D01*
X170180000Y-81280000D02*
X171281000Y-82381000D01*
X167640000Y-78740000D02*
X167640000Y-81026000D01*
X172613000Y-82819000D02*
X173134628Y-82819000D01*
X172613000Y-82637900D02*
X172613000Y-82819000D01*
X167640000Y-81026000D02*
X167894000Y-81280000D01*
X172045900Y-82403000D02*
X172378100Y-82403000D01*
X172378100Y-82403000D02*
X172613000Y-82637900D01*
X173298979Y-82983351D02*
X173509000Y-82983351D01*
X171911000Y-82503000D02*
X171945900Y-82503000D01*
X171789000Y-82381000D02*
X171911000Y-82503000D01*
X173134628Y-82819000D02*
X173298979Y-82983351D01*
%TO.N,/~{C100_SD_CNTR}*%
X177800000Y-53975000D02*
X177397000Y-54378000D01*
X174625000Y-66446838D02*
X173629838Y-67442000D01*
X176298000Y-58823000D02*
X177165000Y-59690000D01*
X178754843Y-53017225D02*
X178754843Y-53020157D01*
X171904372Y-67442000D02*
X171181000Y-68165372D01*
X171181000Y-68165372D02*
X171181000Y-68994628D01*
X170594628Y-69581000D02*
X166639000Y-69581000D01*
X177397000Y-54378000D02*
X176532900Y-54378000D01*
X174625000Y-61595000D02*
X174625000Y-66446838D01*
X176298000Y-54612900D02*
X176298000Y-58823000D01*
X158115000Y-73660000D02*
X154940000Y-73660000D01*
X166639000Y-69581000D02*
X161925000Y-74295000D01*
X171181000Y-68994628D02*
X170594628Y-69581000D01*
X173629838Y-67442000D02*
X171904372Y-67442000D01*
X176532900Y-54378000D02*
X176298000Y-54612900D01*
X178754843Y-53020157D02*
X177800000Y-53975000D01*
%TO.N,Net-(D10-D4)*%
X139700000Y-95250000D02*
X141605000Y-95250000D01*
X165688000Y-94662000D02*
X165688000Y-92028000D01*
X165688000Y-92028000D02*
X165100000Y-91440000D01*
X128637000Y-87997000D02*
X132454034Y-87997000D01*
X147320000Y-100330000D02*
X153035000Y-100330000D01*
X163195000Y-95250000D02*
X165100000Y-95250000D01*
X132454034Y-87997000D02*
X132718517Y-88261483D01*
X137160000Y-92710000D02*
X139700000Y-95250000D01*
X127000000Y-86360000D02*
X128637000Y-87997000D01*
X134620000Y-91440000D02*
X134620000Y-90162966D01*
X133985000Y-92075000D02*
X134620000Y-91440000D01*
X153035000Y-100330000D02*
X160020000Y-93345000D01*
X134620000Y-90162966D02*
X132718517Y-88261483D01*
X165100000Y-95250000D02*
X165688000Y-94662000D01*
%TO.N,Net-(D10-D5)*%
X132806678Y-88775322D02*
X132806678Y-89626678D01*
X124460000Y-86360000D02*
X126398000Y-88298000D01*
X133350000Y-90170000D02*
X133350000Y-90805000D01*
X162560000Y-86995000D02*
X172085000Y-86995000D01*
X126398000Y-88298000D02*
X132329356Y-88298000D01*
X132806678Y-89626678D02*
X133350000Y-90170000D01*
X138430000Y-88265000D02*
X139700000Y-86995000D01*
X132329356Y-88298000D02*
X132806678Y-88775322D01*
%TO.N,/AB15*%
X107315000Y-71755000D02*
X109855000Y-71755000D01*
X101600000Y-101600000D02*
X101600000Y-100262100D01*
X106680000Y-72390000D02*
X107315000Y-71755000D01*
X109855000Y-71755000D02*
X111760000Y-73660000D01*
X103351825Y-93191825D02*
X102235000Y-92075000D01*
X101600000Y-100262100D02*
X103351825Y-98510275D01*
X103351825Y-98510275D02*
X103351825Y-93191825D01*
%TO.N,Net-(D10-D2)*%
X152400000Y-87372050D02*
X150876000Y-88896050D01*
X149098000Y-94996000D02*
X142748000Y-101346000D01*
X150876000Y-88896050D02*
X150876000Y-92160000D01*
X152400000Y-83820000D02*
X152400000Y-87372050D01*
%TO.N,/AB14*%
X120481000Y-102056050D02*
X120481000Y-101143950D01*
X114194726Y-106785274D02*
X116205000Y-104775000D01*
X105579000Y-103039000D02*
X105579000Y-104596050D01*
X108849899Y-106241999D02*
X109393174Y-106785274D01*
X117762050Y-104775000D02*
X120481000Y-102056050D01*
X116205000Y-104775000D02*
X117762050Y-104775000D01*
X104140000Y-101600000D02*
X105579000Y-103039000D01*
X107224949Y-106241999D02*
X108849899Y-106241999D01*
X120481000Y-101143950D02*
X113317050Y-93980000D01*
X105579000Y-104596050D02*
X107224949Y-106241999D01*
X109393174Y-106785274D02*
X114194726Y-106785274D01*
X113317050Y-92242053D02*
X113149997Y-92075000D01*
X113317050Y-93980000D02*
X113317050Y-92242053D01*
%TO.N,Net-(D10-D6)*%
X139866100Y-89936000D02*
X137967838Y-89936000D01*
X141986000Y-87816100D02*
X139866100Y-89936000D01*
X141986000Y-87630000D02*
X141986000Y-87816100D01*
X124159000Y-88599000D02*
X132204678Y-88599000D01*
X132204678Y-88599000D02*
X132505678Y-88900000D01*
X175260000Y-83820000D02*
X175260000Y-84387100D01*
X132505678Y-88900000D02*
X132505678Y-90595678D01*
X132505678Y-90595678D02*
X132715000Y-90805000D01*
X175260000Y-84387100D02*
X172017100Y-87630000D01*
X137967838Y-89936000D02*
X137160000Y-89128162D01*
X172017100Y-87630000D02*
X161925000Y-87630000D01*
X137160000Y-89128162D02*
X137160000Y-88392000D01*
X121920000Y-86360000D02*
X124159000Y-88599000D01*
%TO.N,Net-(D10-D0)*%
X123444000Y-100330000D02*
X123698000Y-100076000D01*
X123444000Y-100838000D02*
X123444000Y-100330000D01*
X144272000Y-94488000D02*
X138938000Y-99822000D01*
X123698000Y-100076000D02*
X124206000Y-99568000D01*
X138938000Y-99822000D02*
X130090000Y-99822000D01*
%TO.N,Net-(D10-D7)*%
X155788530Y-82971470D02*
X154732060Y-81915000D01*
X145269372Y-81915000D02*
X146050000Y-81915000D01*
X154732060Y-81915000D02*
X154305000Y-81915000D01*
X142255000Y-84821000D02*
X142654628Y-84821000D01*
X122321000Y-88900000D02*
X122321000Y-88733900D01*
X130175000Y-88900000D02*
X122321000Y-88900000D01*
X143241000Y-84234628D02*
X143241000Y-82550000D01*
X121753900Y-88499000D02*
X121636450Y-88616450D01*
X138596100Y-88666000D02*
X138831000Y-88431100D01*
X144634372Y-82550000D02*
X145269372Y-81915000D01*
X138870100Y-88392000D02*
X140101000Y-87161100D01*
X140101000Y-86975000D02*
X142255000Y-84821000D01*
X131445000Y-90170000D02*
X130175000Y-88900000D01*
X166039001Y-82219001D02*
X167640000Y-83820000D01*
X138831000Y-88392000D02*
X138870100Y-88392000D01*
X122321000Y-88733900D02*
X122086100Y-88499000D01*
X138176000Y-88578100D02*
X138263900Y-88666000D01*
X164338000Y-82219001D02*
X166039001Y-82219001D01*
X138831000Y-88431100D02*
X138831000Y-88392000D01*
X140101000Y-87161100D02*
X140101000Y-86975000D01*
X122086100Y-88499000D02*
X121753900Y-88499000D01*
X137854100Y-88900000D02*
X138176000Y-88578100D01*
X143241000Y-82550000D02*
X144634372Y-82550000D01*
X138263900Y-88666000D02*
X138596100Y-88666000D01*
X137795000Y-88900000D02*
X137854100Y-88900000D01*
X142654628Y-84821000D02*
X143241000Y-84234628D01*
X121636450Y-88616450D02*
X119380000Y-86360000D01*
%TO.N,Net-(D10-~{WE})*%
X109220000Y-87491370D02*
X109220000Y-86360000D01*
X104140000Y-99060000D02*
X104140000Y-97801346D01*
X102014628Y-112761000D02*
X102601000Y-112174628D01*
X102601000Y-112174628D02*
X102601000Y-111345372D01*
X100161000Y-116205000D02*
X100161000Y-113907520D01*
X102601000Y-100599000D02*
X104140000Y-99060000D01*
X108161370Y-88550000D02*
X109220000Y-87491370D01*
X106749296Y-88900000D02*
X107099296Y-88550000D01*
X100762000Y-112761000D02*
X102014628Y-112761000D01*
X100762000Y-113306520D02*
X100762000Y-112761000D01*
X104140000Y-97801346D02*
X103752825Y-97414171D01*
X102601000Y-105679000D02*
X102601000Y-100599000D01*
X107099296Y-88550000D02*
X108161370Y-88550000D01*
X102014628Y-110759000D02*
X101600000Y-110759000D01*
X100161000Y-113907520D02*
X100762000Y-113306520D01*
X101600000Y-110759000D02*
X101600000Y-106680000D01*
X102601000Y-111345372D02*
X102014628Y-110759000D01*
X106230000Y-88900000D02*
X106749296Y-88900000D01*
X101600000Y-106680000D02*
X102601000Y-105679000D01*
%TO.N,Net-(D10-D3)*%
X137561000Y-87229000D02*
X135922000Y-87229000D01*
X135633000Y-87518000D02*
X133874000Y-87518000D01*
X144780000Y-83820000D02*
X142240000Y-86360000D01*
X139065000Y-85725000D02*
X137561000Y-87229000D01*
X133874000Y-87518000D02*
X132715000Y-86359000D01*
X132715000Y-86359000D02*
X132715000Y-85090000D01*
X135922000Y-87229000D02*
X135633000Y-87518000D01*
%TO.N,Net-(D10-D1)*%
X150263000Y-94129000D02*
X147933000Y-94129000D01*
X150622000Y-93770000D02*
X150263000Y-94129000D01*
X150622000Y-93726000D02*
X150622000Y-93770000D01*
X141490594Y-100571406D02*
X130090000Y-100571406D01*
X124714000Y-101346000D02*
X124460000Y-101600000D01*
X124714000Y-99822000D02*
X124714000Y-101346000D01*
X147933000Y-94129000D02*
X141490594Y-100571406D01*
%TO.N,Net-(D24D-A)*%
X169079000Y-59521000D02*
X170677998Y-59521000D01*
X167640000Y-60960000D02*
X169079000Y-59521000D01*
X170677998Y-59521000D02*
X170831000Y-59367998D01*
%TO.N,Net-(D21B-A)*%
X178083550Y-60676450D02*
X180741000Y-63333900D01*
X178161000Y-54697900D02*
X178161000Y-55479000D01*
X180741000Y-63333900D02*
X180741000Y-63666100D01*
X180340000Y-50800000D02*
X179339000Y-51801000D01*
X179339000Y-53519900D02*
X178161000Y-54697900D01*
X178161000Y-55479000D02*
X178816000Y-56134000D01*
X176784000Y-57511521D02*
X178083550Y-58811071D01*
X179339000Y-51801000D02*
X179339000Y-53519900D01*
X180506100Y-63901000D02*
X179471000Y-63901000D01*
X179471000Y-63901000D02*
X178816000Y-63246000D01*
X174244000Y-71358182D02*
X174236091Y-71366091D01*
X174244000Y-68580000D02*
X174244000Y-71358182D01*
X178083550Y-58811071D02*
X178083550Y-60676450D01*
X180741000Y-63666100D02*
X180506100Y-63901000D01*
X176784000Y-56896000D02*
X176784000Y-57511521D01*
%TO.N,Net-(D19-5)*%
X176699000Y-54779000D02*
X180340000Y-58420000D01*
X162560000Y-48260000D02*
X167640000Y-53340000D01*
%TO.N,Net-(D19-3)*%
X178308000Y-66548000D02*
X178308000Y-64785818D01*
X178308000Y-64785818D02*
X175379091Y-61856909D01*
X177800000Y-57819000D02*
X177800000Y-56642000D01*
X178816000Y-54610000D02*
X179070000Y-54610000D01*
X178562000Y-54864000D02*
X178816000Y-54610000D01*
X179070000Y-54610000D02*
X180340000Y-53340000D01*
X177800000Y-56642000D02*
X177546000Y-56388000D01*
%TO.N,/R7*%
X122174000Y-102616000D02*
X122620000Y-102616000D01*
X123422000Y-102867100D02*
X123422000Y-102616000D01*
X116329678Y-105076000D02*
X119714000Y-105076000D01*
X125962000Y-101222372D02*
X135744372Y-91440000D01*
X86360000Y-116840000D02*
X95885000Y-116840000D01*
X163115000Y-86059000D02*
X162826100Y-86059000D01*
X125727100Y-102636000D02*
X125962000Y-102401100D01*
X162159000Y-86526100D02*
X162310400Y-86677500D01*
X104376487Y-110091487D02*
X104376487Y-109691388D01*
X139700000Y-89535000D02*
X140970000Y-88265000D01*
X125394900Y-102636000D02*
X125727100Y-102636000D01*
X161524000Y-87463900D02*
X161524000Y-87650000D01*
X161524000Y-87650000D02*
X161500727Y-87673273D01*
X138430000Y-89535000D02*
X139700000Y-89535000D01*
X161945000Y-87229000D02*
X161758900Y-87229000D01*
X162159000Y-87015000D02*
X161945000Y-87229000D01*
X162726100Y-85959000D02*
X162393900Y-85959000D01*
X125962000Y-102401100D02*
X125962000Y-101222372D01*
X123422000Y-102616000D02*
X125374900Y-102616000D01*
X162826100Y-86059000D02*
X162726100Y-85959000D01*
X161758900Y-87229000D02*
X161524000Y-87463900D01*
X165100000Y-84074000D02*
X163115000Y-86059000D01*
X83820000Y-114300000D02*
X86360000Y-116840000D01*
X162159000Y-86193900D02*
X162159000Y-86526100D01*
X114935000Y-107721000D02*
X114935000Y-106470678D01*
X162159000Y-86828900D02*
X162159000Y-87015000D01*
X114107760Y-108548240D02*
X114935000Y-107721000D01*
X114935000Y-106470678D02*
X116329678Y-105076000D01*
X135744372Y-91440000D02*
X135890000Y-91440000D01*
X122854900Y-103102000D02*
X123187100Y-103102000D01*
X165100000Y-83820000D02*
X165100000Y-84074000D01*
X162393900Y-85959000D02*
X162159000Y-86193900D01*
X161500727Y-87673273D02*
X161500727Y-88054273D01*
X119714000Y-105076000D02*
X122174000Y-102616000D01*
X122620000Y-102867100D02*
X122854900Y-103102000D01*
X122620000Y-102616000D02*
X122620000Y-102867100D01*
X104376487Y-109691388D02*
X105519635Y-108548240D01*
X105519635Y-108548240D02*
X114107760Y-108548240D01*
X97790000Y-117475000D02*
X102235000Y-117475000D01*
X123187100Y-103102000D02*
X123422000Y-102867100D01*
X125374900Y-102616000D02*
X125394900Y-102636000D01*
X97155000Y-116840000D02*
X97790000Y-117475000D01*
X162310400Y-86677500D02*
X162159000Y-86828900D01*
%TO.N,/R5*%
X92075000Y-125095000D02*
X91741000Y-125429000D01*
X178054000Y-120460000D02*
X178054000Y-121031000D01*
X177278000Y-120460000D02*
X177229000Y-120411000D01*
X170180000Y-92148520D02*
X178054000Y-100022520D01*
X178054000Y-120460000D02*
X177278000Y-120460000D01*
X91741000Y-125429000D02*
X89024678Y-125429000D01*
X178054000Y-121031000D02*
X177800000Y-121285000D01*
X177229000Y-118285000D02*
X178054000Y-117460000D01*
X89024678Y-125429000D02*
X88265000Y-124669322D01*
X176849000Y-116255000D02*
X176849000Y-107665000D01*
X177229000Y-120411000D02*
X177229000Y-118285000D01*
X170180000Y-91440000D02*
X170180000Y-92148520D01*
X88265000Y-124669322D02*
X88265000Y-124460000D01*
X176849000Y-107665000D02*
X178054000Y-106460000D01*
X178054000Y-100022520D02*
X178054000Y-106460000D01*
X178054000Y-117460000D02*
X176849000Y-116255000D01*
%TO.N,/R6*%
X131064000Y-108712000D02*
X130556000Y-109220000D01*
X152908000Y-94996000D02*
X150368000Y-94996000D01*
X156269100Y-93472000D02*
X157246000Y-94448900D01*
X103589003Y-110759000D02*
X103320003Y-110490000D01*
X107950000Y-109855000D02*
X105458628Y-109855000D01*
X131064000Y-108204000D02*
X131064000Y-108712000D01*
X128551003Y-107723003D02*
X128551003Y-109386100D01*
X104554628Y-110759000D02*
X103589003Y-110759000D01*
X112761000Y-111345372D02*
X111270628Y-109855000D01*
X157246000Y-94448900D02*
X157246000Y-94781100D01*
X105458628Y-109855000D02*
X104554628Y-110759000D01*
X112761000Y-113299000D02*
X112761000Y-111345372D01*
X162449930Y-88138000D02*
X162269310Y-88318620D01*
X111270628Y-109855000D02*
X107950000Y-109855000D01*
X164084000Y-88138000D02*
X162449930Y-88138000D01*
X164993000Y-85451000D02*
X164592000Y-85852000D01*
X150368000Y-94996000D02*
X140208000Y-105156000D01*
X111760000Y-114300000D02*
X112761000Y-113299000D01*
X171089000Y-85451000D02*
X164993000Y-85451000D01*
X128551003Y-109386100D02*
X127716103Y-110221000D01*
X112761000Y-111345372D02*
X113750000Y-110356372D01*
X155448000Y-93472000D02*
X156269100Y-93472000D01*
X97155000Y-112395000D02*
X96273909Y-113276091D01*
X157011100Y-95016000D02*
X152928000Y-95016000D01*
X172720000Y-83820000D02*
X171089000Y-85451000D01*
X152928000Y-95016000D02*
X152908000Y-94996000D01*
X91440000Y-114300000D02*
X92710000Y-115570000D01*
X157246000Y-94781100D02*
X157011100Y-95016000D01*
X92710000Y-115570000D02*
X95885000Y-115570000D01*
X127716103Y-110221000D02*
X123683000Y-110221000D01*
X123683000Y-110221000D02*
X122682000Y-109220000D01*
%TO.N,Net-(D14C-Y)*%
X82381000Y-103039000D02*
X82381000Y-95081000D01*
X62865000Y-76835000D02*
X72183885Y-76835000D01*
X72183885Y-76835000D02*
X77470000Y-82121115D01*
X77470000Y-92710000D02*
X80010000Y-92710000D01*
X82381000Y-95081000D02*
X81280000Y-93980000D01*
X81280000Y-104140000D02*
X82381000Y-103039000D01*
X77470000Y-82121115D02*
X77470000Y-92710000D01*
%TO.N,Net-(D18B-D)*%
X62061000Y-122376050D02*
X61416050Y-123021000D01*
X57319000Y-113843950D02*
X57963950Y-113199000D01*
X57963950Y-113199000D02*
X62399000Y-113199000D01*
X81072480Y-119172480D02*
X64352470Y-119172480D01*
X59859000Y-117296050D02*
X57319000Y-114756050D01*
X62061000Y-121463950D02*
X62061000Y-122376050D01*
X62399000Y-113199000D02*
X63500000Y-114300000D01*
X61416050Y-123021000D02*
X60503950Y-123021000D01*
X60503950Y-123021000D02*
X59859000Y-122376050D01*
X83820000Y-121920000D02*
X81072480Y-119172480D01*
X57319000Y-114756050D02*
X57319000Y-113843950D01*
X64352470Y-119172480D02*
X62061000Y-121463950D01*
X59859000Y-122376050D02*
X59859000Y-117296050D01*
%TO.N,Net-(D2A-B)*%
X90939000Y-86861000D02*
X93980000Y-83820000D01*
X83686000Y-86861000D02*
X90939000Y-86861000D01*
X82550000Y-85725000D02*
X83686000Y-86861000D01*
%TO.N,Net-(D2B-Y)*%
X83820000Y-109220000D02*
X83820000Y-109336100D01*
X49699000Y-74116050D02*
X50632947Y-75049997D01*
X74116050Y-90339000D02*
X74761000Y-90983950D01*
X84104900Y-109621000D02*
X86761000Y-109621000D01*
X73203950Y-90339000D02*
X74116050Y-90339000D01*
X63655372Y-93111000D02*
X70786900Y-93111000D01*
X58420000Y-86360000D02*
X59859000Y-87799000D01*
X72423950Y-91119000D02*
X73203950Y-90339000D01*
X50632947Y-75049997D02*
X50800000Y-75049997D01*
X74761000Y-90983950D02*
X74761000Y-104021950D01*
X71437500Y-93095400D02*
X72423950Y-92108950D01*
X72423950Y-92108950D02*
X72423950Y-91119000D01*
X74761000Y-104021950D02*
X72559000Y-106223950D01*
X86761000Y-109621000D02*
X88900000Y-111760000D01*
X83820000Y-109336100D02*
X84104900Y-109621000D01*
X49699000Y-56981000D02*
X49699000Y-74116050D01*
X72559000Y-108119000D02*
X73019326Y-108579326D01*
X70953900Y-92944000D02*
X71286100Y-92944000D01*
X71286100Y-92944000D02*
X71437500Y-93095400D01*
X61961000Y-91025372D02*
X61961000Y-91416628D01*
X50800000Y-55880000D02*
X49699000Y-56981000D01*
X55880000Y-86360000D02*
X58420000Y-86360000D01*
X61961000Y-91416628D02*
X63655372Y-93111000D01*
X59859000Y-87799000D02*
X59859000Y-89214628D01*
X70786900Y-93111000D02*
X70953900Y-92944000D01*
X60836628Y-89901000D02*
X61961000Y-91025372D01*
X72559000Y-106223950D02*
X72559000Y-108119000D01*
X60545372Y-89901000D02*
X60836628Y-89901000D01*
X59859000Y-89214628D02*
X60545372Y-89901000D01*
%TO.N,/ROM_A14*%
X184117000Y-102837000D02*
X182880000Y-101600000D01*
X183515000Y-118745000D02*
X183515000Y-117126900D01*
X184117000Y-116524900D02*
X184117000Y-102837000D01*
X88900000Y-124460000D02*
X89301000Y-124861000D01*
X183515000Y-117126900D02*
X184117000Y-116524900D01*
X92284322Y-124460000D02*
X92919322Y-125095000D01*
X90710534Y-124460000D02*
X92284322Y-124460000D01*
X92919322Y-125095000D02*
X93345000Y-125095000D01*
X89301000Y-124861000D02*
X90309534Y-124861000D01*
X90309534Y-124861000D02*
X90710534Y-124460000D01*
%TO.N,/ROM_A13*%
X92075000Y-123825000D02*
X90919856Y-123825000D01*
X90919856Y-123825000D02*
X90520856Y-124224000D01*
X184418000Y-100598000D02*
X184418000Y-116791000D01*
X92710000Y-124460000D02*
X92075000Y-123825000D01*
X184418000Y-116791000D02*
X184369000Y-116840000D01*
X89771000Y-124224000D02*
X89535000Y-124460000D01*
X93345000Y-124460000D02*
X92710000Y-124460000D01*
X93980000Y-125095000D02*
X93345000Y-124460000D01*
X182880000Y-99060000D02*
X184418000Y-100598000D01*
X90520856Y-124224000D02*
X89771000Y-124224000D01*
%TO.N,/~{MWR}*%
X100965000Y-118745000D02*
X104140000Y-121920000D01*
X97155000Y-118745000D02*
X100965000Y-118745000D01*
X87630000Y-117475000D02*
X94615000Y-117475000D01*
X94615000Y-117475000D02*
X95885000Y-118745000D01*
%TO.N,/ROM_A15*%
X121285000Y-126365000D02*
X165667100Y-126365000D01*
X183180000Y-104440000D02*
X182880000Y-104140000D01*
X183180000Y-120053644D02*
X183180000Y-118977100D01*
X183114000Y-118911100D02*
X183114000Y-118578900D01*
X88265000Y-116205000D02*
X86360000Y-114300000D01*
X183180000Y-118977100D02*
X183114000Y-118911100D01*
X88933000Y-125763000D02*
X87630000Y-124460000D01*
X116840000Y-125095000D02*
X116172000Y-125763000D01*
X165667100Y-126365000D02*
X168207100Y-123825000D01*
X183114000Y-118578900D02*
X183180000Y-118512900D01*
X89535000Y-116205000D02*
X88265000Y-116205000D01*
X116172000Y-125763000D02*
X88933000Y-125763000D01*
X183180000Y-118512900D02*
X183180000Y-104440000D01*
X168207100Y-123825000D02*
X179408644Y-123825000D01*
X179408644Y-123825000D02*
X183180000Y-120053644D01*
%TO.N,Net-(D14B-Y)*%
X85586547Y-107411916D02*
X85586547Y-107453453D01*
X85586547Y-107453453D02*
X85090000Y-107950000D01*
X51435000Y-97155000D02*
X65405000Y-97155000D01*
X72258000Y-108453000D02*
X72390000Y-108585000D01*
X71755000Y-103505000D02*
X71755000Y-105039000D01*
X71755000Y-105039000D02*
X72258000Y-105542000D01*
X72258000Y-105542000D02*
X72258000Y-108453000D01*
X65405000Y-97155000D02*
X71755000Y-103505000D01*
X77470000Y-107950000D02*
X76835000Y-108585000D01*
X88265000Y-106045000D02*
X86995000Y-106045000D01*
X85090000Y-107950000D02*
X77470000Y-107950000D01*
%TO.N,Net-(D4A-A)*%
X83369000Y-109033189D02*
X83633189Y-108769000D01*
X78740000Y-111760000D02*
X81280000Y-109220000D01*
X83633189Y-108769000D02*
X84006811Y-108769000D01*
X84271000Y-109033189D02*
X84271000Y-109220000D01*
X84006811Y-108769000D02*
X84271000Y-109033189D01*
X83369000Y-109220000D02*
X83369000Y-109033189D01*
X84271000Y-109220000D02*
X88900000Y-109220000D01*
X88900000Y-109220000D02*
X91440000Y-111760000D01*
X81280000Y-109220000D02*
X83369000Y-109220000D01*
%TO.N,Net-(D18A-D)*%
X79841000Y-114756050D02*
X79841000Y-113907520D01*
X60960000Y-121920000D02*
X65539000Y-117341000D01*
X80887520Y-112861000D02*
X82719000Y-112861000D01*
X79841000Y-113907520D02*
X80887520Y-112861000D01*
X77256050Y-117341000D02*
X79841000Y-114756050D01*
X65539000Y-117341000D02*
X77256050Y-117341000D01*
X82719000Y-112861000D02*
X83820000Y-111760000D01*
%TO.N,Net-(D21B-Y)*%
X163068000Y-85029103D02*
X162499103Y-85598000D01*
X168041000Y-78573900D02*
X167806100Y-78339000D01*
X162499103Y-85598000D02*
X161544000Y-85598000D01*
X168041000Y-79649000D02*
X168041000Y-78573900D01*
X169164000Y-80772000D02*
X168041000Y-79649000D01*
X128270000Y-94996000D02*
X128270000Y-93472000D01*
X143147628Y-91948000D02*
X142367628Y-92728000D01*
X142075628Y-92436000D02*
X140420787Y-92436000D01*
X140420787Y-92436000D02*
X140162090Y-92694697D01*
X164846000Y-81026000D02*
X163954901Y-81026000D01*
X170942000Y-80772000D02*
X169164000Y-80772000D01*
X143510000Y-90170000D02*
X143510000Y-91948000D01*
X142367628Y-92728000D02*
X142075628Y-92436000D01*
X145796000Y-86614000D02*
X145796000Y-87884000D01*
X123952000Y-98298000D02*
X124968000Y-98298000D01*
X164846000Y-80966900D02*
X164846000Y-81026000D01*
X117856000Y-99822000D02*
X117602000Y-100076000D01*
X167806100Y-78339000D02*
X167473900Y-78339000D01*
X124968000Y-98298000D02*
X128270000Y-94996000D01*
X143510000Y-91948000D02*
X143147628Y-91948000D01*
X117602000Y-100076000D02*
X114046000Y-100076000D01*
X163429000Y-81551901D02*
X163429000Y-83273372D01*
X163954901Y-81026000D02*
X163429000Y-81551901D01*
X161544000Y-85598000D02*
X160782000Y-86360000D01*
X163561000Y-83405372D02*
X163561000Y-84343000D01*
X163429000Y-83273372D02*
X163561000Y-83405372D01*
X167473900Y-78339000D02*
X164846000Y-80966900D01*
X163561000Y-84343000D02*
X163068000Y-84836000D01*
X163068000Y-84836000D02*
X163068000Y-85029103D01*
X145796000Y-87884000D02*
X143510000Y-90170000D01*
%TO.N,/~{CC00_VI53_1_}*%
X174299941Y-74029041D02*
X174630900Y-74360000D01*
X143510000Y-86614000D02*
X143510000Y-86717778D01*
X169780372Y-79756000D02*
X167748372Y-77724000D01*
X180754628Y-69581000D02*
X177815000Y-69581000D01*
X181441000Y-62399000D02*
X181441000Y-68894628D01*
X158242000Y-83820000D02*
X157480000Y-84582000D01*
X118364000Y-102870000D02*
X118364000Y-101092000D01*
X160782000Y-84723667D02*
X160570000Y-84935667D01*
X155956000Y-84582000D02*
X155956000Y-85090000D01*
X161121000Y-83427520D02*
X161121000Y-84276050D01*
X143510000Y-86717778D02*
X139803778Y-90424000D01*
X123757100Y-97790000D02*
X122936000Y-97790000D01*
X181441000Y-68894628D02*
X180754628Y-69581000D01*
X174299941Y-72950431D02*
X174299941Y-74029041D01*
X173990000Y-79756000D02*
X169780372Y-79756000D01*
X127254000Y-93218000D02*
X127254000Y-94293100D01*
X118110000Y-100838000D02*
X118110000Y-100330000D01*
X175768000Y-71628000D02*
X175622372Y-71628000D01*
X167748372Y-77724000D02*
X166824520Y-77724000D01*
X161121000Y-84276050D02*
X160782000Y-84615050D01*
X175622372Y-71628000D02*
X174299941Y-72950431D01*
X155956000Y-85090000D02*
X155201909Y-85844091D01*
X139803778Y-90424000D02*
X138684000Y-90424000D01*
X160782000Y-84615050D02*
X160782000Y-84723667D01*
X118364000Y-101092000D02*
X118110000Y-100838000D01*
X174630900Y-74360000D02*
X177354000Y-74360000D01*
X166824520Y-77724000D02*
X161121000Y-83427520D01*
X177354000Y-74360000D02*
X177546000Y-74168000D01*
X127254000Y-94293100D02*
X123757100Y-97790000D01*
X182880000Y-60960000D02*
X181441000Y-62399000D01*
X177815000Y-69581000D02*
X175768000Y-71628000D01*
%TO.N,/C800_VI53_2*%
X176229000Y-107126628D02*
X176978901Y-106376727D01*
X107188000Y-125462000D02*
X107710000Y-125462000D01*
X176978901Y-100270901D02*
X176276000Y-99568000D01*
X100965000Y-106680000D02*
X100965000Y-109402000D01*
X102108000Y-124224000D02*
X102939832Y-124224000D01*
X101812839Y-104352839D02*
X101812839Y-105832161D01*
X176229000Y-115617000D02*
X176229000Y-107126628D01*
X176978901Y-106376727D02*
X176978901Y-100270901D01*
X175006000Y-116840000D02*
X176229000Y-115617000D01*
X107710000Y-125462000D02*
X107950000Y-125222000D01*
X102939832Y-124224000D02*
X104177832Y-125462000D01*
X101600000Y-104140000D02*
X101812839Y-104352839D01*
X100965000Y-109402000D02*
X100512000Y-109855000D01*
X100076000Y-124714000D02*
X100566000Y-124224000D01*
X101812839Y-105832161D02*
X100965000Y-106680000D01*
X100566000Y-124224000D02*
X102108000Y-124224000D01*
X104177832Y-125462000D02*
X107188000Y-125462000D01*
%TO.N,Net-(D14A-A)*%
X70485000Y-78105000D02*
X76737000Y-84357000D01*
X88783000Y-108468000D02*
X89535000Y-109220000D01*
X97155000Y-111125000D02*
X97155000Y-104775000D01*
X76287000Y-94246100D02*
X76287000Y-104263717D01*
X76187000Y-94146100D02*
X76287000Y-94246100D01*
X102870000Y-107315000D02*
X109220000Y-107315000D01*
X76421900Y-104930817D02*
X76679183Y-104930817D01*
X82550000Y-108585000D02*
X82667000Y-108468000D01*
X76187000Y-104695917D02*
X76421900Y-104930817D01*
X62865000Y-78105000D02*
X70485000Y-78105000D01*
X109220000Y-106045000D02*
X109220000Y-104140000D01*
X82667000Y-108468000D02*
X88783000Y-108468000D01*
X100512000Y-106045714D02*
X100512000Y-107315000D01*
X76679183Y-104930817D02*
X75565000Y-106045000D01*
X76737000Y-84357000D02*
X76737000Y-93579000D01*
X76187000Y-93813900D02*
X76187000Y-94146100D01*
X76187000Y-104363717D02*
X76187000Y-104695917D01*
X76287000Y-104263717D02*
X76187000Y-104363717D01*
X76421900Y-93579000D02*
X76187000Y-93813900D01*
X100448817Y-105982531D02*
X100512000Y-106045714D01*
X102235000Y-107950000D02*
X102870000Y-107315000D01*
X95638909Y-112641091D02*
X97155000Y-111125000D01*
X76737000Y-93579000D02*
X76421900Y-93579000D01*
%TO.N,Net-(D20B-B)*%
X109220000Y-115570000D02*
X108585000Y-116205000D01*
X109220000Y-114300000D02*
X109220000Y-115570000D01*
X108119000Y-113199000D02*
X109220000Y-114300000D01*
X102701000Y-113199000D02*
X108119000Y-113199000D01*
X101600000Y-114300000D02*
X102701000Y-113199000D01*
%TO.N,/~{C800_VI53_2_}*%
X155956000Y-82296000D02*
X154178000Y-80518000D01*
X154178000Y-80518000D02*
X154178000Y-80264000D01*
X135297000Y-80179000D02*
X135382000Y-80264000D01*
X115824000Y-85598000D02*
X116858301Y-84563699D01*
X130979000Y-81672480D02*
X130979000Y-80823950D01*
X170942000Y-82804000D02*
X170688000Y-82550000D01*
X131623950Y-80179000D02*
X135297000Y-80179000D01*
X128087781Y-84563699D02*
X130979000Y-81672480D01*
X163830000Y-81718001D02*
X166953629Y-81718001D01*
X116858301Y-84563699D02*
X128087781Y-84563699D01*
X167785628Y-82550000D02*
X169672000Y-82550000D01*
X166953629Y-81718001D02*
X167785628Y-82550000D01*
X172212000Y-82804000D02*
X170942000Y-82804000D01*
X107442000Y-97790000D02*
X106172000Y-97790000D01*
X130979000Y-80823950D02*
X131623950Y-80179000D01*
%TO.N,/~{C400_PPI2_}*%
X167640000Y-45720000D02*
X172720000Y-40640000D01*
X167640000Y-48260000D02*
X167640000Y-45720000D01*
%TO.N,/~{C200_PPI1_}*%
X160020000Y-43180000D02*
X160020000Y-48260000D01*
%TO.N,/8MHZ*%
X90271500Y-123622000D02*
X90998936Y-122894564D01*
X118379000Y-119794628D02*
X118379000Y-118965372D01*
X124003950Y-115401000D02*
X124916050Y-115401000D01*
X118400725Y-118054175D02*
X118165825Y-117819275D01*
X118379000Y-121505372D02*
X118745000Y-121139372D01*
X56918000Y-113677850D02*
X56918000Y-122304160D01*
X113738520Y-123190000D02*
X117127050Y-123190000D01*
X61540728Y-123322000D02*
X61672728Y-123190000D01*
X92220628Y-122555000D02*
X93057950Y-122555000D01*
X56918000Y-122304160D02*
X57803840Y-123190000D01*
X93057950Y-122555000D02*
X93523950Y-123021000D01*
X60247272Y-123190000D02*
X60379272Y-123322000D01*
X57803840Y-123190000D02*
X60247272Y-123190000D01*
X119380000Y-114300000D02*
X123359000Y-114300000D01*
X118745000Y-121139372D02*
X118745000Y-120160628D01*
X64538000Y-112798000D02*
X57797850Y-112798000D01*
X74221480Y-123190000D02*
X74653480Y-123622000D01*
X113306521Y-123622000D02*
X113738520Y-123190000D01*
X125238525Y-115078525D02*
X127000000Y-116840000D01*
X118165825Y-117487075D02*
X118388636Y-117264264D01*
X118027199Y-115276801D02*
X118242000Y-115062000D01*
X118379000Y-116425372D02*
X118388636Y-116415736D01*
X91025372Y-122921000D02*
X91854628Y-122921000D01*
X90998936Y-122894564D02*
X91025372Y-122921000D01*
X74653480Y-123622000D02*
X90271500Y-123622000D01*
X118165825Y-117819275D02*
X118165825Y-117487075D01*
X57797850Y-112798000D02*
X56918000Y-113677850D01*
X124916050Y-115401000D02*
X125238525Y-115078525D01*
X123359000Y-114756050D02*
X124003950Y-115401000D01*
X118388636Y-117264264D02*
X118379000Y-117254628D01*
X118242000Y-115062000D02*
X118242000Y-114306628D01*
X91854628Y-122921000D02*
X92220628Y-122555000D01*
X123359000Y-114300000D02*
X123359000Y-114756050D01*
X117127050Y-123190000D02*
X118379000Y-121938050D01*
X94372480Y-123021000D02*
X94973480Y-123622000D01*
X118242000Y-114306628D02*
X119373372Y-114306628D01*
X60379272Y-123322000D02*
X61540728Y-123322000D01*
X118379000Y-117254628D02*
X118379000Y-116425372D01*
X118671486Y-118183514D02*
X118542147Y-118054175D01*
X118542147Y-118054175D02*
X118400725Y-118054175D01*
X118745000Y-120160628D02*
X118379000Y-119794628D01*
X119373372Y-114306628D02*
X119380000Y-114300000D01*
X66040000Y-114300000D02*
X64538000Y-112798000D01*
X93523950Y-123021000D02*
X94372480Y-123021000D01*
X118388636Y-116415736D02*
X118027199Y-116054299D01*
X118379000Y-121938050D02*
X118379000Y-121505372D01*
X94973480Y-123622000D02*
X113306521Y-123622000D01*
X61672728Y-123190000D02*
X74221480Y-123190000D01*
X118027199Y-116054299D02*
X118027199Y-115276801D01*
X118379000Y-118965372D02*
X118671486Y-118672886D01*
X118671486Y-118672886D02*
X118671486Y-118183514D01*
%TO.N,/CLK*%
X153162000Y-104140000D02*
X150861000Y-106441000D01*
X173482000Y-93980000D02*
X173228000Y-94234000D01*
X166370000Y-97790000D02*
X162306000Y-101854000D01*
X183931000Y-81280000D02*
X183931000Y-81715339D01*
X173721000Y-93741000D02*
X173482000Y-93980000D01*
X182882661Y-70069000D02*
X183134000Y-70069000D01*
X150861000Y-106441000D02*
X150861000Y-107451368D01*
X150861000Y-107451368D02*
X137408368Y-120904000D01*
X170180000Y-97790000D02*
X166370000Y-97790000D01*
X174752000Y-89408000D02*
X173721000Y-90439000D01*
X183315339Y-70069000D02*
X183931000Y-70684661D01*
X173721000Y-90439000D02*
X173721000Y-93741000D01*
X183931000Y-81715339D02*
X183178339Y-82468000D01*
X181829000Y-67091000D02*
X181829000Y-69015339D01*
X183931000Y-70684661D02*
X183931000Y-81280000D01*
X181829000Y-69015339D02*
X182882661Y-70069000D01*
X160020000Y-104140000D02*
X159766000Y-104140000D01*
X183134000Y-70069000D02*
X183315339Y-70069000D01*
X183178339Y-82468000D02*
X181692000Y-82468000D01*
X137408368Y-120904000D02*
X134620000Y-120904000D01*
X182880000Y-66040000D02*
X181829000Y-67091000D01*
X173228000Y-94234000D02*
X173228000Y-94488000D01*
X162306000Y-101854000D02*
X160020000Y-104140000D01*
X181692000Y-82468000D02*
X175768000Y-88392000D01*
%TO.N,Net-(D22E-Y)*%
X129089000Y-114486811D02*
X131442189Y-116840000D01*
X123512001Y-122742101D02*
X124283751Y-123513851D01*
X131442189Y-116840000D02*
X132080000Y-116840000D01*
X127000000Y-111760000D02*
X129089000Y-113849000D01*
X129089000Y-113849000D02*
X129089000Y-114486811D01*
X123512001Y-122571000D02*
X123512001Y-122742101D01*
X123194276Y-118105724D02*
X123194276Y-120654276D01*
X124460000Y-116840000D02*
X123194276Y-118105724D01*
%TO.N,/R8*%
X51801000Y-71534628D02*
X50945628Y-72390000D01*
X50800000Y-68580000D02*
X51801000Y-69581000D01*
X83454000Y-113299000D02*
X83282000Y-113299000D01*
X50945628Y-72390000D02*
X50165000Y-72390000D01*
X93345000Y-107950000D02*
X92842000Y-108453000D01*
X82281000Y-115204000D02*
X81915000Y-115570000D01*
X92842000Y-108453000D02*
X92842000Y-112340728D01*
X92842000Y-112340728D02*
X91883728Y-113299000D01*
X82281000Y-114300000D02*
X82281000Y-115204000D01*
X51801000Y-69581000D02*
X51801000Y-71534628D01*
X76835000Y-114935000D02*
X74930000Y-113030000D01*
X104775000Y-108585000D02*
X103505000Y-109855000D01*
X74930000Y-113030000D02*
X72390000Y-113030000D01*
X83282000Y-113299000D02*
X82281000Y-114300000D01*
X91883728Y-113299000D02*
X83454000Y-113299000D01*
%TO.N,Net-(D21A-B)*%
X158643000Y-82443000D02*
X158643000Y-84943000D01*
X122682000Y-112776000D02*
X122936000Y-112522000D01*
X161691000Y-77001100D02*
X159190100Y-79502000D01*
X140462000Y-104394000D02*
X139700000Y-104394000D01*
X130376918Y-113792000D02*
X130048000Y-113792000D01*
X168148000Y-70358000D02*
X166878000Y-70358000D01*
X157480000Y-81280000D02*
X158643000Y-82443000D01*
X166878000Y-70358000D02*
X161691000Y-75545000D01*
X171450000Y-69850000D02*
X171196000Y-69850000D01*
X161691000Y-75545000D02*
X161691000Y-77001100D01*
X172720000Y-68580000D02*
X171450000Y-69850000D01*
X158643000Y-84943000D02*
X157988000Y-85598000D01*
X155956000Y-85852000D02*
X155956000Y-86598182D01*
X155956000Y-86598182D02*
X158122909Y-88765091D01*
X122936000Y-112522000D02*
X123190000Y-112268000D01*
X159190100Y-79502000D02*
X158750000Y-79502000D01*
X150161000Y-94695000D02*
X140462000Y-104394000D01*
X150982100Y-94695000D02*
X150161000Y-94695000D01*
X135021000Y-109367000D02*
X135021000Y-116556100D01*
X139700000Y-104394000D02*
X138938000Y-105156000D01*
X151384000Y-94488000D02*
X151177000Y-94695000D01*
X134366000Y-108712000D02*
X135021000Y-109367000D01*
X151177000Y-94695000D02*
X150982100Y-94695000D01*
X118364000Y-112776000D02*
X122682000Y-112776000D01*
X133375918Y-116791000D02*
X130376918Y-113792000D01*
X116840000Y-114300000D02*
X118364000Y-112776000D01*
X135021000Y-116556100D02*
X134786100Y-116791000D01*
X134786100Y-116791000D02*
X133375918Y-116791000D01*
%TO.N,/~{MEMW_VT57}*%
X102364000Y-124929000D02*
X102198000Y-125095000D01*
X182579000Y-120228966D02*
X179586887Y-123221079D01*
X179586887Y-123221079D02*
X174021079Y-123221079D01*
X102364000Y-124929000D02*
X103077732Y-124929000D01*
X182879000Y-111137946D02*
X182879000Y-114559000D01*
X182680000Y-110938946D02*
X182879000Y-111137946D01*
X182879000Y-114559000D02*
X182579000Y-114859000D01*
X102198000Y-125095000D02*
X101600000Y-125095000D01*
X182579000Y-114859000D02*
X182579000Y-120228966D01*
%TO.N,Net-(D20B-A)*%
X155941000Y-107203000D02*
X147320000Y-115824000D01*
X155702000Y-102362000D02*
X155702000Y-105664000D01*
X155941000Y-105903000D02*
X155941000Y-107203000D01*
X155702000Y-105664000D02*
X155941000Y-105903000D01*
X165354000Y-93472000D02*
X165100000Y-93218000D01*
X157226000Y-100838000D02*
X157226000Y-100392322D01*
X174018352Y-84553648D02*
X174018352Y-82182321D01*
X174244000Y-78740000D02*
X174244000Y-79248000D01*
X164602000Y-94732000D02*
X165354000Y-93980000D01*
X157226000Y-100392322D02*
X162886322Y-94732000D01*
X172720000Y-85852000D02*
X174018352Y-84553648D01*
X162886322Y-94732000D02*
X164602000Y-94732000D01*
X174244000Y-79248000D02*
X174752000Y-79756000D01*
X165354000Y-93980000D02*
X165354000Y-93472000D01*
X168148000Y-85852000D02*
X172720000Y-85852000D01*
%TO.N,/RAM_SEL*%
X56515000Y-54658628D02*
X56515000Y-43180000D01*
X50800000Y-66040000D02*
X51801000Y-65039000D01*
X185166000Y-83424000D02*
X184770000Y-83820000D01*
X51801000Y-59372628D02*
X56515000Y-54658628D01*
X184150000Y-85090000D02*
X182880000Y-83820000D01*
X51801000Y-65039000D02*
X51801000Y-59372628D01*
X182245000Y-38100000D02*
X185166000Y-41021000D01*
X184785000Y-85090000D02*
X184150000Y-85090000D01*
X185166000Y-41021000D02*
X185166000Y-83424000D01*
%TO.N,/~{CS_628512}*%
X173084372Y-108460000D02*
X173180000Y-108460000D01*
X180340000Y-112460000D02*
X180340000Y-109220000D01*
X180340000Y-118460000D02*
X180340000Y-114300000D01*
X180340000Y-114300000D02*
X180340000Y-112460000D01*
X167005000Y-102235000D02*
X168129372Y-102235000D01*
X171719000Y-105824628D02*
X171719000Y-107094628D01*
X180990000Y-119110000D02*
X180990000Y-119460000D01*
X171719000Y-107094628D02*
X173084372Y-108460000D01*
X180340000Y-118460000D02*
X180990000Y-119110000D01*
X178180000Y-111460000D02*
X179180000Y-112460000D01*
X179180000Y-112460000D02*
X180340000Y-112460000D01*
X162560000Y-106680000D02*
X167005000Y-102235000D01*
X168129372Y-102235000D02*
X171719000Y-105824628D01*
%TD*%
M02*
