%TF.GenerationSoftware,KiCad,Pcbnew,9.0.1*%
%TF.CreationDate,2025-04-10T23:57:46+03:00*%
%TF.ProjectId,ProgDC,50726f67-4443-42e6-9b69-6361645f7063,rev?*%
%TF.SameCoordinates,Original*%
%TF.FileFunction,Soldermask,Top*%
%TF.FilePolarity,Negative*%
%FSLAX46Y46*%
G04 Gerber Fmt 4.6, Leading zero omitted, Abs format (unit mm)*
G04 Created by KiCad (PCBNEW 9.0.1) date 2025-04-10 23:57:46*
%MOMM*%
%LPD*%
G01*
G04 APERTURE LIST*
G04 Aperture macros list*
%AMRoundRect*
0 Rectangle with rounded corners*
0 $1 Rounding radius*
0 $2 $3 $4 $5 $6 $7 $8 $9 X,Y pos of 4 corners*
0 Add a 4 corners polygon primitive as box body*
4,1,4,$2,$3,$4,$5,$6,$7,$8,$9,$2,$3,0*
0 Add four circle primitives for the rounded corners*
1,1,$1+$1,$2,$3*
1,1,$1+$1,$4,$5*
1,1,$1+$1,$6,$7*
1,1,$1+$1,$8,$9*
0 Add four rect primitives between the rounded corners*
20,1,$1+$1,$2,$3,$4,$5,0*
20,1,$1+$1,$4,$5,$6,$7,0*
20,1,$1+$1,$6,$7,$8,$9,0*
20,1,$1+$1,$8,$9,$2,$3,0*%
G04 Aperture macros list end*
%ADD10R,1.500000X1.500000*%
%ADD11O,1.500000X1.500000*%
%ADD12C,1.400000*%
%ADD13O,1.400000X1.400000*%
%ADD14RoundRect,0.250000X0.550000X-0.550000X0.550000X0.550000X-0.550000X0.550000X-0.550000X-0.550000X0*%
%ADD15C,1.600000*%
%ADD16R,1.700000X1.700000*%
%ADD17C,1.700000*%
%ADD18RoundRect,0.250000X-0.550000X-0.550000X0.550000X-0.550000X0.550000X0.550000X-0.550000X0.550000X0*%
%ADD19RoundRect,0.250000X-0.550000X0.550000X-0.550000X-0.550000X0.550000X-0.550000X0.550000X0.550000X0*%
%ADD20C,1.500000*%
%ADD21RoundRect,0.250000X0.550000X0.550000X-0.550000X0.550000X-0.550000X-0.550000X0.550000X-0.550000X0*%
G04 APERTURE END LIST*
D10*
%TO.C,VD2*%
X178180000Y-119460000D03*
D11*
X180720000Y-119460000D03*
%TD*%
D12*
%TO.C,R6*%
X175707000Y-40528000D03*
D13*
X178247000Y-40528000D03*
%TD*%
D14*
%TO.C,D3*%
X78740000Y-121920000D03*
D15*
X81280000Y-121920000D03*
X83820000Y-121920000D03*
X86360000Y-121920000D03*
X88900000Y-121920000D03*
X91440000Y-121920000D03*
X93980000Y-121920000D03*
X93980000Y-114300000D03*
X91440000Y-114300000D03*
X88900000Y-114300000D03*
X86360000Y-114300000D03*
X83820000Y-114300000D03*
X81280000Y-114300000D03*
X78740000Y-114300000D03*
%TD*%
D12*
%TO.C,R7*%
X130180000Y-106680000D03*
D13*
X132720000Y-106680000D03*
%TD*%
D12*
%TO.C,R1*%
X60976000Y-43145000D03*
D13*
X60976000Y-40605000D03*
%TD*%
D16*
%TO.C,J3*%
X83820000Y-40640000D03*
D17*
X86360000Y-40640000D03*
X88900000Y-40640000D03*
%TD*%
D10*
%TO.C,VD1*%
X178324000Y-114300000D03*
D11*
X180864000Y-114300000D03*
%TD*%
D14*
%TO.C,D12*%
X160020000Y-91440000D03*
D15*
X162560000Y-91440000D03*
X165100000Y-91440000D03*
X167640000Y-91440000D03*
X170180000Y-91440000D03*
X172720000Y-91440000D03*
X175260000Y-91440000D03*
X177800000Y-91440000D03*
X177800000Y-83820000D03*
X175260000Y-83820000D03*
X172720000Y-83820000D03*
X170180000Y-83820000D03*
X167640000Y-83820000D03*
X165100000Y-83820000D03*
X162560000Y-83820000D03*
X160020000Y-83820000D03*
%TD*%
D18*
%TO.C,D21*%
X172720000Y-66040000D03*
D15*
X172720000Y-68580000D03*
X172720000Y-71120000D03*
X172720000Y-73660000D03*
X172720000Y-76200000D03*
X172720000Y-78740000D03*
X172720000Y-81280000D03*
X180340000Y-81280000D03*
X180340000Y-78740000D03*
X180340000Y-76200000D03*
X180340000Y-73660000D03*
X180340000Y-71120000D03*
X180340000Y-68580000D03*
X180340000Y-66040000D03*
%TD*%
D14*
%TO.C,D18*%
X58420000Y-121920000D03*
D15*
X60960000Y-121920000D03*
X63500000Y-121920000D03*
X66040000Y-121920000D03*
X68580000Y-121920000D03*
X71120000Y-121920000D03*
X73660000Y-121920000D03*
X73660000Y-114300000D03*
X71120000Y-114300000D03*
X68580000Y-114300000D03*
X66040000Y-114300000D03*
X63500000Y-114300000D03*
X60960000Y-114300000D03*
X58420000Y-114300000D03*
%TD*%
D14*
%TO.C,D20*%
X99060000Y-121920000D03*
D15*
X101600000Y-121920000D03*
X104140000Y-121920000D03*
X106680000Y-121920000D03*
X109220000Y-121920000D03*
X111760000Y-121920000D03*
X114300000Y-121920000D03*
X114300000Y-114300000D03*
X111760000Y-114300000D03*
X109220000Y-114300000D03*
X106680000Y-114300000D03*
X104140000Y-114300000D03*
X101600000Y-114300000D03*
X99060000Y-114300000D03*
%TD*%
D14*
%TO.C,D10*%
X101600000Y-101600000D03*
D15*
X104140000Y-101600000D03*
X106680000Y-101600000D03*
X109220000Y-101600000D03*
X111760000Y-101600000D03*
X114300000Y-101600000D03*
X116840000Y-101600000D03*
X119380000Y-101600000D03*
X121920000Y-101600000D03*
X124460000Y-101600000D03*
X127000000Y-101600000D03*
X129540000Y-101600000D03*
X129540000Y-86360000D03*
X127000000Y-86360000D03*
X124460000Y-86360000D03*
X121920000Y-86360000D03*
X119380000Y-86360000D03*
X116840000Y-86360000D03*
X114300000Y-86360000D03*
X111760000Y-86360000D03*
X109220000Y-86360000D03*
X106680000Y-86360000D03*
X104140000Y-86360000D03*
X101600000Y-86360000D03*
%TD*%
D14*
%TO.C,D13*%
X137160000Y-91440000D03*
D15*
X139700000Y-91440000D03*
X142240000Y-91440000D03*
X144780000Y-91440000D03*
X147320000Y-91440000D03*
X149860000Y-91440000D03*
X152400000Y-91440000D03*
X154940000Y-91440000D03*
X154940000Y-83820000D03*
X152400000Y-83820000D03*
X149860000Y-83820000D03*
X147320000Y-83820000D03*
X144780000Y-83820000D03*
X142240000Y-83820000D03*
X139700000Y-83820000D03*
X137160000Y-83820000D03*
%TD*%
D12*
%TO.C,R2*%
X78629000Y-53340000D03*
D13*
X78629000Y-50800000D03*
%TD*%
D12*
%TO.C,R12*%
X134509000Y-86360000D03*
D13*
X134509000Y-83820000D03*
%TD*%
D14*
%TO.C,D9*%
X78740000Y-101600000D03*
D15*
X81280000Y-101600000D03*
X83820000Y-101600000D03*
X86360000Y-101600000D03*
X88900000Y-101600000D03*
X91440000Y-101600000D03*
X93980000Y-101600000D03*
X96520000Y-101600000D03*
X96520000Y-93980000D03*
X93980000Y-93980000D03*
X91440000Y-93980000D03*
X88900000Y-93980000D03*
X86360000Y-93980000D03*
X83820000Y-93980000D03*
X81280000Y-93980000D03*
X78740000Y-93980000D03*
%TD*%
D10*
%TO.C,VD3*%
X178197000Y-109220000D03*
D11*
X180737000Y-109220000D03*
%TD*%
D19*
%TO.C,U3*%
X129540000Y-53340000D03*
D15*
X127000000Y-53340000D03*
X124460000Y-53340000D03*
X121920000Y-53340000D03*
X119380000Y-53340000D03*
X116840000Y-53340000D03*
X114300000Y-53340000D03*
X111760000Y-53340000D03*
X109220000Y-53340000D03*
X106680000Y-53340000D03*
X104140000Y-53340000D03*
X101600000Y-53340000D03*
X99060000Y-53340000D03*
X96520000Y-53340000D03*
X93980000Y-53340000D03*
X91440000Y-53340000D03*
X88900000Y-53340000D03*
X86360000Y-53340000D03*
X83820000Y-53340000D03*
X81280000Y-53340000D03*
X81280000Y-68580000D03*
X83820000Y-68580000D03*
X86360000Y-68580000D03*
X88900000Y-68580000D03*
X91440000Y-68580000D03*
X93980000Y-68580000D03*
X96520000Y-68580000D03*
X99060000Y-68580000D03*
X101600000Y-68580000D03*
X104140000Y-68580000D03*
X106680000Y-68580000D03*
X109220000Y-68580000D03*
X111760000Y-68580000D03*
X114300000Y-68580000D03*
X116840000Y-68580000D03*
X119380000Y-68580000D03*
X121920000Y-68580000D03*
X124460000Y-68580000D03*
X127000000Y-68580000D03*
X129540000Y-68580000D03*
%TD*%
D12*
%TO.C,R9*%
X96663000Y-90800000D03*
D13*
X96663000Y-88260000D03*
%TD*%
D20*
%TO.C,ZQ1*%
X132080000Y-116840000D03*
X132080000Y-111940000D03*
%TD*%
D14*
%TO.C,D24*%
X154940000Y-48260000D03*
D15*
X157480000Y-48260000D03*
X160020000Y-48260000D03*
X162560000Y-48260000D03*
X165100000Y-48260000D03*
X167640000Y-48260000D03*
X170180000Y-48260000D03*
X170180000Y-40640000D03*
X167640000Y-40640000D03*
X165100000Y-40640000D03*
X162560000Y-40640000D03*
X160020000Y-40640000D03*
X157480000Y-40640000D03*
X154940000Y-40640000D03*
%TD*%
D19*
%TO.C,J1*%
X129540000Y-48260000D03*
D15*
X127000000Y-48260000D03*
X124460000Y-48260000D03*
X121920000Y-48260000D03*
X119380000Y-48260000D03*
X116840000Y-48260000D03*
X114300000Y-48260000D03*
X111760000Y-48260000D03*
X109220000Y-48260000D03*
X106680000Y-48260000D03*
X104140000Y-48260000D03*
X101600000Y-48260000D03*
X99060000Y-48260000D03*
X96520000Y-48260000D03*
X93980000Y-48260000D03*
X91440000Y-48260000D03*
X88900000Y-48260000D03*
X86360000Y-48260000D03*
X83820000Y-48260000D03*
X81280000Y-48260000D03*
X81280000Y-63500000D03*
X83820000Y-63500000D03*
X86360000Y-63500000D03*
X88900000Y-63500000D03*
X91440000Y-63500000D03*
X93980000Y-63500000D03*
X96520000Y-63500000D03*
X99060000Y-63500000D03*
X101600000Y-63500000D03*
X104140000Y-63500000D03*
X106680000Y-63500000D03*
X109220000Y-63500000D03*
X111760000Y-63500000D03*
X114300000Y-63500000D03*
X116840000Y-63500000D03*
X119380000Y-63500000D03*
X121920000Y-63500000D03*
X124460000Y-63500000D03*
X127000000Y-63500000D03*
X129540000Y-63500000D03*
%TD*%
D12*
%TO.C,R5*%
X83836000Y-45989000D03*
D13*
X83836000Y-43449000D03*
%TD*%
D14*
%TO.C,U2*%
X137160000Y-121920000D03*
D15*
X139700000Y-121920000D03*
X142240000Y-121920000D03*
X144780000Y-121920000D03*
X147320000Y-121920000D03*
X149860000Y-121920000D03*
X152400000Y-121920000D03*
X154940000Y-121920000D03*
X157480000Y-121920000D03*
X160020000Y-121920000D03*
X162560000Y-121920000D03*
X165100000Y-121920000D03*
X167640000Y-121920000D03*
X170180000Y-121920000D03*
X172720000Y-121920000D03*
X175260000Y-121920000D03*
X175260000Y-106680000D03*
X172720000Y-106680000D03*
X170180000Y-106680000D03*
X167640000Y-106680000D03*
X165100000Y-106680000D03*
X162560000Y-106680000D03*
X160020000Y-106680000D03*
X157480000Y-106680000D03*
X154940000Y-106680000D03*
X152400000Y-106680000D03*
X149860000Y-106680000D03*
X147320000Y-106680000D03*
X144780000Y-106680000D03*
X142240000Y-106680000D03*
X139700000Y-106680000D03*
X137160000Y-106680000D03*
%TD*%
D12*
%TO.C,R10*%
X112400000Y-83820000D03*
D13*
X114940000Y-83820000D03*
%TD*%
D12*
%TO.C,R3*%
X81296000Y-46116000D03*
D13*
X81296000Y-43576000D03*
%TD*%
D18*
%TO.C,D14*%
X50800000Y-63500000D03*
D15*
X50800000Y-66040000D03*
X50800000Y-68580000D03*
X50800000Y-71120000D03*
X50800000Y-73660000D03*
X50800000Y-76200000D03*
X50800000Y-78740000D03*
X58420000Y-78740000D03*
X58420000Y-76200000D03*
X58420000Y-73660000D03*
X58420000Y-71120000D03*
X58420000Y-68580000D03*
X58420000Y-66040000D03*
X58420000Y-63500000D03*
%TD*%
D14*
%TO.C,D8*%
X45720000Y-106680000D03*
D15*
X48260000Y-106680000D03*
X50800000Y-106680000D03*
X53340000Y-106680000D03*
X55880000Y-106680000D03*
X58420000Y-106680000D03*
X60960000Y-106680000D03*
X63500000Y-106680000D03*
X66040000Y-106680000D03*
X68580000Y-106680000D03*
X71120000Y-106680000D03*
X73660000Y-106680000D03*
X73660000Y-91440000D03*
X71120000Y-91440000D03*
X68580000Y-91440000D03*
X66040000Y-91440000D03*
X63500000Y-91440000D03*
X60960000Y-91440000D03*
X58420000Y-91440000D03*
X55880000Y-91440000D03*
X53340000Y-91440000D03*
X50800000Y-91440000D03*
X48260000Y-91440000D03*
X45720000Y-91440000D03*
%TD*%
D18*
%TO.C,D22*%
X116840000Y-106680000D03*
D15*
X116840000Y-109220000D03*
X116840000Y-111760000D03*
X116840000Y-114300000D03*
X116840000Y-116840000D03*
X116840000Y-119380000D03*
X116840000Y-121920000D03*
X124460000Y-121920000D03*
X124460000Y-119380000D03*
X124460000Y-116840000D03*
X124460000Y-114300000D03*
X124460000Y-111760000D03*
X124460000Y-109220000D03*
X124460000Y-106680000D03*
%TD*%
D14*
%TO.C,D6*%
X81280000Y-81280000D03*
D15*
X83820000Y-81280000D03*
X86360000Y-81280000D03*
X88900000Y-81280000D03*
X91440000Y-81280000D03*
X93980000Y-81280000D03*
X96520000Y-81280000D03*
X99060000Y-81280000D03*
X101600000Y-81280000D03*
X104140000Y-81280000D03*
X104140000Y-73660000D03*
X101600000Y-73660000D03*
X99060000Y-73660000D03*
X96520000Y-73660000D03*
X93980000Y-73660000D03*
X91440000Y-73660000D03*
X88900000Y-73660000D03*
X86360000Y-73660000D03*
X83820000Y-73660000D03*
X81280000Y-73660000D03*
%TD*%
D18*
%TO.C,U1*%
X60960000Y-45720000D03*
D15*
X60960000Y-48260000D03*
X60960000Y-50800000D03*
X60960000Y-53340000D03*
X60960000Y-55880000D03*
X60960000Y-58420000D03*
X60960000Y-60960000D03*
X60960000Y-63500000D03*
X60960000Y-66040000D03*
X60960000Y-68580000D03*
X60960000Y-71120000D03*
X60960000Y-73660000D03*
X60960000Y-76200000D03*
X60960000Y-78740000D03*
X76200000Y-78740000D03*
X76200000Y-76200000D03*
X76200000Y-73660000D03*
X76200000Y-71120000D03*
X76200000Y-68580000D03*
X76200000Y-66040000D03*
X76200000Y-63500000D03*
X76200000Y-60960000D03*
X76200000Y-58420000D03*
X76200000Y-55880000D03*
X76200000Y-53340000D03*
X76200000Y-50800000D03*
X76200000Y-48260000D03*
X76200000Y-45720000D03*
%TD*%
D14*
%TO.C,D1*%
X78740000Y-91440000D03*
D15*
X81280000Y-91440000D03*
X83820000Y-91440000D03*
X86360000Y-91440000D03*
X88900000Y-91440000D03*
X91440000Y-91440000D03*
X93980000Y-91440000D03*
X93980000Y-83820000D03*
X91440000Y-83820000D03*
X88900000Y-83820000D03*
X86360000Y-83820000D03*
X83820000Y-83820000D03*
X81280000Y-83820000D03*
X78740000Y-83820000D03*
%TD*%
D14*
%TO.C,D5*%
X99060000Y-111760000D03*
D15*
X101600000Y-111760000D03*
X104140000Y-111760000D03*
X106680000Y-111760000D03*
X109220000Y-111760000D03*
X111760000Y-111760000D03*
X114300000Y-111760000D03*
X114300000Y-104140000D03*
X111760000Y-104140000D03*
X109220000Y-104140000D03*
X106680000Y-104140000D03*
X104140000Y-104140000D03*
X101600000Y-104140000D03*
X99060000Y-104140000D03*
%TD*%
D18*
%TO.C,D15*%
X154940000Y-50800000D03*
D15*
X154940000Y-53340000D03*
X154940000Y-55880000D03*
X154940000Y-58420000D03*
X154940000Y-60960000D03*
X154940000Y-63500000D03*
X154940000Y-66040000D03*
X154940000Y-68580000D03*
X154940000Y-71120000D03*
X154940000Y-73660000D03*
X154940000Y-76200000D03*
X154940000Y-78740000D03*
X170180000Y-78740000D03*
X170180000Y-76200000D03*
X170180000Y-73660000D03*
X170180000Y-71120000D03*
X170180000Y-68580000D03*
X170180000Y-66040000D03*
X170180000Y-63500000D03*
X170180000Y-60960000D03*
X170180000Y-58420000D03*
X170180000Y-55880000D03*
X170180000Y-53340000D03*
X170180000Y-50800000D03*
%TD*%
D12*
%TO.C,R13*%
X167005000Y-102235000D03*
D13*
X169545000Y-102235000D03*
%TD*%
D14*
%TO.C,D11*%
X48260000Y-88900000D03*
D15*
X50800000Y-88900000D03*
X53340000Y-88900000D03*
X55880000Y-88900000D03*
X58420000Y-88900000D03*
X60960000Y-88900000D03*
X63500000Y-88900000D03*
X66040000Y-88900000D03*
X68580000Y-88900000D03*
X71120000Y-88900000D03*
X71120000Y-81280000D03*
X68580000Y-81280000D03*
X66040000Y-81280000D03*
X63500000Y-81280000D03*
X60960000Y-81280000D03*
X58420000Y-81280000D03*
X55880000Y-81280000D03*
X53340000Y-81280000D03*
X50800000Y-81280000D03*
X48260000Y-81280000D03*
%TD*%
D12*
%TO.C,R8*%
X130180000Y-121920000D03*
D13*
X132720000Y-121920000D03*
%TD*%
D12*
%TO.C,R4*%
X86360000Y-45989000D03*
D13*
X86360000Y-43449000D03*
%TD*%
D18*
%TO.C,D2*%
X50800000Y-43180000D03*
D15*
X50800000Y-45720000D03*
X50800000Y-48260000D03*
X50800000Y-50800000D03*
X50800000Y-53340000D03*
X50800000Y-55880000D03*
X50800000Y-58420000D03*
X58420000Y-58420000D03*
X58420000Y-55880000D03*
X58420000Y-53340000D03*
X58420000Y-50800000D03*
X58420000Y-48260000D03*
X58420000Y-45720000D03*
X58420000Y-43180000D03*
%TD*%
D16*
%TO.C,J2*%
X182880000Y-45720000D03*
D17*
X182880000Y-48260000D03*
X182880000Y-50800000D03*
X182880000Y-53340000D03*
X182880000Y-55880000D03*
X182880000Y-58420000D03*
X182880000Y-60960000D03*
X182880000Y-63500000D03*
X182880000Y-66040000D03*
X182880000Y-68580000D03*
X182880000Y-71120000D03*
X182880000Y-73660000D03*
X182880000Y-76200000D03*
X182880000Y-78740000D03*
X182880000Y-81280000D03*
X182880000Y-83820000D03*
X182880000Y-86360000D03*
X182880000Y-88900000D03*
X182880000Y-91440000D03*
X182880000Y-93980000D03*
X182880000Y-96520000D03*
X182880000Y-99060000D03*
X182880000Y-101600000D03*
X182880000Y-104140000D03*
%TD*%
D14*
%TO.C,D4*%
X78740000Y-111760000D03*
D15*
X81280000Y-111760000D03*
X83820000Y-111760000D03*
X86360000Y-111760000D03*
X88900000Y-111760000D03*
X91440000Y-111760000D03*
X93980000Y-111760000D03*
X93980000Y-104140000D03*
X91440000Y-104140000D03*
X88900000Y-104140000D03*
X86360000Y-104140000D03*
X83820000Y-104140000D03*
X81280000Y-104140000D03*
X78740000Y-104140000D03*
%TD*%
D18*
%TO.C,D19*%
X172720000Y-43180000D03*
D15*
X172720000Y-45720000D03*
X172720000Y-48260000D03*
X172720000Y-50800000D03*
X172720000Y-53340000D03*
X172720000Y-55880000D03*
X172720000Y-58420000D03*
X172720000Y-60960000D03*
X180340000Y-60960000D03*
X180340000Y-58420000D03*
X180340000Y-55880000D03*
X180340000Y-53340000D03*
X180340000Y-50800000D03*
X180340000Y-48260000D03*
X180340000Y-45720000D03*
X180340000Y-43180000D03*
%TD*%
D14*
%TO.C,D7*%
X109220000Y-81280000D03*
D15*
X111760000Y-81280000D03*
X114300000Y-81280000D03*
X116840000Y-81280000D03*
X119380000Y-81280000D03*
X121920000Y-81280000D03*
X124460000Y-81280000D03*
X127000000Y-81280000D03*
X129540000Y-81280000D03*
X132080000Y-81280000D03*
X132080000Y-73660000D03*
X129540000Y-73660000D03*
X127000000Y-73660000D03*
X124460000Y-73660000D03*
X121920000Y-73660000D03*
X119380000Y-73660000D03*
X116840000Y-73660000D03*
X114300000Y-73660000D03*
X111760000Y-73660000D03*
X109220000Y-73660000D03*
%TD*%
D12*
%TO.C,R11*%
X102240000Y-83820000D03*
D13*
X104780000Y-83820000D03*
%TD*%
D21*
%TO.C,D23*%
X127000000Y-106680000D03*
D15*
X127000000Y-109220000D03*
X127000000Y-111760000D03*
X127000000Y-114300000D03*
X127000000Y-116840000D03*
X127000000Y-119380000D03*
X127000000Y-121920000D03*
X119380000Y-121920000D03*
X119380000Y-119380000D03*
X119380000Y-116840000D03*
X119380000Y-114300000D03*
X119380000Y-111760000D03*
X119380000Y-109220000D03*
X119380000Y-106680000D03*
%TD*%
M02*
