%TF.GenerationSoftware,KiCad,Pcbnew,9.0.1*%
%TF.CreationDate,2025-04-10T23:57:46+03:00*%
%TF.ProjectId,ProgDC,50726f67-4443-42e6-9b69-6361645f7063,rev?*%
%TF.SameCoordinates,Original*%
%TF.FileFunction,Legend,Bot*%
%TF.FilePolarity,Positive*%
%FSLAX46Y46*%
G04 Gerber Fmt 4.6, Leading zero omitted, Abs format (unit mm)*
G04 Created by KiCad (PCBNEW 9.0.1) date 2025-04-10 23:57:46*
%MOMM*%
%LPD*%
G01*
G04 APERTURE LIST*
%ADD10C,0.150000*%
%ADD11C,0.120000*%
G04 APERTURE END LIST*
D10*
X124404285Y-104804819D02*
X124404285Y-103804819D01*
X124404285Y-103804819D02*
X124166190Y-103804819D01*
X124166190Y-103804819D02*
X124023333Y-103852438D01*
X124023333Y-103852438D02*
X123928095Y-103947676D01*
X123928095Y-103947676D02*
X123880476Y-104042914D01*
X123880476Y-104042914D02*
X123832857Y-104233390D01*
X123832857Y-104233390D02*
X123832857Y-104376247D01*
X123832857Y-104376247D02*
X123880476Y-104566723D01*
X123880476Y-104566723D02*
X123928095Y-104661961D01*
X123928095Y-104661961D02*
X124023333Y-104757200D01*
X124023333Y-104757200D02*
X124166190Y-104804819D01*
X124166190Y-104804819D02*
X124404285Y-104804819D01*
X123451904Y-103900057D02*
X123404285Y-103852438D01*
X123404285Y-103852438D02*
X123309047Y-103804819D01*
X123309047Y-103804819D02*
X123070952Y-103804819D01*
X123070952Y-103804819D02*
X122975714Y-103852438D01*
X122975714Y-103852438D02*
X122928095Y-103900057D01*
X122928095Y-103900057D02*
X122880476Y-103995295D01*
X122880476Y-103995295D02*
X122880476Y-104090533D01*
X122880476Y-104090533D02*
X122928095Y-104233390D01*
X122928095Y-104233390D02*
X123499523Y-104804819D01*
X123499523Y-104804819D02*
X122880476Y-104804819D01*
X122547142Y-103804819D02*
X121928095Y-103804819D01*
X121928095Y-103804819D02*
X122261428Y-104185771D01*
X122261428Y-104185771D02*
X122118571Y-104185771D01*
X122118571Y-104185771D02*
X122023333Y-104233390D01*
X122023333Y-104233390D02*
X121975714Y-104281009D01*
X121975714Y-104281009D02*
X121928095Y-104376247D01*
X121928095Y-104376247D02*
X121928095Y-104614342D01*
X121928095Y-104614342D02*
X121975714Y-104709580D01*
X121975714Y-104709580D02*
X122023333Y-104757200D01*
X122023333Y-104757200D02*
X122118571Y-104804819D01*
X122118571Y-104804819D02*
X122404285Y-104804819D01*
X122404285Y-104804819D02*
X122499523Y-104757200D01*
X122499523Y-104757200D02*
X122547142Y-104709580D01*
D11*
%TO.C,D23*%
X120540000Y-105350000D02*
X122190000Y-105350000D01*
X120540000Y-123250000D02*
X120540000Y-105350000D01*
X124190000Y-105350000D02*
X125840000Y-105350000D01*
X125840000Y-105350000D02*
X125840000Y-123250000D01*
X125840000Y-123250000D02*
X120540000Y-123250000D01*
X124190000Y-105350000D02*
G75*
G02*
X122190000Y-105350000I-1000000J0D01*
G01*
%TD*%
M02*
