%TF.GenerationSoftware,KiCad,Pcbnew,9.0.1*%
%TF.CreationDate,2025-04-10T22:20:43+03:00*%
%TF.ProjectId,Z80_card,5a38305f-6361-4726-942e-6b696361645f,rev?*%
%TF.SameCoordinates,Original*%
%TF.FileFunction,Legend,Bot*%
%TF.FilePolarity,Positive*%
%FSLAX46Y46*%
G04 Gerber Fmt 4.6, Leading zero omitted, Abs format (unit mm)*
G04 Created by KiCad (PCBNEW 9.0.1) date 2025-04-10 22:20:43*
%MOMM*%
%LPD*%
G01*
G04 APERTURE LIST*
%ADD10C,0.150000*%
%ADD11C,0.120000*%
G04 APERTURE END LIST*
D10*
X49479580Y-69915833D02*
X49527200Y-69868214D01*
X49527200Y-69868214D02*
X49574819Y-69725357D01*
X49574819Y-69725357D02*
X49574819Y-69630119D01*
X49574819Y-69630119D02*
X49527200Y-69487262D01*
X49527200Y-69487262D02*
X49431961Y-69392024D01*
X49431961Y-69392024D02*
X49336723Y-69344405D01*
X49336723Y-69344405D02*
X49146247Y-69296786D01*
X49146247Y-69296786D02*
X49003390Y-69296786D01*
X49003390Y-69296786D02*
X48812914Y-69344405D01*
X48812914Y-69344405D02*
X48717676Y-69392024D01*
X48717676Y-69392024D02*
X48622438Y-69487262D01*
X48622438Y-69487262D02*
X48574819Y-69630119D01*
X48574819Y-69630119D02*
X48574819Y-69725357D01*
X48574819Y-69725357D02*
X48622438Y-69868214D01*
X48622438Y-69868214D02*
X48670057Y-69915833D01*
X48574819Y-70249167D02*
X48574819Y-70868214D01*
X48574819Y-70868214D02*
X48955771Y-70534881D01*
X48955771Y-70534881D02*
X48955771Y-70677738D01*
X48955771Y-70677738D02*
X49003390Y-70772976D01*
X49003390Y-70772976D02*
X49051009Y-70820595D01*
X49051009Y-70820595D02*
X49146247Y-70868214D01*
X49146247Y-70868214D02*
X49384342Y-70868214D01*
X49384342Y-70868214D02*
X49479580Y-70820595D01*
X49479580Y-70820595D02*
X49527200Y-70772976D01*
X49527200Y-70772976D02*
X49574819Y-70677738D01*
X49574819Y-70677738D02*
X49574819Y-70392024D01*
X49574819Y-70392024D02*
X49527200Y-70296786D01*
X49527200Y-70296786D02*
X49479580Y-70249167D01*
X75699580Y-51670833D02*
X75747200Y-51623214D01*
X75747200Y-51623214D02*
X75794819Y-51480357D01*
X75794819Y-51480357D02*
X75794819Y-51385119D01*
X75794819Y-51385119D02*
X75747200Y-51242262D01*
X75747200Y-51242262D02*
X75651961Y-51147024D01*
X75651961Y-51147024D02*
X75556723Y-51099405D01*
X75556723Y-51099405D02*
X75366247Y-51051786D01*
X75366247Y-51051786D02*
X75223390Y-51051786D01*
X75223390Y-51051786D02*
X75032914Y-51099405D01*
X75032914Y-51099405D02*
X74937676Y-51147024D01*
X74937676Y-51147024D02*
X74842438Y-51242262D01*
X74842438Y-51242262D02*
X74794819Y-51385119D01*
X74794819Y-51385119D02*
X74794819Y-51480357D01*
X74794819Y-51480357D02*
X74842438Y-51623214D01*
X74842438Y-51623214D02*
X74890057Y-51670833D01*
X75794819Y-52623214D02*
X75794819Y-52051786D01*
X75794819Y-52337500D02*
X74794819Y-52337500D01*
X74794819Y-52337500D02*
X74937676Y-52242262D01*
X74937676Y-52242262D02*
X75032914Y-52147024D01*
X75032914Y-52147024D02*
X75080533Y-52051786D01*
X76382080Y-72455833D02*
X76429700Y-72408214D01*
X76429700Y-72408214D02*
X76477319Y-72265357D01*
X76477319Y-72265357D02*
X76477319Y-72170119D01*
X76477319Y-72170119D02*
X76429700Y-72027262D01*
X76429700Y-72027262D02*
X76334461Y-71932024D01*
X76334461Y-71932024D02*
X76239223Y-71884405D01*
X76239223Y-71884405D02*
X76048747Y-71836786D01*
X76048747Y-71836786D02*
X75905890Y-71836786D01*
X75905890Y-71836786D02*
X75715414Y-71884405D01*
X75715414Y-71884405D02*
X75620176Y-71932024D01*
X75620176Y-71932024D02*
X75524938Y-72027262D01*
X75524938Y-72027262D02*
X75477319Y-72170119D01*
X75477319Y-72170119D02*
X75477319Y-72265357D01*
X75477319Y-72265357D02*
X75524938Y-72408214D01*
X75524938Y-72408214D02*
X75572557Y-72455833D01*
X75810652Y-73312976D02*
X76477319Y-73312976D01*
X75429700Y-73074881D02*
X76143985Y-72836786D01*
X76143985Y-72836786D02*
X76143985Y-73455833D01*
X74879580Y-56833333D02*
X74927200Y-56785714D01*
X74927200Y-56785714D02*
X74974819Y-56642857D01*
X74974819Y-56642857D02*
X74974819Y-56547619D01*
X74974819Y-56547619D02*
X74927200Y-56404762D01*
X74927200Y-56404762D02*
X74831961Y-56309524D01*
X74831961Y-56309524D02*
X74736723Y-56261905D01*
X74736723Y-56261905D02*
X74546247Y-56214286D01*
X74546247Y-56214286D02*
X74403390Y-56214286D01*
X74403390Y-56214286D02*
X74212914Y-56261905D01*
X74212914Y-56261905D02*
X74117676Y-56309524D01*
X74117676Y-56309524D02*
X74022438Y-56404762D01*
X74022438Y-56404762D02*
X73974819Y-56547619D01*
X73974819Y-56547619D02*
X73974819Y-56642857D01*
X73974819Y-56642857D02*
X74022438Y-56785714D01*
X74022438Y-56785714D02*
X74070057Y-56833333D01*
X74070057Y-57214286D02*
X74022438Y-57261905D01*
X74022438Y-57261905D02*
X73974819Y-57357143D01*
X73974819Y-57357143D02*
X73974819Y-57595238D01*
X73974819Y-57595238D02*
X74022438Y-57690476D01*
X74022438Y-57690476D02*
X74070057Y-57738095D01*
X74070057Y-57738095D02*
X74165295Y-57785714D01*
X74165295Y-57785714D02*
X74260533Y-57785714D01*
X74260533Y-57785714D02*
X74403390Y-57738095D01*
X74403390Y-57738095D02*
X74974819Y-57166667D01*
X74974819Y-57166667D02*
X74974819Y-57785714D01*
D11*
%TO.C,C3*%
X50065000Y-69821248D02*
X50065000Y-70343752D01*
X51535000Y-69821248D02*
X51535000Y-70343752D01*
%TO.C,C1*%
X72925000Y-52098752D02*
X72925000Y-51576248D01*
X74395000Y-52098752D02*
X74395000Y-51576248D01*
%TO.C,C4*%
X76967500Y-72361248D02*
X76967500Y-72883752D01*
X78437500Y-72361248D02*
X78437500Y-72883752D01*
%TO.C,C2*%
X75465000Y-56738748D02*
X75465000Y-57261252D01*
X76935000Y-56738748D02*
X76935000Y-57261252D01*
%TD*%
M02*
