%TF.GenerationSoftware,KiCad,Pcbnew,9.0.1*%
%TF.CreationDate,2025-04-10T22:20:43+03:00*%
%TF.ProjectId,Z80_card,5a38305f-6361-4726-942e-6b696361645f,rev?*%
%TF.SameCoordinates,Original*%
%TF.FileFunction,Soldermask,Top*%
%TF.FilePolarity,Negative*%
%FSLAX46Y46*%
G04 Gerber Fmt 4.6, Leading zero omitted, Abs format (unit mm)*
G04 Created by KiCad (PCBNEW 9.0.1) date 2025-04-10 22:20:43*
%MOMM*%
%LPD*%
G01*
G04 APERTURE LIST*
G04 Aperture macros list*
%AMRoundRect*
0 Rectangle with rounded corners*
0 $1 Rounding radius*
0 $2 $3 $4 $5 $6 $7 $8 $9 X,Y pos of 4 corners*
0 Add a 4 corners polygon primitive as box body*
4,1,4,$2,$3,$4,$5,$6,$7,$8,$9,$2,$3,0*
0 Add four circle primitives for the rounded corners*
1,1,$1+$1,$2,$3*
1,1,$1+$1,$4,$5*
1,1,$1+$1,$6,$7*
1,1,$1+$1,$8,$9*
0 Add four rect primitives between the rounded corners*
20,1,$1+$1,$2,$3,$4,$5,0*
20,1,$1+$1,$4,$5,$6,$7,0*
20,1,$1+$1,$6,$7,$8,$9,0*
20,1,$1+$1,$8,$9,$2,$3,0*%
G04 Aperture macros list end*
%ADD10RoundRect,0.250000X0.550000X-0.550000X0.550000X0.550000X-0.550000X0.550000X-0.550000X-0.550000X0*%
%ADD11C,1.600000*%
%ADD12R,1.700000X1.700000*%
%ADD13C,1.700000*%
%ADD14C,2.400000*%
%ADD15O,2.400000X2.400000*%
%ADD16RoundRect,0.250000X-0.550000X0.550000X-0.550000X-0.550000X0.550000X-0.550000X0.550000X0.550000X0*%
G04 APERTURE END LIST*
D10*
%TO.C,D1*%
X55880000Y-58420000D03*
D11*
X58420000Y-58420000D03*
X60960000Y-58420000D03*
X63500000Y-58420000D03*
X66040000Y-58420000D03*
X68580000Y-58420000D03*
X71120000Y-58420000D03*
X71120000Y-50800000D03*
X68580000Y-50800000D03*
X66040000Y-50800000D03*
X63500000Y-50800000D03*
X60960000Y-50800000D03*
X58420000Y-50800000D03*
X55880000Y-50800000D03*
%TD*%
D10*
%TO.C,D4*%
X53340000Y-73660000D03*
D11*
X55880000Y-73660000D03*
X58420000Y-73660000D03*
X60960000Y-73660000D03*
X63500000Y-73660000D03*
X66040000Y-73660000D03*
X68580000Y-73660000D03*
X71120000Y-73660000D03*
X71120000Y-66040000D03*
X68580000Y-66040000D03*
X66040000Y-66040000D03*
X63500000Y-66040000D03*
X60960000Y-66040000D03*
X58420000Y-66040000D03*
X55880000Y-66040000D03*
X53340000Y-66040000D03*
%TD*%
D12*
%TO.C,J2*%
X55880000Y-40640000D03*
D13*
X53340000Y-40640000D03*
X50800000Y-40640000D03*
%TD*%
D10*
%TO.C,D3*%
X81280000Y-73660000D03*
D11*
X83820000Y-73660000D03*
X86360000Y-73660000D03*
X88900000Y-73660000D03*
X91440000Y-73660000D03*
X93980000Y-73660000D03*
X96520000Y-73660000D03*
X99060000Y-73660000D03*
X99060000Y-66040000D03*
X96520000Y-66040000D03*
X93980000Y-66040000D03*
X91440000Y-66040000D03*
X88900000Y-66040000D03*
X86360000Y-66040000D03*
X83820000Y-66040000D03*
X81280000Y-66040000D03*
%TD*%
D14*
%TO.C,R2*%
X92075000Y-40640000D03*
D15*
X97155000Y-40640000D03*
%TD*%
D14*
%TO.C,R1*%
X76835000Y-40640000D03*
D15*
X71755000Y-40640000D03*
%TD*%
D14*
%TO.C,R3*%
X81915000Y-40640000D03*
D15*
X86995000Y-40640000D03*
%TD*%
D16*
%TO.C,J1*%
X99060000Y-45720000D03*
D11*
X96520000Y-45720000D03*
X93980000Y-45720000D03*
X91440000Y-45720000D03*
X88900000Y-45720000D03*
X86360000Y-45720000D03*
X83820000Y-45720000D03*
X81280000Y-45720000D03*
X78740000Y-45720000D03*
X76200000Y-45720000D03*
X73660000Y-45720000D03*
X71120000Y-45720000D03*
X68580000Y-45720000D03*
X66040000Y-45720000D03*
X63500000Y-45720000D03*
X60960000Y-45720000D03*
X58420000Y-45720000D03*
X55880000Y-45720000D03*
X53340000Y-45720000D03*
X50800000Y-45720000D03*
X50800000Y-60960000D03*
X53340000Y-60960000D03*
X55880000Y-60960000D03*
X58420000Y-60960000D03*
X60960000Y-60960000D03*
X63500000Y-60960000D03*
X66040000Y-60960000D03*
X68580000Y-60960000D03*
X71120000Y-60960000D03*
X73660000Y-60960000D03*
X76200000Y-60960000D03*
X78740000Y-60960000D03*
X81280000Y-60960000D03*
X83820000Y-60960000D03*
X86360000Y-60960000D03*
X88900000Y-60960000D03*
X91440000Y-60960000D03*
X93980000Y-60960000D03*
X96520000Y-60960000D03*
X99060000Y-60960000D03*
%TD*%
D14*
%TO.C,R4*%
X61260000Y-40640000D03*
D15*
X66340000Y-40640000D03*
%TD*%
D16*
%TO.C,U1*%
X99060000Y-48260000D03*
D11*
X96520000Y-48260000D03*
X93980000Y-48260000D03*
X91440000Y-48260000D03*
X88900000Y-48260000D03*
X86360000Y-48260000D03*
X83820000Y-48260000D03*
X81280000Y-48260000D03*
X78740000Y-48260000D03*
X76200000Y-48260000D03*
X73660000Y-48260000D03*
X71120000Y-48260000D03*
X68580000Y-48260000D03*
X66040000Y-48260000D03*
X63500000Y-48260000D03*
X60960000Y-48260000D03*
X58420000Y-48260000D03*
X55880000Y-48260000D03*
X53340000Y-48260000D03*
X50800000Y-48260000D03*
X50800000Y-63500000D03*
X53340000Y-63500000D03*
X55880000Y-63500000D03*
X58420000Y-63500000D03*
X60960000Y-63500000D03*
X63500000Y-63500000D03*
X66040000Y-63500000D03*
X68580000Y-63500000D03*
X71120000Y-63500000D03*
X73660000Y-63500000D03*
X76200000Y-63500000D03*
X78740000Y-63500000D03*
X81280000Y-63500000D03*
X83820000Y-63500000D03*
X86360000Y-63500000D03*
X88900000Y-63500000D03*
X91440000Y-63500000D03*
X93980000Y-63500000D03*
X96520000Y-63500000D03*
X99060000Y-63500000D03*
%TD*%
D10*
%TO.C,D2*%
X78740000Y-58420000D03*
D11*
X81280000Y-58420000D03*
X83820000Y-58420000D03*
X86360000Y-58420000D03*
X88900000Y-58420000D03*
X91440000Y-58420000D03*
X93980000Y-58420000D03*
X93980000Y-50800000D03*
X91440000Y-50800000D03*
X88900000Y-50800000D03*
X86360000Y-50800000D03*
X83820000Y-50800000D03*
X81280000Y-50800000D03*
X78740000Y-50800000D03*
%TD*%
M02*
