%TF.GenerationSoftware,KiCad,Pcbnew,9.0.1*%
%TF.CreationDate,2025-04-10T22:20:42+03:00*%
%TF.ProjectId,Z80_card,5a38305f-6361-4726-942e-6b696361645f,rev?*%
%TF.SameCoordinates,Original*%
%TF.FileFunction,Copper,L2,Bot*%
%TF.FilePolarity,Positive*%
%FSLAX46Y46*%
G04 Gerber Fmt 4.6, Leading zero omitted, Abs format (unit mm)*
G04 Created by KiCad (PCBNEW 9.0.1) date 2025-04-10 22:20:42*
%MOMM*%
%LPD*%
G01*
G04 APERTURE LIST*
G04 Aperture macros list*
%AMRoundRect*
0 Rectangle with rounded corners*
0 $1 Rounding radius*
0 $2 $3 $4 $5 $6 $7 $8 $9 X,Y pos of 4 corners*
0 Add a 4 corners polygon primitive as box body*
4,1,4,$2,$3,$4,$5,$6,$7,$8,$9,$2,$3,0*
0 Add four circle primitives for the rounded corners*
1,1,$1+$1,$2,$3*
1,1,$1+$1,$4,$5*
1,1,$1+$1,$6,$7*
1,1,$1+$1,$8,$9*
0 Add four rect primitives between the rounded corners*
20,1,$1+$1,$2,$3,$4,$5,0*
20,1,$1+$1,$4,$5,$6,$7,0*
20,1,$1+$1,$6,$7,$8,$9,0*
20,1,$1+$1,$8,$9,$2,$3,0*%
G04 Aperture macros list end*
%TA.AperFunction,ComponentPad*%
%ADD10RoundRect,0.250000X0.550000X-0.550000X0.550000X0.550000X-0.550000X0.550000X-0.550000X-0.550000X0*%
%TD*%
%TA.AperFunction,ComponentPad*%
%ADD11C,1.600000*%
%TD*%
%TA.AperFunction,ComponentPad*%
%ADD12R,1.700000X1.700000*%
%TD*%
%TA.AperFunction,ComponentPad*%
%ADD13C,1.700000*%
%TD*%
%TA.AperFunction,ComponentPad*%
%ADD14C,2.400000*%
%TD*%
%TA.AperFunction,ComponentPad*%
%ADD15O,2.400000X2.400000*%
%TD*%
%TA.AperFunction,ComponentPad*%
%ADD16RoundRect,0.250000X-0.550000X0.550000X-0.550000X-0.550000X0.550000X-0.550000X0.550000X0.550000X0*%
%TD*%
%TA.AperFunction,SMDPad,CuDef*%
%ADD17RoundRect,0.250000X-0.475000X0.337500X-0.475000X-0.337500X0.475000X-0.337500X0.475000X0.337500X0*%
%TD*%
%TA.AperFunction,SMDPad,CuDef*%
%ADD18RoundRect,0.250000X0.475000X-0.337500X0.475000X0.337500X-0.475000X0.337500X-0.475000X-0.337500X0*%
%TD*%
%TA.AperFunction,ViaPad*%
%ADD19C,0.300000*%
%TD*%
%TA.AperFunction,Conductor*%
%ADD20C,0.400000*%
%TD*%
%TA.AperFunction,Conductor*%
%ADD21C,0.200000*%
%TD*%
G04 APERTURE END LIST*
D10*
%TO.P,D1,1,A*%
%TO.N,Net-(D1A-A)*%
X55880000Y-58420000D03*
D11*
%TO.P,D1,2,B*%
%TO.N,Net-(D1A-B)*%
X58420000Y-58420000D03*
%TO.P,D1,3,Y*%
%TO.N,/BLUE*%
X60960000Y-58420000D03*
%TO.P,D1,4,A*%
%TO.N,Net-(D1A-B)*%
X63500000Y-58420000D03*
%TO.P,D1,5,B*%
%TO.N,Net-(D1B-B)*%
X66040000Y-58420000D03*
%TO.P,D1,6,Y*%
%TO.N,unconnected-(D1B-Y-Pad6)*%
X68580000Y-58420000D03*
%TO.P,D1,7,GND*%
%TO.N,GND*%
X71120000Y-58420000D03*
%TO.P,D1,8,Y*%
%TO.N,/RED*%
X71120000Y-50800000D03*
%TO.P,D1,9,A*%
%TO.N,/~{WR}*%
X68580000Y-50800000D03*
%TO.P,D1,10,B*%
%TO.N,Net-(D1B-B)*%
X66040000Y-50800000D03*
%TO.P,D1,11,Y*%
%TO.N,/YELLOW*%
X63500000Y-50800000D03*
%TO.P,D1,12,A*%
%TO.N,/~{WR}*%
X60960000Y-50800000D03*
%TO.P,D1,13,B*%
%TO.N,Net-(D1A-A)*%
X58420000Y-50800000D03*
%TO.P,D1,14,VCC*%
%TO.N,+5V*%
X55880000Y-50800000D03*
%TD*%
D10*
%TO.P,D4,1,SEL*%
%TO.N,Net-(D1A-A)*%
X53340000Y-73660000D03*
D11*
%TO.P,D4,2,1A*%
%TO.N,/A3*%
X55880000Y-73660000D03*
%TO.P,D4,3,1B*%
%TO.N,/_A11*%
X58420000Y-73660000D03*
%TO.P,D4,4,1Y*%
%TO.N,/A11*%
X60960000Y-73660000D03*
%TO.P,D4,5,2A*%
%TO.N,/A2*%
X63500000Y-73660000D03*
%TO.P,D4,6,2B*%
%TO.N,/_A10*%
X66040000Y-73660000D03*
%TO.P,D4,7,2Y*%
%TO.N,/A10*%
X68580000Y-73660000D03*
%TO.P,D4,8,GND*%
%TO.N,GND*%
X71120000Y-73660000D03*
%TO.P,D4,9,3Y*%
%TO.N,/A9*%
X71120000Y-66040000D03*
%TO.P,D4,10,3B*%
%TO.N,/_A9*%
X68580000Y-66040000D03*
%TO.P,D4,11,3A*%
%TO.N,/A1*%
X66040000Y-66040000D03*
%TO.P,D4,12,4Y*%
%TO.N,/A8*%
X63500000Y-66040000D03*
%TO.P,D4,13,4B*%
%TO.N,/_A8*%
X60960000Y-66040000D03*
%TO.P,D4,14,4A*%
%TO.N,/A0*%
X58420000Y-66040000D03*
%TO.P,D4,15,~{OE}*%
%TO.N,/_HLDA*%
X55880000Y-66040000D03*
%TO.P,D4,16,VCC*%
%TO.N,+5V*%
X53340000Y-66040000D03*
%TD*%
D12*
%TO.P,J2,1,Pin_1*%
%TO.N,/RED*%
X55880000Y-40640000D03*
D13*
%TO.P,J2,2,Pin_2*%
%TO.N,/YELLOW*%
X53340000Y-40640000D03*
%TO.P,J2,3,Pin_3*%
%TO.N,/BLUE*%
X50800000Y-40640000D03*
%TD*%
D10*
%TO.P,D3,1,SEL*%
%TO.N,Net-(D1A-A)*%
X81280000Y-73660000D03*
D11*
%TO.P,D3,2,1A*%
%TO.N,/A7*%
X83820000Y-73660000D03*
%TO.P,D3,3,1B*%
%TO.N,/_A15*%
X86360000Y-73660000D03*
%TO.P,D3,4,1Y*%
%TO.N,/A15*%
X88900000Y-73660000D03*
%TO.P,D3,5,2A*%
%TO.N,/A6*%
X91440000Y-73660000D03*
%TO.P,D3,6,2B*%
%TO.N,/_A14*%
X93980000Y-73660000D03*
%TO.P,D3,7,2Y*%
%TO.N,/A14*%
X96520000Y-73660000D03*
%TO.P,D3,8,GND*%
%TO.N,GND*%
X99060000Y-73660000D03*
%TO.P,D3,9,3Y*%
%TO.N,/A13*%
X99060000Y-66040000D03*
%TO.P,D3,10,3B*%
%TO.N,/_A13*%
X96520000Y-66040000D03*
%TO.P,D3,11,3A*%
%TO.N,/A5*%
X93980000Y-66040000D03*
%TO.P,D3,12,4Y*%
%TO.N,/A12*%
X91440000Y-66040000D03*
%TO.P,D3,13,4B*%
%TO.N,/_A12*%
X88900000Y-66040000D03*
%TO.P,D3,14,4A*%
%TO.N,/A4*%
X86360000Y-66040000D03*
%TO.P,D3,15,~{OE}*%
%TO.N,/_HLDA*%
X83820000Y-66040000D03*
%TO.P,D3,16,VCC*%
%TO.N,+5V*%
X81280000Y-66040000D03*
%TD*%
D14*
%TO.P,R2,1,TOP*%
%TO.N,+5V*%
X92075000Y-40640000D03*
D15*
%TO.P,R2,2,BOT*%
%TO.N,/CLK*%
X97155000Y-40640000D03*
%TD*%
D14*
%TO.P,R1,1,TOP*%
%TO.N,Net-(R1-TOP)*%
X76835000Y-40640000D03*
D15*
%TO.P,R1,2,BOT*%
%TO.N,+5V*%
X71755000Y-40640000D03*
%TD*%
D14*
%TO.P,R3,1,TOP*%
%TO.N,Net-(D1B-B)*%
X81915000Y-40640000D03*
D15*
%TO.P,R3,2,BOT*%
%TO.N,+5V*%
X86995000Y-40640000D03*
%TD*%
D16*
%TO.P,J1,1,Pin_1*%
%TO.N,/A10*%
X99060000Y-45720000D03*
D11*
%TO.P,J1,2,Pin_2*%
%TO.N,GND*%
X96520000Y-45720000D03*
%TO.P,J1,3,Pin_3*%
%TO.N,/D4*%
X93980000Y-45720000D03*
%TO.P,J1,4,Pin_4*%
%TO.N,/D5*%
X91440000Y-45720000D03*
%TO.P,J1,5,Pin_5*%
%TO.N,/D6*%
X88900000Y-45720000D03*
%TO.P,J1,6,Pin_6*%
%TO.N,/D7*%
X86360000Y-45720000D03*
%TO.P,J1,7,Pin_7*%
%TO.N,/D3*%
X83820000Y-45720000D03*
%TO.P,J1,8,Pin_8*%
%TO.N,/D2*%
X81280000Y-45720000D03*
%TO.P,J1,9,Pin_9*%
%TO.N,/D1*%
X78740000Y-45720000D03*
%TO.P,J1,10,Pin_10*%
%TO.N,/D0*%
X76200000Y-45720000D03*
%TO.P,J1,11,Pin_11*%
%TO.N,/-5V*%
X73660000Y-45720000D03*
%TO.P,J1,12,Pin_12*%
%TO.N,/RESET*%
X71120000Y-45720000D03*
%TO.P,J1,13,Pin_13*%
%TO.N,/HLD*%
X68580000Y-45720000D03*
%TO.P,J1,14,Pin_14*%
%TO.N,/INT*%
X66040000Y-45720000D03*
%TO.P,J1,15,Pin_15*%
%TO.N,/C2*%
X63500000Y-45720000D03*
%TO.P,J1,16,Pin_16*%
%TO.N,/INTE*%
X60960000Y-45720000D03*
%TO.P,J1,17,Pin_17*%
%TO.N,/DBIN*%
X58420000Y-45720000D03*
%TO.P,J1,18,Pin_18*%
%TO.N,/~{WR}*%
X55880000Y-45720000D03*
%TO.P,J1,19,Pin_19*%
%TO.N,/SYN*%
X53340000Y-45720000D03*
%TO.P,J1,20,Pin_20*%
%TO.N,+5V*%
X50800000Y-45720000D03*
%TO.P,J1,21,Pin_21*%
%TO.N,/_HLDA*%
X50800000Y-60960000D03*
%TO.P,J1,22,Pin_22*%
%TO.N,/C1*%
X53340000Y-60960000D03*
%TO.P,J1,23,Pin_23*%
%TO.N,/RDY*%
X55880000Y-60960000D03*
%TO.P,J1,24,Pin_24*%
%TO.N,/WI*%
X58420000Y-60960000D03*
%TO.P,J1,25,Pin_25*%
%TO.N,/A0*%
X60960000Y-60960000D03*
%TO.P,J1,26,Pin_26*%
%TO.N,/A1*%
X63500000Y-60960000D03*
%TO.P,J1,27,Pin_27*%
%TO.N,/A2*%
X66040000Y-60960000D03*
%TO.P,J1,28,Pin_28*%
%TO.N,/+12V*%
X68580000Y-60960000D03*
%TO.P,J1,29,Pin_29*%
%TO.N,/A3*%
X71120000Y-60960000D03*
%TO.P,J1,30,Pin_30*%
%TO.N,/A4*%
X73660000Y-60960000D03*
%TO.P,J1,31,Pin_31*%
%TO.N,/A5*%
X76200000Y-60960000D03*
%TO.P,J1,32,Pin_32*%
%TO.N,/A6*%
X78740000Y-60960000D03*
%TO.P,J1,33,Pin_33*%
%TO.N,/A7*%
X81280000Y-60960000D03*
%TO.P,J1,34,Pin_34*%
%TO.N,/A8*%
X83820000Y-60960000D03*
%TO.P,J1,35,Pin_35*%
%TO.N,/A9*%
X86360000Y-60960000D03*
%TO.P,J1,36,Pin_36*%
%TO.N,/A15*%
X88900000Y-60960000D03*
%TO.P,J1,37,Pin_37*%
%TO.N,/A12*%
X91440000Y-60960000D03*
%TO.P,J1,38,Pin_38*%
%TO.N,/A13*%
X93980000Y-60960000D03*
%TO.P,J1,39,Pin_39*%
%TO.N,/A14*%
X96520000Y-60960000D03*
%TO.P,J1,40,Pin_40*%
%TO.N,/A11*%
X99060000Y-60960000D03*
%TD*%
D14*
%TO.P,R4,1,TOP*%
%TO.N,Net-(D1A-A)*%
X61260000Y-40640000D03*
D15*
%TO.P,R4,2,BOT*%
%TO.N,+5V*%
X66340000Y-40640000D03*
%TD*%
D16*
%TO.P,U1,1,A11*%
%TO.N,/_A11*%
X99060000Y-48260000D03*
D11*
%TO.P,U1,2,A12*%
%TO.N,/_A12*%
X96520000Y-48260000D03*
%TO.P,U1,3,A13*%
%TO.N,/_A13*%
X93980000Y-48260000D03*
%TO.P,U1,4,A14*%
%TO.N,/_A14*%
X91440000Y-48260000D03*
%TO.P,U1,5,A15*%
%TO.N,/_A15*%
X88900000Y-48260000D03*
%TO.P,U1,6,CLK*%
%TO.N,/CLK*%
X86360000Y-48260000D03*
%TO.P,U1,7,D4*%
%TO.N,/D4*%
X83820000Y-48260000D03*
%TO.P,U1,8,D3*%
%TO.N,/D3*%
X81280000Y-48260000D03*
%TO.P,U1,9,D5*%
%TO.N,/D5*%
X78740000Y-48260000D03*
%TO.P,U1,10,D6*%
%TO.N,/D6*%
X76200000Y-48260000D03*
%TO.P,U1,11,VCC*%
%TO.N,+5V*%
X73660000Y-48260000D03*
%TO.P,U1,12,D2*%
%TO.N,/D2*%
X71120000Y-48260000D03*
%TO.P,U1,13,D7*%
%TO.N,/D7*%
X68580000Y-48260000D03*
%TO.P,U1,14,D0*%
%TO.N,/D0*%
X66040000Y-48260000D03*
%TO.P,U1,15,D1*%
%TO.N,/D1*%
X63500000Y-48260000D03*
%TO.P,U1,16,~{INT}*%
%TO.N,Net-(D2A-Y)*%
X60960000Y-48260000D03*
%TO.P,U1,17,~{NMI}*%
%TO.N,Net-(R1-TOP)*%
X58420000Y-48260000D03*
%TO.P,U1,18,~{HALT}*%
%TO.N,unconnected-(U1-~{HALT}-Pad18)*%
X55880000Y-48260000D03*
%TO.P,U1,19,~{MREQ}*%
%TO.N,Net-(D1B-B)*%
X53340000Y-48260000D03*
%TO.P,U1,20,~{IORQ}*%
%TO.N,Net-(D1A-A)*%
X50800000Y-48260000D03*
%TO.P,U1,21,~{RD}*%
%TO.N,Net-(D1A-B)*%
X50800000Y-63500000D03*
%TO.P,U1,22,~{WR}*%
%TO.N,/~{WR}*%
X53340000Y-63500000D03*
%TO.P,U1,23,~{BUSACK}*%
%TO.N,Net-(D2C-A)*%
X55880000Y-63500000D03*
%TO.P,U1,24,~{WAIT}*%
%TO.N,/RDY*%
X58420000Y-63500000D03*
%TO.P,U1,25,~{BUSREQ}*%
%TO.N,Net-(D2F-Y)*%
X60960000Y-63500000D03*
%TO.P,U1,26,~{RESET}*%
%TO.N,/~{RESET}*%
X63500000Y-63500000D03*
%TO.P,U1,27,~{M1}*%
%TO.N,unconnected-(U1-~{M1}-Pad27)*%
X66040000Y-63500000D03*
%TO.P,U1,28,~{RFSH}*%
%TO.N,unconnected-(U1-~{RFSH}-Pad28)*%
X68580000Y-63500000D03*
%TO.P,U1,29,GND*%
%TO.N,GND*%
X71120000Y-63500000D03*
%TO.P,U1,30,A0*%
%TO.N,/A0*%
X73660000Y-63500000D03*
%TO.P,U1,31,A1*%
%TO.N,/A1*%
X76200000Y-63500000D03*
%TO.P,U1,32,A2*%
%TO.N,/A2*%
X78740000Y-63500000D03*
%TO.P,U1,33,A3*%
%TO.N,/A3*%
X81280000Y-63500000D03*
%TO.P,U1,34,A4*%
%TO.N,/A4*%
X83820000Y-63500000D03*
%TO.P,U1,35,A5*%
%TO.N,/A5*%
X86360000Y-63500000D03*
%TO.P,U1,36,A6*%
%TO.N,/A6*%
X88900000Y-63500000D03*
%TO.P,U1,37,A7*%
%TO.N,/A7*%
X91440000Y-63500000D03*
%TO.P,U1,38,A8*%
%TO.N,/_A8*%
X93980000Y-63500000D03*
%TO.P,U1,39,A9*%
%TO.N,/_A9*%
X96520000Y-63500000D03*
%TO.P,U1,40,A10*%
%TO.N,/_A10*%
X99060000Y-63500000D03*
%TD*%
D10*
%TO.P,D2,1,A*%
%TO.N,/INT*%
X78740000Y-58420000D03*
D11*
%TO.P,D2,2,Y*%
%TO.N,Net-(D2A-Y)*%
X81280000Y-58420000D03*
%TO.P,D2,3,A*%
%TO.N,Net-(D1A-B)*%
X83820000Y-58420000D03*
%TO.P,D2,4,Y*%
%TO.N,/DBIN*%
X86360000Y-58420000D03*
%TO.P,D2,5,A*%
%TO.N,Net-(D2C-A)*%
X88900000Y-58420000D03*
%TO.P,D2,6,Y*%
%TO.N,/_HLDA*%
X91440000Y-58420000D03*
%TO.P,D2,7,GND*%
%TO.N,GND*%
X93980000Y-58420000D03*
%TO.P,D2,8,Y*%
%TO.N,unconnected-(D2D-Y-Pad8)*%
X93980000Y-50800000D03*
%TO.P,D2,9,A*%
%TO.N,unconnected-(D2D-A-Pad9)*%
X91440000Y-50800000D03*
%TO.P,D2,10,Y*%
%TO.N,/~{RESET}*%
X88900000Y-50800000D03*
%TO.P,D2,11,A*%
%TO.N,/RESET*%
X86360000Y-50800000D03*
%TO.P,D2,12,Y*%
%TO.N,Net-(D2F-Y)*%
X83820000Y-50800000D03*
%TO.P,D2,13,A*%
%TO.N,/HLD*%
X81280000Y-50800000D03*
%TO.P,D2,14,VCC*%
%TO.N,+5V*%
X78740000Y-50800000D03*
%TD*%
D17*
%TO.P,C3,1*%
%TO.N,+5V*%
X50800000Y-69045000D03*
%TO.P,C3,2*%
%TO.N,GND*%
X50800000Y-71120000D03*
%TD*%
D18*
%TO.P,C1,1*%
%TO.N,GND*%
X73660000Y-52875000D03*
%TO.P,C1,2*%
%TO.N,+5V*%
X73660000Y-50800000D03*
%TD*%
D17*
%TO.P,C4,1*%
%TO.N,+5V*%
X77702500Y-71585000D03*
%TO.P,C4,2*%
%TO.N,GND*%
X77702500Y-73660000D03*
%TD*%
%TO.P,C2,1*%
%TO.N,+5V*%
X76200000Y-55962500D03*
%TO.P,C2,2*%
%TO.N,GND*%
X76200000Y-58037500D03*
%TD*%
D19*
%TO.N,+5V*%
X81280000Y-55880000D03*
%TO.N,Net-(D1B-B)*%
X66040000Y-52705000D03*
%TO.N,Net-(D1A-A)*%
X66675000Y-69850000D03*
%TO.N,/D1*%
X72390000Y-49530000D03*
%TO.N,/RESET*%
X74295000Y-43180000D03*
%TO.N,/A15*%
X87630000Y-67945000D03*
%TO.N,/A8*%
X72390000Y-62230000D03*
X69850000Y-62230000D03*
X80010000Y-62097000D03*
%TO.N,/D0*%
X66040000Y-44450000D03*
%TO.N,/_HLDA*%
X58420000Y-68580000D03*
%TO.N,/D2*%
X74295000Y-44450000D03*
%TO.N,/A7*%
X84455000Y-67310000D03*
%TO.N,/A6*%
X83185000Y-68580000D03*
X80645000Y-69215000D03*
X78740000Y-66040000D03*
X79375000Y-66675000D03*
X88900000Y-67945000D03*
%TO.N,/A2*%
X65405000Y-71120000D03*
%TO.N,/A5*%
X85090000Y-62230000D03*
X84455000Y-59690000D03*
X82550000Y-59055000D03*
X77470000Y-59055000D03*
X76200000Y-60960000D03*
%TO.N,/A0*%
X62230000Y-65405000D03*
X69850000Y-65405000D03*
%TO.N,/_A8*%
X68580000Y-67945000D03*
X92710000Y-69850000D03*
%TO.N,Net-(D1A-B)*%
X71120000Y-59690000D03*
%TO.N,Net-(D2F-Y)*%
X71755000Y-54610000D03*
%TO.N,Net-(D2A-Y)*%
X70485000Y-52705000D03*
%TO.N,Net-(D2C-A)*%
X85090000Y-66675000D03*
X85725000Y-64770000D03*
X61595000Y-68580000D03*
%TO.N,/RED*%
X54846741Y-46857152D03*
X69850000Y-53340000D03*
%TD*%
D20*
%TO.N,+5V*%
X70412894Y-53975000D02*
X66888529Y-53975000D01*
X49599000Y-57081000D02*
X49599000Y-63997471D01*
X76200000Y-55962500D02*
X81197500Y-55962500D01*
X51641529Y-66040000D02*
X53340000Y-66040000D01*
X79123529Y-71585000D02*
X81280000Y-69428529D01*
X50800000Y-45720000D02*
X52139000Y-47059000D01*
X73660000Y-50800000D02*
X73660000Y-48260000D01*
X81197500Y-55962500D02*
X81280000Y-55880000D01*
X71755000Y-40640000D02*
X66340000Y-40640000D01*
X77702500Y-71585000D02*
X79123529Y-71585000D01*
X59655000Y-54575000D02*
X55880000Y-50800000D01*
X73660000Y-50800000D02*
X70985000Y-53475000D01*
X76200000Y-55962500D02*
X76200000Y-53340000D01*
X66288529Y-54575000D02*
X59655000Y-54575000D01*
X55880000Y-50800000D02*
X49599000Y-57081000D01*
X66888529Y-53975000D02*
X66288529Y-54575000D01*
X50800000Y-68580000D02*
X50800000Y-69045000D01*
X76200000Y-53340000D02*
X78740000Y-50800000D01*
X52139000Y-47059000D02*
X52139000Y-49461000D01*
X52139000Y-49461000D02*
X53478000Y-50800000D01*
X70985000Y-53475000D02*
X70912894Y-53475000D01*
X73660000Y-50800000D02*
X78740000Y-50800000D01*
X49599000Y-63997471D02*
X51641529Y-66040000D01*
X81280000Y-69428529D02*
X81280000Y-66040000D01*
X53478000Y-50800000D02*
X55880000Y-50800000D01*
X70912894Y-53475000D02*
X70412894Y-53975000D01*
X53340000Y-66040000D02*
X50800000Y-68580000D01*
D21*
%TO.N,Net-(D1B-B)*%
X66040000Y-52705000D02*
X66040000Y-50800000D01*
%TO.N,Net-(D1A-A)*%
X57150000Y-69850000D02*
X53340000Y-73660000D01*
X66675000Y-69850000D02*
X57150000Y-69850000D01*
X53340000Y-73660000D02*
X54879000Y-72121000D01*
X54879000Y-72121000D02*
X54879000Y-59421000D01*
X54879000Y-59421000D02*
X55880000Y-58420000D01*
%TO.N,/A13*%
X98059000Y-61083372D02*
X98059000Y-65039000D01*
X96934628Y-59959000D02*
X98059000Y-61083372D01*
X94981000Y-59959000D02*
X96934628Y-59959000D01*
X98059000Y-65039000D02*
X99060000Y-66040000D01*
X93980000Y-60960000D02*
X94981000Y-59959000D01*
%TO.N,/D1*%
X64770000Y-49530000D02*
X72390000Y-49530000D01*
X63500000Y-48260000D02*
X64770000Y-49530000D01*
D20*
%TO.N,GND*%
X68580000Y-71120000D02*
X66253529Y-71120000D01*
X88402529Y-57219000D02*
X91937471Y-57219000D01*
X82201734Y-57219000D02*
X84450480Y-57219000D01*
X62161000Y-73515471D02*
X62161000Y-74157471D01*
X81901734Y-56919000D02*
X82201734Y-57219000D01*
X79928500Y-75161000D02*
X89521735Y-75161000D01*
X70450000Y-61981471D02*
X69850000Y-61381471D01*
X75817500Y-58420000D02*
X76200000Y-58037500D01*
X85159000Y-57927520D02*
X85159000Y-58917471D01*
X95181000Y-57219000D02*
X95181000Y-47059000D01*
X85862529Y-59621000D02*
X86995471Y-59621000D01*
X76582500Y-58420000D02*
X77239000Y-58420000D01*
X66253529Y-71120000D02*
X65653529Y-70520000D01*
X84450480Y-57219000D02*
X85159000Y-57927520D01*
X77239000Y-58420000D02*
X77239000Y-57469156D01*
X97859000Y-74861000D02*
X99060000Y-73660000D01*
X62299000Y-73162529D02*
X62299000Y-73377471D01*
X60111471Y-75565000D02*
X53217420Y-75565000D01*
X69850000Y-64770000D02*
X71120000Y-63500000D01*
X92641000Y-58420000D02*
X93980000Y-58420000D01*
X76200000Y-58037500D02*
X76582500Y-58420000D01*
X91937471Y-57219000D02*
X92641000Y-57922529D01*
X95181000Y-47059000D02*
X96520000Y-45720000D01*
X67310000Y-65611529D02*
X68151529Y-64770000D01*
X77789156Y-56919000D02*
X81901734Y-56919000D01*
X87699000Y-58917471D02*
X87699000Y-57922529D01*
X65156471Y-70520000D02*
X63217471Y-72459000D01*
X71120000Y-58420000D02*
X73660000Y-58420000D01*
X73660000Y-58420000D02*
X75817500Y-58420000D01*
X70450000Y-62830000D02*
X70450000Y-61981471D01*
X77702500Y-73660000D02*
X78427500Y-73660000D01*
X68580000Y-71120000D02*
X68580000Y-69215000D01*
X67310000Y-67945000D02*
X67310000Y-65611529D01*
X85159000Y-58917471D02*
X85862529Y-59621000D01*
X62299000Y-73377471D02*
X62161000Y-73515471D01*
X60815471Y-74861000D02*
X60111471Y-75565000D01*
X63217471Y-72459000D02*
X63002529Y-72459000D01*
X61457471Y-74861000D02*
X60815471Y-74861000D01*
X63002529Y-72459000D02*
X62299000Y-73162529D01*
X69850000Y-61381471D02*
X69850000Y-59690000D01*
X73660000Y-58420000D02*
X73660000Y-52875000D01*
X93980000Y-58420000D02*
X95181000Y-57219000D01*
X69850000Y-59690000D02*
X71120000Y-58420000D01*
X87699000Y-57922529D02*
X88402529Y-57219000D01*
X77239000Y-57469156D02*
X77789156Y-56919000D01*
X68151529Y-64770000D02*
X69850000Y-64770000D01*
X65653529Y-70520000D02*
X65156471Y-70520000D01*
X92641000Y-57922529D02*
X92641000Y-58420000D01*
X53217420Y-75565000D02*
X50800000Y-73147580D01*
X89521735Y-75161000D02*
X89821734Y-74861000D01*
X62161000Y-74157471D02*
X61457471Y-74861000D01*
X89821734Y-74861000D02*
X97859000Y-74861000D01*
X86995471Y-59621000D02*
X87699000Y-58917471D01*
X71120000Y-63500000D02*
X70450000Y-62830000D01*
X78427500Y-73660000D02*
X79928500Y-75161000D01*
X68580000Y-69215000D02*
X67310000Y-67945000D01*
X71120000Y-73660000D02*
X77702500Y-73660000D01*
X68580000Y-71120000D02*
X71120000Y-73660000D01*
X50800000Y-73147580D02*
X50800000Y-71120000D01*
D21*
%TO.N,/RESET*%
X83674372Y-49530000D02*
X85090000Y-49530000D01*
X74295000Y-43180000D02*
X80155628Y-43180000D01*
X82329628Y-45354000D02*
X82329628Y-48185256D01*
X82329628Y-48185256D02*
X83674372Y-49530000D01*
X85090000Y-49530000D02*
X86360000Y-50800000D01*
X80155628Y-43180000D02*
X82329628Y-45354000D01*
%TO.N,/A15*%
X89300000Y-69380685D02*
X88900000Y-69780685D01*
X89300000Y-69049315D02*
X89300000Y-69380685D01*
X88900000Y-69780685D02*
X88900000Y-73660000D01*
X87630000Y-67945000D02*
X88500000Y-68815000D01*
X88500000Y-68815000D02*
X89065685Y-68815000D01*
X89065685Y-68815000D02*
X89300000Y-69049315D01*
%TO.N,/A8*%
X65894372Y-62230000D02*
X64770000Y-63354372D01*
X80010000Y-62097000D02*
X72523000Y-62097000D01*
X64770000Y-63354372D02*
X64770000Y-64770000D01*
X64770000Y-64770000D02*
X63500000Y-66040000D01*
X69850000Y-62230000D02*
X65894372Y-62230000D01*
X72523000Y-62097000D02*
X72390000Y-62230000D01*
%TO.N,/~{WR}*%
X59421000Y-47845372D02*
X59421000Y-49261000D01*
X58834628Y-47259000D02*
X59421000Y-47845372D01*
X59421000Y-49261000D02*
X60960000Y-50800000D01*
X57419000Y-47259000D02*
X58834628Y-47259000D01*
X55880000Y-45720000D02*
X57419000Y-47259000D01*
%TO.N,/D0*%
X73025000Y-42545000D02*
X67945000Y-42545000D01*
X76200000Y-45720000D02*
X73025000Y-42545000D01*
X67945000Y-42545000D02*
X66040000Y-44450000D01*
%TO.N,/_HLDA*%
X84619999Y-64532894D02*
X84619999Y-65240001D01*
X88061108Y-62499000D02*
X85945372Y-62499000D01*
X88361108Y-62199000D02*
X88061108Y-62499000D01*
X58420000Y-68580000D02*
X55880000Y-66040000D01*
X85945372Y-62499000D02*
X84821000Y-63623372D01*
X89614628Y-62199000D02*
X88361108Y-62199000D01*
X89901000Y-61912628D02*
X89614628Y-62199000D01*
X84821000Y-63623372D02*
X84821000Y-64331893D01*
X84821000Y-64331893D02*
X84619999Y-64532894D01*
X84619999Y-65240001D02*
X83820000Y-66040000D01*
X91440000Y-58420000D02*
X89901000Y-59959000D01*
X89901000Y-59959000D02*
X89901000Y-61912628D01*
%TO.N,/D2*%
X80279000Y-46721000D02*
X81280000Y-45720000D01*
X75199000Y-46134628D02*
X75785372Y-46721000D01*
X74295000Y-44450000D02*
X75199000Y-45354000D01*
X75785372Y-46721000D02*
X80279000Y-46721000D01*
X75199000Y-45354000D02*
X75199000Y-46134628D01*
%TO.N,/A7*%
X87361000Y-65625372D02*
X88485372Y-64501000D01*
X90439000Y-64501000D02*
X91440000Y-63500000D01*
X84234628Y-67041000D02*
X84748893Y-67041000D01*
X82819000Y-63914628D02*
X82819000Y-62499000D01*
X84234628Y-67089628D02*
X84455000Y-67310000D01*
X85431107Y-67041000D02*
X86774628Y-67041000D01*
X84882893Y-67175000D02*
X85297107Y-67175000D01*
X82950000Y-64045628D02*
X82819000Y-63914628D01*
X84234628Y-67041000D02*
X83093736Y-67041000D01*
X84234628Y-67041000D02*
X84234628Y-67089628D01*
X88485372Y-64501000D02*
X90439000Y-64501000D01*
X85297107Y-67175000D02*
X85431107Y-67041000D01*
X84748893Y-67041000D02*
X84882893Y-67175000D01*
X86774628Y-67041000D02*
X87361000Y-66454628D01*
X87361000Y-66454628D02*
X87361000Y-65625372D01*
X83093736Y-67041000D02*
X82755401Y-66702665D01*
X82755401Y-66702665D02*
X82755401Y-65270000D01*
X82819000Y-62499000D02*
X81280000Y-60960000D01*
X82755401Y-65270000D02*
X82950000Y-65075401D01*
X82950000Y-65075401D02*
X82950000Y-64045628D01*
%TO.N,/A3*%
X71919999Y-62467106D02*
X72082893Y-62630000D01*
X73114372Y-62630000D02*
X73245372Y-62499000D01*
X71919999Y-61759999D02*
X71919999Y-62467106D01*
X72082893Y-62630000D02*
X73114372Y-62630000D01*
X71120000Y-60960000D02*
X71919999Y-61759999D01*
X73245372Y-62499000D02*
X80279000Y-62499000D01*
X80279000Y-62499000D02*
X81280000Y-63500000D01*
%TO.N,/A10*%
X70581000Y-75661000D02*
X68580000Y-73660000D01*
X100965000Y-73312050D02*
X98915050Y-75362000D01*
X99060000Y-45720000D02*
X100965000Y-47625000D01*
X89728842Y-75661000D02*
X70581000Y-75661000D01*
X100965000Y-47625000D02*
X100965000Y-73312050D01*
X98915050Y-75362000D02*
X90027841Y-75362000D01*
X90027841Y-75362000D02*
X89728842Y-75661000D01*
%TO.N,/A6*%
X81694628Y-62499000D02*
X82281000Y-63085372D01*
X83185000Y-68580000D02*
X86427900Y-68580000D01*
X93345000Y-71755000D02*
X93345000Y-69917900D01*
X86427900Y-68580000D02*
X87463900Y-67544000D01*
X82281000Y-63914628D02*
X81694628Y-64501000D01*
X89535000Y-68580000D02*
X88900000Y-67945000D01*
X80645000Y-67945000D02*
X79375000Y-66675000D01*
X91440000Y-73660000D02*
X93345000Y-71755000D01*
X92007100Y-68580000D02*
X89535000Y-68580000D01*
X81339678Y-62499000D02*
X81694628Y-62499000D01*
X87463900Y-67544000D02*
X88499000Y-67544000D01*
X78740000Y-60960000D02*
X79800678Y-60960000D01*
X82281000Y-63085372D02*
X82281000Y-63914628D01*
X80645000Y-67945000D02*
X80645000Y-69215000D01*
X93345000Y-69917900D02*
X92007100Y-68580000D01*
X81694628Y-64501000D02*
X80279000Y-64501000D01*
X79800678Y-60960000D02*
X81339678Y-62499000D01*
X80279000Y-64501000D02*
X78740000Y-66040000D01*
X88499000Y-67544000D02*
X88900000Y-67945000D01*
%TO.N,/A2*%
X65405000Y-71755000D02*
X65405000Y-71120000D01*
X63500000Y-73660000D02*
X65405000Y-71755000D01*
%TO.N,/A14*%
X96520000Y-60960000D02*
X97521000Y-61961000D01*
X97521000Y-61961000D02*
X97521000Y-72659000D01*
X97521000Y-72659000D02*
X96520000Y-73660000D01*
%TO.N,/D4*%
X83820000Y-48260000D02*
X84821000Y-47259000D01*
X84821000Y-47259000D02*
X92441000Y-47259000D01*
X92441000Y-47259000D02*
X93980000Y-45720000D01*
%TO.N,/A4*%
X74661000Y-59959000D02*
X73660000Y-60960000D01*
X83820000Y-63500000D02*
X83820000Y-62913628D01*
X82281000Y-60545372D02*
X81694628Y-59959000D01*
X81694628Y-59959000D02*
X74661000Y-59959000D01*
X83820000Y-62913628D02*
X82281000Y-61374628D01*
X82281000Y-61374628D02*
X82281000Y-60545372D01*
%TO.N,/A5*%
X81694628Y-57419000D02*
X82550000Y-58274372D01*
X85090000Y-60325000D02*
X85090000Y-62230000D01*
X88485372Y-62499000D02*
X91854628Y-62499000D01*
X77739000Y-58786000D02*
X77739000Y-57677676D01*
X77739000Y-57677676D02*
X77997676Y-57419000D01*
X77470000Y-59055000D02*
X77739000Y-58786000D01*
X86360000Y-63500000D02*
X87484372Y-63500000D01*
X92979000Y-65039000D02*
X93980000Y-66040000D01*
X84455000Y-59690000D02*
X85090000Y-60325000D01*
X77997676Y-57419000D02*
X81694628Y-57419000D01*
X87484372Y-63500000D02*
X88485372Y-62499000D01*
X92979000Y-63623372D02*
X92979000Y-65039000D01*
X91854628Y-62499000D02*
X92979000Y-63623372D01*
X82550000Y-58274372D02*
X82550000Y-59055000D01*
%TO.N,/DBIN*%
X74116050Y-47159000D02*
X62061000Y-47159000D01*
X79841000Y-50343950D02*
X78758050Y-49261000D01*
X62061000Y-45405372D02*
X61374628Y-44719000D01*
X75762000Y-49261000D02*
X74761000Y-48260000D01*
X74761000Y-48260000D02*
X74761000Y-47803950D01*
X78758050Y-49261000D02*
X75762000Y-49261000D01*
X59421000Y-44719000D02*
X58420000Y-45720000D01*
X86360000Y-58420000D02*
X79841000Y-51901000D01*
X74761000Y-47803950D02*
X74116050Y-47159000D01*
X79841000Y-51901000D02*
X79841000Y-50343950D01*
X62061000Y-47159000D02*
X62061000Y-45405372D01*
X61374628Y-44719000D02*
X59421000Y-44719000D01*
%TO.N,/A0*%
X73660000Y-63500000D02*
X72390000Y-64770000D01*
X61864000Y-65039000D02*
X59421000Y-65039000D01*
X69923520Y-65405000D02*
X69850000Y-65405000D01*
X72390000Y-64770000D02*
X70558520Y-64770000D01*
X62230000Y-65405000D02*
X61864000Y-65039000D01*
X59421000Y-65039000D02*
X58420000Y-66040000D01*
X70558520Y-64770000D02*
X69923520Y-65405000D01*
%TO.N,/_A8*%
X68580000Y-67945000D02*
X69850000Y-67945000D01*
X89314628Y-74661000D02*
X89901000Y-74074628D01*
X74378500Y-72473500D02*
X87127128Y-72473500D01*
X89901000Y-74074628D02*
X89901000Y-72659000D01*
X88485372Y-74661000D02*
X89314628Y-74661000D01*
X69850000Y-67945000D02*
X74378500Y-72473500D01*
X89901000Y-72659000D02*
X92710000Y-69850000D01*
X87899000Y-74074628D02*
X88485372Y-74661000D01*
X87127128Y-72473500D02*
X87899000Y-73245372D01*
X87899000Y-73245372D02*
X87899000Y-74074628D01*
%TO.N,/_A9*%
X82094628Y-64901000D02*
X82381000Y-65187372D01*
X82381000Y-65187372D02*
X82381000Y-66930264D01*
X85497107Y-67610000D02*
X86832214Y-67610000D01*
X82381000Y-66930264D02*
X83260736Y-67810000D01*
X87401214Y-67041000D02*
X94394628Y-67041000D01*
X71534628Y-67041000D02*
X72670628Y-65905000D01*
X94394628Y-67041000D02*
X94981000Y-66454628D01*
X94981000Y-65039000D02*
X96520000Y-63500000D01*
X78805686Y-66540000D02*
X80444686Y-64901000D01*
X69581000Y-67041000D02*
X71534628Y-67041000D01*
X80444686Y-64901000D02*
X82094628Y-64901000D01*
X77897893Y-65905000D02*
X78532893Y-66540000D01*
X83260736Y-67810000D02*
X85297107Y-67810000D01*
X72670628Y-65905000D02*
X77897893Y-65905000D01*
X94981000Y-66454628D02*
X94981000Y-65039000D01*
X78532893Y-66540000D02*
X78805686Y-66540000D01*
X86832214Y-67610000D02*
X87401214Y-67041000D01*
X85297107Y-67810000D02*
X85497107Y-67610000D01*
X68580000Y-66040000D02*
X69581000Y-67041000D01*
%TO.N,Net-(D1A-B)*%
X50800000Y-63500000D02*
X52339000Y-61961000D01*
X52339000Y-60216262D02*
X55136262Y-57419000D01*
X57419000Y-57419000D02*
X58420000Y-58420000D01*
X52339000Y-61961000D02*
X52339000Y-60216262D01*
X55136262Y-57419000D02*
X57419000Y-57419000D01*
X83820000Y-58420000D02*
X82719000Y-59521000D01*
X62499000Y-59421000D02*
X59421000Y-59421000D01*
X82719000Y-59521000D02*
X71289000Y-59521000D01*
X59421000Y-59421000D02*
X58420000Y-58420000D01*
X71289000Y-59521000D02*
X71120000Y-59690000D01*
X63500000Y-58420000D02*
X62499000Y-59421000D01*
%TO.N,Net-(D2F-Y)*%
X64501000Y-61374628D02*
X64501000Y-60545372D01*
X60960000Y-63500000D02*
X62499000Y-61961000D01*
X69018000Y-59421000D02*
X70019000Y-58420000D01*
X63914628Y-61961000D02*
X64501000Y-61374628D01*
X64501000Y-60545372D02*
X65625372Y-59421000D01*
X65625372Y-59421000D02*
X69018000Y-59421000D01*
X70019000Y-56346000D02*
X71755000Y-54610000D01*
X70019000Y-58420000D02*
X70019000Y-56346000D01*
X62499000Y-61961000D02*
X63914628Y-61961000D01*
%TO.N,Net-(D2A-Y)*%
X60960000Y-48895000D02*
X60960000Y-48260000D01*
X66247107Y-53205000D02*
X65832893Y-53205000D01*
X70485000Y-52705000D02*
X66747107Y-52705000D01*
X62865000Y-52705000D02*
X62230000Y-52070000D01*
X65332893Y-52705000D02*
X62865000Y-52705000D01*
X62230000Y-52070000D02*
X62230000Y-50165000D01*
X65832893Y-53205000D02*
X65332893Y-52705000D01*
X66747107Y-52705000D02*
X66247107Y-53205000D01*
X62230000Y-50165000D02*
X60960000Y-48895000D01*
%TO.N,Net-(D2C-A)*%
X85090000Y-65405000D02*
X85090000Y-66675000D01*
X59544372Y-68580000D02*
X57150000Y-66185628D01*
X57150000Y-64770000D02*
X55880000Y-63500000D01*
X85725000Y-64770000D02*
X85090000Y-65405000D01*
X57150000Y-66185628D02*
X57150000Y-64770000D01*
X61595000Y-68580000D02*
X59544372Y-68580000D01*
%TO.N,/RED*%
X57419000Y-48674628D02*
X58005372Y-49261000D01*
X66371371Y-53505000D02*
X66536371Y-53340000D01*
X54846741Y-46857152D02*
X55892780Y-46857152D01*
X55892780Y-46857152D02*
X57419000Y-48383372D01*
X58005372Y-49261000D02*
X58834628Y-49261000D01*
X59959000Y-50385372D02*
X59959000Y-51214628D01*
X66536371Y-53340000D02*
X69850000Y-53340000D01*
X65543629Y-53340000D02*
X65708629Y-53505000D01*
X57419000Y-48383372D02*
X57419000Y-48674628D01*
X58834628Y-49261000D02*
X59959000Y-50385372D01*
X59959000Y-51214628D02*
X62084372Y-53340000D01*
X62084372Y-53340000D02*
X65543629Y-53340000D01*
X65708629Y-53505000D02*
X66371371Y-53505000D01*
%TO.N,/YELLOW*%
X62499000Y-49799000D02*
X63500000Y-50800000D01*
X58005372Y-46721000D02*
X60960000Y-46721000D01*
X57419000Y-46134628D02*
X58005372Y-46721000D01*
X57419000Y-44719000D02*
X57419000Y-46134628D01*
X62499000Y-48260000D02*
X62499000Y-49799000D01*
X60960000Y-46721000D02*
X62499000Y-48260000D01*
X53340000Y-40640000D02*
X57419000Y-44719000D01*
%TD*%
M02*
