M48
; DRILL file {KiCad 9.0.1} date 2025-04-10T22:20:52+0300
; FORMAT={-:-/ absolute / metric / decimal}
; #@! TF.CreationDate,2025-04-10T22:20:52+03:00
; #@! TF.GenerationSoftware,Kicad,Pcbnew,9.0.1
; #@! TF.FileFunction,Plated,1,2,PTH
FMAT,2
METRIC
; #@! TA.AperFunction,Plated,PTH,ViaDrill
T1C0.100
; #@! TA.AperFunction,Plated,PTH,ComponentDrill
T2C0.800
; #@! TA.AperFunction,Plated,PTH,ComponentDrill
T3C1.000
; #@! TA.AperFunction,Plated,PTH,ComponentDrill
T4C1.200
%
G90
G05
T1
X54.847Y-46.857
X58.42Y-68.58
X61.595Y-68.58
X62.23Y-65.405
X65.405Y-71.12
X66.04Y-44.45
X66.04Y-52.705
X66.675Y-69.85
X68.58Y-67.945
X69.85Y-53.34
X69.85Y-62.23
X69.85Y-65.405
X70.485Y-52.705
X71.12Y-59.69
X71.755Y-54.61
X72.39Y-49.53
X72.39Y-62.23
X74.295Y-43.18
X74.295Y-44.45
X76.2Y-60.96
X77.47Y-59.055
X78.74Y-66.04
X79.375Y-66.675
X80.01Y-62.097
X80.645Y-69.215
X81.28Y-55.88
X82.55Y-59.055
X83.185Y-68.58
X84.455Y-59.69
X84.455Y-67.31
X85.09Y-62.23
X85.09Y-66.675
X85.725Y-64.77
X87.63Y-67.945
X88.9Y-67.945
X92.71Y-69.85
T2
X50.8Y-45.72
X50.8Y-48.26
X50.8Y-60.96
X50.8Y-63.5
X53.34Y-45.72
X53.34Y-48.26
X53.34Y-60.96
X53.34Y-63.5
X53.34Y-66.04
X53.34Y-73.66
X55.88Y-45.72
X55.88Y-48.26
X55.88Y-50.8
X55.88Y-58.42
X55.88Y-60.96
X55.88Y-63.5
X55.88Y-66.04
X55.88Y-73.66
X58.42Y-45.72
X58.42Y-48.26
X58.42Y-50.8
X58.42Y-58.42
X58.42Y-60.96
X58.42Y-63.5
X58.42Y-66.04
X58.42Y-73.66
X60.96Y-45.72
X60.96Y-48.26
X60.96Y-50.8
X60.96Y-58.42
X60.96Y-60.96
X60.96Y-63.5
X60.96Y-66.04
X60.96Y-73.66
X63.5Y-45.72
X63.5Y-48.26
X63.5Y-50.8
X63.5Y-58.42
X63.5Y-60.96
X63.5Y-63.5
X63.5Y-66.04
X63.5Y-73.66
X66.04Y-45.72
X66.04Y-48.26
X66.04Y-50.8
X66.04Y-58.42
X66.04Y-60.96
X66.04Y-63.5
X66.04Y-66.04
X66.04Y-73.66
X68.58Y-45.72
X68.58Y-48.26
X68.58Y-50.8
X68.58Y-58.42
X68.58Y-60.96
X68.58Y-63.5
X68.58Y-66.04
X68.58Y-73.66
X71.12Y-45.72
X71.12Y-48.26
X71.12Y-50.8
X71.12Y-58.42
X71.12Y-60.96
X71.12Y-63.5
X71.12Y-66.04
X71.12Y-73.66
X73.66Y-45.72
X73.66Y-48.26
X73.66Y-60.96
X73.66Y-63.5
X76.2Y-45.72
X76.2Y-48.26
X76.2Y-60.96
X76.2Y-63.5
X78.74Y-45.72
X78.74Y-48.26
X78.74Y-50.8
X78.74Y-58.42
X78.74Y-60.96
X78.74Y-63.5
X81.28Y-45.72
X81.28Y-48.26
X81.28Y-50.8
X81.28Y-58.42
X81.28Y-60.96
X81.28Y-63.5
X81.28Y-66.04
X81.28Y-73.66
X83.82Y-45.72
X83.82Y-48.26
X83.82Y-50.8
X83.82Y-58.42
X83.82Y-60.96
X83.82Y-63.5
X83.82Y-66.04
X83.82Y-73.66
X86.36Y-45.72
X86.36Y-48.26
X86.36Y-50.8
X86.36Y-58.42
X86.36Y-60.96
X86.36Y-63.5
X86.36Y-66.04
X86.36Y-73.66
X88.9Y-45.72
X88.9Y-48.26
X88.9Y-50.8
X88.9Y-58.42
X88.9Y-60.96
X88.9Y-63.5
X88.9Y-66.04
X88.9Y-73.66
X91.44Y-45.72
X91.44Y-48.26
X91.44Y-50.8
X91.44Y-58.42
X91.44Y-60.96
X91.44Y-63.5
X91.44Y-66.04
X91.44Y-73.66
X93.98Y-45.72
X93.98Y-48.26
X93.98Y-50.8
X93.98Y-58.42
X93.98Y-60.96
X93.98Y-63.5
X93.98Y-66.04
X93.98Y-73.66
X96.52Y-45.72
X96.52Y-48.26
X96.52Y-60.96
X96.52Y-63.5
X96.52Y-66.04
X96.52Y-73.66
X99.06Y-45.72
X99.06Y-48.26
X99.06Y-60.96
X99.06Y-63.5
X99.06Y-66.04
X99.06Y-73.66
T3
X50.8Y-40.64
X53.34Y-40.64
X55.88Y-40.64
T4
X61.26Y-40.64
X66.34Y-40.64
X71.755Y-40.64
X76.835Y-40.64
X81.915Y-40.64
X86.995Y-40.64
X92.075Y-40.64
X97.155Y-40.64
M30
